%TF.GenerationSoftware,KiCad,Pcbnew,8.0.6*%
%TF.CreationDate,2024-11-20T00:12:52+00:00*%
%TF.ProjectId,Chirstmas-Card,43686972-7374-46d6-9173-2d436172642e,rev?*%
%TF.SameCoordinates,Original*%
%TF.FileFunction,Profile,NP*%
%FSLAX46Y46*%
G04 Gerber Fmt 4.6, Leading zero omitted, Abs format (unit mm)*
G04 Created by KiCad (PCBNEW 8.0.6) date 2024-11-20 00:12:52*
%MOMM*%
%LPD*%
G01*
G04 APERTURE LIST*
%TA.AperFunction,Profile*%
%ADD10C,0.050000*%
%TD*%
%TA.AperFunction,Profile*%
%ADD11C,1.050000*%
%TD*%
G04 APERTURE END LIST*
D10*
X42000000Y-178000000D02*
G75*
G02*
X40000000Y-176000000I0J2000000D01*
G01*
X42000000Y-30000000D02*
X144000000Y-30000000D01*
X40000000Y-176000000D02*
X40000000Y-32000000D01*
X144000000Y-178000000D02*
X42000000Y-178000000D01*
X146000000Y-176000000D02*
G75*
G02*
X144000000Y-178000000I-2000000J0D01*
G01*
X144000000Y-30000000D02*
G75*
G02*
X146000000Y-32000000I0J-2000000D01*
G01*
X146000000Y-32000000D02*
X146000000Y-176000000D01*
X40000000Y-32000000D02*
G75*
G02*
X42000000Y-30000000I2000000J0D01*
G01*
%TO.C,D43*%
D11*
X109525000Y-86000000D02*
G75*
G02*
X108475000Y-86000000I-525000J0D01*
G01*
X108475000Y-86000000D02*
G75*
G02*
X109525000Y-86000000I525000J0D01*
G01*
%TO.C,D48*%
X124525000Y-86062499D02*
G75*
G02*
X123475000Y-86062499I-525000J0D01*
G01*
X123475000Y-86062499D02*
G75*
G02*
X124525000Y-86062499I525000J0D01*
G01*
%TO.C,D59*%
X109525000Y-96000000D02*
G75*
G02*
X108475000Y-96000000I-525000J0D01*
G01*
X108475000Y-96000000D02*
G75*
G02*
X109525000Y-96000000I525000J0D01*
G01*
%TO.C,D44*%
X104525000Y-86062499D02*
G75*
G02*
X103475000Y-86062499I-525000J0D01*
G01*
X103475000Y-86062499D02*
G75*
G02*
X104525000Y-86062499I525000J0D01*
G01*
%TO.C,D52*%
X104525000Y-91062499D02*
G75*
G02*
X103475000Y-91062499I-525000J0D01*
G01*
X103475000Y-91062499D02*
G75*
G02*
X104525000Y-91062499I525000J0D01*
G01*
%TO.C,D3*%
X109525000Y-61000000D02*
G75*
G02*
X108475000Y-61000000I-525000J0D01*
G01*
X108475000Y-61000000D02*
G75*
G02*
X109525000Y-61000000I525000J0D01*
G01*
%TO.C,D49*%
X119525000Y-91000000D02*
G75*
G02*
X118475000Y-91000000I-525000J0D01*
G01*
X118475000Y-91000000D02*
G75*
G02*
X119525000Y-91000000I525000J0D01*
G01*
%TO.C,D23*%
X129525000Y-71000000D02*
G75*
G02*
X128475000Y-71000000I-525000J0D01*
G01*
X128475000Y-71000000D02*
G75*
G02*
X129525000Y-71000000I525000J0D01*
G01*
%TO.C,D5*%
X99525000Y-61000000D02*
G75*
G02*
X98475000Y-61000000I-525000J0D01*
G01*
X98475000Y-61000000D02*
G75*
G02*
X99525000Y-61000000I525000J0D01*
G01*
%TO.C,D50*%
X114525000Y-91000000D02*
G75*
G02*
X113475000Y-91000000I-525000J0D01*
G01*
X113475000Y-91000000D02*
G75*
G02*
X114525000Y-91000000I525000J0D01*
G01*
%TO.C,D61*%
X99525000Y-96000000D02*
G75*
G02*
X98475000Y-96000000I-525000J0D01*
G01*
X98475000Y-96000000D02*
G75*
G02*
X99525000Y-96000000I525000J0D01*
G01*
%TO.C,D46*%
X94525000Y-86000000D02*
G75*
G02*
X93475000Y-86000000I-525000J0D01*
G01*
X93475000Y-86000000D02*
G75*
G02*
X94525000Y-86000000I525000J0D01*
G01*
%TO.C,D56*%
X124525000Y-91062499D02*
G75*
G02*
X123475000Y-91062499I-525000J0D01*
G01*
X123475000Y-91062499D02*
G75*
G02*
X124525000Y-91062499I525000J0D01*
G01*
%TO.C,D29*%
X99525000Y-76000000D02*
G75*
G02*
X98475000Y-76000000I-525000J0D01*
G01*
X98475000Y-76000000D02*
G75*
G02*
X99525000Y-76000000I525000J0D01*
G01*
%TO.C,D38*%
X94525000Y-81000000D02*
G75*
G02*
X93475000Y-81000000I-525000J0D01*
G01*
X93475000Y-81000000D02*
G75*
G02*
X94525000Y-81000000I525000J0D01*
G01*
%TO.C,D2*%
X114525000Y-61000000D02*
G75*
G02*
X113475000Y-61000000I-525000J0D01*
G01*
X113475000Y-61000000D02*
G75*
G02*
X114525000Y-61000000I525000J0D01*
G01*
%TO.C,D55*%
X129525000Y-91000000D02*
G75*
G02*
X128475000Y-91000000I-525000J0D01*
G01*
X128475000Y-91000000D02*
G75*
G02*
X129525000Y-91000000I525000J0D01*
G01*
%TO.C,D40*%
X124525000Y-81062499D02*
G75*
G02*
X123475000Y-81062499I-525000J0D01*
G01*
X123475000Y-81062499D02*
G75*
G02*
X124525000Y-81062499I525000J0D01*
G01*
%TO.C,D41*%
X119525000Y-86000000D02*
G75*
G02*
X118475000Y-86000000I-525000J0D01*
G01*
X118475000Y-86000000D02*
G75*
G02*
X119525000Y-86000000I525000J0D01*
G01*
%TO.C,D1*%
X119525000Y-61000000D02*
G75*
G02*
X118475000Y-61000000I-525000J0D01*
G01*
X118475000Y-61000000D02*
G75*
G02*
X119525000Y-61000000I525000J0D01*
G01*
%TO.C,D11*%
X109525000Y-66000000D02*
G75*
G02*
X108475000Y-66000000I-525000J0D01*
G01*
X108475000Y-66000000D02*
G75*
G02*
X109525000Y-66000000I525000J0D01*
G01*
%TO.C,D10*%
X114525000Y-66000000D02*
G75*
G02*
X113475000Y-66000000I-525000J0D01*
G01*
X113475000Y-66000000D02*
G75*
G02*
X114525000Y-66000000I525000J0D01*
G01*
%TO.C,D42*%
X114525000Y-86000000D02*
G75*
G02*
X113475000Y-86000000I-525000J0D01*
G01*
X113475000Y-86000000D02*
G75*
G02*
X114525000Y-86000000I525000J0D01*
G01*
%TO.C,D31*%
X129525000Y-76000000D02*
G75*
G02*
X128475000Y-76000000I-525000J0D01*
G01*
X128475000Y-76000000D02*
G75*
G02*
X129525000Y-76000000I525000J0D01*
G01*
%TO.C,D20*%
X104525000Y-71062499D02*
G75*
G02*
X103475000Y-71062499I-525000J0D01*
G01*
X103475000Y-71062499D02*
G75*
G02*
X104525000Y-71062499I525000J0D01*
G01*
%TO.C,D47*%
X129525000Y-86000000D02*
G75*
G02*
X128475000Y-86000000I-525000J0D01*
G01*
X128475000Y-86000000D02*
G75*
G02*
X129525000Y-86000000I525000J0D01*
G01*
%TO.C,D39*%
X129525000Y-81000000D02*
G75*
G02*
X128475000Y-81000000I-525000J0D01*
G01*
X128475000Y-81000000D02*
G75*
G02*
X129525000Y-81000000I525000J0D01*
G01*
%TO.C,D35*%
X109525000Y-81000000D02*
G75*
G02*
X108475000Y-81000000I-525000J0D01*
G01*
X108475000Y-81000000D02*
G75*
G02*
X109525000Y-81000000I525000J0D01*
G01*
%TO.C,D15*%
X129525000Y-66000000D02*
G75*
G02*
X128475000Y-66000000I-525000J0D01*
G01*
X128475000Y-66000000D02*
G75*
G02*
X129525000Y-66000000I525000J0D01*
G01*
%TO.C,D25*%
X119525000Y-76000000D02*
G75*
G02*
X118475000Y-76000000I-525000J0D01*
G01*
X118475000Y-76000000D02*
G75*
G02*
X119525000Y-76000000I525000J0D01*
G01*
%TO.C,D64*%
X124525000Y-96062499D02*
G75*
G02*
X123475000Y-96062499I-525000J0D01*
G01*
X123475000Y-96062499D02*
G75*
G02*
X124525000Y-96062499I525000J0D01*
G01*
%TO.C,D60*%
X104525000Y-96062499D02*
G75*
G02*
X103475000Y-96062499I-525000J0D01*
G01*
X103475000Y-96062499D02*
G75*
G02*
X104525000Y-96062499I525000J0D01*
G01*
%TO.C,D4*%
X104525000Y-61062499D02*
G75*
G02*
X103475000Y-61062499I-525000J0D01*
G01*
X103475000Y-61062499D02*
G75*
G02*
X104525000Y-61062499I525000J0D01*
G01*
%TO.C,D36*%
X104525000Y-81062499D02*
G75*
G02*
X103475000Y-81062499I-525000J0D01*
G01*
X103475000Y-81062499D02*
G75*
G02*
X104525000Y-81062499I525000J0D01*
G01*
%TO.C,D62*%
X94525000Y-96000000D02*
G75*
G02*
X93475000Y-96000000I-525000J0D01*
G01*
X93475000Y-96000000D02*
G75*
G02*
X94525000Y-96000000I525000J0D01*
G01*
%TO.C,D14*%
X94525000Y-66000000D02*
G75*
G02*
X93475000Y-66000000I-525000J0D01*
G01*
X93475000Y-66000000D02*
G75*
G02*
X94525000Y-66000000I525000J0D01*
G01*
%TO.C,D17*%
X119525000Y-71000000D02*
G75*
G02*
X118475000Y-71000000I-525000J0D01*
G01*
X118475000Y-71000000D02*
G75*
G02*
X119525000Y-71000000I525000J0D01*
G01*
%TO.C,D57*%
X119525000Y-96000000D02*
G75*
G02*
X118475000Y-96000000I-525000J0D01*
G01*
X118475000Y-96000000D02*
G75*
G02*
X119525000Y-96000000I525000J0D01*
G01*
%TO.C,D32*%
X124525000Y-76062499D02*
G75*
G02*
X123475000Y-76062499I-525000J0D01*
G01*
X123475000Y-76062499D02*
G75*
G02*
X124525000Y-76062499I525000J0D01*
G01*
%TO.C,D28*%
X104525000Y-76062499D02*
G75*
G02*
X103475000Y-76062499I-525000J0D01*
G01*
X103475000Y-76062499D02*
G75*
G02*
X104525000Y-76062499I525000J0D01*
G01*
%TO.C,D7*%
X129525000Y-61000000D02*
G75*
G02*
X128475000Y-61000000I-525000J0D01*
G01*
X128475000Y-61000000D02*
G75*
G02*
X129525000Y-61000000I525000J0D01*
G01*
%TO.C,D37*%
X99525000Y-81000000D02*
G75*
G02*
X98475000Y-81000000I-525000J0D01*
G01*
X98475000Y-81000000D02*
G75*
G02*
X99525000Y-81000000I525000J0D01*
G01*
%TO.C,D54*%
X94525000Y-91000000D02*
G75*
G02*
X93475000Y-91000000I-525000J0D01*
G01*
X93475000Y-91000000D02*
G75*
G02*
X94525000Y-91000000I525000J0D01*
G01*
%TO.C,D58*%
X114525000Y-96000000D02*
G75*
G02*
X113475000Y-96000000I-525000J0D01*
G01*
X113475000Y-96000000D02*
G75*
G02*
X114525000Y-96000000I525000J0D01*
G01*
%TO.C,D63*%
X129525000Y-96000000D02*
G75*
G02*
X128475000Y-96000000I-525000J0D01*
G01*
X128475000Y-96000000D02*
G75*
G02*
X129525000Y-96000000I525000J0D01*
G01*
%TO.C,D6*%
X94525000Y-61000000D02*
G75*
G02*
X93475000Y-61000000I-525000J0D01*
G01*
X93475000Y-61000000D02*
G75*
G02*
X94525000Y-61000000I525000J0D01*
G01*
%TO.C,D27*%
X109525000Y-76000000D02*
G75*
G02*
X108475000Y-76000000I-525000J0D01*
G01*
X108475000Y-76000000D02*
G75*
G02*
X109525000Y-76000000I525000J0D01*
G01*
%TO.C,D18*%
X114525000Y-71000000D02*
G75*
G02*
X113475000Y-71000000I-525000J0D01*
G01*
X113475000Y-71000000D02*
G75*
G02*
X114525000Y-71000000I525000J0D01*
G01*
%TO.C,D24*%
X124525000Y-71062499D02*
G75*
G02*
X123475000Y-71062499I-525000J0D01*
G01*
X123475000Y-71062499D02*
G75*
G02*
X124525000Y-71062499I525000J0D01*
G01*
%TO.C,D12*%
X104525000Y-66062499D02*
G75*
G02*
X103475000Y-66062499I-525000J0D01*
G01*
X103475000Y-66062499D02*
G75*
G02*
X104525000Y-66062499I525000J0D01*
G01*
%TO.C,D34*%
X114525000Y-81000000D02*
G75*
G02*
X113475000Y-81000000I-525000J0D01*
G01*
X113475000Y-81000000D02*
G75*
G02*
X114525000Y-81000000I525000J0D01*
G01*
%TO.C,D8*%
X124525000Y-61062499D02*
G75*
G02*
X123475000Y-61062499I-525000J0D01*
G01*
X123475000Y-61062499D02*
G75*
G02*
X124525000Y-61062499I525000J0D01*
G01*
%TO.C,D9*%
X119525000Y-66000000D02*
G75*
G02*
X118475000Y-66000000I-525000J0D01*
G01*
X118475000Y-66000000D02*
G75*
G02*
X119525000Y-66000000I525000J0D01*
G01*
%TO.C,D33*%
X119525000Y-81000000D02*
G75*
G02*
X118475000Y-81000000I-525000J0D01*
G01*
X118475000Y-81000000D02*
G75*
G02*
X119525000Y-81000000I525000J0D01*
G01*
%TO.C,D19*%
X109525000Y-71000000D02*
G75*
G02*
X108475000Y-71000000I-525000J0D01*
G01*
X108475000Y-71000000D02*
G75*
G02*
X109525000Y-71000000I525000J0D01*
G01*
%TO.C,D30*%
X94525000Y-76000000D02*
G75*
G02*
X93475000Y-76000000I-525000J0D01*
G01*
X93475000Y-76000000D02*
G75*
G02*
X94525000Y-76000000I525000J0D01*
G01*
%TO.C,D45*%
X99525000Y-86000000D02*
G75*
G02*
X98475000Y-86000000I-525000J0D01*
G01*
X98475000Y-86000000D02*
G75*
G02*
X99525000Y-86000000I525000J0D01*
G01*
%TO.C,D53*%
X99525000Y-91000000D02*
G75*
G02*
X98475000Y-91000000I-525000J0D01*
G01*
X98475000Y-91000000D02*
G75*
G02*
X99525000Y-91000000I525000J0D01*
G01*
%TO.C,D26*%
X114525000Y-76000000D02*
G75*
G02*
X113475000Y-76000000I-525000J0D01*
G01*
X113475000Y-76000000D02*
G75*
G02*
X114525000Y-76000000I525000J0D01*
G01*
%TO.C,D16*%
X124525000Y-66062499D02*
G75*
G02*
X123475000Y-66062499I-525000J0D01*
G01*
X123475000Y-66062499D02*
G75*
G02*
X124525000Y-66062499I525000J0D01*
G01*
%TO.C,D51*%
X109525000Y-91000000D02*
G75*
G02*
X108475000Y-91000000I-525000J0D01*
G01*
X108475000Y-91000000D02*
G75*
G02*
X109525000Y-91000000I525000J0D01*
G01*
%TO.C,D22*%
X94525000Y-71000000D02*
G75*
G02*
X93475000Y-71000000I-525000J0D01*
G01*
X93475000Y-71000000D02*
G75*
G02*
X94525000Y-71000000I525000J0D01*
G01*
%TO.C,D21*%
X99525000Y-71000000D02*
G75*
G02*
X98475000Y-71000000I-525000J0D01*
G01*
X98475000Y-71000000D02*
G75*
G02*
X99525000Y-71000000I525000J0D01*
G01*
%TO.C,D13*%
X99525000Y-66000000D02*
G75*
G02*
X98475000Y-66000000I-525000J0D01*
G01*
X98475000Y-66000000D02*
G75*
G02*
X99525000Y-66000000I525000J0D01*
G01*
%TD*%
M02*
