%TF.GenerationSoftware,KiCad,Pcbnew,9.0.4*%
%TF.CreationDate,2025-09-01T02:23:15+01:00*%
%TF.ProjectId,Chirstmas-Card,43686972-7374-46d6-9173-2d436172642e,rev?*%
%TF.SameCoordinates,Original*%
%TF.FileFunction,Legend,Bot*%
%TF.FilePolarity,Positive*%
%FSLAX46Y46*%
G04 Gerber Fmt 4.6, Leading zero omitted, Abs format (unit mm)*
G04 Created by KiCad (PCBNEW 9.0.4) date 2025-09-01 02:23:15*
%MOMM*%
%LPD*%
G01*
G04 APERTURE LIST*
G04 Aperture macros list*
%AMRoundRect*
0 Rectangle with rounded corners*
0 $1 Rounding radius*
0 $2 $3 $4 $5 $6 $7 $8 $9 X,Y pos of 4 corners*
0 Add a 4 corners polygon primitive as box body*
4,1,4,$2,$3,$4,$5,$6,$7,$8,$9,$2,$3,0*
0 Add four circle primitives for the rounded corners*
1,1,$1+$1,$2,$3*
1,1,$1+$1,$4,$5*
1,1,$1+$1,$6,$7*
1,1,$1+$1,$8,$9*
0 Add four rect primitives between the rounded corners*
20,1,$1+$1,$2,$3,$4,$5,0*
20,1,$1+$1,$4,$5,$6,$7,0*
20,1,$1+$1,$6,$7,$8,$9,0*
20,1,$1+$1,$8,$9,$2,$3,0*%
%AMRotRect*
0 Rectangle, with rotation*
0 The origin of the aperture is its center*
0 $1 length*
0 $2 width*
0 $3 Rotation angle, in degrees counterclockwise*
0 Add horizontal line*
21,1,$1,$2,0,0,$3*%
%AMFreePoly0*
4,1,12,0.707250,0.605397,0.612657,0.415428,0.554581,0.211312,0.535000,0.000000,0.554581,-0.211312,0.612657,-0.415428,0.707250,-0.605397,0.722054,-0.625000,-0.535000,-0.625000,-0.535000,0.625000,0.722054,0.625000,0.707250,0.605397,0.707250,0.605397,$1*%
G04 Aperture macros list end*
%ADD10C,0.500000*%
%ADD11C,0.300000*%
%ADD12C,0.200000*%
%ADD13C,0.254000*%
%ADD14C,0.152000*%
%ADD15C,0.152500*%
%ADD16C,0.000000*%
%ADD17C,0.120000*%
%ADD18FreePoly0,225.000000*%
%ADD19FreePoly0,45.000000*%
%ADD20R,5.000000X1.500000*%
%ADD21R,4.200000X3.800000*%
%ADD22C,1.300000*%
%ADD23RoundRect,0.200000X0.053033X-0.335876X0.335876X-0.053033X-0.053033X0.335876X-0.335876X0.053033X0*%
%ADD24RoundRect,0.075000X-0.075000X0.662500X-0.075000X-0.662500X0.075000X-0.662500X0.075000X0.662500X0*%
%ADD25RoundRect,0.075000X-0.662500X0.075000X-0.662500X-0.075000X0.662500X-0.075000X0.662500X0.075000X0*%
%ADD26RoundRect,0.140000X-0.140000X-0.170000X0.140000X-0.170000X0.140000X0.170000X-0.140000X0.170000X0*%
%ADD27RoundRect,0.200000X-0.335876X-0.053033X-0.053033X-0.335876X0.335876X0.053033X0.053033X0.335876X0*%
%ADD28RoundRect,0.225000X-0.225000X-0.250000X0.225000X-0.250000X0.225000X0.250000X-0.225000X0.250000X0*%
%ADD29C,0.990600*%
%ADD30C,0.787400*%
%ADD31RoundRect,0.140000X0.170000X-0.140000X0.170000X0.140000X-0.170000X0.140000X-0.170000X-0.140000X0*%
%ADD32RotRect,1.000000X1.800000X225.000000*%
%ADD33RoundRect,0.140000X0.219203X0.021213X0.021213X0.219203X-0.219203X-0.021213X-0.021213X-0.219203X0*%
G04 APERTURE END LIST*
D10*
X85000000Y-87000000D02*
X43000000Y-87000000D01*
X143000000Y-147000000D02*
X43000000Y-147000000D01*
X143000000Y-167000000D02*
X43000000Y-167000000D01*
X143000000Y-127000000D02*
X43000000Y-127000000D01*
X143000000Y-117000000D02*
X43000000Y-117000000D01*
X143000000Y-137000000D02*
X43000000Y-137000000D01*
X143000000Y-107000000D02*
X43000000Y-107000000D01*
X85000000Y-97000000D02*
X43000000Y-97000000D01*
X143000000Y-157000000D02*
X43000000Y-157000000D01*
D11*
X133676191Y-51692019D02*
X133390477Y-51787257D01*
X133390477Y-51787257D02*
X133295239Y-51882495D01*
X133295239Y-51882495D02*
X133200001Y-52072971D01*
X133200001Y-52072971D02*
X133200001Y-52358685D01*
X133200001Y-52358685D02*
X133295239Y-52549161D01*
X133295239Y-52549161D02*
X133390477Y-52644400D01*
X133390477Y-52644400D02*
X133580953Y-52739638D01*
X133580953Y-52739638D02*
X134342858Y-52739638D01*
X134342858Y-52739638D02*
X134342858Y-50739638D01*
X134342858Y-50739638D02*
X133676191Y-50739638D01*
X133676191Y-50739638D02*
X133485715Y-50834876D01*
X133485715Y-50834876D02*
X133390477Y-50930114D01*
X133390477Y-50930114D02*
X133295239Y-51120590D01*
X133295239Y-51120590D02*
X133295239Y-51311066D01*
X133295239Y-51311066D02*
X133390477Y-51501542D01*
X133390477Y-51501542D02*
X133485715Y-51596780D01*
X133485715Y-51596780D02*
X133676191Y-51692019D01*
X133676191Y-51692019D02*
X134342858Y-51692019D01*
X131485715Y-52739638D02*
X131485715Y-51692019D01*
X131485715Y-51692019D02*
X131580953Y-51501542D01*
X131580953Y-51501542D02*
X131771429Y-51406304D01*
X131771429Y-51406304D02*
X132152382Y-51406304D01*
X132152382Y-51406304D02*
X132342858Y-51501542D01*
X131485715Y-52644400D02*
X131676191Y-52739638D01*
X131676191Y-52739638D02*
X132152382Y-52739638D01*
X132152382Y-52739638D02*
X132342858Y-52644400D01*
X132342858Y-52644400D02*
X132438096Y-52453923D01*
X132438096Y-52453923D02*
X132438096Y-52263447D01*
X132438096Y-52263447D02*
X132342858Y-52072971D01*
X132342858Y-52072971D02*
X132152382Y-51977733D01*
X132152382Y-51977733D02*
X131676191Y-51977733D01*
X131676191Y-51977733D02*
X131485715Y-51882495D01*
X130819048Y-51406304D02*
X130057144Y-51406304D01*
X130533334Y-50739638D02*
X130533334Y-52453923D01*
X130533334Y-52453923D02*
X130438096Y-52644400D01*
X130438096Y-52644400D02*
X130247620Y-52739638D01*
X130247620Y-52739638D02*
X130057144Y-52739638D01*
X129676191Y-51406304D02*
X128914287Y-51406304D01*
X129390477Y-50739638D02*
X129390477Y-52453923D01*
X129390477Y-52453923D02*
X129295239Y-52644400D01*
X129295239Y-52644400D02*
X129104763Y-52739638D01*
X129104763Y-52739638D02*
X128914287Y-52739638D01*
X127485715Y-52644400D02*
X127676191Y-52739638D01*
X127676191Y-52739638D02*
X128057144Y-52739638D01*
X128057144Y-52739638D02*
X128247620Y-52644400D01*
X128247620Y-52644400D02*
X128342858Y-52453923D01*
X128342858Y-52453923D02*
X128342858Y-51692019D01*
X128342858Y-51692019D02*
X128247620Y-51501542D01*
X128247620Y-51501542D02*
X128057144Y-51406304D01*
X128057144Y-51406304D02*
X127676191Y-51406304D01*
X127676191Y-51406304D02*
X127485715Y-51501542D01*
X127485715Y-51501542D02*
X127390477Y-51692019D01*
X127390477Y-51692019D02*
X127390477Y-51882495D01*
X127390477Y-51882495D02*
X128342858Y-52072971D01*
X126533334Y-52739638D02*
X126533334Y-51406304D01*
X126533334Y-51787257D02*
X126438096Y-51596780D01*
X126438096Y-51596780D02*
X126342858Y-51501542D01*
X126342858Y-51501542D02*
X126152382Y-51406304D01*
X126152382Y-51406304D02*
X125961905Y-51406304D01*
X125485715Y-51406304D02*
X125009525Y-52739638D01*
X124533334Y-51406304D02*
X125009525Y-52739638D01*
X125009525Y-52739638D02*
X125200001Y-53215828D01*
X125200001Y-53215828D02*
X125295239Y-53311066D01*
X125295239Y-53311066D02*
X125485715Y-53406304D01*
X122247619Y-52739638D02*
X122247619Y-51406304D01*
X122247619Y-51596780D02*
X122152381Y-51501542D01*
X122152381Y-51501542D02*
X121961905Y-51406304D01*
X121961905Y-51406304D02*
X121676190Y-51406304D01*
X121676190Y-51406304D02*
X121485714Y-51501542D01*
X121485714Y-51501542D02*
X121390476Y-51692019D01*
X121390476Y-51692019D02*
X121390476Y-52739638D01*
X121390476Y-51692019D02*
X121295238Y-51501542D01*
X121295238Y-51501542D02*
X121104762Y-51406304D01*
X121104762Y-51406304D02*
X120819048Y-51406304D01*
X120819048Y-51406304D02*
X120628571Y-51501542D01*
X120628571Y-51501542D02*
X120533333Y-51692019D01*
X120533333Y-51692019D02*
X120533333Y-52739638D01*
X119295238Y-52739638D02*
X119485714Y-52644400D01*
X119485714Y-52644400D02*
X119580952Y-52549161D01*
X119580952Y-52549161D02*
X119676190Y-52358685D01*
X119676190Y-52358685D02*
X119676190Y-51787257D01*
X119676190Y-51787257D02*
X119580952Y-51596780D01*
X119580952Y-51596780D02*
X119485714Y-51501542D01*
X119485714Y-51501542D02*
X119295238Y-51406304D01*
X119295238Y-51406304D02*
X119009523Y-51406304D01*
X119009523Y-51406304D02*
X118819047Y-51501542D01*
X118819047Y-51501542D02*
X118723809Y-51596780D01*
X118723809Y-51596780D02*
X118628571Y-51787257D01*
X118628571Y-51787257D02*
X118628571Y-52358685D01*
X118628571Y-52358685D02*
X118723809Y-52549161D01*
X118723809Y-52549161D02*
X118819047Y-52644400D01*
X118819047Y-52644400D02*
X119009523Y-52739638D01*
X119009523Y-52739638D02*
X119295238Y-52739638D01*
X116914285Y-52739638D02*
X116914285Y-50739638D01*
X116914285Y-52644400D02*
X117104761Y-52739638D01*
X117104761Y-52739638D02*
X117485714Y-52739638D01*
X117485714Y-52739638D02*
X117676190Y-52644400D01*
X117676190Y-52644400D02*
X117771428Y-52549161D01*
X117771428Y-52549161D02*
X117866666Y-52358685D01*
X117866666Y-52358685D02*
X117866666Y-51787257D01*
X117866666Y-51787257D02*
X117771428Y-51596780D01*
X117771428Y-51596780D02*
X117676190Y-51501542D01*
X117676190Y-51501542D02*
X117485714Y-51406304D01*
X117485714Y-51406304D02*
X117104761Y-51406304D01*
X117104761Y-51406304D02*
X116914285Y-51501542D01*
X115199999Y-52644400D02*
X115390475Y-52739638D01*
X115390475Y-52739638D02*
X115771428Y-52739638D01*
X115771428Y-52739638D02*
X115961904Y-52644400D01*
X115961904Y-52644400D02*
X116057142Y-52453923D01*
X116057142Y-52453923D02*
X116057142Y-51692019D01*
X116057142Y-51692019D02*
X115961904Y-51501542D01*
X115961904Y-51501542D02*
X115771428Y-51406304D01*
X115771428Y-51406304D02*
X115390475Y-51406304D01*
X115390475Y-51406304D02*
X115199999Y-51501542D01*
X115199999Y-51501542D02*
X115104761Y-51692019D01*
X115104761Y-51692019D02*
X115104761Y-51882495D01*
X115104761Y-51882495D02*
X116057142Y-52072971D01*
X113961904Y-52739638D02*
X114152380Y-52644400D01*
X114152380Y-52644400D02*
X114247618Y-52453923D01*
X114247618Y-52453923D02*
X114247618Y-50739638D01*
X113199999Y-52549161D02*
X113104761Y-52644400D01*
X113104761Y-52644400D02*
X113199999Y-52739638D01*
X113199999Y-52739638D02*
X113295237Y-52644400D01*
X113295237Y-52644400D02*
X113199999Y-52549161D01*
X113199999Y-52549161D02*
X113199999Y-52739638D01*
X113199999Y-51501542D02*
X113104761Y-51596780D01*
X113104761Y-51596780D02*
X113199999Y-51692019D01*
X113199999Y-51692019D02*
X113295237Y-51596780D01*
X113295237Y-51596780D02*
X113199999Y-51501542D01*
X113199999Y-51501542D02*
X113199999Y-51692019D01*
X109580951Y-52549161D02*
X109676189Y-52644400D01*
X109676189Y-52644400D02*
X109961903Y-52739638D01*
X109961903Y-52739638D02*
X110152379Y-52739638D01*
X110152379Y-52739638D02*
X110438094Y-52644400D01*
X110438094Y-52644400D02*
X110628570Y-52453923D01*
X110628570Y-52453923D02*
X110723808Y-52263447D01*
X110723808Y-52263447D02*
X110819046Y-51882495D01*
X110819046Y-51882495D02*
X110819046Y-51596780D01*
X110819046Y-51596780D02*
X110723808Y-51215828D01*
X110723808Y-51215828D02*
X110628570Y-51025352D01*
X110628570Y-51025352D02*
X110438094Y-50834876D01*
X110438094Y-50834876D02*
X110152379Y-50739638D01*
X110152379Y-50739638D02*
X109961903Y-50739638D01*
X109961903Y-50739638D02*
X109676189Y-50834876D01*
X109676189Y-50834876D02*
X109580951Y-50930114D01*
X107580951Y-52739638D02*
X108247618Y-51787257D01*
X108723808Y-52739638D02*
X108723808Y-50739638D01*
X108723808Y-50739638D02*
X107961903Y-50739638D01*
X107961903Y-50739638D02*
X107771427Y-50834876D01*
X107771427Y-50834876D02*
X107676189Y-50930114D01*
X107676189Y-50930114D02*
X107580951Y-51120590D01*
X107580951Y-51120590D02*
X107580951Y-51406304D01*
X107580951Y-51406304D02*
X107676189Y-51596780D01*
X107676189Y-51596780D02*
X107771427Y-51692019D01*
X107771427Y-51692019D02*
X107961903Y-51787257D01*
X107961903Y-51787257D02*
X108723808Y-51787257D01*
X106819046Y-50930114D02*
X106723808Y-50834876D01*
X106723808Y-50834876D02*
X106533332Y-50739638D01*
X106533332Y-50739638D02*
X106057141Y-50739638D01*
X106057141Y-50739638D02*
X105866665Y-50834876D01*
X105866665Y-50834876D02*
X105771427Y-50930114D01*
X105771427Y-50930114D02*
X105676189Y-51120590D01*
X105676189Y-51120590D02*
X105676189Y-51311066D01*
X105676189Y-51311066D02*
X105771427Y-51596780D01*
X105771427Y-51596780D02*
X106914284Y-52739638D01*
X106914284Y-52739638D02*
X105676189Y-52739638D01*
X104438094Y-50739638D02*
X104247617Y-50739638D01*
X104247617Y-50739638D02*
X104057141Y-50834876D01*
X104057141Y-50834876D02*
X103961903Y-50930114D01*
X103961903Y-50930114D02*
X103866665Y-51120590D01*
X103866665Y-51120590D02*
X103771427Y-51501542D01*
X103771427Y-51501542D02*
X103771427Y-51977733D01*
X103771427Y-51977733D02*
X103866665Y-52358685D01*
X103866665Y-52358685D02*
X103961903Y-52549161D01*
X103961903Y-52549161D02*
X104057141Y-52644400D01*
X104057141Y-52644400D02*
X104247617Y-52739638D01*
X104247617Y-52739638D02*
X104438094Y-52739638D01*
X104438094Y-52739638D02*
X104628570Y-52644400D01*
X104628570Y-52644400D02*
X104723808Y-52549161D01*
X104723808Y-52549161D02*
X104819046Y-52358685D01*
X104819046Y-52358685D02*
X104914284Y-51977733D01*
X104914284Y-51977733D02*
X104914284Y-51501542D01*
X104914284Y-51501542D02*
X104819046Y-51120590D01*
X104819046Y-51120590D02*
X104723808Y-50930114D01*
X104723808Y-50930114D02*
X104628570Y-50834876D01*
X104628570Y-50834876D02*
X104438094Y-50739638D01*
X103104760Y-50739638D02*
X101866665Y-50739638D01*
X101866665Y-50739638D02*
X102533332Y-51501542D01*
X102533332Y-51501542D02*
X102247617Y-51501542D01*
X102247617Y-51501542D02*
X102057141Y-51596780D01*
X102057141Y-51596780D02*
X101961903Y-51692019D01*
X101961903Y-51692019D02*
X101866665Y-51882495D01*
X101866665Y-51882495D02*
X101866665Y-52358685D01*
X101866665Y-52358685D02*
X101961903Y-52549161D01*
X101961903Y-52549161D02*
X102057141Y-52644400D01*
X102057141Y-52644400D02*
X102247617Y-52739638D01*
X102247617Y-52739638D02*
X102819046Y-52739638D01*
X102819046Y-52739638D02*
X103009522Y-52644400D01*
X103009522Y-52644400D02*
X103104760Y-52549161D01*
X101104760Y-50930114D02*
X101009522Y-50834876D01*
X101009522Y-50834876D02*
X100819046Y-50739638D01*
X100819046Y-50739638D02*
X100342855Y-50739638D01*
X100342855Y-50739638D02*
X100152379Y-50834876D01*
X100152379Y-50834876D02*
X100057141Y-50930114D01*
X100057141Y-50930114D02*
X99961903Y-51120590D01*
X99961903Y-51120590D02*
X99961903Y-51311066D01*
X99961903Y-51311066D02*
X100057141Y-51596780D01*
X100057141Y-51596780D02*
X101199998Y-52739638D01*
X101199998Y-52739638D02*
X99961903Y-52739638D01*
X141145489Y-170435282D02*
X140645489Y-170435282D01*
X140431203Y-171220996D02*
X141145489Y-171220996D01*
X141145489Y-171220996D02*
X141145489Y-169720996D01*
X141145489Y-169720996D02*
X140431203Y-169720996D01*
X139574060Y-171220996D02*
X139716917Y-171149568D01*
X139716917Y-171149568D02*
X139788346Y-171006710D01*
X139788346Y-171006710D02*
X139788346Y-169720996D01*
X138431203Y-171149568D02*
X138574060Y-171220996D01*
X138574060Y-171220996D02*
X138859775Y-171220996D01*
X138859775Y-171220996D02*
X139002632Y-171149568D01*
X139002632Y-171149568D02*
X139074060Y-171006710D01*
X139074060Y-171006710D02*
X139074060Y-170435282D01*
X139074060Y-170435282D02*
X139002632Y-170292425D01*
X139002632Y-170292425D02*
X138859775Y-170220996D01*
X138859775Y-170220996D02*
X138574060Y-170220996D01*
X138574060Y-170220996D02*
X138431203Y-170292425D01*
X138431203Y-170292425D02*
X138359775Y-170435282D01*
X138359775Y-170435282D02*
X138359775Y-170578139D01*
X138359775Y-170578139D02*
X139074060Y-170720996D01*
X137074061Y-171149568D02*
X137216918Y-171220996D01*
X137216918Y-171220996D02*
X137502632Y-171220996D01*
X137502632Y-171220996D02*
X137645489Y-171149568D01*
X137645489Y-171149568D02*
X137716918Y-171078139D01*
X137716918Y-171078139D02*
X137788346Y-170935282D01*
X137788346Y-170935282D02*
X137788346Y-170506710D01*
X137788346Y-170506710D02*
X137716918Y-170363853D01*
X137716918Y-170363853D02*
X137645489Y-170292425D01*
X137645489Y-170292425D02*
X137502632Y-170220996D01*
X137502632Y-170220996D02*
X137216918Y-170220996D01*
X137216918Y-170220996D02*
X137074061Y-170292425D01*
X136645489Y-170220996D02*
X136074061Y-170220996D01*
X136431204Y-169720996D02*
X136431204Y-171006710D01*
X136431204Y-171006710D02*
X136359775Y-171149568D01*
X136359775Y-171149568D02*
X136216918Y-171220996D01*
X136216918Y-171220996D02*
X136074061Y-171220996D01*
X135574061Y-171220996D02*
X135574061Y-170220996D01*
X135574061Y-170506710D02*
X135502632Y-170363853D01*
X135502632Y-170363853D02*
X135431204Y-170292425D01*
X135431204Y-170292425D02*
X135288346Y-170220996D01*
X135288346Y-170220996D02*
X135145489Y-170220996D01*
X134431204Y-171220996D02*
X134574061Y-171149568D01*
X134574061Y-171149568D02*
X134645490Y-171078139D01*
X134645490Y-171078139D02*
X134716918Y-170935282D01*
X134716918Y-170935282D02*
X134716918Y-170506710D01*
X134716918Y-170506710D02*
X134645490Y-170363853D01*
X134645490Y-170363853D02*
X134574061Y-170292425D01*
X134574061Y-170292425D02*
X134431204Y-170220996D01*
X134431204Y-170220996D02*
X134216918Y-170220996D01*
X134216918Y-170220996D02*
X134074061Y-170292425D01*
X134074061Y-170292425D02*
X134002633Y-170363853D01*
X134002633Y-170363853D02*
X133931204Y-170506710D01*
X133931204Y-170506710D02*
X133931204Y-170935282D01*
X133931204Y-170935282D02*
X134002633Y-171078139D01*
X134002633Y-171078139D02*
X134074061Y-171149568D01*
X134074061Y-171149568D02*
X134216918Y-171220996D01*
X134216918Y-171220996D02*
X134431204Y-171220996D01*
X133288347Y-170220996D02*
X133288347Y-171220996D01*
X133288347Y-170363853D02*
X133216918Y-170292425D01*
X133216918Y-170292425D02*
X133074061Y-170220996D01*
X133074061Y-170220996D02*
X132859775Y-170220996D01*
X132859775Y-170220996D02*
X132716918Y-170292425D01*
X132716918Y-170292425D02*
X132645490Y-170435282D01*
X132645490Y-170435282D02*
X132645490Y-171220996D01*
X131931204Y-171220996D02*
X131931204Y-170220996D01*
X131931204Y-169720996D02*
X132002632Y-169792425D01*
X132002632Y-169792425D02*
X131931204Y-169863853D01*
X131931204Y-169863853D02*
X131859775Y-169792425D01*
X131859775Y-169792425D02*
X131931204Y-169720996D01*
X131931204Y-169720996D02*
X131931204Y-169863853D01*
X130574061Y-171149568D02*
X130716918Y-171220996D01*
X130716918Y-171220996D02*
X131002632Y-171220996D01*
X131002632Y-171220996D02*
X131145489Y-171149568D01*
X131145489Y-171149568D02*
X131216918Y-171078139D01*
X131216918Y-171078139D02*
X131288346Y-170935282D01*
X131288346Y-170935282D02*
X131288346Y-170506710D01*
X131288346Y-170506710D02*
X131216918Y-170363853D01*
X131216918Y-170363853D02*
X131145489Y-170292425D01*
X131145489Y-170292425D02*
X131002632Y-170220996D01*
X131002632Y-170220996D02*
X130716918Y-170220996D01*
X130716918Y-170220996D02*
X130574061Y-170292425D01*
X128145490Y-171149568D02*
X128288347Y-171220996D01*
X128288347Y-171220996D02*
X128574061Y-171220996D01*
X128574061Y-171220996D02*
X128716918Y-171149568D01*
X128716918Y-171149568D02*
X128788347Y-171078139D01*
X128788347Y-171078139D02*
X128859775Y-170935282D01*
X128859775Y-170935282D02*
X128859775Y-170506710D01*
X128859775Y-170506710D02*
X128788347Y-170363853D01*
X128788347Y-170363853D02*
X128716918Y-170292425D01*
X128716918Y-170292425D02*
X128574061Y-170220996D01*
X128574061Y-170220996D02*
X128288347Y-170220996D01*
X128288347Y-170220996D02*
X128145490Y-170292425D01*
X126859776Y-171220996D02*
X126859776Y-170435282D01*
X126859776Y-170435282D02*
X126931204Y-170292425D01*
X126931204Y-170292425D02*
X127074061Y-170220996D01*
X127074061Y-170220996D02*
X127359776Y-170220996D01*
X127359776Y-170220996D02*
X127502633Y-170292425D01*
X126859776Y-171149568D02*
X127002633Y-171220996D01*
X127002633Y-171220996D02*
X127359776Y-171220996D01*
X127359776Y-171220996D02*
X127502633Y-171149568D01*
X127502633Y-171149568D02*
X127574061Y-171006710D01*
X127574061Y-171006710D02*
X127574061Y-170863853D01*
X127574061Y-170863853D02*
X127502633Y-170720996D01*
X127502633Y-170720996D02*
X127359776Y-170649568D01*
X127359776Y-170649568D02*
X127002633Y-170649568D01*
X127002633Y-170649568D02*
X126859776Y-170578139D01*
X126145490Y-171220996D02*
X126145490Y-170220996D01*
X126145490Y-170506710D02*
X126074061Y-170363853D01*
X126074061Y-170363853D02*
X126002633Y-170292425D01*
X126002633Y-170292425D02*
X125859775Y-170220996D01*
X125859775Y-170220996D02*
X125716918Y-170220996D01*
X124574062Y-171220996D02*
X124574062Y-169720996D01*
X124574062Y-171149568D02*
X124716919Y-171220996D01*
X124716919Y-171220996D02*
X125002633Y-171220996D01*
X125002633Y-171220996D02*
X125145490Y-171149568D01*
X125145490Y-171149568D02*
X125216919Y-171078139D01*
X125216919Y-171078139D02*
X125288347Y-170935282D01*
X125288347Y-170935282D02*
X125288347Y-170506710D01*
X125288347Y-170506710D02*
X125216919Y-170363853D01*
X125216919Y-170363853D02*
X125145490Y-170292425D01*
X125145490Y-170292425D02*
X125002633Y-170220996D01*
X125002633Y-170220996D02*
X124716919Y-170220996D01*
X124716919Y-170220996D02*
X124574062Y-170292425D01*
X122788347Y-169863853D02*
X122716919Y-169792425D01*
X122716919Y-169792425D02*
X122574062Y-169720996D01*
X122574062Y-169720996D02*
X122216919Y-169720996D01*
X122216919Y-169720996D02*
X122074062Y-169792425D01*
X122074062Y-169792425D02*
X122002633Y-169863853D01*
X122002633Y-169863853D02*
X121931204Y-170006710D01*
X121931204Y-170006710D02*
X121931204Y-170149568D01*
X121931204Y-170149568D02*
X122002633Y-170363853D01*
X122002633Y-170363853D02*
X122859776Y-171220996D01*
X122859776Y-171220996D02*
X121931204Y-171220996D01*
X121002633Y-169720996D02*
X120859776Y-169720996D01*
X120859776Y-169720996D02*
X120716919Y-169792425D01*
X120716919Y-169792425D02*
X120645491Y-169863853D01*
X120645491Y-169863853D02*
X120574062Y-170006710D01*
X120574062Y-170006710D02*
X120502633Y-170292425D01*
X120502633Y-170292425D02*
X120502633Y-170649568D01*
X120502633Y-170649568D02*
X120574062Y-170935282D01*
X120574062Y-170935282D02*
X120645491Y-171078139D01*
X120645491Y-171078139D02*
X120716919Y-171149568D01*
X120716919Y-171149568D02*
X120859776Y-171220996D01*
X120859776Y-171220996D02*
X121002633Y-171220996D01*
X121002633Y-171220996D02*
X121145491Y-171149568D01*
X121145491Y-171149568D02*
X121216919Y-171078139D01*
X121216919Y-171078139D02*
X121288348Y-170935282D01*
X121288348Y-170935282D02*
X121359776Y-170649568D01*
X121359776Y-170649568D02*
X121359776Y-170292425D01*
X121359776Y-170292425D02*
X121288348Y-170006710D01*
X121288348Y-170006710D02*
X121216919Y-169863853D01*
X121216919Y-169863853D02*
X121145491Y-169792425D01*
X121145491Y-169792425D02*
X121002633Y-169720996D01*
X119931205Y-169863853D02*
X119859777Y-169792425D01*
X119859777Y-169792425D02*
X119716920Y-169720996D01*
X119716920Y-169720996D02*
X119359777Y-169720996D01*
X119359777Y-169720996D02*
X119216920Y-169792425D01*
X119216920Y-169792425D02*
X119145491Y-169863853D01*
X119145491Y-169863853D02*
X119074062Y-170006710D01*
X119074062Y-170006710D02*
X119074062Y-170149568D01*
X119074062Y-170149568D02*
X119145491Y-170363853D01*
X119145491Y-170363853D02*
X120002634Y-171220996D01*
X120002634Y-171220996D02*
X119074062Y-171220996D01*
X117716920Y-169720996D02*
X118431206Y-169720996D01*
X118431206Y-169720996D02*
X118502634Y-170435282D01*
X118502634Y-170435282D02*
X118431206Y-170363853D01*
X118431206Y-170363853D02*
X118288349Y-170292425D01*
X118288349Y-170292425D02*
X117931206Y-170292425D01*
X117931206Y-170292425D02*
X117788349Y-170363853D01*
X117788349Y-170363853D02*
X117716920Y-170435282D01*
X117716920Y-170435282D02*
X117645491Y-170578139D01*
X117645491Y-170578139D02*
X117645491Y-170935282D01*
X117645491Y-170935282D02*
X117716920Y-171078139D01*
X117716920Y-171078139D02*
X117788349Y-171149568D01*
X117788349Y-171149568D02*
X117931206Y-171220996D01*
X117931206Y-171220996D02*
X118288349Y-171220996D01*
X118288349Y-171220996D02*
X118431206Y-171149568D01*
X118431206Y-171149568D02*
X118502634Y-171078139D01*
X116074063Y-169720996D02*
X115574063Y-171220996D01*
X115574063Y-171220996D02*
X115074063Y-169720996D01*
X113788349Y-171220996D02*
X114645492Y-171220996D01*
X114216921Y-171220996D02*
X114216921Y-169720996D01*
X114216921Y-169720996D02*
X114359778Y-169935282D01*
X114359778Y-169935282D02*
X114502635Y-170078139D01*
X114502635Y-170078139D02*
X114645492Y-170149568D01*
X113145493Y-171078139D02*
X113074064Y-171149568D01*
X113074064Y-171149568D02*
X113145493Y-171220996D01*
X113145493Y-171220996D02*
X113216921Y-171149568D01*
X113216921Y-171149568D02*
X113145493Y-171078139D01*
X113145493Y-171078139D02*
X113145493Y-171220996D01*
X111645492Y-171220996D02*
X112502635Y-171220996D01*
X112074064Y-171220996D02*
X112074064Y-169720996D01*
X112074064Y-169720996D02*
X112216921Y-169935282D01*
X112216921Y-169935282D02*
X112359778Y-170078139D01*
X112359778Y-170078139D02*
X112502635Y-170149568D01*
X141216917Y-173207341D02*
X140502632Y-173207341D01*
X141359774Y-173635912D02*
X140859774Y-172135912D01*
X140859774Y-172135912D02*
X140359774Y-173635912D01*
X139859775Y-173635912D02*
X139859775Y-172635912D01*
X139859775Y-172921626D02*
X139788346Y-172778769D01*
X139788346Y-172778769D02*
X139716918Y-172707341D01*
X139716918Y-172707341D02*
X139574060Y-172635912D01*
X139574060Y-172635912D02*
X139431203Y-172635912D01*
X139145489Y-172635912D02*
X138574061Y-172635912D01*
X138931204Y-172135912D02*
X138931204Y-173421626D01*
X138931204Y-173421626D02*
X138859775Y-173564484D01*
X138859775Y-173564484D02*
X138716918Y-173635912D01*
X138716918Y-173635912D02*
X138574061Y-173635912D01*
X138074061Y-173493055D02*
X138002632Y-173564484D01*
X138002632Y-173564484D02*
X138074061Y-173635912D01*
X138074061Y-173635912D02*
X138145489Y-173564484D01*
X138145489Y-173564484D02*
X138074061Y-173493055D01*
X138074061Y-173493055D02*
X138074061Y-173635912D01*
X138074061Y-172707341D02*
X138002632Y-172778769D01*
X138002632Y-172778769D02*
X138074061Y-172850198D01*
X138074061Y-172850198D02*
X138145489Y-172778769D01*
X138145489Y-172778769D02*
X138074061Y-172707341D01*
X138074061Y-172707341D02*
X138074061Y-172850198D01*
X135788346Y-172135912D02*
X135788346Y-173207341D01*
X135788346Y-173207341D02*
X135859775Y-173421626D01*
X135859775Y-173421626D02*
X136002632Y-173564484D01*
X136002632Y-173564484D02*
X136216918Y-173635912D01*
X136216918Y-173635912D02*
X136359775Y-173635912D01*
X134859775Y-173635912D02*
X135002632Y-173564484D01*
X135002632Y-173564484D02*
X135074061Y-173493055D01*
X135074061Y-173493055D02*
X135145489Y-173350198D01*
X135145489Y-173350198D02*
X135145489Y-172921626D01*
X135145489Y-172921626D02*
X135074061Y-172778769D01*
X135074061Y-172778769D02*
X135002632Y-172707341D01*
X135002632Y-172707341D02*
X134859775Y-172635912D01*
X134859775Y-172635912D02*
X134645489Y-172635912D01*
X134645489Y-172635912D02*
X134502632Y-172707341D01*
X134502632Y-172707341D02*
X134431204Y-172778769D01*
X134431204Y-172778769D02*
X134359775Y-172921626D01*
X134359775Y-172921626D02*
X134359775Y-173350198D01*
X134359775Y-173350198D02*
X134431204Y-173493055D01*
X134431204Y-173493055D02*
X134502632Y-173564484D01*
X134502632Y-173564484D02*
X134645489Y-173635912D01*
X134645489Y-173635912D02*
X134859775Y-173635912D01*
X133716918Y-173635912D02*
X133716918Y-172635912D01*
X133716918Y-172921626D02*
X133645489Y-172778769D01*
X133645489Y-172778769D02*
X133574061Y-172707341D01*
X133574061Y-172707341D02*
X133431203Y-172635912D01*
X133431203Y-172635912D02*
X133288346Y-172635912D01*
X132145490Y-173635912D02*
X132145490Y-172135912D01*
X132145490Y-173564484D02*
X132288347Y-173635912D01*
X132288347Y-173635912D02*
X132574061Y-173635912D01*
X132574061Y-173635912D02*
X132716918Y-173564484D01*
X132716918Y-173564484D02*
X132788347Y-173493055D01*
X132788347Y-173493055D02*
X132859775Y-173350198D01*
X132859775Y-173350198D02*
X132859775Y-172921626D01*
X132859775Y-172921626D02*
X132788347Y-172778769D01*
X132788347Y-172778769D02*
X132716918Y-172707341D01*
X132716918Y-172707341D02*
X132574061Y-172635912D01*
X132574061Y-172635912D02*
X132288347Y-172635912D01*
X132288347Y-172635912D02*
X132145490Y-172707341D01*
X131431204Y-173635912D02*
X131431204Y-172635912D01*
X131431204Y-172135912D02*
X131502632Y-172207341D01*
X131502632Y-172207341D02*
X131431204Y-172278769D01*
X131431204Y-172278769D02*
X131359775Y-172207341D01*
X131359775Y-172207341D02*
X131431204Y-172135912D01*
X131431204Y-172135912D02*
X131431204Y-172278769D01*
X129574061Y-173635912D02*
X129574061Y-172135912D01*
X129574061Y-172135912D02*
X128716918Y-173635912D01*
X128716918Y-173635912D02*
X128716918Y-172135912D01*
X127359775Y-173635912D02*
X127359775Y-172850198D01*
X127359775Y-172850198D02*
X127431203Y-172707341D01*
X127431203Y-172707341D02*
X127574060Y-172635912D01*
X127574060Y-172635912D02*
X127859775Y-172635912D01*
X127859775Y-172635912D02*
X128002632Y-172707341D01*
X127359775Y-173564484D02*
X127502632Y-173635912D01*
X127502632Y-173635912D02*
X127859775Y-173635912D01*
X127859775Y-173635912D02*
X128002632Y-173564484D01*
X128002632Y-173564484D02*
X128074060Y-173421626D01*
X128074060Y-173421626D02*
X128074060Y-173278769D01*
X128074060Y-173278769D02*
X128002632Y-173135912D01*
X128002632Y-173135912D02*
X127859775Y-173064484D01*
X127859775Y-173064484D02*
X127502632Y-173064484D01*
X127502632Y-173064484D02*
X127359775Y-172993055D01*
X126788346Y-172635912D02*
X126431203Y-173635912D01*
X126431203Y-173635912D02*
X126074060Y-172635912D01*
X124859775Y-173635912D02*
X124859775Y-172850198D01*
X124859775Y-172850198D02*
X124931203Y-172707341D01*
X124931203Y-172707341D02*
X125074060Y-172635912D01*
X125074060Y-172635912D02*
X125359775Y-172635912D01*
X125359775Y-172635912D02*
X125502632Y-172707341D01*
X124859775Y-173564484D02*
X125002632Y-173635912D01*
X125002632Y-173635912D02*
X125359775Y-173635912D01*
X125359775Y-173635912D02*
X125502632Y-173564484D01*
X125502632Y-173564484D02*
X125574060Y-173421626D01*
X125574060Y-173421626D02*
X125574060Y-173278769D01*
X125574060Y-173278769D02*
X125502632Y-173135912D01*
X125502632Y-173135912D02*
X125359775Y-173064484D01*
X125359775Y-173064484D02*
X125002632Y-173064484D01*
X125002632Y-173064484D02*
X124859775Y-172993055D01*
X124145489Y-173635912D02*
X124145489Y-172635912D01*
X124145489Y-172921626D02*
X124074060Y-172778769D01*
X124074060Y-172778769D02*
X124002632Y-172707341D01*
X124002632Y-172707341D02*
X123859774Y-172635912D01*
X123859774Y-172635912D02*
X123716917Y-172635912D01*
X123216918Y-173635912D02*
X123216918Y-172635912D01*
X123216918Y-172921626D02*
X123145489Y-172778769D01*
X123145489Y-172778769D02*
X123074061Y-172707341D01*
X123074061Y-172707341D02*
X122931203Y-172635912D01*
X122931203Y-172635912D02*
X122788346Y-172635912D01*
X121716918Y-173564484D02*
X121859775Y-173635912D01*
X121859775Y-173635912D02*
X122145490Y-173635912D01*
X122145490Y-173635912D02*
X122288347Y-173564484D01*
X122288347Y-173564484D02*
X122359775Y-173421626D01*
X122359775Y-173421626D02*
X122359775Y-172850198D01*
X122359775Y-172850198D02*
X122288347Y-172707341D01*
X122288347Y-172707341D02*
X122145490Y-172635912D01*
X122145490Y-172635912D02*
X121859775Y-172635912D01*
X121859775Y-172635912D02*
X121716918Y-172707341D01*
X121716918Y-172707341D02*
X121645490Y-172850198D01*
X121645490Y-172850198D02*
X121645490Y-172993055D01*
X121645490Y-172993055D02*
X122359775Y-173135912D01*
X121216918Y-172635912D02*
X120645490Y-172635912D01*
X121002633Y-172135912D02*
X121002633Y-173421626D01*
X121002633Y-173421626D02*
X120931204Y-173564484D01*
X120931204Y-173564484D02*
X120788347Y-173635912D01*
X120788347Y-173635912D02*
X120645490Y-173635912D01*
X119574061Y-173564484D02*
X119716918Y-173635912D01*
X119716918Y-173635912D02*
X120002633Y-173635912D01*
X120002633Y-173635912D02*
X120145490Y-173564484D01*
X120145490Y-173564484D02*
X120216918Y-173421626D01*
X120216918Y-173421626D02*
X120216918Y-172850198D01*
X120216918Y-172850198D02*
X120145490Y-172707341D01*
X120145490Y-172707341D02*
X120002633Y-172635912D01*
X120002633Y-172635912D02*
X119716918Y-172635912D01*
X119716918Y-172635912D02*
X119574061Y-172707341D01*
X119574061Y-172707341D02*
X119502633Y-172850198D01*
X119502633Y-172850198D02*
X119502633Y-172993055D01*
X119502633Y-172993055D02*
X120216918Y-173135912D01*
X141145489Y-175265114D02*
X140645489Y-175265114D01*
X140431203Y-176050828D02*
X141145489Y-176050828D01*
X141145489Y-176050828D02*
X141145489Y-174550828D01*
X141145489Y-174550828D02*
X140431203Y-174550828D01*
X139574060Y-176050828D02*
X139716917Y-175979400D01*
X139716917Y-175979400D02*
X139788346Y-175836542D01*
X139788346Y-175836542D02*
X139788346Y-174550828D01*
X138431203Y-175979400D02*
X138574060Y-176050828D01*
X138574060Y-176050828D02*
X138859775Y-176050828D01*
X138859775Y-176050828D02*
X139002632Y-175979400D01*
X139002632Y-175979400D02*
X139074060Y-175836542D01*
X139074060Y-175836542D02*
X139074060Y-175265114D01*
X139074060Y-175265114D02*
X139002632Y-175122257D01*
X139002632Y-175122257D02*
X138859775Y-175050828D01*
X138859775Y-175050828D02*
X138574060Y-175050828D01*
X138574060Y-175050828D02*
X138431203Y-175122257D01*
X138431203Y-175122257D02*
X138359775Y-175265114D01*
X138359775Y-175265114D02*
X138359775Y-175407971D01*
X138359775Y-175407971D02*
X139074060Y-175550828D01*
X137074061Y-175979400D02*
X137216918Y-176050828D01*
X137216918Y-176050828D02*
X137502632Y-176050828D01*
X137502632Y-176050828D02*
X137645489Y-175979400D01*
X137645489Y-175979400D02*
X137716918Y-175907971D01*
X137716918Y-175907971D02*
X137788346Y-175765114D01*
X137788346Y-175765114D02*
X137788346Y-175336542D01*
X137788346Y-175336542D02*
X137716918Y-175193685D01*
X137716918Y-175193685D02*
X137645489Y-175122257D01*
X137645489Y-175122257D02*
X137502632Y-175050828D01*
X137502632Y-175050828D02*
X137216918Y-175050828D01*
X137216918Y-175050828D02*
X137074061Y-175122257D01*
X136645489Y-175050828D02*
X136074061Y-175050828D01*
X136431204Y-174550828D02*
X136431204Y-175836542D01*
X136431204Y-175836542D02*
X136359775Y-175979400D01*
X136359775Y-175979400D02*
X136216918Y-176050828D01*
X136216918Y-176050828D02*
X136074061Y-176050828D01*
X135574061Y-176050828D02*
X135574061Y-175050828D01*
X135574061Y-175336542D02*
X135502632Y-175193685D01*
X135502632Y-175193685D02*
X135431204Y-175122257D01*
X135431204Y-175122257D02*
X135288346Y-175050828D01*
X135288346Y-175050828D02*
X135145489Y-175050828D01*
X134431204Y-176050828D02*
X134574061Y-175979400D01*
X134574061Y-175979400D02*
X134645490Y-175907971D01*
X134645490Y-175907971D02*
X134716918Y-175765114D01*
X134716918Y-175765114D02*
X134716918Y-175336542D01*
X134716918Y-175336542D02*
X134645490Y-175193685D01*
X134645490Y-175193685D02*
X134574061Y-175122257D01*
X134574061Y-175122257D02*
X134431204Y-175050828D01*
X134431204Y-175050828D02*
X134216918Y-175050828D01*
X134216918Y-175050828D02*
X134074061Y-175122257D01*
X134074061Y-175122257D02*
X134002633Y-175193685D01*
X134002633Y-175193685D02*
X133931204Y-175336542D01*
X133931204Y-175336542D02*
X133931204Y-175765114D01*
X133931204Y-175765114D02*
X134002633Y-175907971D01*
X134002633Y-175907971D02*
X134074061Y-175979400D01*
X134074061Y-175979400D02*
X134216918Y-176050828D01*
X134216918Y-176050828D02*
X134431204Y-176050828D01*
X133288347Y-175050828D02*
X133288347Y-176050828D01*
X133288347Y-175193685D02*
X133216918Y-175122257D01*
X133216918Y-175122257D02*
X133074061Y-175050828D01*
X133074061Y-175050828D02*
X132859775Y-175050828D01*
X132859775Y-175050828D02*
X132716918Y-175122257D01*
X132716918Y-175122257D02*
X132645490Y-175265114D01*
X132645490Y-175265114D02*
X132645490Y-176050828D01*
X131931204Y-176050828D02*
X131931204Y-175050828D01*
X131931204Y-174550828D02*
X132002632Y-174622257D01*
X132002632Y-174622257D02*
X131931204Y-174693685D01*
X131931204Y-174693685D02*
X131859775Y-174622257D01*
X131859775Y-174622257D02*
X131931204Y-174550828D01*
X131931204Y-174550828D02*
X131931204Y-174693685D01*
X130574061Y-175979400D02*
X130716918Y-176050828D01*
X130716918Y-176050828D02*
X131002632Y-176050828D01*
X131002632Y-176050828D02*
X131145489Y-175979400D01*
X131145489Y-175979400D02*
X131216918Y-175907971D01*
X131216918Y-175907971D02*
X131288346Y-175765114D01*
X131288346Y-175765114D02*
X131288346Y-175336542D01*
X131288346Y-175336542D02*
X131216918Y-175193685D01*
X131216918Y-175193685D02*
X131145489Y-175122257D01*
X131145489Y-175122257D02*
X131002632Y-175050828D01*
X131002632Y-175050828D02*
X130716918Y-175050828D01*
X130716918Y-175050828D02*
X130574061Y-175122257D01*
X130002632Y-175979400D02*
X129859775Y-176050828D01*
X129859775Y-176050828D02*
X129574061Y-176050828D01*
X129574061Y-176050828D02*
X129431204Y-175979400D01*
X129431204Y-175979400D02*
X129359775Y-175836542D01*
X129359775Y-175836542D02*
X129359775Y-175765114D01*
X129359775Y-175765114D02*
X129431204Y-175622257D01*
X129431204Y-175622257D02*
X129574061Y-175550828D01*
X129574061Y-175550828D02*
X129788347Y-175550828D01*
X129788347Y-175550828D02*
X129931204Y-175479400D01*
X129931204Y-175479400D02*
X130002632Y-175336542D01*
X130002632Y-175336542D02*
X130002632Y-175265114D01*
X130002632Y-175265114D02*
X129931204Y-175122257D01*
X129931204Y-175122257D02*
X129788347Y-175050828D01*
X129788347Y-175050828D02*
X129574061Y-175050828D01*
X129574061Y-175050828D02*
X129431204Y-175122257D01*
X128716918Y-175907971D02*
X128645489Y-175979400D01*
X128645489Y-175979400D02*
X128716918Y-176050828D01*
X128716918Y-176050828D02*
X128788346Y-175979400D01*
X128788346Y-175979400D02*
X128716918Y-175907971D01*
X128716918Y-175907971D02*
X128716918Y-176050828D01*
X128716918Y-175122257D02*
X128645489Y-175193685D01*
X128645489Y-175193685D02*
X128716918Y-175265114D01*
X128716918Y-175265114D02*
X128788346Y-175193685D01*
X128788346Y-175193685D02*
X128716918Y-175122257D01*
X128716918Y-175122257D02*
X128716918Y-175265114D01*
X126859775Y-175265114D02*
X126359775Y-175265114D01*
X126145489Y-176050828D02*
X126859775Y-176050828D01*
X126859775Y-176050828D02*
X126859775Y-174550828D01*
X126859775Y-174550828D02*
X126145489Y-174550828D01*
X125502632Y-176050828D02*
X125502632Y-175050828D01*
X125502632Y-175336542D02*
X125431203Y-175193685D01*
X125431203Y-175193685D02*
X125359775Y-175122257D01*
X125359775Y-175122257D02*
X125216917Y-175050828D01*
X125216917Y-175050828D02*
X125074060Y-175050828D01*
X124574061Y-176050828D02*
X124574061Y-175050828D01*
X124574061Y-174550828D02*
X124645489Y-174622257D01*
X124645489Y-174622257D02*
X124574061Y-174693685D01*
X124574061Y-174693685D02*
X124502632Y-174622257D01*
X124502632Y-174622257D02*
X124574061Y-174550828D01*
X124574061Y-174550828D02*
X124574061Y-174693685D01*
X123216918Y-175979400D02*
X123359775Y-176050828D01*
X123359775Y-176050828D02*
X123645489Y-176050828D01*
X123645489Y-176050828D02*
X123788346Y-175979400D01*
X123788346Y-175979400D02*
X123859775Y-175907971D01*
X123859775Y-175907971D02*
X123931203Y-175765114D01*
X123931203Y-175765114D02*
X123931203Y-175336542D01*
X123931203Y-175336542D02*
X123859775Y-175193685D01*
X123859775Y-175193685D02*
X123788346Y-175122257D01*
X123788346Y-175122257D02*
X123645489Y-175050828D01*
X123645489Y-175050828D02*
X123359775Y-175050828D01*
X123359775Y-175050828D02*
X123216918Y-175122257D01*
X121431204Y-176050828D02*
X121431204Y-174550828D01*
X121431204Y-174550828D02*
X120574061Y-176050828D01*
X120574061Y-176050828D02*
X120574061Y-174550828D01*
X119216918Y-176050828D02*
X119216918Y-175265114D01*
X119216918Y-175265114D02*
X119288346Y-175122257D01*
X119288346Y-175122257D02*
X119431203Y-175050828D01*
X119431203Y-175050828D02*
X119716918Y-175050828D01*
X119716918Y-175050828D02*
X119859775Y-175122257D01*
X119216918Y-175979400D02*
X119359775Y-176050828D01*
X119359775Y-176050828D02*
X119716918Y-176050828D01*
X119716918Y-176050828D02*
X119859775Y-175979400D01*
X119859775Y-175979400D02*
X119931203Y-175836542D01*
X119931203Y-175836542D02*
X119931203Y-175693685D01*
X119931203Y-175693685D02*
X119859775Y-175550828D01*
X119859775Y-175550828D02*
X119716918Y-175479400D01*
X119716918Y-175479400D02*
X119359775Y-175479400D01*
X119359775Y-175479400D02*
X119216918Y-175407971D01*
X118645489Y-175050828D02*
X118288346Y-176050828D01*
X118288346Y-176050828D02*
X117931203Y-175050828D01*
X116716918Y-176050828D02*
X116716918Y-175265114D01*
X116716918Y-175265114D02*
X116788346Y-175122257D01*
X116788346Y-175122257D02*
X116931203Y-175050828D01*
X116931203Y-175050828D02*
X117216918Y-175050828D01*
X117216918Y-175050828D02*
X117359775Y-175122257D01*
X116716918Y-175979400D02*
X116859775Y-176050828D01*
X116859775Y-176050828D02*
X117216918Y-176050828D01*
X117216918Y-176050828D02*
X117359775Y-175979400D01*
X117359775Y-175979400D02*
X117431203Y-175836542D01*
X117431203Y-175836542D02*
X117431203Y-175693685D01*
X117431203Y-175693685D02*
X117359775Y-175550828D01*
X117359775Y-175550828D02*
X117216918Y-175479400D01*
X117216918Y-175479400D02*
X116859775Y-175479400D01*
X116859775Y-175479400D02*
X116716918Y-175407971D01*
X116002632Y-176050828D02*
X116002632Y-175050828D01*
X116002632Y-175336542D02*
X115931203Y-175193685D01*
X115931203Y-175193685D02*
X115859775Y-175122257D01*
X115859775Y-175122257D02*
X115716917Y-175050828D01*
X115716917Y-175050828D02*
X115574060Y-175050828D01*
X115074061Y-176050828D02*
X115074061Y-175050828D01*
X115074061Y-175336542D02*
X115002632Y-175193685D01*
X115002632Y-175193685D02*
X114931204Y-175122257D01*
X114931204Y-175122257D02*
X114788346Y-175050828D01*
X114788346Y-175050828D02*
X114645489Y-175050828D01*
X113574061Y-175979400D02*
X113716918Y-176050828D01*
X113716918Y-176050828D02*
X114002633Y-176050828D01*
X114002633Y-176050828D02*
X114145490Y-175979400D01*
X114145490Y-175979400D02*
X114216918Y-175836542D01*
X114216918Y-175836542D02*
X114216918Y-175265114D01*
X114216918Y-175265114D02*
X114145490Y-175122257D01*
X114145490Y-175122257D02*
X114002633Y-175050828D01*
X114002633Y-175050828D02*
X113716918Y-175050828D01*
X113716918Y-175050828D02*
X113574061Y-175122257D01*
X113574061Y-175122257D02*
X113502633Y-175265114D01*
X113502633Y-175265114D02*
X113502633Y-175407971D01*
X113502633Y-175407971D02*
X114216918Y-175550828D01*
X113074061Y-175050828D02*
X112502633Y-175050828D01*
X112859776Y-174550828D02*
X112859776Y-175836542D01*
X112859776Y-175836542D02*
X112788347Y-175979400D01*
X112788347Y-175979400D02*
X112645490Y-176050828D01*
X112645490Y-176050828D02*
X112502633Y-176050828D01*
X111431204Y-175979400D02*
X111574061Y-176050828D01*
X111574061Y-176050828D02*
X111859776Y-176050828D01*
X111859776Y-176050828D02*
X112002633Y-175979400D01*
X112002633Y-175979400D02*
X112074061Y-175836542D01*
X112074061Y-175836542D02*
X112074061Y-175265114D01*
X112074061Y-175265114D02*
X112002633Y-175122257D01*
X112002633Y-175122257D02*
X111859776Y-175050828D01*
X111859776Y-175050828D02*
X111574061Y-175050828D01*
X111574061Y-175050828D02*
X111431204Y-175122257D01*
X111431204Y-175122257D02*
X111359776Y-175265114D01*
X111359776Y-175265114D02*
X111359776Y-175407971D01*
X111359776Y-175407971D02*
X112074061Y-175550828D01*
D12*
%TO.C,D45*%
X115972439Y-83536198D02*
X116963802Y-84527561D01*
X116963802Y-84527561D02*
X116963449Y-84951472D01*
X115548528Y-83536551D02*
X115972439Y-83536198D01*
X116963449Y-84951472D02*
X116114214Y-85800000D01*
X114700000Y-84385786D02*
X115548528Y-83536551D01*
X114770711Y-87143503D02*
X113639340Y-88274874D01*
X112225126Y-86860660D02*
X113427208Y-85658579D01*
X113639340Y-88274874D02*
X112225126Y-86860660D01*
%TO.C,D42*%
X100972439Y-83536198D02*
X101963802Y-84527561D01*
X101963802Y-84527561D02*
X101963449Y-84951472D01*
X100548528Y-83536551D02*
X100972439Y-83536198D01*
X101963449Y-84951472D02*
X101114214Y-85800000D01*
X99700000Y-84385786D02*
X100548528Y-83536551D01*
X99770711Y-87143503D02*
X98639340Y-88274874D01*
X97225126Y-86860660D02*
X98427208Y-85658579D01*
X98639340Y-88274874D02*
X97225126Y-86860660D01*
%TO.C,D61*%
X115972439Y-93536198D02*
X116963802Y-94527561D01*
X116963802Y-94527561D02*
X116963449Y-94951472D01*
X115548528Y-93536551D02*
X115972439Y-93536198D01*
X116963449Y-94951472D02*
X116114214Y-95800000D01*
X114700000Y-94385786D02*
X115548528Y-93536551D01*
X114770711Y-97143503D02*
X113639340Y-98274874D01*
X112225126Y-96860660D02*
X113427208Y-95658579D01*
X113639340Y-98274874D02*
X112225126Y-96860660D01*
%TO.C,D46*%
X120972439Y-83536198D02*
X121963802Y-84527561D01*
X121963802Y-84527561D02*
X121963449Y-84951472D01*
X120548528Y-83536551D02*
X120972439Y-83536198D01*
X121963449Y-84951472D02*
X121114214Y-85800000D01*
X119700000Y-84385786D02*
X120548528Y-83536551D01*
X119770711Y-87143503D02*
X118639340Y-88274874D01*
X117225126Y-86860660D02*
X118427208Y-85658579D01*
X118639340Y-88274874D02*
X117225126Y-86860660D01*
%TO.C,D54*%
X120972439Y-88536198D02*
X121963802Y-89527561D01*
X121963802Y-89527561D02*
X121963449Y-89951472D01*
X120548528Y-88536551D02*
X120972439Y-88536198D01*
X121963449Y-89951472D02*
X121114214Y-90800000D01*
X119700000Y-89385786D02*
X120548528Y-88536551D01*
X119770711Y-92143503D02*
X118639340Y-93274874D01*
X117225126Y-91860660D02*
X118427208Y-90658579D01*
X118639340Y-93274874D02*
X117225126Y-91860660D01*
%TO.C,D5*%
X115972439Y-58598697D02*
X116963802Y-59590060D01*
X116963802Y-59590060D02*
X116963449Y-60013971D01*
X115548528Y-58599050D02*
X115972439Y-58598697D01*
X116963449Y-60013971D02*
X116114214Y-60862499D01*
X114700000Y-59448285D02*
X115548528Y-58599050D01*
X114770711Y-62206002D02*
X113639340Y-63337373D01*
X112225126Y-61923159D02*
X113427208Y-60721078D01*
X113639340Y-63337373D02*
X112225126Y-61923159D01*
%TO.C,D51*%
X105972439Y-88536198D02*
X106963802Y-89527561D01*
X106963802Y-89527561D02*
X106963449Y-89951472D01*
X105548528Y-88536551D02*
X105972439Y-88536198D01*
X106963449Y-89951472D02*
X106114214Y-90800000D01*
X104700000Y-89385786D02*
X105548528Y-88536551D01*
X104770711Y-92143503D02*
X103639340Y-93274874D01*
X102225126Y-91860660D02*
X103427208Y-90658579D01*
X103639340Y-93274874D02*
X102225126Y-91860660D01*
%TO.C,D17*%
X95972439Y-68536198D02*
X96963802Y-69527561D01*
X96963802Y-69527561D02*
X96963449Y-69951472D01*
X95548528Y-68536551D02*
X95972439Y-68536198D01*
X96963449Y-69951472D02*
X96114214Y-70800000D01*
X94700000Y-69385786D02*
X95548528Y-68536551D01*
X94770711Y-72143503D02*
X93639340Y-73274874D01*
X92225126Y-71860660D02*
X93427208Y-70658579D01*
X93639340Y-73274874D02*
X92225126Y-71860660D01*
%TO.C,D7*%
X125972439Y-58536198D02*
X126963802Y-59527561D01*
X126963802Y-59527561D02*
X126963449Y-59951472D01*
X125548528Y-58536551D02*
X125972439Y-58536198D01*
X126963449Y-59951472D02*
X126114214Y-60800000D01*
X124700000Y-59385786D02*
X125548528Y-58536551D01*
X124770711Y-62143503D02*
X123639340Y-63274874D01*
X122225126Y-61860660D02*
X123427208Y-60658579D01*
X123639340Y-63274874D02*
X122225126Y-61860660D01*
%TO.C,D52*%
X110972439Y-88536198D02*
X111963802Y-89527561D01*
X111963802Y-89527561D02*
X111963449Y-89951472D01*
X110548528Y-88536551D02*
X110972439Y-88536198D01*
X111963449Y-89951472D02*
X111114214Y-90800000D01*
X109700000Y-89385786D02*
X110548528Y-88536551D01*
X109770711Y-92143503D02*
X108639340Y-93274874D01*
X107225126Y-91860660D02*
X108427208Y-90658579D01*
X108639340Y-93274874D02*
X107225126Y-91860660D01*
%TO.C,D63*%
X125972439Y-93536198D02*
X126963802Y-94527561D01*
X126963802Y-94527561D02*
X126963449Y-94951472D01*
X125548528Y-93536551D02*
X125972439Y-93536198D01*
X126963449Y-94951472D02*
X126114214Y-95800000D01*
X124700000Y-94385786D02*
X125548528Y-93536551D01*
X124770711Y-97143503D02*
X123639340Y-98274874D01*
X122225126Y-96860660D02*
X123427208Y-95658579D01*
X123639340Y-98274874D02*
X122225126Y-96860660D01*
%TO.C,D48*%
X130972439Y-83536198D02*
X131963802Y-84527561D01*
X131963802Y-84527561D02*
X131963449Y-84951472D01*
X130548528Y-83536551D02*
X130972439Y-83536198D01*
X131963449Y-84951472D02*
X131114214Y-85800000D01*
X129700000Y-84385786D02*
X130548528Y-83536551D01*
X129770711Y-87143503D02*
X128639340Y-88274874D01*
X127225126Y-86860660D02*
X128427208Y-85658579D01*
X128639340Y-88274874D02*
X127225126Y-86860660D01*
%TO.C,D50*%
X100972439Y-88536198D02*
X101963802Y-89527561D01*
X101963802Y-89527561D02*
X101963449Y-89951472D01*
X100548528Y-88536551D02*
X100972439Y-88536198D01*
X101963449Y-89951472D02*
X101114214Y-90800000D01*
X99700000Y-89385786D02*
X100548528Y-88536551D01*
X99770711Y-92143503D02*
X98639340Y-93274874D01*
X97225126Y-91860660D02*
X98427208Y-90658579D01*
X98639340Y-93274874D02*
X97225126Y-91860660D01*
%TO.C,D31*%
X125972439Y-73536198D02*
X126963802Y-74527561D01*
X126963802Y-74527561D02*
X126963449Y-74951472D01*
X125548528Y-73536551D02*
X125972439Y-73536198D01*
X126963449Y-74951472D02*
X126114214Y-75800000D01*
X124700000Y-74385786D02*
X125548528Y-73536551D01*
X124770711Y-77143503D02*
X123639340Y-78274874D01*
X122225126Y-76860660D02*
X123427208Y-75658579D01*
X123639340Y-78274874D02*
X122225126Y-76860660D01*
%TO.C,D40*%
X130972439Y-78536198D02*
X131963802Y-79527561D01*
X131963802Y-79527561D02*
X131963449Y-79951472D01*
X130548528Y-78536551D02*
X130972439Y-78536198D01*
X131963449Y-79951472D02*
X131114214Y-80800000D01*
X129700000Y-79385786D02*
X130548528Y-78536551D01*
X129770711Y-82143503D02*
X128639340Y-83274874D01*
X127225126Y-81860660D02*
X128427208Y-80658579D01*
X128639340Y-83274874D02*
X127225126Y-81860660D01*
%TO.C,D4*%
X110972439Y-58536198D02*
X111963802Y-59527561D01*
X111963802Y-59527561D02*
X111963449Y-59951472D01*
X110548528Y-58536551D02*
X110972439Y-58536198D01*
X111963449Y-59951472D02*
X111114214Y-60800000D01*
X109700000Y-59385786D02*
X110548528Y-58536551D01*
X109770711Y-62143503D02*
X108639340Y-63274874D01*
X107225126Y-61860660D02*
X108427208Y-60658579D01*
X108639340Y-63274874D02*
X107225126Y-61860660D01*
%TO.C,D49*%
X95972439Y-88536198D02*
X96963802Y-89527561D01*
X96963802Y-89527561D02*
X96963449Y-89951472D01*
X95548528Y-88536551D02*
X95972439Y-88536198D01*
X96963449Y-89951472D02*
X96114214Y-90800000D01*
X94700000Y-89385786D02*
X95548528Y-88536551D01*
X94770711Y-92143503D02*
X93639340Y-93274874D01*
X92225126Y-91860660D02*
X93427208Y-90658579D01*
X93639340Y-93274874D02*
X92225126Y-91860660D01*
%TO.C,D34*%
X100972439Y-78598697D02*
X101963802Y-79590060D01*
X101963802Y-79590060D02*
X101963449Y-80013971D01*
X100548528Y-78599050D02*
X100972439Y-78598697D01*
X101963449Y-80013971D02*
X101114214Y-80862499D01*
X99700000Y-79448285D02*
X100548528Y-78599050D01*
X99770711Y-82206002D02*
X98639340Y-83337373D01*
X97225126Y-81923159D02*
X98427208Y-80721078D01*
X98639340Y-83337373D02*
X97225126Y-81923159D01*
%TO.C,D43*%
X105972439Y-83536198D02*
X106963802Y-84527561D01*
X106963802Y-84527561D02*
X106963449Y-84951472D01*
X105548528Y-83536551D02*
X105972439Y-83536198D01*
X106963449Y-84951472D02*
X106114214Y-85800000D01*
X104700000Y-84385786D02*
X105548528Y-83536551D01*
X104770711Y-87143503D02*
X103639340Y-88274874D01*
X102225126Y-86860660D02*
X103427208Y-85658579D01*
X103639340Y-88274874D02*
X102225126Y-86860660D01*
%TO.C,D3*%
X105972439Y-58536198D02*
X106963802Y-59527561D01*
X106963802Y-59527561D02*
X106963449Y-59951472D01*
X105548528Y-58536551D02*
X105972439Y-58536198D01*
X106963449Y-59951472D02*
X106114214Y-60800000D01*
X104700000Y-59385786D02*
X105548528Y-58536551D01*
X104770711Y-62143503D02*
X103639340Y-63274874D01*
X102225126Y-61860660D02*
X103427208Y-60658579D01*
X103639340Y-63274874D02*
X102225126Y-61860660D01*
%TO.C,D13*%
X115972439Y-63536198D02*
X116963802Y-64527561D01*
X116963802Y-64527561D02*
X116963449Y-64951472D01*
X115548528Y-63536551D02*
X115972439Y-63536198D01*
X116963449Y-64951472D02*
X116114214Y-65800000D01*
X114700000Y-64385786D02*
X115548528Y-63536551D01*
X114770711Y-67143503D02*
X113639340Y-68274874D01*
X112225126Y-66860660D02*
X113427208Y-65658579D01*
X113639340Y-68274874D02*
X112225126Y-66860660D01*
%TO.C,D12*%
X110972439Y-63536198D02*
X111963802Y-64527561D01*
X111963802Y-64527561D02*
X111963449Y-64951472D01*
X110548528Y-63536551D02*
X110972439Y-63536198D01*
X111963449Y-64951472D02*
X111114214Y-65800000D01*
X109700000Y-64385786D02*
X110548528Y-63536551D01*
X109770711Y-67143503D02*
X108639340Y-68274874D01*
X107225126Y-66860660D02*
X108427208Y-65658579D01*
X108639340Y-68274874D02*
X107225126Y-66860660D01*
%TO.C,D44*%
X110972439Y-83536198D02*
X111963802Y-84527561D01*
X111963802Y-84527561D02*
X111963449Y-84951472D01*
X110548528Y-83536551D02*
X110972439Y-83536198D01*
X111963449Y-84951472D02*
X111114214Y-85800000D01*
X109700000Y-84385786D02*
X110548528Y-83536551D01*
X109770711Y-87143503D02*
X108639340Y-88274874D01*
X107225126Y-86860660D02*
X108427208Y-85658579D01*
X108639340Y-88274874D02*
X107225126Y-86860660D01*
%TO.C,D25*%
X95972439Y-73536198D02*
X96963802Y-74527561D01*
X96963802Y-74527561D02*
X96963449Y-74951472D01*
X95548528Y-73536551D02*
X95972439Y-73536198D01*
X96963449Y-74951472D02*
X96114214Y-75800000D01*
X94700000Y-74385786D02*
X95548528Y-73536551D01*
X94770711Y-77143503D02*
X93639340Y-78274874D01*
X92225126Y-76860660D02*
X93427208Y-75658579D01*
X93639340Y-78274874D02*
X92225126Y-76860660D01*
%TO.C,D22*%
X120972439Y-68536198D02*
X121963802Y-69527561D01*
X121963802Y-69527561D02*
X121963449Y-69951472D01*
X120548528Y-68536551D02*
X120972439Y-68536198D01*
X121963449Y-69951472D02*
X121114214Y-70800000D01*
X119700000Y-69385786D02*
X120548528Y-68536551D01*
X119770711Y-72143503D02*
X118639340Y-73274874D01*
X117225126Y-71860660D02*
X118427208Y-70658579D01*
X118639340Y-73274874D02*
X117225126Y-71860660D01*
%TO.C,D41*%
X95972439Y-83536198D02*
X96963802Y-84527561D01*
X96963802Y-84527561D02*
X96963449Y-84951472D01*
X95548528Y-83536551D02*
X95972439Y-83536198D01*
X96963449Y-84951472D02*
X96114214Y-85800000D01*
X94700000Y-84385786D02*
X95548528Y-83536551D01*
X94770711Y-87143503D02*
X93639340Y-88274874D01*
X92225126Y-86860660D02*
X93427208Y-85658579D01*
X93639340Y-88274874D02*
X92225126Y-86860660D01*
%TO.C,D33*%
X95972439Y-78536198D02*
X96963802Y-79527561D01*
X96963802Y-79527561D02*
X96963449Y-79951472D01*
X95548528Y-78536551D02*
X95972439Y-78536198D01*
X96963449Y-79951472D02*
X96114214Y-80800000D01*
X94700000Y-79385786D02*
X95548528Y-78536551D01*
X94770711Y-82143503D02*
X93639340Y-83274874D01*
X92225126Y-81860660D02*
X93427208Y-80658579D01*
X93639340Y-83274874D02*
X92225126Y-81860660D01*
%TO.C,D37*%
X115972439Y-78536198D02*
X116963802Y-79527561D01*
X116963802Y-79527561D02*
X116963449Y-79951472D01*
X115548528Y-78536551D02*
X115972439Y-78536198D01*
X116963449Y-79951472D02*
X116114214Y-80800000D01*
X114700000Y-79385786D02*
X115548528Y-78536551D01*
X114770711Y-82143503D02*
X113639340Y-83274874D01*
X112225126Y-81860660D02*
X113427208Y-80658579D01*
X113639340Y-83274874D02*
X112225126Y-81860660D01*
%TO.C,D9*%
X95972439Y-63536198D02*
X96963802Y-64527561D01*
X96963802Y-64527561D02*
X96963449Y-64951472D01*
X95548528Y-63536551D02*
X95972439Y-63536198D01*
X96963449Y-64951472D02*
X96114214Y-65800000D01*
X94700000Y-64385786D02*
X95548528Y-63536551D01*
X94770711Y-67143503D02*
X93639340Y-68274874D01*
X92225126Y-66860660D02*
X93427208Y-65658579D01*
X93639340Y-68274874D02*
X92225126Y-66860660D01*
%TO.C,D27*%
X105972439Y-73536198D02*
X106963802Y-74527561D01*
X106963802Y-74527561D02*
X106963449Y-74951472D01*
X105548528Y-73536551D02*
X105972439Y-73536198D01*
X106963449Y-74951472D02*
X106114214Y-75800000D01*
X104700000Y-74385786D02*
X105548528Y-73536551D01*
X104770711Y-77143503D02*
X103639340Y-78274874D01*
X102225126Y-76860660D02*
X103427208Y-75658579D01*
X103639340Y-78274874D02*
X102225126Y-76860660D01*
%TO.C,D58*%
X100972439Y-93536198D02*
X101963802Y-94527561D01*
X101963802Y-94527561D02*
X101963449Y-94951472D01*
X100548528Y-93536551D02*
X100972439Y-93536198D01*
X101963449Y-94951472D02*
X101114214Y-95800000D01*
X99700000Y-94385786D02*
X100548528Y-93536551D01*
X99770711Y-97143503D02*
X98639340Y-98274874D01*
X97225126Y-96860660D02*
X98427208Y-95658579D01*
X98639340Y-98274874D02*
X97225126Y-96860660D01*
%TO.C,D62*%
X120972439Y-93536198D02*
X121963802Y-94527561D01*
X121963802Y-94527561D02*
X121963449Y-94951472D01*
X120548528Y-93536551D02*
X120972439Y-93536198D01*
X121963449Y-94951472D02*
X121114214Y-95800000D01*
X119700000Y-94385786D02*
X120548528Y-93536551D01*
X119770711Y-97143503D02*
X118639340Y-98274874D01*
X117225126Y-96860660D02*
X118427208Y-95658579D01*
X118639340Y-98274874D02*
X117225126Y-96860660D01*
%TO.C,D6*%
X120972439Y-58598697D02*
X121963802Y-59590060D01*
X121963802Y-59590060D02*
X121963449Y-60013971D01*
X120548528Y-58599050D02*
X120972439Y-58598697D01*
X121963449Y-60013971D02*
X121114214Y-60862499D01*
X119700000Y-59448285D02*
X120548528Y-58599050D01*
X119770711Y-62206002D02*
X118639340Y-63337373D01*
X117225126Y-61923159D02*
X118427208Y-60721078D01*
X118639340Y-63337373D02*
X117225126Y-61923159D01*
%TO.C,D38*%
X120972439Y-78536198D02*
X121963802Y-79527561D01*
X121963802Y-79527561D02*
X121963449Y-79951472D01*
X120548528Y-78536551D02*
X120972439Y-78536198D01*
X121963449Y-79951472D02*
X121114214Y-80800000D01*
X119700000Y-79385786D02*
X120548528Y-78536551D01*
X119770711Y-82143503D02*
X118639340Y-83274874D01*
X117225126Y-81860660D02*
X118427208Y-80658579D01*
X118639340Y-83274874D02*
X117225126Y-81860660D01*
%TO.C,D64*%
X130972439Y-93536198D02*
X131963802Y-94527561D01*
X131963802Y-94527561D02*
X131963449Y-94951472D01*
X130548528Y-93536551D02*
X130972439Y-93536198D01*
X131963449Y-94951472D02*
X131114214Y-95800000D01*
X129700000Y-94385786D02*
X130548528Y-93536551D01*
X129770711Y-97143503D02*
X128639340Y-98274874D01*
X127225126Y-96860660D02*
X128427208Y-95658579D01*
X128639340Y-98274874D02*
X127225126Y-96860660D01*
%TO.C,D16*%
X130972439Y-63536198D02*
X131963802Y-64527561D01*
X131963802Y-64527561D02*
X131963449Y-64951472D01*
X130548528Y-63536551D02*
X130972439Y-63536198D01*
X131963449Y-64951472D02*
X131114214Y-65800000D01*
X129700000Y-64385786D02*
X130548528Y-63536551D01*
X129770711Y-67143503D02*
X128639340Y-68274874D01*
X127225126Y-66860660D02*
X128427208Y-65658579D01*
X128639340Y-68274874D02*
X127225126Y-66860660D01*
%TO.C,D19*%
X105972439Y-68536198D02*
X106963802Y-69527561D01*
X106963802Y-69527561D02*
X106963449Y-69951472D01*
X105548528Y-68536551D02*
X105972439Y-68536198D01*
X106963449Y-69951472D02*
X106114214Y-70800000D01*
X104700000Y-69385786D02*
X105548528Y-68536551D01*
X104770711Y-72143503D02*
X103639340Y-73274874D01*
X102225126Y-71860660D02*
X103427208Y-70658579D01*
X103639340Y-73274874D02*
X102225126Y-71860660D01*
%TO.C,D59*%
X105972439Y-93536198D02*
X106963802Y-94527561D01*
X106963802Y-94527561D02*
X106963449Y-94951472D01*
X105548528Y-93536551D02*
X105972439Y-93536198D01*
X106963449Y-94951472D02*
X106114214Y-95800000D01*
X104700000Y-94385786D02*
X105548528Y-93536551D01*
X104770711Y-97143503D02*
X103639340Y-98274874D01*
X102225126Y-96860660D02*
X103427208Y-95658579D01*
X103639340Y-98274874D02*
X102225126Y-96860660D01*
%TO.C,D26*%
X100972439Y-73536198D02*
X101963802Y-74527561D01*
X101963802Y-74527561D02*
X101963449Y-74951472D01*
X100548528Y-73536551D02*
X100972439Y-73536198D01*
X101963449Y-74951472D02*
X101114214Y-75800000D01*
X99700000Y-74385786D02*
X100548528Y-73536551D01*
X99770711Y-77143503D02*
X98639340Y-78274874D01*
X97225126Y-76860660D02*
X98427208Y-75658579D01*
X98639340Y-78274874D02*
X97225126Y-76860660D01*
%TO.C,D30*%
X120972439Y-73536198D02*
X121963802Y-74527561D01*
X121963802Y-74527561D02*
X121963449Y-74951472D01*
X120548528Y-73536551D02*
X120972439Y-73536198D01*
X121963449Y-74951472D02*
X121114214Y-75800000D01*
X119700000Y-74385786D02*
X120548528Y-73536551D01*
X119770711Y-77143503D02*
X118639340Y-78274874D01*
X117225126Y-76860660D02*
X118427208Y-75658579D01*
X118639340Y-78274874D02*
X117225126Y-76860660D01*
%TO.C,D1*%
X95972439Y-58598697D02*
X96963802Y-59590060D01*
X96963802Y-59590060D02*
X96963449Y-60013971D01*
X95548528Y-58599050D02*
X95972439Y-58598697D01*
X96963449Y-60013971D02*
X96114214Y-60862499D01*
X94700000Y-59448285D02*
X95548528Y-58599050D01*
X94770711Y-62206002D02*
X93639340Y-63337373D01*
X92225126Y-61923159D02*
X93427208Y-60721078D01*
X93639340Y-63337373D02*
X92225126Y-61923159D01*
%TO.C,D39*%
X125972439Y-78536198D02*
X126963802Y-79527561D01*
X126963802Y-79527561D02*
X126963449Y-79951472D01*
X125548528Y-78536551D02*
X125972439Y-78536198D01*
X126963449Y-79951472D02*
X126114214Y-80800000D01*
X124700000Y-79385786D02*
X125548528Y-78536551D01*
X124770711Y-82143503D02*
X123639340Y-83274874D01*
X122225126Y-81860660D02*
X123427208Y-80658579D01*
X123639340Y-83274874D02*
X122225126Y-81860660D01*
%TO.C,D56*%
X130972439Y-88536198D02*
X131963802Y-89527561D01*
X131963802Y-89527561D02*
X131963449Y-89951472D01*
X130548528Y-88536551D02*
X130972439Y-88536198D01*
X131963449Y-89951472D02*
X131114214Y-90800000D01*
X129700000Y-89385786D02*
X130548528Y-88536551D01*
X129770711Y-92143503D02*
X128639340Y-93274874D01*
X127225126Y-91860660D02*
X128427208Y-90658579D01*
X128639340Y-93274874D02*
X127225126Y-91860660D01*
%TO.C,D60*%
X110972439Y-93536198D02*
X111963802Y-94527561D01*
X111963802Y-94527561D02*
X111963449Y-94951472D01*
X110548528Y-93536551D02*
X110972439Y-93536198D01*
X111963449Y-94951472D02*
X111114214Y-95800000D01*
X109700000Y-94385786D02*
X110548528Y-93536551D01*
X109770711Y-97143503D02*
X108639340Y-98274874D01*
X107225126Y-96860660D02*
X108427208Y-95658579D01*
X108639340Y-98274874D02*
X107225126Y-96860660D01*
%TO.C,D57*%
X95972439Y-93536198D02*
X96963802Y-94527561D01*
X96963802Y-94527561D02*
X96963449Y-94951472D01*
X95548528Y-93536551D02*
X95972439Y-93536198D01*
X96963449Y-94951472D02*
X96114214Y-95800000D01*
X94700000Y-94385786D02*
X95548528Y-93536551D01*
X94770711Y-97143503D02*
X93639340Y-98274874D01*
X92225126Y-96860660D02*
X93427208Y-95658579D01*
X93639340Y-98274874D02*
X92225126Y-96860660D01*
%TO.C,D8*%
X130972439Y-58536198D02*
X131963802Y-59527561D01*
X131963802Y-59527561D02*
X131963449Y-59951472D01*
X130548528Y-58536551D02*
X130972439Y-58536198D01*
X131963449Y-59951472D02*
X131114214Y-60800000D01*
X129700000Y-59385786D02*
X130548528Y-58536551D01*
X129770711Y-62143503D02*
X128639340Y-63274874D01*
X127225126Y-61860660D02*
X128427208Y-60658579D01*
X128639340Y-63274874D02*
X127225126Y-61860660D01*
%TO.C,D29*%
X115972439Y-73536198D02*
X116963802Y-74527561D01*
X116963802Y-74527561D02*
X116963449Y-74951472D01*
X115548528Y-73536551D02*
X115972439Y-73536198D01*
X116963449Y-74951472D02*
X116114214Y-75800000D01*
X114700000Y-74385786D02*
X115548528Y-73536551D01*
X114770711Y-77143503D02*
X113639340Y-78274874D01*
X112225126Y-76860660D02*
X113427208Y-75658579D01*
X113639340Y-78274874D02*
X112225126Y-76860660D01*
%TO.C,D20*%
X110972439Y-68536198D02*
X111963802Y-69527561D01*
X111963802Y-69527561D02*
X111963449Y-69951472D01*
X110548528Y-68536551D02*
X110972439Y-68536198D01*
X111963449Y-69951472D02*
X111114214Y-70800000D01*
X109700000Y-69385786D02*
X110548528Y-68536551D01*
X109770711Y-72143503D02*
X108639340Y-73274874D01*
X107225126Y-71860660D02*
X108427208Y-70658579D01*
X108639340Y-73274874D02*
X107225126Y-71860660D01*
%TO.C,D18*%
X100972439Y-68536198D02*
X101963802Y-69527561D01*
X101963802Y-69527561D02*
X101963449Y-69951472D01*
X100548528Y-68536551D02*
X100972439Y-68536198D01*
X101963449Y-69951472D02*
X101114214Y-70800000D01*
X99700000Y-69385786D02*
X100548528Y-68536551D01*
X99770711Y-72143503D02*
X98639340Y-73274874D01*
X97225126Y-71860660D02*
X98427208Y-70658579D01*
X98639340Y-73274874D02*
X97225126Y-71860660D01*
%TO.C,D14*%
X120972439Y-63536198D02*
X121963802Y-64527561D01*
X121963802Y-64527561D02*
X121963449Y-64951472D01*
X120548528Y-63536551D02*
X120972439Y-63536198D01*
X121963449Y-64951472D02*
X121114214Y-65800000D01*
X119700000Y-64385786D02*
X120548528Y-63536551D01*
X119770711Y-67143503D02*
X118639340Y-68274874D01*
X117225126Y-66860660D02*
X118427208Y-65658579D01*
X118639340Y-68274874D02*
X117225126Y-66860660D01*
%TO.C,D36*%
X110972439Y-78536198D02*
X111963802Y-79527561D01*
X111963802Y-79527561D02*
X111963449Y-79951472D01*
X110548528Y-78536551D02*
X110972439Y-78536198D01*
X111963449Y-79951472D02*
X111114214Y-80800000D01*
X109700000Y-79385786D02*
X110548528Y-78536551D01*
X109770711Y-82143503D02*
X108639340Y-83274874D01*
X107225126Y-81860660D02*
X108427208Y-80658579D01*
X108639340Y-83274874D02*
X107225126Y-81860660D01*
%TO.C,D2*%
X100972439Y-58536198D02*
X101963802Y-59527561D01*
X101963802Y-59527561D02*
X101963449Y-59951472D01*
X100548528Y-58536551D02*
X100972439Y-58536198D01*
X101963449Y-59951472D02*
X101114214Y-60800000D01*
X99700000Y-59385786D02*
X100548528Y-58536551D01*
X99770711Y-62143503D02*
X98639340Y-63274874D01*
X97225126Y-61860660D02*
X98427208Y-60658579D01*
X98639340Y-63274874D02*
X97225126Y-61860660D01*
%TO.C,D11*%
X105972439Y-63536198D02*
X106963802Y-64527561D01*
X106963802Y-64527561D02*
X106963449Y-64951472D01*
X105548528Y-63536551D02*
X105972439Y-63536198D01*
X106963449Y-64951472D02*
X106114214Y-65800000D01*
X104700000Y-64385786D02*
X105548528Y-63536551D01*
X104770711Y-67143503D02*
X103639340Y-68274874D01*
X102225126Y-66860660D02*
X103427208Y-65658579D01*
X103639340Y-68274874D02*
X102225126Y-66860660D01*
%TO.C,D35*%
X105972439Y-78536198D02*
X106963802Y-79527561D01*
X106963802Y-79527561D02*
X106963449Y-79951472D01*
X105548528Y-78536551D02*
X105972439Y-78536198D01*
X106963449Y-79951472D02*
X106114214Y-80800000D01*
X104700000Y-79385786D02*
X105548528Y-78536551D01*
X104770711Y-82143503D02*
X103639340Y-83274874D01*
X102225126Y-81860660D02*
X103427208Y-80658579D01*
X103639340Y-83274874D02*
X102225126Y-81860660D01*
%TO.C,D21*%
X115972439Y-68536198D02*
X116963802Y-69527561D01*
X116963802Y-69527561D02*
X116963449Y-69951472D01*
X115548528Y-68536551D02*
X115972439Y-68536198D01*
X116963449Y-69951472D02*
X116114214Y-70800000D01*
X114700000Y-69385786D02*
X115548528Y-68536551D01*
X114770711Y-72143503D02*
X113639340Y-73274874D01*
X112225126Y-71860660D02*
X113427208Y-70658579D01*
X113639340Y-73274874D02*
X112225126Y-71860660D01*
%TO.C,D32*%
X130972439Y-73536198D02*
X131963802Y-74527561D01*
X131963802Y-74527561D02*
X131963449Y-74951472D01*
X130548528Y-73536551D02*
X130972439Y-73536198D01*
X131963449Y-74951472D02*
X131114214Y-75800000D01*
X129700000Y-74385786D02*
X130548528Y-73536551D01*
X129770711Y-77143503D02*
X128639340Y-78274874D01*
X127225126Y-76860660D02*
X128427208Y-75658579D01*
X128639340Y-78274874D02*
X127225126Y-76860660D01*
%TO.C,D47*%
X125972439Y-83536198D02*
X126963802Y-84527561D01*
X126963802Y-84527561D02*
X126963449Y-84951472D01*
X125548528Y-83536551D02*
X125972439Y-83536198D01*
X126963449Y-84951472D02*
X126114214Y-85800000D01*
X124700000Y-84385786D02*
X125548528Y-83536551D01*
X124770711Y-87143503D02*
X123639340Y-88274874D01*
X122225126Y-86860660D02*
X123427208Y-85658579D01*
X123639340Y-88274874D02*
X122225126Y-86860660D01*
%TO.C,D55*%
X125972439Y-88536198D02*
X126963802Y-89527561D01*
X126963802Y-89527561D02*
X126963449Y-89951472D01*
X125548528Y-88536551D02*
X125972439Y-88536198D01*
X126963449Y-89951472D02*
X126114214Y-90800000D01*
X124700000Y-89385786D02*
X125548528Y-88536551D01*
X124770711Y-92143503D02*
X123639340Y-93274874D01*
X122225126Y-91860660D02*
X123427208Y-90658579D01*
X123639340Y-93274874D02*
X122225126Y-91860660D01*
%TO.C,D28*%
X110972439Y-73536198D02*
X111963802Y-74527561D01*
X111963802Y-74527561D02*
X111963449Y-74951472D01*
X110548528Y-73536551D02*
X110972439Y-73536198D01*
X111963449Y-74951472D02*
X111114214Y-75800000D01*
X109700000Y-74385786D02*
X110548528Y-73536551D01*
X109770711Y-77143503D02*
X108639340Y-78274874D01*
X107225126Y-76860660D02*
X108427208Y-75658579D01*
X108639340Y-78274874D02*
X107225126Y-76860660D01*
%TO.C,D10*%
X100972439Y-63536198D02*
X101963802Y-64527561D01*
X101963802Y-64527561D02*
X101963449Y-64951472D01*
X100548528Y-63536551D02*
X100972439Y-63536198D01*
X101963449Y-64951472D02*
X101114214Y-65800000D01*
X99700000Y-64385786D02*
X100548528Y-63536551D01*
X99770711Y-67143503D02*
X98639340Y-68274874D01*
X97225126Y-66860660D02*
X98427208Y-65658579D01*
X98639340Y-68274874D02*
X97225126Y-66860660D01*
%TO.C,D53*%
X115972439Y-88536198D02*
X116963802Y-89527561D01*
X116963802Y-89527561D02*
X116963449Y-89951472D01*
X115548528Y-88536551D02*
X115972439Y-88536198D01*
X116963449Y-89951472D02*
X116114214Y-90800000D01*
X114700000Y-89385786D02*
X115548528Y-88536551D01*
X114770711Y-92143503D02*
X113639340Y-93274874D01*
X112225126Y-91860660D02*
X113427208Y-90658579D01*
X113639340Y-93274874D02*
X112225126Y-91860660D01*
%TO.C,D24*%
X130972439Y-68536198D02*
X131963802Y-69527561D01*
X131963802Y-69527561D02*
X131963449Y-69951472D01*
X130548528Y-68536551D02*
X130972439Y-68536198D01*
X131963449Y-69951472D02*
X131114214Y-70800000D01*
X129700000Y-69385786D02*
X130548528Y-68536551D01*
X129770711Y-72143503D02*
X128639340Y-73274874D01*
X127225126Y-71860660D02*
X128427208Y-70658579D01*
X128639340Y-73274874D02*
X127225126Y-71860660D01*
%TO.C,D23*%
X125972439Y-68536198D02*
X126963802Y-69527561D01*
X126963802Y-69527561D02*
X126963449Y-69951472D01*
X125548528Y-68536551D02*
X125972439Y-68536198D01*
X126963449Y-69951472D02*
X126114214Y-70800000D01*
X124700000Y-69385786D02*
X125548528Y-68536551D01*
X124770711Y-72143503D02*
X123639340Y-73274874D01*
X122225126Y-71860660D02*
X123427208Y-70658579D01*
X123639340Y-73274874D02*
X122225126Y-71860660D01*
%TO.C,D15*%
X125972439Y-63536198D02*
X126963802Y-64527561D01*
X126963802Y-64527561D02*
X126963449Y-64951472D01*
X125548528Y-63536551D02*
X125972439Y-63536198D01*
X126963449Y-64951472D02*
X126114214Y-65800000D01*
X124700000Y-64385786D02*
X125548528Y-63536551D01*
X124770711Y-67143503D02*
X123639340Y-68274874D01*
X122225126Y-66860660D02*
X123427208Y-65658579D01*
X123639340Y-68274874D02*
X122225126Y-66860660D01*
D13*
%TO.C,LS1*%
X75500000Y-72000000D02*
X75500000Y-60000000D01*
X75500000Y-60000000D02*
X78769000Y-60000000D01*
X78769000Y-72000000D02*
X75500000Y-72000000D01*
X84231000Y-60000000D02*
X87500000Y-60000000D01*
X86600000Y-68500000D02*
X87500000Y-68500000D01*
X86600000Y-63465000D02*
X86600000Y-68500000D01*
X87500000Y-72000000D02*
X84231000Y-72000000D01*
X87500000Y-63465000D02*
X86600000Y-63465000D01*
X87500000Y-60000000D02*
X87500000Y-72000000D01*
X86627500Y-73400000D02*
G75*
G02*
X84972500Y-73400000I-827500J0D01*
G01*
X84972500Y-73400000D02*
G75*
G02*
X86627500Y-73400000I827500J0D01*
G01*
D14*
%TO.C,BT1*%
X131450000Y-37700000D02*
X131450000Y-39120000D01*
X131450000Y-37700000D02*
X128326500Y-37700000D01*
X131450000Y-44700000D02*
X131450000Y-43280000D01*
X131450000Y-44700000D02*
X128326500Y-44700000D01*
X129000000Y-33126500D02*
X128850000Y-33126500D01*
D15*
X129000000Y-33150000D02*
X129000000Y-49252500D01*
D14*
X128850000Y-33126500D02*
X128850000Y-49276000D01*
X128850000Y-49276000D02*
X129000000Y-49276000D01*
D15*
X128326000Y-33124000D02*
X106074000Y-33124000D01*
X128326000Y-49276000D02*
X106074000Y-49276000D01*
D14*
X126400000Y-34550000D02*
X127500000Y-34550000D01*
X108000000Y-47850000D02*
X106900000Y-47850000D01*
X107560000Y-33124000D02*
X107535500Y-33124000D01*
X107535500Y-33124000D02*
X106074000Y-34585500D01*
X107450000Y-48400000D02*
X107450000Y-47300000D01*
D15*
X106074000Y-33124000D02*
X106074000Y-39217000D01*
D14*
X106074000Y-39217000D02*
X106074000Y-43257000D01*
D15*
X106074000Y-49276000D02*
X106074000Y-43183000D01*
D14*
X102950000Y-37700000D02*
X106074000Y-37700000D01*
X102950000Y-37700000D02*
X102950000Y-39120000D01*
X102950000Y-44700000D02*
X106074000Y-44700000D01*
X102950000Y-44700000D02*
X102950000Y-43280000D01*
X123096500Y-33123500D02*
G75*
G02*
X123105000Y-49270500I-5896292J-8076606D01*
G01*
X111303500Y-49276500D02*
G75*
G02*
X111295000Y-33129500I5896292J8076606D01*
G01*
X127868000Y-34550000D02*
G75*
G02*
X126032000Y-34550000I-918000J0D01*
G01*
X126032000Y-34550000D02*
G75*
G02*
X127868000Y-34550000I918000J0D01*
G01*
X108368000Y-47850000D02*
G75*
G02*
X106532000Y-47850000I-918000J0D01*
G01*
X106532000Y-47850000D02*
G75*
G02*
X108368000Y-47850000I918000J0D01*
G01*
D16*
G36*
X106074000Y-34596000D02*
G01*
X106074000Y-33124000D01*
X107548000Y-33124000D01*
X106074000Y-34596000D01*
G37*
G36*
X128555000Y-49352500D02*
G01*
X128250000Y-49352500D01*
X128250000Y-43132500D01*
X128555000Y-43132500D01*
X128555000Y-49352500D01*
G37*
G36*
X128555000Y-39267500D02*
G01*
X128550000Y-43200000D01*
X128250000Y-43150000D01*
X128250000Y-33047500D01*
X128555000Y-33047500D01*
X128555000Y-39267500D01*
G37*
D17*
%TO.C,R5*%
X83162770Y-39598303D02*
X83498303Y-39262770D01*
X83901697Y-40337230D02*
X84237230Y-40001697D01*
%TO.C,U1*%
X81640000Y-47640000D02*
X81640000Y-48090000D01*
X81640000Y-54860000D02*
X81640000Y-54410000D01*
X82090000Y-47640000D02*
X81640000Y-47640000D01*
X82090000Y-54860000D02*
X81640000Y-54860000D01*
X88410000Y-47640000D02*
X88860000Y-47640000D01*
X88410000Y-54860000D02*
X88860000Y-54860000D01*
X88860000Y-47640000D02*
X88860000Y-48090000D01*
X88860000Y-54860000D02*
X88860000Y-54410000D01*
X82090000Y-47050000D02*
X81620000Y-47390000D01*
X81620000Y-46710000D01*
X82090000Y-47050000D01*
G36*
X82090000Y-47050000D02*
G01*
X81620000Y-47390000D01*
X81620000Y-46710000D01*
X82090000Y-47050000D01*
G37*
%TO.C,C2*%
X86407836Y-44915000D02*
X86192164Y-44915000D01*
X86407836Y-45635000D02*
X86192164Y-45635000D01*
%TO.C,R2*%
X69498303Y-75237230D02*
X69162770Y-74901697D01*
X70237230Y-74498303D02*
X69901697Y-74162770D01*
%TO.C,C3*%
X87015580Y-43440000D02*
X86734420Y-43440000D01*
X87015580Y-44460000D02*
X86734420Y-44460000D01*
%TO.C,J1*%
X44149012Y-33352962D02*
X44598025Y-32903949D01*
X44598025Y-32903949D02*
X45047038Y-33352962D01*
%TO.C,C5*%
X89132836Y-44890000D02*
X88917164Y-44890000D01*
X89132836Y-45610000D02*
X88917164Y-45610000D01*
%TO.C,C1*%
X83490000Y-44667164D02*
X83490000Y-44882836D01*
X84210000Y-44667164D02*
X84210000Y-44882836D01*
%TO.C,R4*%
X73162770Y-46798303D02*
X73498303Y-46462770D01*
X73901697Y-47537230D02*
X74237230Y-47201697D01*
%TO.C,Y1*%
X79803984Y-43708579D02*
X80758579Y-42753984D01*
X81041421Y-44946016D02*
X81996016Y-43991421D01*
%TO.C,C4*%
X84490000Y-44667164D02*
X84490000Y-44882836D01*
X85210000Y-44667164D02*
X85210000Y-44882836D01*
%TO.C,C7*%
X79969190Y-41628307D02*
X80121693Y-41780810D01*
X80478307Y-41119190D02*
X80630810Y-41271693D01*
%TO.C,C6*%
X78169190Y-43428307D02*
X78321693Y-43580810D01*
X78678307Y-42919190D02*
X78830810Y-43071693D01*
%TD*%
%LPC*%
D18*
%TO.C,D45*%
X115978803Y-84521197D03*
D19*
X113421197Y-87078803D03*
%TD*%
D18*
%TO.C,D42*%
X100978803Y-84521197D03*
D19*
X98421197Y-87078803D03*
%TD*%
D18*
%TO.C,D61*%
X115978803Y-94521197D03*
D19*
X113421197Y-97078803D03*
%TD*%
D18*
%TO.C,D46*%
X120978803Y-84521197D03*
D19*
X118421197Y-87078803D03*
%TD*%
D18*
%TO.C,D54*%
X120978803Y-89521197D03*
D19*
X118421197Y-92078803D03*
%TD*%
D18*
%TO.C,D5*%
X115978803Y-59583696D03*
D19*
X113421197Y-62141302D03*
%TD*%
D18*
%TO.C,D51*%
X105978803Y-89521197D03*
D19*
X103421197Y-92078803D03*
%TD*%
D18*
%TO.C,D17*%
X95978803Y-69521197D03*
D19*
X93421197Y-72078803D03*
%TD*%
D18*
%TO.C,D7*%
X125978803Y-59521197D03*
D19*
X123421197Y-62078803D03*
%TD*%
D18*
%TO.C,D52*%
X110978803Y-89521197D03*
D19*
X108421197Y-92078803D03*
%TD*%
D18*
%TO.C,D63*%
X125978803Y-94521197D03*
D19*
X123421197Y-97078803D03*
%TD*%
D18*
%TO.C,D48*%
X130978803Y-84521197D03*
D19*
X128421197Y-87078803D03*
%TD*%
D18*
%TO.C,D50*%
X100978803Y-89521197D03*
D19*
X98421197Y-92078803D03*
%TD*%
D18*
%TO.C,D31*%
X125978803Y-74521197D03*
D19*
X123421197Y-77078803D03*
%TD*%
D18*
%TO.C,D40*%
X130978803Y-79521197D03*
D19*
X128421197Y-82078803D03*
%TD*%
D18*
%TO.C,D4*%
X110978803Y-59521197D03*
D19*
X108421197Y-62078803D03*
%TD*%
D18*
%TO.C,D49*%
X95978803Y-89521197D03*
D19*
X93421197Y-92078803D03*
%TD*%
D18*
%TO.C,D34*%
X100978803Y-79583696D03*
D19*
X98421197Y-82141302D03*
%TD*%
D18*
%TO.C,D43*%
X105978803Y-84521197D03*
D19*
X103421197Y-87078803D03*
%TD*%
D18*
%TO.C,D3*%
X105978803Y-59521197D03*
D19*
X103421197Y-62078803D03*
%TD*%
D18*
%TO.C,D13*%
X115978803Y-64521197D03*
D19*
X113421197Y-67078803D03*
%TD*%
D18*
%TO.C,D12*%
X110978803Y-64521197D03*
D19*
X108421197Y-67078803D03*
%TD*%
D18*
%TO.C,D44*%
X110978803Y-84521197D03*
D19*
X108421197Y-87078803D03*
%TD*%
D18*
%TO.C,D25*%
X95978803Y-74521197D03*
D19*
X93421197Y-77078803D03*
%TD*%
D18*
%TO.C,D22*%
X120978803Y-69521197D03*
D19*
X118421197Y-72078803D03*
%TD*%
D18*
%TO.C,D41*%
X95978803Y-84521197D03*
D19*
X93421197Y-87078803D03*
%TD*%
D18*
%TO.C,D33*%
X95978803Y-79521197D03*
D19*
X93421197Y-82078803D03*
%TD*%
D18*
%TO.C,D37*%
X115978803Y-79521197D03*
D19*
X113421197Y-82078803D03*
%TD*%
D18*
%TO.C,D9*%
X95978803Y-64521197D03*
D19*
X93421197Y-67078803D03*
%TD*%
D18*
%TO.C,D27*%
X105978803Y-74521197D03*
D19*
X103421197Y-77078803D03*
%TD*%
D18*
%TO.C,D58*%
X100978803Y-94521197D03*
D19*
X98421197Y-97078803D03*
%TD*%
D18*
%TO.C,D62*%
X120978803Y-94521197D03*
D19*
X118421197Y-97078803D03*
%TD*%
D18*
%TO.C,D6*%
X120978803Y-59583696D03*
D19*
X118421197Y-62141302D03*
%TD*%
D18*
%TO.C,D38*%
X120978803Y-79521197D03*
D19*
X118421197Y-82078803D03*
%TD*%
D18*
%TO.C,D64*%
X130978803Y-94521197D03*
D19*
X128421197Y-97078803D03*
%TD*%
D18*
%TO.C,D16*%
X130978803Y-64521197D03*
D19*
X128421197Y-67078803D03*
%TD*%
D18*
%TO.C,D19*%
X105978803Y-69521197D03*
D19*
X103421197Y-72078803D03*
%TD*%
D18*
%TO.C,D59*%
X105978803Y-94521197D03*
D19*
X103421197Y-97078803D03*
%TD*%
D18*
%TO.C,D26*%
X100978803Y-74521197D03*
D19*
X98421197Y-77078803D03*
%TD*%
D18*
%TO.C,D30*%
X120978803Y-74521197D03*
D19*
X118421197Y-77078803D03*
%TD*%
D18*
%TO.C,D1*%
X95978803Y-59583696D03*
D19*
X93421197Y-62141302D03*
%TD*%
D18*
%TO.C,D39*%
X125978803Y-79521197D03*
D19*
X123421197Y-82078803D03*
%TD*%
D18*
%TO.C,D56*%
X130978803Y-89521197D03*
D19*
X128421197Y-92078803D03*
%TD*%
D18*
%TO.C,D60*%
X110978803Y-94521197D03*
D19*
X108421197Y-97078803D03*
%TD*%
D18*
%TO.C,D57*%
X95978803Y-94521197D03*
D19*
X93421197Y-97078803D03*
%TD*%
D18*
%TO.C,D8*%
X130978803Y-59521197D03*
D19*
X128421197Y-62078803D03*
%TD*%
D18*
%TO.C,D29*%
X115978803Y-74521197D03*
D19*
X113421197Y-77078803D03*
%TD*%
D18*
%TO.C,D20*%
X110978803Y-69521197D03*
D19*
X108421197Y-72078803D03*
%TD*%
D18*
%TO.C,D18*%
X100978803Y-69521197D03*
D19*
X98421197Y-72078803D03*
%TD*%
D18*
%TO.C,D14*%
X120978803Y-64521197D03*
D19*
X118421197Y-67078803D03*
%TD*%
D18*
%TO.C,D36*%
X110978803Y-79521197D03*
D19*
X108421197Y-82078803D03*
%TD*%
D18*
%TO.C,D2*%
X100978803Y-59521197D03*
D19*
X98421197Y-62078803D03*
%TD*%
D18*
%TO.C,D11*%
X105978803Y-64521197D03*
D19*
X103421197Y-67078803D03*
%TD*%
D18*
%TO.C,D35*%
X105978803Y-79521197D03*
D19*
X103421197Y-82078803D03*
%TD*%
D18*
%TO.C,D21*%
X115978803Y-69521197D03*
D19*
X113421197Y-72078803D03*
%TD*%
D18*
%TO.C,D32*%
X130978803Y-74521197D03*
D19*
X128421197Y-77078803D03*
%TD*%
D18*
%TO.C,D47*%
X125978803Y-84521197D03*
D19*
X123421197Y-87078803D03*
%TD*%
D18*
%TO.C,D55*%
X125978803Y-89521197D03*
D19*
X123421197Y-92078803D03*
%TD*%
D18*
%TO.C,D28*%
X110978803Y-74521197D03*
D19*
X108421197Y-77078803D03*
%TD*%
D18*
%TO.C,D10*%
X100978803Y-64521197D03*
D19*
X98421197Y-67078803D03*
%TD*%
D18*
%TO.C,D53*%
X115978803Y-89521197D03*
D19*
X113421197Y-92078803D03*
%TD*%
D18*
%TO.C,D24*%
X130978803Y-69521197D03*
D19*
X128421197Y-72078803D03*
%TD*%
D18*
%TO.C,D23*%
X125978803Y-69521197D03*
D19*
X123421197Y-72078803D03*
%TD*%
D18*
%TO.C,D15*%
X125978803Y-64521197D03*
D19*
X123421197Y-67078803D03*
%TD*%
D20*
%TO.C,LS1*%
X81500000Y-71400000D03*
X81500000Y-60600000D03*
%TD*%
D21*
%TO.C,BT1*%
X102815000Y-41200000D03*
X131585000Y-41200000D03*
%TD*%
D22*
%TO.C,*%
X43000000Y-175000000D03*
%TD*%
%TO.C,REF\u002A\u002A*%
X143000000Y-33000000D03*
%TD*%
%TO.C,*%
X143000000Y-175000000D03*
%TD*%
D23*
%TO.C,R5*%
X83116637Y-40383363D03*
X84283363Y-39216637D03*
%TD*%
D24*
%TO.C,U1*%
X82500000Y-47087500D03*
X83000000Y-47087500D03*
X83500000Y-47087500D03*
X84000000Y-47087500D03*
X84500000Y-47087500D03*
X85000000Y-47087500D03*
X85500000Y-47087500D03*
X86000000Y-47087500D03*
X86500000Y-47087500D03*
X87000000Y-47087500D03*
X87500000Y-47087500D03*
X88000000Y-47087500D03*
D25*
X89412500Y-48500000D03*
X89412500Y-49000000D03*
X89412500Y-49500000D03*
X89412500Y-50000000D03*
X89412500Y-50500000D03*
X89412500Y-51000000D03*
X89412500Y-51500000D03*
X89412500Y-52000000D03*
X89412500Y-52500000D03*
X89412500Y-53000000D03*
X89412500Y-53500000D03*
X89412500Y-54000000D03*
D24*
X88000000Y-55412500D03*
X87500000Y-55412500D03*
X87000000Y-55412500D03*
X86500000Y-55412500D03*
X86000000Y-55412500D03*
X85500000Y-55412500D03*
X85000000Y-55412500D03*
X84500000Y-55412500D03*
X84000000Y-55412500D03*
X83500000Y-55412500D03*
X83000000Y-55412500D03*
X82500000Y-55412500D03*
D25*
X81087500Y-54000000D03*
X81087500Y-53500000D03*
X81087500Y-53000000D03*
X81087500Y-52500000D03*
X81087500Y-52000000D03*
X81087500Y-51500000D03*
X81087500Y-51000000D03*
X81087500Y-50500000D03*
X81087500Y-50000000D03*
X81087500Y-49500000D03*
%TD*%
D26*
%TO.C,C2*%
X85820000Y-45275000D03*
X86780000Y-45275000D03*
%TD*%
D27*
%TO.C,R2*%
X69116637Y-74116637D03*
X70283363Y-75283363D03*
%TD*%
D28*
%TO.C,C3*%
X86100000Y-43950000D03*
X87650000Y-43950000D03*
%TD*%
D29*
%TO.C,J1*%
X43250987Y-33352962D03*
X47561510Y-36226644D03*
X46124669Y-37663485D03*
D30*
X44598025Y-33801975D03*
X43700000Y-34700000D03*
X45496051Y-34700000D03*
X44598025Y-35598026D03*
X46394076Y-35598026D03*
X45496051Y-36496051D03*
%TD*%
D26*
%TO.C,C5*%
X88545000Y-45250000D03*
X89505000Y-45250000D03*
%TD*%
D31*
%TO.C,C1*%
X83850000Y-45255000D03*
X83850000Y-44295000D03*
%TD*%
D23*
%TO.C,R4*%
X73116637Y-47583363D03*
X74283363Y-46416637D03*
%TD*%
D32*
%TO.C,Y1*%
X80016117Y-44733883D03*
X81783883Y-42966117D03*
%TD*%
D31*
%TO.C,C4*%
X84850000Y-45255000D03*
X84850000Y-44295000D03*
%TD*%
D33*
%TO.C,C7*%
X80639411Y-41789411D03*
X79960589Y-41110589D03*
%TD*%
%TO.C,C6*%
X78839411Y-43589411D03*
X78160589Y-42910589D03*
%TD*%
%LPD*%
M02*
