M48
; DRILL file {KiCad 8.0.6} date 2024-11-20T00:12:50+0000
; FORMAT={-:-/ absolute / inch / decimal}
; #@! TF.CreationDate,2024-11-20T00:12:50+00:00
; #@! TF.GenerationSoftware,Kicad,Pcbnew,8.0.6
; #@! TF.FileFunction,Plated,1,2,PTH
FMAT,2
INCH
; #@! TA.AperFunction,Plated,PTH,ViaDrill
T1C0.0157
%
G90
G05
T1
X1.8504Y-1.4567
X1.8504Y-2.6772
X1.8504Y-3.3858
X1.8898Y-5.1969
X2.0866Y-6.4173
X2.4803Y-2.7953
X2.4803Y-4.252
X2.4882Y-6.5256
X3.0276Y-1.7087
X3.0276Y-1.8051
X3.1102Y-1.3386
X3.1496Y-2.2441
X3.189Y-6.811
X3.2283Y-4.685
X3.3012Y-1.7067
X3.3661Y-1.9154
X3.4252Y-2.0866
X3.4921Y-1.7303
X3.5207Y-6.5256
X3.5709Y-1.7815
X3.6024Y-2.2835
X3.6024Y-2.4792
X3.6024Y-2.676
X3.6024Y-2.8729
X3.6024Y-3.0697
X3.6024Y-3.2666
X3.6024Y-3.4634
X3.6024Y-3.6603
X3.6024Y-3.8571
X3.622Y-5.5512
X3.622Y-6.2205
X3.7992Y-2.2835
X3.7992Y-2.4792
X3.7992Y-2.6772
X3.7992Y-2.874
X3.7992Y-3.0709
X3.7992Y-3.2677
X3.7992Y-3.4646
X3.7992Y-3.6614
X3.7992Y-3.8583
X3.9764Y-4.252
X3.9961Y-2.2835
X3.9961Y-2.4792
X3.9961Y-2.6772
X3.9961Y-2.874
X3.9961Y-3.0709
X3.9961Y-3.2677
X3.9961Y-3.4646
X3.9961Y-3.6614
X3.9961Y-3.8583
X4.1732Y-6.2205
X4.1929Y-2.2835
X4.1929Y-2.4792
X4.1929Y-2.6772
X4.1929Y-2.874
X4.1929Y-3.0709
X4.1929Y-3.2677
X4.1929Y-3.4646
X4.1929Y-3.6614
X4.1929Y-3.8583
X4.2913Y-1.5748
X4.3898Y-2.2835
X4.3898Y-2.4792
X4.3898Y-2.6772
X4.3898Y-2.874
X4.3898Y-3.0709
X4.3898Y-3.2677
X4.3898Y-3.4646
X4.3898Y-3.6614
X4.3898Y-3.8583
X4.5866Y-2.2835
X4.5866Y-2.4792
X4.5866Y-2.6772
X4.5866Y-2.874
X4.5866Y-3.0709
X4.5866Y-3.2677
X4.5866Y-3.4646
X4.5866Y-3.6614
X4.5866Y-3.8583
X4.7244Y-4.5669
X4.7638Y-6.811
X4.7835Y-2.2835
X4.7835Y-2.4792
X4.7835Y-2.6772
X4.7835Y-2.874
X4.7835Y-3.0709
X4.7835Y-3.2677
X4.7835Y-3.4646
X4.7835Y-3.6614
X4.7835Y-3.8583
X4.7933Y-6.5256
X4.8573Y-1.6811
X4.8577Y-1.4685
X4.9803Y-1.5748
X4.9803Y-2.2835
X4.9803Y-2.4792
X4.9803Y-2.6772
X4.9803Y-2.874
X4.9803Y-3.0709
X4.9803Y-3.2677
X4.9803Y-3.4646
X4.9803Y-3.6614
X4.9803Y-3.8583
X5.2362Y-5.4724
X5.3543Y-6.6929
X5.4154Y-6.8996
X5.4331Y-6.2598
X5.5118Y-1.811
X5.5118Y-2.6772
X5.5118Y-3.6614
M30
