%TF.GenerationSoftware,KiCad,Pcbnew,9.0.4*%
%TF.CreationDate,2025-09-01T02:23:16+01:00*%
%TF.ProjectId,Chirstmas-Card,43686972-7374-46d6-9173-2d436172642e,rev?*%
%TF.SameCoordinates,Original*%
%TF.FileFunction,Profile,NP*%
%FSLAX46Y46*%
G04 Gerber Fmt 4.6, Leading zero omitted, Abs format (unit mm)*
G04 Created by KiCad (PCBNEW 9.0.4) date 2025-09-01 02:23:16*
%MOMM*%
%LPD*%
G01*
G04 APERTURE LIST*
%TA.AperFunction,Profile*%
%ADD10C,0.050000*%
%TD*%
%TA.AperFunction,Profile*%
%ADD11C,1.050000*%
%TD*%
G04 APERTURE END LIST*
D10*
X42000000Y-178000000D02*
G75*
G02*
X40000000Y-176000000I0J2000000D01*
G01*
X94000000Y-34000000D02*
G75*
G02*
X92000000Y-34000000I-1000000J0D01*
G01*
X92000000Y-34000000D02*
G75*
G02*
X94000000Y-34000000I1000000J0D01*
G01*
X42000000Y-30000000D02*
X144000000Y-30000000D01*
X40000000Y-176000000D02*
X40000000Y-32000000D01*
X144000000Y-178000000D02*
X42000000Y-178000000D01*
X146000000Y-176000000D02*
G75*
G02*
X144000000Y-178000000I-2000000J0D01*
G01*
X144000000Y-30000000D02*
G75*
G02*
X146000000Y-32000000I0J-2000000D01*
G01*
X146000000Y-32000000D02*
X146000000Y-176000000D01*
X40000000Y-32000000D02*
G75*
G02*
X42000000Y-30000000I2000000J0D01*
G01*
%TO.C,D45*%
D11*
X115225000Y-85800000D02*
G75*
G02*
X114175000Y-85800000I-525000J0D01*
G01*
X114175000Y-85800000D02*
G75*
G02*
X115225000Y-85800000I525000J0D01*
G01*
%TO.C,D42*%
X100225000Y-85800000D02*
G75*
G02*
X99175000Y-85800000I-525000J0D01*
G01*
X99175000Y-85800000D02*
G75*
G02*
X100225000Y-85800000I525000J0D01*
G01*
%TO.C,D61*%
X115225000Y-95800000D02*
G75*
G02*
X114175000Y-95800000I-525000J0D01*
G01*
X114175000Y-95800000D02*
G75*
G02*
X115225000Y-95800000I525000J0D01*
G01*
%TO.C,D46*%
X120225000Y-85800000D02*
G75*
G02*
X119175000Y-85800000I-525000J0D01*
G01*
X119175000Y-85800000D02*
G75*
G02*
X120225000Y-85800000I525000J0D01*
G01*
%TO.C,D54*%
X120225000Y-90800000D02*
G75*
G02*
X119175000Y-90800000I-525000J0D01*
G01*
X119175000Y-90800000D02*
G75*
G02*
X120225000Y-90800000I525000J0D01*
G01*
%TO.C,D5*%
X115225000Y-60862499D02*
G75*
G02*
X114175000Y-60862499I-525000J0D01*
G01*
X114175000Y-60862499D02*
G75*
G02*
X115225000Y-60862499I525000J0D01*
G01*
%TO.C,D51*%
X105225000Y-90800000D02*
G75*
G02*
X104175000Y-90800000I-525000J0D01*
G01*
X104175000Y-90800000D02*
G75*
G02*
X105225000Y-90800000I525000J0D01*
G01*
%TO.C,D17*%
X95225000Y-70800000D02*
G75*
G02*
X94175000Y-70800000I-525000J0D01*
G01*
X94175000Y-70800000D02*
G75*
G02*
X95225000Y-70800000I525000J0D01*
G01*
%TO.C,D7*%
X125225000Y-60800000D02*
G75*
G02*
X124175000Y-60800000I-525000J0D01*
G01*
X124175000Y-60800000D02*
G75*
G02*
X125225000Y-60800000I525000J0D01*
G01*
%TO.C,D52*%
X110225000Y-90800000D02*
G75*
G02*
X109175000Y-90800000I-525000J0D01*
G01*
X109175000Y-90800000D02*
G75*
G02*
X110225000Y-90800000I525000J0D01*
G01*
%TO.C,D63*%
X125225000Y-95800000D02*
G75*
G02*
X124175000Y-95800000I-525000J0D01*
G01*
X124175000Y-95800000D02*
G75*
G02*
X125225000Y-95800000I525000J0D01*
G01*
%TO.C,D48*%
X130225000Y-85800000D02*
G75*
G02*
X129175000Y-85800000I-525000J0D01*
G01*
X129175000Y-85800000D02*
G75*
G02*
X130225000Y-85800000I525000J0D01*
G01*
%TO.C,D50*%
X100225000Y-90800000D02*
G75*
G02*
X99175000Y-90800000I-525000J0D01*
G01*
X99175000Y-90800000D02*
G75*
G02*
X100225000Y-90800000I525000J0D01*
G01*
%TO.C,D31*%
X125225000Y-75800000D02*
G75*
G02*
X124175000Y-75800000I-525000J0D01*
G01*
X124175000Y-75800000D02*
G75*
G02*
X125225000Y-75800000I525000J0D01*
G01*
%TO.C,D40*%
X130225000Y-80800000D02*
G75*
G02*
X129175000Y-80800000I-525000J0D01*
G01*
X129175000Y-80800000D02*
G75*
G02*
X130225000Y-80800000I525000J0D01*
G01*
%TO.C,D4*%
X110225000Y-60800000D02*
G75*
G02*
X109175000Y-60800000I-525000J0D01*
G01*
X109175000Y-60800000D02*
G75*
G02*
X110225000Y-60800000I525000J0D01*
G01*
%TO.C,D49*%
X95225000Y-90800000D02*
G75*
G02*
X94175000Y-90800000I-525000J0D01*
G01*
X94175000Y-90800000D02*
G75*
G02*
X95225000Y-90800000I525000J0D01*
G01*
%TO.C,D34*%
X100225000Y-80862499D02*
G75*
G02*
X99175000Y-80862499I-525000J0D01*
G01*
X99175000Y-80862499D02*
G75*
G02*
X100225000Y-80862499I525000J0D01*
G01*
%TO.C,D43*%
X105225000Y-85800000D02*
G75*
G02*
X104175000Y-85800000I-525000J0D01*
G01*
X104175000Y-85800000D02*
G75*
G02*
X105225000Y-85800000I525000J0D01*
G01*
%TO.C,D3*%
X105225000Y-60800000D02*
G75*
G02*
X104175000Y-60800000I-525000J0D01*
G01*
X104175000Y-60800000D02*
G75*
G02*
X105225000Y-60800000I525000J0D01*
G01*
%TO.C,D13*%
X115225000Y-65800000D02*
G75*
G02*
X114175000Y-65800000I-525000J0D01*
G01*
X114175000Y-65800000D02*
G75*
G02*
X115225000Y-65800000I525000J0D01*
G01*
%TO.C,D12*%
X110225000Y-65800000D02*
G75*
G02*
X109175000Y-65800000I-525000J0D01*
G01*
X109175000Y-65800000D02*
G75*
G02*
X110225000Y-65800000I525000J0D01*
G01*
%TO.C,D44*%
X110225000Y-85800000D02*
G75*
G02*
X109175000Y-85800000I-525000J0D01*
G01*
X109175000Y-85800000D02*
G75*
G02*
X110225000Y-85800000I525000J0D01*
G01*
%TO.C,D25*%
X95225000Y-75800000D02*
G75*
G02*
X94175000Y-75800000I-525000J0D01*
G01*
X94175000Y-75800000D02*
G75*
G02*
X95225000Y-75800000I525000J0D01*
G01*
%TO.C,D22*%
X120225000Y-70800000D02*
G75*
G02*
X119175000Y-70800000I-525000J0D01*
G01*
X119175000Y-70800000D02*
G75*
G02*
X120225000Y-70800000I525000J0D01*
G01*
%TO.C,D41*%
X95225000Y-85800000D02*
G75*
G02*
X94175000Y-85800000I-525000J0D01*
G01*
X94175000Y-85800000D02*
G75*
G02*
X95225000Y-85800000I525000J0D01*
G01*
%TO.C,D33*%
X95225000Y-80800000D02*
G75*
G02*
X94175000Y-80800000I-525000J0D01*
G01*
X94175000Y-80800000D02*
G75*
G02*
X95225000Y-80800000I525000J0D01*
G01*
%TO.C,D37*%
X115225000Y-80800000D02*
G75*
G02*
X114175000Y-80800000I-525000J0D01*
G01*
X114175000Y-80800000D02*
G75*
G02*
X115225000Y-80800000I525000J0D01*
G01*
%TO.C,D9*%
X95225000Y-65800000D02*
G75*
G02*
X94175000Y-65800000I-525000J0D01*
G01*
X94175000Y-65800000D02*
G75*
G02*
X95225000Y-65800000I525000J0D01*
G01*
%TO.C,D27*%
X105225000Y-75800000D02*
G75*
G02*
X104175000Y-75800000I-525000J0D01*
G01*
X104175000Y-75800000D02*
G75*
G02*
X105225000Y-75800000I525000J0D01*
G01*
%TO.C,D58*%
X100225000Y-95800000D02*
G75*
G02*
X99175000Y-95800000I-525000J0D01*
G01*
X99175000Y-95800000D02*
G75*
G02*
X100225000Y-95800000I525000J0D01*
G01*
%TO.C,D62*%
X120225000Y-95800000D02*
G75*
G02*
X119175000Y-95800000I-525000J0D01*
G01*
X119175000Y-95800000D02*
G75*
G02*
X120225000Y-95800000I525000J0D01*
G01*
%TO.C,D6*%
X120225000Y-60862499D02*
G75*
G02*
X119175000Y-60862499I-525000J0D01*
G01*
X119175000Y-60862499D02*
G75*
G02*
X120225000Y-60862499I525000J0D01*
G01*
%TO.C,D38*%
X120225000Y-80800000D02*
G75*
G02*
X119175000Y-80800000I-525000J0D01*
G01*
X119175000Y-80800000D02*
G75*
G02*
X120225000Y-80800000I525000J0D01*
G01*
%TO.C,D64*%
X130225000Y-95800000D02*
G75*
G02*
X129175000Y-95800000I-525000J0D01*
G01*
X129175000Y-95800000D02*
G75*
G02*
X130225000Y-95800000I525000J0D01*
G01*
%TO.C,D16*%
X130225000Y-65800000D02*
G75*
G02*
X129175000Y-65800000I-525000J0D01*
G01*
X129175000Y-65800000D02*
G75*
G02*
X130225000Y-65800000I525000J0D01*
G01*
%TO.C,D19*%
X105225000Y-70800000D02*
G75*
G02*
X104175000Y-70800000I-525000J0D01*
G01*
X104175000Y-70800000D02*
G75*
G02*
X105225000Y-70800000I525000J0D01*
G01*
%TO.C,D59*%
X105225000Y-95800000D02*
G75*
G02*
X104175000Y-95800000I-525000J0D01*
G01*
X104175000Y-95800000D02*
G75*
G02*
X105225000Y-95800000I525000J0D01*
G01*
%TO.C,D26*%
X100225000Y-75800000D02*
G75*
G02*
X99175000Y-75800000I-525000J0D01*
G01*
X99175000Y-75800000D02*
G75*
G02*
X100225000Y-75800000I525000J0D01*
G01*
%TO.C,D30*%
X120225000Y-75800000D02*
G75*
G02*
X119175000Y-75800000I-525000J0D01*
G01*
X119175000Y-75800000D02*
G75*
G02*
X120225000Y-75800000I525000J0D01*
G01*
%TO.C,D1*%
X95225000Y-60862499D02*
G75*
G02*
X94175000Y-60862499I-525000J0D01*
G01*
X94175000Y-60862499D02*
G75*
G02*
X95225000Y-60862499I525000J0D01*
G01*
%TO.C,D39*%
X125225000Y-80800000D02*
G75*
G02*
X124175000Y-80800000I-525000J0D01*
G01*
X124175000Y-80800000D02*
G75*
G02*
X125225000Y-80800000I525000J0D01*
G01*
%TO.C,D56*%
X130225000Y-90800000D02*
G75*
G02*
X129175000Y-90800000I-525000J0D01*
G01*
X129175000Y-90800000D02*
G75*
G02*
X130225000Y-90800000I525000J0D01*
G01*
%TO.C,D60*%
X110225000Y-95800000D02*
G75*
G02*
X109175000Y-95800000I-525000J0D01*
G01*
X109175000Y-95800000D02*
G75*
G02*
X110225000Y-95800000I525000J0D01*
G01*
%TO.C,D57*%
X95225000Y-95800000D02*
G75*
G02*
X94175000Y-95800000I-525000J0D01*
G01*
X94175000Y-95800000D02*
G75*
G02*
X95225000Y-95800000I525000J0D01*
G01*
%TO.C,D8*%
X130225000Y-60800000D02*
G75*
G02*
X129175000Y-60800000I-525000J0D01*
G01*
X129175000Y-60800000D02*
G75*
G02*
X130225000Y-60800000I525000J0D01*
G01*
%TO.C,D29*%
X115225000Y-75800000D02*
G75*
G02*
X114175000Y-75800000I-525000J0D01*
G01*
X114175000Y-75800000D02*
G75*
G02*
X115225000Y-75800000I525000J0D01*
G01*
%TO.C,D20*%
X110225000Y-70800000D02*
G75*
G02*
X109175000Y-70800000I-525000J0D01*
G01*
X109175000Y-70800000D02*
G75*
G02*
X110225000Y-70800000I525000J0D01*
G01*
%TO.C,D18*%
X100225000Y-70800000D02*
G75*
G02*
X99175000Y-70800000I-525000J0D01*
G01*
X99175000Y-70800000D02*
G75*
G02*
X100225000Y-70800000I525000J0D01*
G01*
%TO.C,D14*%
X120225000Y-65800000D02*
G75*
G02*
X119175000Y-65800000I-525000J0D01*
G01*
X119175000Y-65800000D02*
G75*
G02*
X120225000Y-65800000I525000J0D01*
G01*
%TO.C,D36*%
X110225000Y-80800000D02*
G75*
G02*
X109175000Y-80800000I-525000J0D01*
G01*
X109175000Y-80800000D02*
G75*
G02*
X110225000Y-80800000I525000J0D01*
G01*
%TO.C,D2*%
X100225000Y-60800000D02*
G75*
G02*
X99175000Y-60800000I-525000J0D01*
G01*
X99175000Y-60800000D02*
G75*
G02*
X100225000Y-60800000I525000J0D01*
G01*
%TO.C,D11*%
X105225000Y-65800000D02*
G75*
G02*
X104175000Y-65800000I-525000J0D01*
G01*
X104175000Y-65800000D02*
G75*
G02*
X105225000Y-65800000I525000J0D01*
G01*
%TO.C,D35*%
X105225000Y-80800000D02*
G75*
G02*
X104175000Y-80800000I-525000J0D01*
G01*
X104175000Y-80800000D02*
G75*
G02*
X105225000Y-80800000I525000J0D01*
G01*
%TO.C,D21*%
X115225000Y-70800000D02*
G75*
G02*
X114175000Y-70800000I-525000J0D01*
G01*
X114175000Y-70800000D02*
G75*
G02*
X115225000Y-70800000I525000J0D01*
G01*
%TO.C,D32*%
X130225000Y-75800000D02*
G75*
G02*
X129175000Y-75800000I-525000J0D01*
G01*
X129175000Y-75800000D02*
G75*
G02*
X130225000Y-75800000I525000J0D01*
G01*
%TO.C,D47*%
X125225000Y-85800000D02*
G75*
G02*
X124175000Y-85800000I-525000J0D01*
G01*
X124175000Y-85800000D02*
G75*
G02*
X125225000Y-85800000I525000J0D01*
G01*
%TO.C,D55*%
X125225000Y-90800000D02*
G75*
G02*
X124175000Y-90800000I-525000J0D01*
G01*
X124175000Y-90800000D02*
G75*
G02*
X125225000Y-90800000I525000J0D01*
G01*
%TO.C,D28*%
X110225000Y-75800000D02*
G75*
G02*
X109175000Y-75800000I-525000J0D01*
G01*
X109175000Y-75800000D02*
G75*
G02*
X110225000Y-75800000I525000J0D01*
G01*
%TO.C,D10*%
X100225000Y-65800000D02*
G75*
G02*
X99175000Y-65800000I-525000J0D01*
G01*
X99175000Y-65800000D02*
G75*
G02*
X100225000Y-65800000I525000J0D01*
G01*
%TO.C,D53*%
X115225000Y-90800000D02*
G75*
G02*
X114175000Y-90800000I-525000J0D01*
G01*
X114175000Y-90800000D02*
G75*
G02*
X115225000Y-90800000I525000J0D01*
G01*
%TO.C,D24*%
X130225000Y-70800000D02*
G75*
G02*
X129175000Y-70800000I-525000J0D01*
G01*
X129175000Y-70800000D02*
G75*
G02*
X130225000Y-70800000I525000J0D01*
G01*
%TO.C,D23*%
X125225000Y-70800000D02*
G75*
G02*
X124175000Y-70800000I-525000J0D01*
G01*
X124175000Y-70800000D02*
G75*
G02*
X125225000Y-70800000I525000J0D01*
G01*
%TO.C,D15*%
X125225000Y-65800000D02*
G75*
G02*
X124175000Y-65800000I-525000J0D01*
G01*
X124175000Y-65800000D02*
G75*
G02*
X125225000Y-65800000I525000J0D01*
G01*
%TD*%
M02*
