M48
; DRILL file {KiCad 8.0.6} date 2024-10-30T01:37:26+0000
; FORMAT={-:-/ absolute / inch / decimal}
; #@! TF.CreationDate,2024-10-30T01:37:26+00:00
; #@! TF.GenerationSoftware,Kicad,Pcbnew,8.0.6
; #@! TF.FileFunction,Plated,1,2,PTH
FMAT,2
INCH
; #@! TA.AperFunction,Plated,PTH,ViaDrill
T1C0.0157
; #@! TA.AperFunction,Plated,PTH,ViaDrill
T2C0.0236
%
G90
G05
T1
X0.748Y-1.6535
X1.6929Y-1.2992
X1.6929Y-3.937
X1.6929Y-6.8898
X2.5866Y-6.7028
X3.622Y-1.2992
X3.6417Y-2.9528
X3.6614Y-6.8898
X3.8386Y-2.9528
X3.8652Y-6.7028
X4.0354Y-2.9528
X4.2323Y-2.9528
X4.25Y-1.6929
X4.3612Y-1.5925
X4.3612Y-1.7953
X4.4291Y-2.9528
X4.626Y-2.9528
X4.7223Y-2.376
X4.7234Y-2.4291
X4.7342Y-2.2096
X4.8169Y-2.249
X4.8228Y-2.9528
X4.9567Y-2.2185
X4.9587Y-2.4685
X5.0128Y-2.687
X5.0197Y-2.9528
X5.0197Y-3.248
X5.0197Y-3.4449
X5.0197Y-3.6417
X5.0197Y-3.8386
X5.0197Y-4.0354
X5.0197Y-4.2323
X5.0197Y-4.4291
X5.0295Y-2.251
X5.0295Y-2.2923
X5.0295Y-2.4104
X5.0394Y-2.5197
X5.1417Y-2.4301
X5.1447Y-6.7028
X5.1673Y-2.6417
X5.2028Y-2.3169
X5.2264Y-2.6417
X5.252Y-2.4518
X5.2913Y-2.4518
X5.3386Y-6.0965
X5.4055Y-6.1594
X5.4291Y-2.9685
X5.439Y-3.1161
X5.439Y-3.1673
X5.439Y-3.2165
X5.5118Y-2.8937
X5.5118Y-3.9882
X5.5118Y-5.4547
X5.5138Y-3.3307
X5.5177Y-3.0157
X5.5906Y-1.2992
X5.5906Y-6.8898
X5.6004Y-5.4567
X5.6024Y-3.9882
X5.6043Y-3.065
X5.6063Y-3.3287
X5.6102Y-2.8937
X5.6398Y-2.4882
X5.6398Y-2.5856
T2
X3.543Y-3.2456
X3.543Y-3.4424
X3.543Y-3.6393
X3.543Y-3.8361
X3.543Y-4.033
X3.543Y-4.2298
X3.543Y-4.4267
X3.543Y-4.6235
X3.5433Y-3.0315
X3.7399Y-3.2456
X3.7399Y-3.4424
X3.7399Y-3.6393
X3.7399Y-3.8361
X3.7399Y-4.033
X3.7399Y-4.2298
X3.7399Y-4.4267
X3.7399Y-4.6235
X3.7402Y-3.0315
X3.9367Y-3.2456
X3.9367Y-3.4424
X3.9367Y-3.6393
X3.9367Y-3.8361
X3.9367Y-4.033
X3.9367Y-4.2298
X3.9367Y-4.4267
X3.9367Y-4.6235
X3.937Y-3.0315
X4.1336Y-3.2456
X4.1336Y-3.4424
X4.1336Y-3.6393
X4.1336Y-3.8361
X4.1336Y-4.033
X4.1336Y-4.2298
X4.1336Y-4.4267
X4.1336Y-4.6235
X4.1339Y-3.0315
X4.3304Y-3.2456
X4.3304Y-3.4424
X4.3304Y-3.6393
X4.3304Y-3.8361
X4.3304Y-4.033
X4.3304Y-4.2298
X4.3304Y-4.4267
X4.3304Y-4.6235
X4.3307Y-3.0315
X4.5273Y-3.2456
X4.5273Y-3.4424
X4.5273Y-3.6393
X4.5273Y-3.8361
X4.5273Y-4.033
X4.5273Y-4.2298
X4.5273Y-4.4267
X4.5273Y-4.6235
X4.5276Y-3.0315
X4.7241Y-3.2456
X4.7241Y-3.4424
X4.7241Y-3.6393
X4.7241Y-3.8361
X4.7241Y-4.033
X4.7241Y-4.2298
X4.7241Y-4.4267
X4.7241Y-4.6235
X4.7244Y-3.0315
X4.921Y-3.2456
X4.921Y-3.4424
X4.921Y-3.6393
X4.921Y-3.8361
X4.921Y-4.033
X4.921Y-4.2298
X4.921Y-4.4267
X4.921Y-4.6235
X4.9213Y-3.0315
M30
