%TF.GenerationSoftware,KiCad,Pcbnew,9.0.4*%
%TF.CreationDate,2025-09-01T02:23:11+01:00*%
%TF.ProjectId,Chirstmas-Card,43686972-7374-46d6-9173-2d436172642e,rev?*%
%TF.SameCoordinates,Original*%
%TF.FileFunction,Drillmap*%
%TF.FilePolarity,Positive*%
%FSLAX45Y45*%
G04 Gerber Fmt 4.5, Leading zero omitted, Abs format (unit mm)*
G04 Created by KiCad (PCBNEW 9.0.4) date 2025-09-01 02:23:11*
%MOMM*%
%LPD*%
G01*
G04 APERTURE LIST*
%ADD10C,0.050000*%
%ADD11C,1.050000*%
%ADD12C,0.200000*%
%ADD13C,0.100000*%
G04 APERTURE END LIST*
D10*
X4200000Y-17800000D02*
G75*
G02*
X4000000Y-17600000I0J200000D01*
G01*
X9400000Y-3400000D02*
G75*
G02*
X9200000Y-3400000I-100000J0D01*
G01*
X9200000Y-3400000D02*
G75*
G02*
X9400000Y-3400000I100000J0D01*
G01*
X4200000Y-3000000D02*
X14400000Y-3000000D01*
X4000000Y-17600000D02*
X4000000Y-3200000D01*
X14400000Y-17800000D02*
X4200000Y-17800000D01*
X14600000Y-17600000D02*
G75*
G02*
X14400000Y-17800000I-200000J0D01*
G01*
X14400000Y-3000000D02*
G75*
G02*
X14600000Y-3200000I0J-200000D01*
G01*
X14600000Y-3200000D02*
X14600000Y-17600000D01*
X4000000Y-3200000D02*
G75*
G02*
X4200000Y-3000000I200000J0D01*
G01*
D11*
X11522500Y-8580000D02*
G75*
G02*
X11417500Y-8580000I-52500J0D01*
G01*
X11417500Y-8580000D02*
G75*
G02*
X11522500Y-8580000I52500J0D01*
G01*
X10022500Y-8580000D02*
G75*
G02*
X9917500Y-8580000I-52500J0D01*
G01*
X9917500Y-8580000D02*
G75*
G02*
X10022500Y-8580000I52500J0D01*
G01*
X11522500Y-9580000D02*
G75*
G02*
X11417500Y-9580000I-52500J0D01*
G01*
X11417500Y-9580000D02*
G75*
G02*
X11522500Y-9580000I52500J0D01*
G01*
X12022500Y-8580000D02*
G75*
G02*
X11917500Y-8580000I-52500J0D01*
G01*
X11917500Y-8580000D02*
G75*
G02*
X12022500Y-8580000I52500J0D01*
G01*
X12022500Y-9080000D02*
G75*
G02*
X11917500Y-9080000I-52500J0D01*
G01*
X11917500Y-9080000D02*
G75*
G02*
X12022500Y-9080000I52500J0D01*
G01*
X11522500Y-6086250D02*
G75*
G02*
X11417500Y-6086250I-52500J0D01*
G01*
X11417500Y-6086250D02*
G75*
G02*
X11522500Y-6086250I52500J0D01*
G01*
X10522500Y-9080000D02*
G75*
G02*
X10417500Y-9080000I-52500J0D01*
G01*
X10417500Y-9080000D02*
G75*
G02*
X10522500Y-9080000I52500J0D01*
G01*
X9522500Y-7080000D02*
G75*
G02*
X9417500Y-7080000I-52500J0D01*
G01*
X9417500Y-7080000D02*
G75*
G02*
X9522500Y-7080000I52500J0D01*
G01*
X12522500Y-6080000D02*
G75*
G02*
X12417500Y-6080000I-52500J0D01*
G01*
X12417500Y-6080000D02*
G75*
G02*
X12522500Y-6080000I52500J0D01*
G01*
X11022500Y-9080000D02*
G75*
G02*
X10917500Y-9080000I-52500J0D01*
G01*
X10917500Y-9080000D02*
G75*
G02*
X11022500Y-9080000I52500J0D01*
G01*
X12522500Y-9580000D02*
G75*
G02*
X12417500Y-9580000I-52500J0D01*
G01*
X12417500Y-9580000D02*
G75*
G02*
X12522500Y-9580000I52500J0D01*
G01*
X13022500Y-8580000D02*
G75*
G02*
X12917500Y-8580000I-52500J0D01*
G01*
X12917500Y-8580000D02*
G75*
G02*
X13022500Y-8580000I52500J0D01*
G01*
X10022500Y-9080000D02*
G75*
G02*
X9917500Y-9080000I-52500J0D01*
G01*
X9917500Y-9080000D02*
G75*
G02*
X10022500Y-9080000I52500J0D01*
G01*
X12522500Y-7580000D02*
G75*
G02*
X12417500Y-7580000I-52500J0D01*
G01*
X12417500Y-7580000D02*
G75*
G02*
X12522500Y-7580000I52500J0D01*
G01*
X13022500Y-8080000D02*
G75*
G02*
X12917500Y-8080000I-52500J0D01*
G01*
X12917500Y-8080000D02*
G75*
G02*
X13022500Y-8080000I52500J0D01*
G01*
X11022500Y-6080000D02*
G75*
G02*
X10917500Y-6080000I-52500J0D01*
G01*
X10917500Y-6080000D02*
G75*
G02*
X11022500Y-6080000I52500J0D01*
G01*
X9522500Y-9080000D02*
G75*
G02*
X9417500Y-9080000I-52500J0D01*
G01*
X9417500Y-9080000D02*
G75*
G02*
X9522500Y-9080000I52500J0D01*
G01*
X10022500Y-8086250D02*
G75*
G02*
X9917500Y-8086250I-52500J0D01*
G01*
X9917500Y-8086250D02*
G75*
G02*
X10022500Y-8086250I52500J0D01*
G01*
X10522500Y-8580000D02*
G75*
G02*
X10417500Y-8580000I-52500J0D01*
G01*
X10417500Y-8580000D02*
G75*
G02*
X10522500Y-8580000I52500J0D01*
G01*
X10522500Y-6080000D02*
G75*
G02*
X10417500Y-6080000I-52500J0D01*
G01*
X10417500Y-6080000D02*
G75*
G02*
X10522500Y-6080000I52500J0D01*
G01*
X11522500Y-6580000D02*
G75*
G02*
X11417500Y-6580000I-52500J0D01*
G01*
X11417500Y-6580000D02*
G75*
G02*
X11522500Y-6580000I52500J0D01*
G01*
X11022500Y-6580000D02*
G75*
G02*
X10917500Y-6580000I-52500J0D01*
G01*
X10917500Y-6580000D02*
G75*
G02*
X11022500Y-6580000I52500J0D01*
G01*
X11022500Y-8580000D02*
G75*
G02*
X10917500Y-8580000I-52500J0D01*
G01*
X10917500Y-8580000D02*
G75*
G02*
X11022500Y-8580000I52500J0D01*
G01*
X9522500Y-7580000D02*
G75*
G02*
X9417500Y-7580000I-52500J0D01*
G01*
X9417500Y-7580000D02*
G75*
G02*
X9522500Y-7580000I52500J0D01*
G01*
X12022500Y-7080000D02*
G75*
G02*
X11917500Y-7080000I-52500J0D01*
G01*
X11917500Y-7080000D02*
G75*
G02*
X12022500Y-7080000I52500J0D01*
G01*
X9522500Y-8580000D02*
G75*
G02*
X9417500Y-8580000I-52500J0D01*
G01*
X9417500Y-8580000D02*
G75*
G02*
X9522500Y-8580000I52500J0D01*
G01*
X9522500Y-8080000D02*
G75*
G02*
X9417500Y-8080000I-52500J0D01*
G01*
X9417500Y-8080000D02*
G75*
G02*
X9522500Y-8080000I52500J0D01*
G01*
X11522500Y-8080000D02*
G75*
G02*
X11417500Y-8080000I-52500J0D01*
G01*
X11417500Y-8080000D02*
G75*
G02*
X11522500Y-8080000I52500J0D01*
G01*
X9522500Y-6580000D02*
G75*
G02*
X9417500Y-6580000I-52500J0D01*
G01*
X9417500Y-6580000D02*
G75*
G02*
X9522500Y-6580000I52500J0D01*
G01*
X10522500Y-7580000D02*
G75*
G02*
X10417500Y-7580000I-52500J0D01*
G01*
X10417500Y-7580000D02*
G75*
G02*
X10522500Y-7580000I52500J0D01*
G01*
X10022500Y-9580000D02*
G75*
G02*
X9917500Y-9580000I-52500J0D01*
G01*
X9917500Y-9580000D02*
G75*
G02*
X10022500Y-9580000I52500J0D01*
G01*
X12022500Y-9580000D02*
G75*
G02*
X11917500Y-9580000I-52500J0D01*
G01*
X11917500Y-9580000D02*
G75*
G02*
X12022500Y-9580000I52500J0D01*
G01*
X12022500Y-6086250D02*
G75*
G02*
X11917500Y-6086250I-52500J0D01*
G01*
X11917500Y-6086250D02*
G75*
G02*
X12022500Y-6086250I52500J0D01*
G01*
X12022500Y-8080000D02*
G75*
G02*
X11917500Y-8080000I-52500J0D01*
G01*
X11917500Y-8080000D02*
G75*
G02*
X12022500Y-8080000I52500J0D01*
G01*
X13022500Y-9580000D02*
G75*
G02*
X12917500Y-9580000I-52500J0D01*
G01*
X12917500Y-9580000D02*
G75*
G02*
X13022500Y-9580000I52500J0D01*
G01*
X13022500Y-6580000D02*
G75*
G02*
X12917500Y-6580000I-52500J0D01*
G01*
X12917500Y-6580000D02*
G75*
G02*
X13022500Y-6580000I52500J0D01*
G01*
X10522500Y-7080000D02*
G75*
G02*
X10417500Y-7080000I-52500J0D01*
G01*
X10417500Y-7080000D02*
G75*
G02*
X10522500Y-7080000I52500J0D01*
G01*
X10522500Y-9580000D02*
G75*
G02*
X10417500Y-9580000I-52500J0D01*
G01*
X10417500Y-9580000D02*
G75*
G02*
X10522500Y-9580000I52500J0D01*
G01*
X10022500Y-7580000D02*
G75*
G02*
X9917500Y-7580000I-52500J0D01*
G01*
X9917500Y-7580000D02*
G75*
G02*
X10022500Y-7580000I52500J0D01*
G01*
X12022500Y-7580000D02*
G75*
G02*
X11917500Y-7580000I-52500J0D01*
G01*
X11917500Y-7580000D02*
G75*
G02*
X12022500Y-7580000I52500J0D01*
G01*
X9522500Y-6086250D02*
G75*
G02*
X9417500Y-6086250I-52500J0D01*
G01*
X9417500Y-6086250D02*
G75*
G02*
X9522500Y-6086250I52500J0D01*
G01*
X12522500Y-8080000D02*
G75*
G02*
X12417500Y-8080000I-52500J0D01*
G01*
X12417500Y-8080000D02*
G75*
G02*
X12522500Y-8080000I52500J0D01*
G01*
X13022500Y-9080000D02*
G75*
G02*
X12917500Y-9080000I-52500J0D01*
G01*
X12917500Y-9080000D02*
G75*
G02*
X13022500Y-9080000I52500J0D01*
G01*
X11022500Y-9580000D02*
G75*
G02*
X10917500Y-9580000I-52500J0D01*
G01*
X10917500Y-9580000D02*
G75*
G02*
X11022500Y-9580000I52500J0D01*
G01*
X9522500Y-9580000D02*
G75*
G02*
X9417500Y-9580000I-52500J0D01*
G01*
X9417500Y-9580000D02*
G75*
G02*
X9522500Y-9580000I52500J0D01*
G01*
X13022500Y-6080000D02*
G75*
G02*
X12917500Y-6080000I-52500J0D01*
G01*
X12917500Y-6080000D02*
G75*
G02*
X13022500Y-6080000I52500J0D01*
G01*
X11522500Y-7580000D02*
G75*
G02*
X11417500Y-7580000I-52500J0D01*
G01*
X11417500Y-7580000D02*
G75*
G02*
X11522500Y-7580000I52500J0D01*
G01*
X11022500Y-7080000D02*
G75*
G02*
X10917500Y-7080000I-52500J0D01*
G01*
X10917500Y-7080000D02*
G75*
G02*
X11022500Y-7080000I52500J0D01*
G01*
X10022500Y-7080000D02*
G75*
G02*
X9917500Y-7080000I-52500J0D01*
G01*
X9917500Y-7080000D02*
G75*
G02*
X10022500Y-7080000I52500J0D01*
G01*
X12022500Y-6580000D02*
G75*
G02*
X11917500Y-6580000I-52500J0D01*
G01*
X11917500Y-6580000D02*
G75*
G02*
X12022500Y-6580000I52500J0D01*
G01*
X11022500Y-8080000D02*
G75*
G02*
X10917500Y-8080000I-52500J0D01*
G01*
X10917500Y-8080000D02*
G75*
G02*
X11022500Y-8080000I52500J0D01*
G01*
X10022500Y-6080000D02*
G75*
G02*
X9917500Y-6080000I-52500J0D01*
G01*
X9917500Y-6080000D02*
G75*
G02*
X10022500Y-6080000I52500J0D01*
G01*
X10522500Y-6580000D02*
G75*
G02*
X10417500Y-6580000I-52500J0D01*
G01*
X10417500Y-6580000D02*
G75*
G02*
X10522500Y-6580000I52500J0D01*
G01*
X10522500Y-8080000D02*
G75*
G02*
X10417500Y-8080000I-52500J0D01*
G01*
X10417500Y-8080000D02*
G75*
G02*
X10522500Y-8080000I52500J0D01*
G01*
X11522500Y-7080000D02*
G75*
G02*
X11417500Y-7080000I-52500J0D01*
G01*
X11417500Y-7080000D02*
G75*
G02*
X11522500Y-7080000I52500J0D01*
G01*
X13022500Y-7580000D02*
G75*
G02*
X12917500Y-7580000I-52500J0D01*
G01*
X12917500Y-7580000D02*
G75*
G02*
X13022500Y-7580000I52500J0D01*
G01*
X12522500Y-8580000D02*
G75*
G02*
X12417500Y-8580000I-52500J0D01*
G01*
X12417500Y-8580000D02*
G75*
G02*
X12522500Y-8580000I52500J0D01*
G01*
X12522500Y-9080000D02*
G75*
G02*
X12417500Y-9080000I-52500J0D01*
G01*
X12417500Y-9080000D02*
G75*
G02*
X12522500Y-9080000I52500J0D01*
G01*
X11022500Y-7580000D02*
G75*
G02*
X10917500Y-7580000I-52500J0D01*
G01*
X10917500Y-7580000D02*
G75*
G02*
X11022500Y-7580000I52500J0D01*
G01*
X10022500Y-6580000D02*
G75*
G02*
X9917500Y-6580000I-52500J0D01*
G01*
X9917500Y-6580000D02*
G75*
G02*
X10022500Y-6580000I52500J0D01*
G01*
X11522500Y-9080000D02*
G75*
G02*
X11417500Y-9080000I-52500J0D01*
G01*
X11417500Y-9080000D02*
G75*
G02*
X11522500Y-9080000I52500J0D01*
G01*
X13022500Y-7080000D02*
G75*
G02*
X12917500Y-7080000I-52500J0D01*
G01*
X12917500Y-7080000D02*
G75*
G02*
X13022500Y-7080000I52500J0D01*
G01*
X12522500Y-7080000D02*
G75*
G02*
X12417500Y-7080000I-52500J0D01*
G01*
X12417500Y-7080000D02*
G75*
G02*
X12522500Y-7080000I52500J0D01*
G01*
X12522500Y-6580000D02*
G75*
G02*
X12417500Y-6580000I-52500J0D01*
G01*
X12417500Y-6580000D02*
G75*
G02*
X12522500Y-6580000I52500J0D01*
G01*
D12*
D13*
X4365000Y-15315000D02*
X4405000Y-15355000D01*
X4405000Y-15315000D02*
X4365000Y-15355000D01*
X4440000Y-11215000D02*
X4480000Y-11255000D01*
X4480000Y-11215000D02*
X4440000Y-11255000D01*
X4495000Y-7165000D02*
X4535000Y-7205000D01*
X4535000Y-7165000D02*
X4495000Y-7205000D01*
X4775000Y-3805000D02*
X4815000Y-3845000D01*
X4815000Y-3805000D02*
X4775000Y-3845000D01*
X4895000Y-3540000D02*
X4935000Y-3580000D01*
X4935000Y-3540000D02*
X4895000Y-3580000D01*
X5355000Y-3175000D02*
X5395000Y-3215000D01*
X5395000Y-3175000D02*
X5355000Y-3215000D01*
X5635000Y-13205000D02*
X5675000Y-13245000D01*
X5675000Y-13205000D02*
X5635000Y-13245000D01*
X5950000Y-4000000D02*
X5990000Y-4040000D01*
X5990000Y-4000000D02*
X5950000Y-4040000D01*
X6250000Y-16705000D02*
X6290000Y-16745000D01*
X6290000Y-16705000D02*
X6250000Y-16745000D01*
X6250000Y-17155000D02*
X6290000Y-17195000D01*
X6290000Y-17155000D02*
X6250000Y-17195000D01*
X6475000Y-10015000D02*
X6515000Y-10055000D01*
X6515000Y-10015000D02*
X6475000Y-10055000D01*
X7020000Y-7310000D02*
X7060000Y-7350000D01*
X7060000Y-7310000D02*
X7020000Y-7350000D01*
X7120000Y-7400000D02*
X7160000Y-7440000D01*
X7160000Y-7400000D02*
X7120000Y-7440000D01*
X7210000Y-7500000D02*
X7250000Y-7540000D01*
X7250000Y-7500000D02*
X7210000Y-7540000D01*
X7480000Y-6840000D02*
X7520000Y-6880000D01*
X7520000Y-6840000D02*
X7480000Y-6880000D01*
X7580000Y-6940000D02*
X7620000Y-6980000D01*
X7620000Y-6940000D02*
X7580000Y-6980000D01*
X7680000Y-7030000D02*
X7720000Y-7070000D01*
X7720000Y-7030000D02*
X7680000Y-7070000D01*
X7740000Y-4330000D02*
X7780000Y-4370000D01*
X7780000Y-4330000D02*
X7740000Y-4370000D01*
X7875000Y-17340000D02*
X7915000Y-17380000D01*
X7915000Y-17340000D02*
X7875000Y-17380000D01*
X7890000Y-4180000D02*
X7930000Y-4220000D01*
X7930000Y-4180000D02*
X7890000Y-4220000D01*
X8030000Y-4035000D02*
X8070000Y-4075000D01*
X8070000Y-4035000D02*
X8030000Y-4075000D01*
X8035000Y-11205000D02*
X8075000Y-11245000D01*
X8075000Y-11205000D02*
X8035000Y-11245000D01*
X8130000Y-4590000D02*
X8170000Y-4630000D01*
X8170000Y-4590000D02*
X8130000Y-4630000D01*
X8220000Y-5330000D02*
X8260000Y-5370000D01*
X8260000Y-5330000D02*
X8220000Y-5370000D01*
X8330000Y-4190000D02*
X8370000Y-4230000D01*
X8370000Y-4190000D02*
X8330000Y-4230000D01*
X8330000Y-4330000D02*
X8370000Y-4370000D01*
X8370000Y-4330000D02*
X8330000Y-4370000D01*
X8435000Y-5330000D02*
X8475000Y-5370000D01*
X8475000Y-5330000D02*
X8435000Y-5370000D01*
X8470000Y-4840000D02*
X8510000Y-4880000D01*
X8510000Y-4840000D02*
X8470000Y-4880000D01*
X8510000Y-4960000D02*
X8550000Y-5000000D01*
X8550000Y-4960000D02*
X8510000Y-5000000D01*
X8515000Y-6475000D02*
X8555000Y-6515000D01*
X8555000Y-6475000D02*
X8515000Y-6515000D01*
X8535000Y-5335000D02*
X8575000Y-5375000D01*
X8575000Y-5335000D02*
X8535000Y-5375000D01*
X8560000Y-3325000D02*
X8600000Y-3365000D01*
X8600000Y-3325000D02*
X8560000Y-3365000D01*
X8745000Y-4290000D02*
X8785000Y-4330000D01*
X8785000Y-4290000D02*
X8745000Y-4330000D01*
X8970000Y-4595000D02*
X9010000Y-4635000D01*
X9010000Y-4595000D02*
X8970000Y-4635000D01*
X8970000Y-17155000D02*
X9010000Y-17195000D01*
X9010000Y-17155000D02*
X8970000Y-17195000D01*
X8972500Y-16705000D02*
X9012500Y-16745000D01*
X9012500Y-16705000D02*
X8972500Y-16745000D01*
X9200000Y-6257120D02*
X9240000Y-6297120D01*
X9240000Y-6257120D02*
X9200000Y-6297120D01*
X9200000Y-6757120D02*
X9240000Y-6797120D01*
X9240000Y-6757120D02*
X9200000Y-6797120D01*
X9200000Y-7257120D02*
X9240000Y-7297120D01*
X9240000Y-7257120D02*
X9200000Y-7297120D01*
X9200000Y-7757120D02*
X9240000Y-7797120D01*
X9240000Y-7757120D02*
X9200000Y-7797120D01*
X9200000Y-8257120D02*
X9240000Y-8297120D01*
X9240000Y-8257120D02*
X9200000Y-8297120D01*
X9200000Y-8757120D02*
X9240000Y-8797120D01*
X9240000Y-8757120D02*
X9200000Y-8797120D01*
X9200000Y-9257120D02*
X9240000Y-9297120D01*
X9240000Y-9257120D02*
X9200000Y-9297120D01*
X9200000Y-9757120D02*
X9240000Y-9797120D01*
X9240000Y-9757120D02*
X9200000Y-9797120D01*
X9520000Y-13160000D02*
X9560000Y-13200000D01*
X9560000Y-13160000D02*
X9520000Y-13200000D01*
X9520000Y-15695000D02*
X9560000Y-15735000D01*
X9560000Y-15695000D02*
X9520000Y-15735000D01*
X9700000Y-4860000D02*
X9740000Y-4900000D01*
X9740000Y-4860000D02*
X9700000Y-4900000D01*
X9700000Y-6257120D02*
X9740000Y-6297120D01*
X9740000Y-6257120D02*
X9700000Y-6297120D01*
X9700000Y-6760000D02*
X9740000Y-6800000D01*
X9740000Y-6760000D02*
X9700000Y-6800000D01*
X9700000Y-7260000D02*
X9740000Y-7300000D01*
X9740000Y-7260000D02*
X9700000Y-7300000D01*
X9700000Y-7760000D02*
X9740000Y-7800000D01*
X9740000Y-7760000D02*
X9700000Y-7800000D01*
X9700000Y-8260000D02*
X9740000Y-8300000D01*
X9740000Y-8260000D02*
X9700000Y-8300000D01*
X9700000Y-8760000D02*
X9740000Y-8800000D01*
X9740000Y-8760000D02*
X9700000Y-8800000D01*
X9700000Y-9260000D02*
X9740000Y-9300000D01*
X9740000Y-9260000D02*
X9700000Y-9300000D01*
X9700000Y-9760000D02*
X9740000Y-9800000D01*
X9740000Y-9760000D02*
X9700000Y-9800000D01*
X10200000Y-5310000D02*
X10240000Y-5350000D01*
X10240000Y-5310000D02*
X10200000Y-5350000D01*
X10200000Y-6257120D02*
X10240000Y-6297120D01*
X10240000Y-6257120D02*
X10200000Y-6297120D01*
X10200000Y-6760000D02*
X10240000Y-6800000D01*
X10240000Y-6760000D02*
X10200000Y-6800000D01*
X10200000Y-7260000D02*
X10240000Y-7300000D01*
X10240000Y-7260000D02*
X10200000Y-7300000D01*
X10200000Y-7760000D02*
X10240000Y-7800000D01*
X10240000Y-7760000D02*
X10200000Y-7800000D01*
X10200000Y-8260000D02*
X10240000Y-8300000D01*
X10240000Y-8260000D02*
X10200000Y-8300000D01*
X10200000Y-8760000D02*
X10240000Y-8800000D01*
X10240000Y-8760000D02*
X10200000Y-8800000D01*
X10200000Y-9260000D02*
X10240000Y-9300000D01*
X10240000Y-9260000D02*
X10200000Y-9300000D01*
X10200000Y-9760000D02*
X10240000Y-9800000D01*
X10240000Y-9760000D02*
X10200000Y-9800000D01*
X10700000Y-5410000D02*
X10740000Y-5450000D01*
X10740000Y-5410000D02*
X10700000Y-5450000D01*
X10700000Y-6257120D02*
X10740000Y-6297120D01*
X10740000Y-6257120D02*
X10700000Y-6297120D01*
X10700000Y-6760000D02*
X10740000Y-6800000D01*
X10740000Y-6760000D02*
X10700000Y-6800000D01*
X10700000Y-7260000D02*
X10740000Y-7300000D01*
X10740000Y-7260000D02*
X10700000Y-7300000D01*
X10700000Y-7760000D02*
X10740000Y-7800000D01*
X10740000Y-7760000D02*
X10700000Y-7800000D01*
X10700000Y-8260000D02*
X10740000Y-8300000D01*
X10740000Y-8260000D02*
X10700000Y-8300000D01*
X10700000Y-8760000D02*
X10740000Y-8800000D01*
X10740000Y-8760000D02*
X10700000Y-8800000D01*
X10700000Y-9260000D02*
X10740000Y-9300000D01*
X10740000Y-9260000D02*
X10700000Y-9300000D01*
X10700000Y-9760000D02*
X10740000Y-9800000D01*
X10740000Y-9760000D02*
X10700000Y-9800000D01*
X11200000Y-5510000D02*
X11240000Y-5550000D01*
X11240000Y-5510000D02*
X11200000Y-5550000D01*
X11200000Y-6257120D02*
X11240000Y-6297120D01*
X11240000Y-6257120D02*
X11200000Y-6297120D01*
X11200000Y-6760000D02*
X11240000Y-6800000D01*
X11240000Y-6760000D02*
X11200000Y-6800000D01*
X11200000Y-7260000D02*
X11240000Y-7300000D01*
X11240000Y-7260000D02*
X11200000Y-7300000D01*
X11200000Y-7760000D02*
X11240000Y-7800000D01*
X11240000Y-7760000D02*
X11200000Y-7800000D01*
X11200000Y-8260000D02*
X11240000Y-8300000D01*
X11240000Y-8260000D02*
X11200000Y-8300000D01*
X11200000Y-8760000D02*
X11240000Y-8800000D01*
X11240000Y-8760000D02*
X11200000Y-8800000D01*
X11200000Y-9260000D02*
X11240000Y-9300000D01*
X11240000Y-9260000D02*
X11200000Y-9300000D01*
X11200000Y-9760000D02*
X11240000Y-9800000D01*
X11240000Y-9760000D02*
X11200000Y-9800000D01*
X11700000Y-5610000D02*
X11740000Y-5650000D01*
X11740000Y-5610000D02*
X11700000Y-5650000D01*
X11700000Y-6257120D02*
X11740000Y-6297120D01*
X11740000Y-6257120D02*
X11700000Y-6297120D01*
X11700000Y-6760000D02*
X11740000Y-6800000D01*
X11740000Y-6760000D02*
X11700000Y-6800000D01*
X11700000Y-7260000D02*
X11740000Y-7300000D01*
X11740000Y-7260000D02*
X11700000Y-7300000D01*
X11700000Y-7760000D02*
X11740000Y-7800000D01*
X11740000Y-7760000D02*
X11700000Y-7800000D01*
X11700000Y-8260000D02*
X11740000Y-8300000D01*
X11740000Y-8260000D02*
X11700000Y-8300000D01*
X11700000Y-8760000D02*
X11740000Y-8800000D01*
X11740000Y-8760000D02*
X11700000Y-8800000D01*
X11700000Y-9260000D02*
X11740000Y-9300000D01*
X11740000Y-9260000D02*
X11700000Y-9300000D01*
X11700000Y-9760000D02*
X11740000Y-9800000D01*
X11740000Y-9760000D02*
X11700000Y-9800000D01*
X12200000Y-5710000D02*
X12240000Y-5750000D01*
X12240000Y-5710000D02*
X12200000Y-5750000D01*
X12200000Y-6257120D02*
X12240000Y-6297120D01*
X12240000Y-6257120D02*
X12200000Y-6297120D01*
X12200000Y-6760000D02*
X12240000Y-6800000D01*
X12240000Y-6760000D02*
X12200000Y-6800000D01*
X12200000Y-7260000D02*
X12240000Y-7300000D01*
X12240000Y-7260000D02*
X12200000Y-7300000D01*
X12200000Y-7760000D02*
X12240000Y-7800000D01*
X12240000Y-7760000D02*
X12200000Y-7800000D01*
X12200000Y-8260000D02*
X12240000Y-8300000D01*
X12240000Y-8260000D02*
X12200000Y-8300000D01*
X12200000Y-8760000D02*
X12240000Y-8800000D01*
X12240000Y-8760000D02*
X12200000Y-8800000D01*
X12200000Y-9260000D02*
X12240000Y-9300000D01*
X12240000Y-9260000D02*
X12200000Y-9300000D01*
X12200000Y-9760000D02*
X12240000Y-9800000D01*
X12240000Y-9760000D02*
X12200000Y-9800000D01*
X12210000Y-11070000D02*
X12250000Y-11110000D01*
X12250000Y-11070000D02*
X12210000Y-11110000D01*
X12305000Y-16705000D02*
X12345000Y-16745000D01*
X12345000Y-16705000D02*
X12305000Y-16745000D01*
X12305000Y-17155000D02*
X12345000Y-17195000D01*
X12345000Y-17155000D02*
X12305000Y-17195000D01*
X12700000Y-5805000D02*
X12740000Y-5845000D01*
X12740000Y-5805000D02*
X12700000Y-5845000D01*
X12700000Y-6257120D02*
X12740000Y-6297120D01*
X12740000Y-6257120D02*
X12700000Y-6297120D01*
X12700000Y-6760000D02*
X12740000Y-6800000D01*
X12740000Y-6760000D02*
X12700000Y-6800000D01*
X12700000Y-7260000D02*
X12740000Y-7300000D01*
X12740000Y-7260000D02*
X12700000Y-7300000D01*
X12700000Y-7760000D02*
X12740000Y-7800000D01*
X12740000Y-7760000D02*
X12700000Y-7800000D01*
X12700000Y-8260000D02*
X12740000Y-8300000D01*
X12740000Y-8260000D02*
X12700000Y-8300000D01*
X12700000Y-8760000D02*
X12740000Y-8800000D01*
X12740000Y-8760000D02*
X12700000Y-8800000D01*
X12700000Y-9260000D02*
X12740000Y-9300000D01*
X12740000Y-9260000D02*
X12700000Y-9300000D01*
X12700000Y-9760000D02*
X12740000Y-9800000D01*
X12740000Y-9760000D02*
X12700000Y-9800000D01*
X13137500Y-4370000D02*
X13177500Y-4410000D01*
X13177500Y-4370000D02*
X13137500Y-4410000D01*
X13138500Y-3830000D02*
X13178500Y-3870000D01*
X13178500Y-3830000D02*
X13138500Y-3870000D01*
X13450000Y-4100000D02*
X13490000Y-4140000D01*
X13490000Y-4100000D02*
X13450000Y-4140000D01*
X13670000Y-3495000D02*
X13710000Y-3535000D01*
X13710000Y-3495000D02*
X13670000Y-3535000D01*
X13906302Y-8893992D02*
X13946302Y-8933992D01*
X13946302Y-8893992D02*
X13906302Y-8933992D01*
X13935000Y-5920000D02*
X13975000Y-5960000D01*
X13975000Y-5920000D02*
X13935000Y-5960000D01*
X13940000Y-16380000D02*
X13980000Y-16420000D01*
X13980000Y-16380000D02*
X13940000Y-16420000D01*
D12*
X4258277Y-18113984D02*
X4258277Y-17913984D01*
X4258277Y-17913984D02*
X4305896Y-17913984D01*
X4305896Y-17913984D02*
X4334467Y-17923508D01*
X4334467Y-17923508D02*
X4353515Y-17942555D01*
X4353515Y-17942555D02*
X4363039Y-17961603D01*
X4363039Y-17961603D02*
X4372563Y-17999698D01*
X4372563Y-17999698D02*
X4372563Y-18028270D01*
X4372563Y-18028270D02*
X4363039Y-18066365D01*
X4363039Y-18066365D02*
X4353515Y-18085412D01*
X4353515Y-18085412D02*
X4334467Y-18104460D01*
X4334467Y-18104460D02*
X4305896Y-18113984D01*
X4305896Y-18113984D02*
X4258277Y-18113984D01*
X4458277Y-18113984D02*
X4458277Y-17980650D01*
X4458277Y-18018746D02*
X4467801Y-17999698D01*
X4467801Y-17999698D02*
X4477324Y-17990174D01*
X4477324Y-17990174D02*
X4496372Y-17980650D01*
X4496372Y-17980650D02*
X4515420Y-17980650D01*
X4582086Y-18113984D02*
X4582086Y-17980650D01*
X4582086Y-17913984D02*
X4572563Y-17923508D01*
X4572563Y-17923508D02*
X4582086Y-17933031D01*
X4582086Y-17933031D02*
X4591610Y-17923508D01*
X4591610Y-17923508D02*
X4582086Y-17913984D01*
X4582086Y-17913984D02*
X4582086Y-17933031D01*
X4705896Y-18113984D02*
X4686848Y-18104460D01*
X4686848Y-18104460D02*
X4677324Y-18085412D01*
X4677324Y-18085412D02*
X4677324Y-17913984D01*
X4810658Y-18113984D02*
X4791610Y-18104460D01*
X4791610Y-18104460D02*
X4782086Y-18085412D01*
X4782086Y-18085412D02*
X4782086Y-17913984D01*
X5039229Y-18113984D02*
X5039229Y-17913984D01*
X5039229Y-17913984D02*
X5105896Y-18056841D01*
X5105896Y-18056841D02*
X5172563Y-17913984D01*
X5172563Y-17913984D02*
X5172563Y-18113984D01*
X5353515Y-18113984D02*
X5353515Y-18009222D01*
X5353515Y-18009222D02*
X5343991Y-17990174D01*
X5343991Y-17990174D02*
X5324944Y-17980650D01*
X5324944Y-17980650D02*
X5286848Y-17980650D01*
X5286848Y-17980650D02*
X5267801Y-17990174D01*
X5353515Y-18104460D02*
X5334467Y-18113984D01*
X5334467Y-18113984D02*
X5286848Y-18113984D01*
X5286848Y-18113984D02*
X5267801Y-18104460D01*
X5267801Y-18104460D02*
X5258277Y-18085412D01*
X5258277Y-18085412D02*
X5258277Y-18066365D01*
X5258277Y-18066365D02*
X5267801Y-18047317D01*
X5267801Y-18047317D02*
X5286848Y-18037793D01*
X5286848Y-18037793D02*
X5334467Y-18037793D01*
X5334467Y-18037793D02*
X5353515Y-18028270D01*
X5448753Y-17980650D02*
X5448753Y-18180650D01*
X5448753Y-17990174D02*
X5467801Y-17980650D01*
X5467801Y-17980650D02*
X5505896Y-17980650D01*
X5505896Y-17980650D02*
X5524944Y-17990174D01*
X5524944Y-17990174D02*
X5534467Y-17999698D01*
X5534467Y-17999698D02*
X5543991Y-18018746D01*
X5543991Y-18018746D02*
X5543991Y-18075889D01*
X5543991Y-18075889D02*
X5534467Y-18094936D01*
X5534467Y-18094936D02*
X5524944Y-18104460D01*
X5524944Y-18104460D02*
X5505896Y-18113984D01*
X5505896Y-18113984D02*
X5467801Y-18113984D01*
X5467801Y-18113984D02*
X5448753Y-18104460D01*
X5629705Y-18094936D02*
X5639229Y-18104460D01*
X5639229Y-18104460D02*
X5629705Y-18113984D01*
X5629705Y-18113984D02*
X5620182Y-18104460D01*
X5620182Y-18104460D02*
X5629705Y-18094936D01*
X5629705Y-18094936D02*
X5629705Y-18113984D01*
X5629705Y-17990174D02*
X5639229Y-17999698D01*
X5639229Y-17999698D02*
X5629705Y-18009222D01*
X5629705Y-18009222D02*
X5620182Y-17999698D01*
X5620182Y-17999698D02*
X5629705Y-17990174D01*
X5629705Y-17990174D02*
X5629705Y-18009222D01*
D13*
X3957500Y-18422500D02*
X3997500Y-18462500D01*
X3997500Y-18422500D02*
X3957500Y-18462500D01*
D12*
X4296372Y-18333984D02*
X4315420Y-18333984D01*
X4315420Y-18333984D02*
X4334467Y-18343508D01*
X4334467Y-18343508D02*
X4343991Y-18353031D01*
X4343991Y-18353031D02*
X4353515Y-18372079D01*
X4353515Y-18372079D02*
X4363039Y-18410174D01*
X4363039Y-18410174D02*
X4363039Y-18457793D01*
X4363039Y-18457793D02*
X4353515Y-18495889D01*
X4353515Y-18495889D02*
X4343991Y-18514936D01*
X4343991Y-18514936D02*
X4334467Y-18524460D01*
X4334467Y-18524460D02*
X4315420Y-18533984D01*
X4315420Y-18533984D02*
X4296372Y-18533984D01*
X4296372Y-18533984D02*
X4277324Y-18524460D01*
X4277324Y-18524460D02*
X4267801Y-18514936D01*
X4267801Y-18514936D02*
X4258277Y-18495889D01*
X4258277Y-18495889D02*
X4248753Y-18457793D01*
X4248753Y-18457793D02*
X4248753Y-18410174D01*
X4248753Y-18410174D02*
X4258277Y-18372079D01*
X4258277Y-18372079D02*
X4267801Y-18353031D01*
X4267801Y-18353031D02*
X4277324Y-18343508D01*
X4277324Y-18343508D02*
X4296372Y-18333984D01*
X4448753Y-18514936D02*
X4458277Y-18524460D01*
X4458277Y-18524460D02*
X4448753Y-18533984D01*
X4448753Y-18533984D02*
X4439229Y-18524460D01*
X4439229Y-18524460D02*
X4448753Y-18514936D01*
X4448753Y-18514936D02*
X4448753Y-18533984D01*
X4629705Y-18400650D02*
X4629705Y-18533984D01*
X4582086Y-18324460D02*
X4534467Y-18467317D01*
X4534467Y-18467317D02*
X4658277Y-18467317D01*
X4772563Y-18333984D02*
X4791610Y-18333984D01*
X4791610Y-18333984D02*
X4810658Y-18343508D01*
X4810658Y-18343508D02*
X4820182Y-18353031D01*
X4820182Y-18353031D02*
X4829705Y-18372079D01*
X4829705Y-18372079D02*
X4839229Y-18410174D01*
X4839229Y-18410174D02*
X4839229Y-18457793D01*
X4839229Y-18457793D02*
X4829705Y-18495889D01*
X4829705Y-18495889D02*
X4820182Y-18514936D01*
X4820182Y-18514936D02*
X4810658Y-18524460D01*
X4810658Y-18524460D02*
X4791610Y-18533984D01*
X4791610Y-18533984D02*
X4772563Y-18533984D01*
X4772563Y-18533984D02*
X4753515Y-18524460D01*
X4753515Y-18524460D02*
X4743991Y-18514936D01*
X4743991Y-18514936D02*
X4734467Y-18495889D01*
X4734467Y-18495889D02*
X4724944Y-18457793D01*
X4724944Y-18457793D02*
X4724944Y-18410174D01*
X4724944Y-18410174D02*
X4734467Y-18372079D01*
X4734467Y-18372079D02*
X4743991Y-18353031D01*
X4743991Y-18353031D02*
X4753515Y-18343508D01*
X4753515Y-18343508D02*
X4772563Y-18333984D01*
X4963039Y-18333984D02*
X4982086Y-18333984D01*
X4982086Y-18333984D02*
X5001134Y-18343508D01*
X5001134Y-18343508D02*
X5010658Y-18353031D01*
X5010658Y-18353031D02*
X5020182Y-18372079D01*
X5020182Y-18372079D02*
X5029705Y-18410174D01*
X5029705Y-18410174D02*
X5029705Y-18457793D01*
X5029705Y-18457793D02*
X5020182Y-18495889D01*
X5020182Y-18495889D02*
X5010658Y-18514936D01*
X5010658Y-18514936D02*
X5001134Y-18524460D01*
X5001134Y-18524460D02*
X4982086Y-18533984D01*
X4982086Y-18533984D02*
X4963039Y-18533984D01*
X4963039Y-18533984D02*
X4943991Y-18524460D01*
X4943991Y-18524460D02*
X4934467Y-18514936D01*
X4934467Y-18514936D02*
X4924944Y-18495889D01*
X4924944Y-18495889D02*
X4915420Y-18457793D01*
X4915420Y-18457793D02*
X4915420Y-18410174D01*
X4915420Y-18410174D02*
X4924944Y-18372079D01*
X4924944Y-18372079D02*
X4934467Y-18353031D01*
X4934467Y-18353031D02*
X4943991Y-18343508D01*
X4943991Y-18343508D02*
X4963039Y-18333984D01*
X5115420Y-18533984D02*
X5115420Y-18400650D01*
X5115420Y-18419698D02*
X5124944Y-18410174D01*
X5124944Y-18410174D02*
X5143991Y-18400650D01*
X5143991Y-18400650D02*
X5172563Y-18400650D01*
X5172563Y-18400650D02*
X5191610Y-18410174D01*
X5191610Y-18410174D02*
X5201134Y-18429222D01*
X5201134Y-18429222D02*
X5201134Y-18533984D01*
X5201134Y-18429222D02*
X5210658Y-18410174D01*
X5210658Y-18410174D02*
X5229705Y-18400650D01*
X5229705Y-18400650D02*
X5258277Y-18400650D01*
X5258277Y-18400650D02*
X5277325Y-18410174D01*
X5277325Y-18410174D02*
X5286848Y-18429222D01*
X5286848Y-18429222D02*
X5286848Y-18533984D01*
X5382086Y-18533984D02*
X5382086Y-18400650D01*
X5382086Y-18419698D02*
X5391610Y-18410174D01*
X5391610Y-18410174D02*
X5410658Y-18400650D01*
X5410658Y-18400650D02*
X5439229Y-18400650D01*
X5439229Y-18400650D02*
X5458277Y-18410174D01*
X5458277Y-18410174D02*
X5467801Y-18429222D01*
X5467801Y-18429222D02*
X5467801Y-18533984D01*
X5467801Y-18429222D02*
X5477325Y-18410174D01*
X5477325Y-18410174D02*
X5496372Y-18400650D01*
X5496372Y-18400650D02*
X5524944Y-18400650D01*
X5524944Y-18400650D02*
X5543991Y-18410174D01*
X5543991Y-18410174D02*
X5553515Y-18429222D01*
X5553515Y-18429222D02*
X5553515Y-18533984D01*
X5943991Y-18324460D02*
X5772563Y-18581603D01*
X6201134Y-18333984D02*
X6220182Y-18333984D01*
X6220182Y-18333984D02*
X6239229Y-18343508D01*
X6239229Y-18343508D02*
X6248753Y-18353031D01*
X6248753Y-18353031D02*
X6258277Y-18372079D01*
X6258277Y-18372079D02*
X6267801Y-18410174D01*
X6267801Y-18410174D02*
X6267801Y-18457793D01*
X6267801Y-18457793D02*
X6258277Y-18495889D01*
X6258277Y-18495889D02*
X6248753Y-18514936D01*
X6248753Y-18514936D02*
X6239229Y-18524460D01*
X6239229Y-18524460D02*
X6220182Y-18533984D01*
X6220182Y-18533984D02*
X6201134Y-18533984D01*
X6201134Y-18533984D02*
X6182086Y-18524460D01*
X6182086Y-18524460D02*
X6172563Y-18514936D01*
X6172563Y-18514936D02*
X6163039Y-18495889D01*
X6163039Y-18495889D02*
X6153515Y-18457793D01*
X6153515Y-18457793D02*
X6153515Y-18410174D01*
X6153515Y-18410174D02*
X6163039Y-18372079D01*
X6163039Y-18372079D02*
X6172563Y-18353031D01*
X6172563Y-18353031D02*
X6182086Y-18343508D01*
X6182086Y-18343508D02*
X6201134Y-18333984D01*
X6353515Y-18514936D02*
X6363039Y-18524460D01*
X6363039Y-18524460D02*
X6353515Y-18533984D01*
X6353515Y-18533984D02*
X6343991Y-18524460D01*
X6343991Y-18524460D02*
X6353515Y-18514936D01*
X6353515Y-18514936D02*
X6353515Y-18533984D01*
X6486848Y-18333984D02*
X6505896Y-18333984D01*
X6505896Y-18333984D02*
X6524944Y-18343508D01*
X6524944Y-18343508D02*
X6534467Y-18353031D01*
X6534467Y-18353031D02*
X6543991Y-18372079D01*
X6543991Y-18372079D02*
X6553515Y-18410174D01*
X6553515Y-18410174D02*
X6553515Y-18457793D01*
X6553515Y-18457793D02*
X6543991Y-18495889D01*
X6543991Y-18495889D02*
X6534467Y-18514936D01*
X6534467Y-18514936D02*
X6524944Y-18524460D01*
X6524944Y-18524460D02*
X6505896Y-18533984D01*
X6505896Y-18533984D02*
X6486848Y-18533984D01*
X6486848Y-18533984D02*
X6467801Y-18524460D01*
X6467801Y-18524460D02*
X6458277Y-18514936D01*
X6458277Y-18514936D02*
X6448753Y-18495889D01*
X6448753Y-18495889D02*
X6439229Y-18457793D01*
X6439229Y-18457793D02*
X6439229Y-18410174D01*
X6439229Y-18410174D02*
X6448753Y-18372079D01*
X6448753Y-18372079D02*
X6458277Y-18353031D01*
X6458277Y-18353031D02*
X6467801Y-18343508D01*
X6467801Y-18343508D02*
X6486848Y-18333984D01*
X6743991Y-18533984D02*
X6629706Y-18533984D01*
X6686848Y-18533984D02*
X6686848Y-18333984D01*
X6686848Y-18333984D02*
X6667801Y-18362555D01*
X6667801Y-18362555D02*
X6648753Y-18381603D01*
X6648753Y-18381603D02*
X6629706Y-18391127D01*
X6924944Y-18333984D02*
X6829706Y-18333984D01*
X6829706Y-18333984D02*
X6820182Y-18429222D01*
X6820182Y-18429222D02*
X6829706Y-18419698D01*
X6829706Y-18419698D02*
X6848753Y-18410174D01*
X6848753Y-18410174D02*
X6896372Y-18410174D01*
X6896372Y-18410174D02*
X6915420Y-18419698D01*
X6915420Y-18419698D02*
X6924944Y-18429222D01*
X6924944Y-18429222D02*
X6934467Y-18448270D01*
X6934467Y-18448270D02*
X6934467Y-18495889D01*
X6934467Y-18495889D02*
X6924944Y-18514936D01*
X6924944Y-18514936D02*
X6915420Y-18524460D01*
X6915420Y-18524460D02*
X6896372Y-18533984D01*
X6896372Y-18533984D02*
X6848753Y-18533984D01*
X6848753Y-18533984D02*
X6829706Y-18524460D01*
X6829706Y-18524460D02*
X6820182Y-18514936D01*
X7001134Y-18333984D02*
X7134467Y-18333984D01*
X7134467Y-18333984D02*
X7048753Y-18533984D01*
X7201134Y-18333984D02*
X7201134Y-18372079D01*
X7277325Y-18333984D02*
X7277325Y-18372079D01*
X7572563Y-18610174D02*
X7563039Y-18600650D01*
X7563039Y-18600650D02*
X7543991Y-18572079D01*
X7543991Y-18572079D02*
X7534468Y-18553031D01*
X7534468Y-18553031D02*
X7524944Y-18524460D01*
X7524944Y-18524460D02*
X7515420Y-18476841D01*
X7515420Y-18476841D02*
X7515420Y-18438746D01*
X7515420Y-18438746D02*
X7524944Y-18391127D01*
X7524944Y-18391127D02*
X7534468Y-18362555D01*
X7534468Y-18362555D02*
X7543991Y-18343508D01*
X7543991Y-18343508D02*
X7563039Y-18314936D01*
X7563039Y-18314936D02*
X7572563Y-18305412D01*
X7753515Y-18533984D02*
X7639229Y-18533984D01*
X7696372Y-18533984D02*
X7696372Y-18333984D01*
X7696372Y-18333984D02*
X7677325Y-18362555D01*
X7677325Y-18362555D02*
X7658277Y-18381603D01*
X7658277Y-18381603D02*
X7639229Y-18391127D01*
X7943991Y-18533984D02*
X7829706Y-18533984D01*
X7886848Y-18533984D02*
X7886848Y-18333984D01*
X7886848Y-18333984D02*
X7867801Y-18362555D01*
X7867801Y-18362555D02*
X7848753Y-18381603D01*
X7848753Y-18381603D02*
X7829706Y-18391127D01*
X8039229Y-18533984D02*
X8077325Y-18533984D01*
X8077325Y-18533984D02*
X8096372Y-18524460D01*
X8096372Y-18524460D02*
X8105896Y-18514936D01*
X8105896Y-18514936D02*
X8124944Y-18486365D01*
X8124944Y-18486365D02*
X8134468Y-18448270D01*
X8134468Y-18448270D02*
X8134468Y-18372079D01*
X8134468Y-18372079D02*
X8124944Y-18353031D01*
X8124944Y-18353031D02*
X8115420Y-18343508D01*
X8115420Y-18343508D02*
X8096372Y-18333984D01*
X8096372Y-18333984D02*
X8058277Y-18333984D01*
X8058277Y-18333984D02*
X8039229Y-18343508D01*
X8039229Y-18343508D02*
X8029706Y-18353031D01*
X8029706Y-18353031D02*
X8020182Y-18372079D01*
X8020182Y-18372079D02*
X8020182Y-18419698D01*
X8020182Y-18419698D02*
X8029706Y-18438746D01*
X8029706Y-18438746D02*
X8039229Y-18448270D01*
X8039229Y-18448270D02*
X8058277Y-18457793D01*
X8058277Y-18457793D02*
X8096372Y-18457793D01*
X8096372Y-18457793D02*
X8115420Y-18448270D01*
X8115420Y-18448270D02*
X8124944Y-18438746D01*
X8124944Y-18438746D02*
X8134468Y-18419698D01*
X8372563Y-18533984D02*
X8372563Y-18333984D01*
X8458277Y-18533984D02*
X8458277Y-18429222D01*
X8458277Y-18429222D02*
X8448753Y-18410174D01*
X8448753Y-18410174D02*
X8429706Y-18400650D01*
X8429706Y-18400650D02*
X8401134Y-18400650D01*
X8401134Y-18400650D02*
X8382087Y-18410174D01*
X8382087Y-18410174D02*
X8372563Y-18419698D01*
X8582087Y-18533984D02*
X8563039Y-18524460D01*
X8563039Y-18524460D02*
X8553515Y-18514936D01*
X8553515Y-18514936D02*
X8543992Y-18495889D01*
X8543992Y-18495889D02*
X8543992Y-18438746D01*
X8543992Y-18438746D02*
X8553515Y-18419698D01*
X8553515Y-18419698D02*
X8563039Y-18410174D01*
X8563039Y-18410174D02*
X8582087Y-18400650D01*
X8582087Y-18400650D02*
X8610658Y-18400650D01*
X8610658Y-18400650D02*
X8629706Y-18410174D01*
X8629706Y-18410174D02*
X8639230Y-18419698D01*
X8639230Y-18419698D02*
X8648753Y-18438746D01*
X8648753Y-18438746D02*
X8648753Y-18495889D01*
X8648753Y-18495889D02*
X8639230Y-18514936D01*
X8639230Y-18514936D02*
X8629706Y-18524460D01*
X8629706Y-18524460D02*
X8610658Y-18533984D01*
X8610658Y-18533984D02*
X8582087Y-18533984D01*
X8763039Y-18533984D02*
X8743992Y-18524460D01*
X8743992Y-18524460D02*
X8734468Y-18505412D01*
X8734468Y-18505412D02*
X8734468Y-18333984D01*
X8915420Y-18524460D02*
X8896373Y-18533984D01*
X8896373Y-18533984D02*
X8858277Y-18533984D01*
X8858277Y-18533984D02*
X8839230Y-18524460D01*
X8839230Y-18524460D02*
X8829706Y-18505412D01*
X8829706Y-18505412D02*
X8829706Y-18429222D01*
X8829706Y-18429222D02*
X8839230Y-18410174D01*
X8839230Y-18410174D02*
X8858277Y-18400650D01*
X8858277Y-18400650D02*
X8896373Y-18400650D01*
X8896373Y-18400650D02*
X8915420Y-18410174D01*
X8915420Y-18410174D02*
X8924944Y-18429222D01*
X8924944Y-18429222D02*
X8924944Y-18448270D01*
X8924944Y-18448270D02*
X8829706Y-18467317D01*
X9001134Y-18524460D02*
X9020182Y-18533984D01*
X9020182Y-18533984D02*
X9058277Y-18533984D01*
X9058277Y-18533984D02*
X9077325Y-18524460D01*
X9077325Y-18524460D02*
X9086849Y-18505412D01*
X9086849Y-18505412D02*
X9086849Y-18495889D01*
X9086849Y-18495889D02*
X9077325Y-18476841D01*
X9077325Y-18476841D02*
X9058277Y-18467317D01*
X9058277Y-18467317D02*
X9029706Y-18467317D01*
X9029706Y-18467317D02*
X9010658Y-18457793D01*
X9010658Y-18457793D02*
X9001134Y-18438746D01*
X9001134Y-18438746D02*
X9001134Y-18429222D01*
X9001134Y-18429222D02*
X9010658Y-18410174D01*
X9010658Y-18410174D02*
X9029706Y-18400650D01*
X9029706Y-18400650D02*
X9058277Y-18400650D01*
X9058277Y-18400650D02*
X9077325Y-18410174D01*
X9153515Y-18610174D02*
X9163039Y-18600650D01*
X9163039Y-18600650D02*
X9182087Y-18572079D01*
X9182087Y-18572079D02*
X9191611Y-18553031D01*
X9191611Y-18553031D02*
X9201134Y-18524460D01*
X9201134Y-18524460D02*
X9210658Y-18476841D01*
X9210658Y-18476841D02*
X9210658Y-18438746D01*
X9210658Y-18438746D02*
X9201134Y-18391127D01*
X9201134Y-18391127D02*
X9191611Y-18362555D01*
X9191611Y-18362555D02*
X9182087Y-18343508D01*
X9182087Y-18343508D02*
X9163039Y-18314936D01*
X9163039Y-18314936D02*
X9153515Y-18305412D01*
M02*
