%TF.GenerationSoftware,KiCad,Pcbnew,8.0.6*%
%TF.CreationDate,2024-10-30T01:37:24+00:00*%
%TF.ProjectId,Chirstmas-Card,43686972-7374-46d6-9173-2d436172642e,rev?*%
%TF.SameCoordinates,Original*%
%TF.FileFunction,Paste,Top*%
%TF.FilePolarity,Positive*%
%FSLAX46Y46*%
G04 Gerber Fmt 4.6, Leading zero omitted, Abs format (unit mm)*
G04 Created by KiCad (PCBNEW 8.0.6) date 2024-10-30 01:37:24*
%MOMM*%
%LPD*%
G01*
G04 APERTURE LIST*
G04 Aperture macros list*
%AMRoundRect*
0 Rectangle with rounded corners*
0 $1 Rounding radius*
0 $2 $3 $4 $5 $6 $7 $8 $9 X,Y pos of 4 corners*
0 Add a 4 corners polygon primitive as box body*
4,1,4,$2,$3,$4,$5,$6,$7,$8,$9,$2,$3,0*
0 Add four circle primitives for the rounded corners*
1,1,$1+$1,$2,$3*
1,1,$1+$1,$4,$5*
1,1,$1+$1,$6,$7*
1,1,$1+$1,$8,$9*
0 Add four rect primitives between the rounded corners*
20,1,$1+$1,$2,$3,$4,$5,0*
20,1,$1+$1,$4,$5,$6,$7,0*
20,1,$1+$1,$6,$7,$8,$9,0*
20,1,$1+$1,$8,$9,$2,$3,0*%
G04 Aperture macros list end*
%ADD10C,0.010000*%
%ADD11R,5.000000X1.500000*%
%ADD12RoundRect,0.135000X-0.135000X-0.185000X0.135000X-0.185000X0.135000X0.185000X-0.135000X0.185000X0*%
%ADD13RoundRect,0.135000X0.135000X0.185000X-0.135000X0.185000X-0.135000X-0.185000X0.135000X-0.185000X0*%
%ADD14R,1.800000X1.000000*%
%ADD15RoundRect,0.039000X0.381000X0.091000X-0.381000X0.091000X-0.381000X-0.091000X0.381000X-0.091000X0*%
%ADD16RoundRect,0.039000X0.091000X0.381000X-0.091000X0.381000X-0.091000X-0.381000X0.091000X-0.381000X0*%
%ADD17R,1.000000X1.000000*%
%ADD18RoundRect,0.135000X-0.185000X0.135000X-0.185000X-0.135000X0.185000X-0.135000X0.185000X0.135000X0*%
%ADD19RoundRect,0.225000X0.225000X0.250000X-0.225000X0.250000X-0.225000X-0.250000X0.225000X-0.250000X0*%
%ADD20RoundRect,0.140000X0.140000X0.170000X-0.140000X0.170000X-0.140000X-0.170000X0.140000X-0.170000X0*%
%ADD21RoundRect,0.140000X0.170000X-0.140000X0.170000X0.140000X-0.170000X0.140000X-0.170000X-0.140000X0*%
%ADD22RoundRect,0.140000X-0.140000X-0.170000X0.140000X-0.170000X0.140000X0.170000X-0.140000X0.170000X0*%
%ADD23RoundRect,0.225000X-0.250000X0.225000X-0.250000X-0.225000X0.250000X-0.225000X0.250000X0.225000X0*%
%ADD24R,4.200000X3.800000*%
%ADD25RoundRect,0.243750X-0.456250X0.243750X-0.456250X-0.243750X0.456250X-0.243750X0.456250X0.243750X0*%
%ADD26RoundRect,0.075000X-0.075000X0.662500X-0.075000X-0.662500X0.075000X-0.662500X0.075000X0.662500X0*%
%ADD27RoundRect,0.075000X-0.662500X0.075000X-0.662500X-0.075000X0.662500X-0.075000X0.662500X0.075000X0*%
%ADD28RoundRect,0.225000X-0.225000X-0.250000X0.225000X-0.250000X0.225000X0.250000X-0.225000X0.250000X0*%
G04 APERTURE END LIST*
D10*
%TO.C,U1*%
X122910000Y-60035000D02*
X121990000Y-60035000D01*
X121990000Y-59115000D01*
X122910000Y-59115000D01*
X122910000Y-60035000D01*
G36*
X122910000Y-60035000D02*
G01*
X121990000Y-60035000D01*
X121990000Y-59115000D01*
X122910000Y-59115000D01*
X122910000Y-60035000D01*
G37*
%TD*%
D11*
%TO.C,LS1*%
X111375000Y-54175000D03*
X111375000Y-64975000D03*
%TD*%
D12*
%TO.C,R16*%
X125887500Y-61425000D03*
X126907500Y-61425000D03*
%TD*%
D13*
%TO.C,R15*%
X126907500Y-60350000D03*
X125887500Y-60350000D03*
%TD*%
D14*
%TO.C,Y1*%
X139675000Y-65700000D03*
X139675000Y-63200000D03*
%TD*%
D15*
%TO.C,U1*%
X123880000Y-60075000D03*
X123880000Y-59575000D03*
X123880000Y-59075000D03*
D16*
X122950000Y-58145000D03*
X122450000Y-58145000D03*
X121950000Y-58145000D03*
D15*
X121020000Y-59075000D03*
X121020000Y-59575000D03*
X121020000Y-60075000D03*
D16*
X121950000Y-61005000D03*
X122450000Y-61005000D03*
X122950000Y-61005000D03*
%TD*%
D17*
%TO.C,SW3*%
X129500000Y-170250000D03*
X120500000Y-170250000D03*
X129500000Y-165750000D03*
X120500000Y-165750000D03*
%TD*%
%TO.C,SW2*%
X97000000Y-170250000D03*
X88000000Y-170250000D03*
X97000000Y-165750000D03*
X88000000Y-165750000D03*
%TD*%
%TO.C,SW1*%
X64500000Y-170250000D03*
X55500000Y-170250000D03*
X64500000Y-165750000D03*
X55500000Y-165750000D03*
%TD*%
D12*
%TO.C,R14*%
X125887500Y-57175000D03*
X126907500Y-57175000D03*
%TD*%
%TO.C,R13*%
X142330000Y-76850000D03*
X143350000Y-76850000D03*
%TD*%
%TO.C,R12*%
X140140000Y-75600000D03*
X141160000Y-75600000D03*
%TD*%
D13*
%TO.C,R11*%
X126907500Y-59300000D03*
X125887500Y-59300000D03*
%TD*%
D12*
%TO.C,R10*%
X125887500Y-58225000D03*
X126907500Y-58225000D03*
%TD*%
%TO.C,R9*%
X137890000Y-74400000D03*
X138910000Y-74400000D03*
%TD*%
D18*
%TO.C,R8*%
X125000000Y-74490000D03*
X125000000Y-75510000D03*
%TD*%
%TO.C,R7*%
X120000000Y-74490000D03*
X120000000Y-75510000D03*
%TD*%
%TO.C,R6*%
X115000000Y-74552499D03*
X115000000Y-75572499D03*
%TD*%
%TO.C,R5*%
X110000000Y-74490000D03*
X110000000Y-75510000D03*
%TD*%
%TO.C,R4*%
X105000000Y-74490000D03*
X105000000Y-75510000D03*
%TD*%
%TO.C,R3*%
X100000000Y-74490000D03*
X100000000Y-75510000D03*
%TD*%
%TO.C,R2*%
X95000000Y-74552499D03*
X95000000Y-75572499D03*
%TD*%
%TO.C,R1*%
X90000000Y-74490000D03*
X90000000Y-75510000D03*
%TD*%
D19*
%TO.C,C11*%
X132150000Y-62700000D03*
X130600000Y-62700000D03*
%TD*%
D20*
%TO.C,C10*%
X132430000Y-64025000D03*
X131470000Y-64025000D03*
%TD*%
D21*
%TO.C,C9*%
X134400000Y-64005000D03*
X134400000Y-63045000D03*
%TD*%
%TO.C,C8*%
X133400000Y-64005000D03*
X133400000Y-63045000D03*
%TD*%
D20*
%TO.C,C7*%
X129705000Y-64000000D03*
X128745000Y-64000000D03*
%TD*%
D22*
%TO.C,C6*%
X141345000Y-65700000D03*
X142305000Y-65700000D03*
%TD*%
%TO.C,C5*%
X141345000Y-63200000D03*
X142305000Y-63200000D03*
%TD*%
D23*
%TO.C,C4*%
X118797500Y-59575000D03*
X118797500Y-61125000D03*
%TD*%
D19*
%TO.C,C3*%
X122947500Y-56125000D03*
X121397500Y-56125000D03*
%TD*%
D24*
%TO.C,BT1*%
X139535000Y-43000000D03*
X110765000Y-43000000D03*
%TD*%
D19*
%TO.C,C1*%
X124922500Y-62700000D03*
X123372500Y-62700000D03*
%TD*%
D25*
%TO.C,D43*%
X110000000Y-104000000D03*
X110000000Y-105875002D03*
%TD*%
%TO.C,D48*%
X95000000Y-104062499D03*
X95000000Y-105937501D03*
%TD*%
%TO.C,D59*%
X110000000Y-114000000D03*
X110000000Y-115875002D03*
%TD*%
%TO.C,D44*%
X115000000Y-104062499D03*
X115000000Y-105937501D03*
%TD*%
%TO.C,D52*%
X115000000Y-109062499D03*
X115000000Y-110937501D03*
%TD*%
%TO.C,D3*%
X110000000Y-79000000D03*
X110000000Y-80875002D03*
%TD*%
%TO.C,D49*%
X100000000Y-109000000D03*
X100000000Y-110875002D03*
%TD*%
%TO.C,D23*%
X90000000Y-89000000D03*
X90000000Y-90875002D03*
%TD*%
D26*
%TO.C,U2*%
X135750000Y-65837500D03*
X135250000Y-65837500D03*
X134750000Y-65837500D03*
X134250000Y-65837500D03*
X133750000Y-65837500D03*
X133250000Y-65837500D03*
X132750000Y-65837500D03*
X132250000Y-65837500D03*
X131750000Y-65837500D03*
X131250000Y-65837500D03*
X130750000Y-65837500D03*
X130250000Y-65837500D03*
D27*
X128837500Y-67250000D03*
X128837500Y-67750000D03*
X128837500Y-68250000D03*
X128837500Y-68750000D03*
X128837500Y-69250000D03*
X128837500Y-69750000D03*
X128837500Y-70250000D03*
X128837500Y-70750000D03*
X128837500Y-71250000D03*
X128837500Y-71750000D03*
X128837500Y-72250000D03*
X128837500Y-72750000D03*
D26*
X130250000Y-74162500D03*
X130750000Y-74162500D03*
X131250000Y-74162500D03*
X131750000Y-74162500D03*
X132250000Y-74162500D03*
X132750000Y-74162500D03*
X133250000Y-74162500D03*
X133750000Y-74162500D03*
X134250000Y-74162500D03*
X134750000Y-74162500D03*
X135250000Y-74162500D03*
X135750000Y-74162500D03*
D27*
X137162500Y-72750000D03*
X137162500Y-72250000D03*
X137162500Y-71750000D03*
X137162500Y-71250000D03*
X137162500Y-70750000D03*
X137162500Y-70250000D03*
X137162500Y-69750000D03*
X137162500Y-69250000D03*
X137162500Y-68750000D03*
X137162500Y-68250000D03*
X137162500Y-67750000D03*
X137162500Y-67250000D03*
%TD*%
D25*
%TO.C,D5*%
X120000000Y-79000000D03*
X120000000Y-80875002D03*
%TD*%
%TO.C,D50*%
X105000000Y-109000000D03*
X105000000Y-110875002D03*
%TD*%
%TO.C,D61*%
X120000000Y-114000000D03*
X120000000Y-115875002D03*
%TD*%
%TO.C,D46*%
X125000000Y-104000000D03*
X125000000Y-105875002D03*
%TD*%
%TO.C,D56*%
X95000000Y-109062499D03*
X95000000Y-110937501D03*
%TD*%
%TO.C,D29*%
X120000000Y-94000000D03*
X120000000Y-95875002D03*
%TD*%
%TO.C,D38*%
X125000000Y-99000000D03*
X125000000Y-100875002D03*
%TD*%
%TO.C,D2*%
X105000000Y-79000000D03*
X105000000Y-80875002D03*
%TD*%
%TO.C,D55*%
X90000000Y-109000000D03*
X90000000Y-110875002D03*
%TD*%
%TO.C,D40*%
X95000000Y-99062499D03*
X95000000Y-100937501D03*
%TD*%
%TO.C,D41*%
X100000000Y-104000000D03*
X100000000Y-105875002D03*
%TD*%
%TO.C,D1*%
X100000000Y-79000000D03*
X100000000Y-80875002D03*
%TD*%
%TO.C,D11*%
X110000000Y-84000000D03*
X110000000Y-85875002D03*
%TD*%
%TO.C,D10*%
X105000000Y-84000000D03*
X105000000Y-85875002D03*
%TD*%
%TO.C,D42*%
X105000000Y-104000000D03*
X105000000Y-105875002D03*
%TD*%
%TO.C,D31*%
X90000000Y-94000000D03*
X90000000Y-95875002D03*
%TD*%
%TO.C,D20*%
X115000000Y-89062499D03*
X115000000Y-90937501D03*
%TD*%
%TO.C,D47*%
X90000000Y-104000000D03*
X90000000Y-105875002D03*
%TD*%
%TO.C,D39*%
X90000000Y-99000000D03*
X90000000Y-100875002D03*
%TD*%
%TO.C,D35*%
X110000000Y-99000000D03*
X110000000Y-100875002D03*
%TD*%
%TO.C,D15*%
X90000000Y-84000000D03*
X90000000Y-85875002D03*
%TD*%
%TO.C,D25*%
X100000000Y-94000000D03*
X100000000Y-95875002D03*
%TD*%
%TO.C,D64*%
X95000000Y-114062499D03*
X95000000Y-115937501D03*
%TD*%
%TO.C,D60*%
X115000000Y-114062499D03*
X115000000Y-115937501D03*
%TD*%
%TO.C,D4*%
X115000000Y-79062499D03*
X115000000Y-80937501D03*
%TD*%
%TO.C,D36*%
X115000000Y-99062499D03*
X115000000Y-100937501D03*
%TD*%
%TO.C,D62*%
X125000000Y-114000000D03*
X125000000Y-115875002D03*
%TD*%
%TO.C,D14*%
X125000000Y-84000000D03*
X125000000Y-85875002D03*
%TD*%
%TO.C,D17*%
X100000000Y-89000000D03*
X100000000Y-90875002D03*
%TD*%
%TO.C,D57*%
X100000000Y-114000000D03*
X100000000Y-115875002D03*
%TD*%
%TO.C,D32*%
X95000000Y-94062499D03*
X95000000Y-95937501D03*
%TD*%
%TO.C,D28*%
X115000000Y-94062499D03*
X115000000Y-95937501D03*
%TD*%
%TO.C,D7*%
X90000000Y-79000000D03*
X90000000Y-80875002D03*
%TD*%
%TO.C,D37*%
X120000000Y-99000000D03*
X120000000Y-100875002D03*
%TD*%
%TO.C,D54*%
X125000000Y-109000000D03*
X125000000Y-110875002D03*
%TD*%
%TO.C,D58*%
X105000000Y-114000000D03*
X105000000Y-115875002D03*
%TD*%
%TO.C,D63*%
X90000000Y-114000000D03*
X90000000Y-115875002D03*
%TD*%
%TO.C,D6*%
X125000000Y-79000000D03*
X125000000Y-80875002D03*
%TD*%
%TO.C,D27*%
X110000000Y-94000000D03*
X110000000Y-95875002D03*
%TD*%
%TO.C,D18*%
X105000000Y-89000000D03*
X105000000Y-90875002D03*
%TD*%
%TO.C,D24*%
X95000000Y-89062499D03*
X95000000Y-90937501D03*
%TD*%
%TO.C,D12*%
X115000000Y-84062499D03*
X115000000Y-85937501D03*
%TD*%
%TO.C,D34*%
X105000000Y-99000000D03*
X105000000Y-100875002D03*
%TD*%
%TO.C,D8*%
X95000000Y-79062499D03*
X95000000Y-80937501D03*
%TD*%
%TO.C,D9*%
X100000000Y-84000000D03*
X100000000Y-85875002D03*
%TD*%
%TO.C,D33*%
X100000000Y-99000000D03*
X100000000Y-100875002D03*
%TD*%
%TO.C,D19*%
X110000000Y-89000000D03*
X110000000Y-90875002D03*
%TD*%
D28*
%TO.C,C2*%
X119972500Y-62700000D03*
X121522500Y-62700000D03*
%TD*%
D25*
%TO.C,D30*%
X125000000Y-94000000D03*
X125000000Y-95875002D03*
%TD*%
%TO.C,D45*%
X120000000Y-104000000D03*
X120000000Y-105875002D03*
%TD*%
%TO.C,D53*%
X120000000Y-109000000D03*
X120000000Y-110875002D03*
%TD*%
%TO.C,D26*%
X105000000Y-94000000D03*
X105000000Y-95875002D03*
%TD*%
%TO.C,D16*%
X95000000Y-84062499D03*
X95000000Y-85937501D03*
%TD*%
%TO.C,D51*%
X110000000Y-109000000D03*
X110000000Y-110875002D03*
%TD*%
%TO.C,D22*%
X125000000Y-89000000D03*
X125000000Y-90875002D03*
%TD*%
%TO.C,D21*%
X120000000Y-89000000D03*
X120000000Y-90875002D03*
%TD*%
%TO.C,D13*%
X120000000Y-84000000D03*
X120000000Y-85875002D03*
%TD*%
M02*
