%TF.GenerationSoftware,KiCad,Pcbnew,9.0.4*%
%TF.CreationDate,2025-09-01T02:23:14+01:00*%
%TF.ProjectId,Chirstmas-Card,43686972-7374-46d6-9173-2d436172642e,rev?*%
%TF.SameCoordinates,Original*%
%TF.FileFunction,Paste,Bot*%
%TF.FilePolarity,Positive*%
%FSLAX46Y46*%
G04 Gerber Fmt 4.6, Leading zero omitted, Abs format (unit mm)*
G04 Created by KiCad (PCBNEW 9.0.4) date 2025-09-01 02:23:14*
%MOMM*%
%LPD*%
G01*
G04 APERTURE LIST*
G04 Aperture macros list*
%AMRoundRect*
0 Rectangle with rounded corners*
0 $1 Rounding radius*
0 $2 $3 $4 $5 $6 $7 $8 $9 X,Y pos of 4 corners*
0 Add a 4 corners polygon primitive as box body*
4,1,4,$2,$3,$4,$5,$6,$7,$8,$9,$2,$3,0*
0 Add four circle primitives for the rounded corners*
1,1,$1+$1,$2,$3*
1,1,$1+$1,$4,$5*
1,1,$1+$1,$6,$7*
1,1,$1+$1,$8,$9*
0 Add four rect primitives between the rounded corners*
20,1,$1+$1,$2,$3,$4,$5,0*
20,1,$1+$1,$4,$5,$6,$7,0*
20,1,$1+$1,$6,$7,$8,$9,0*
20,1,$1+$1,$8,$9,$2,$3,0*%
%AMRotRect*
0 Rectangle, with rotation*
0 The origin of the aperture is its center*
0 $1 length*
0 $2 width*
0 $3 Rotation angle, in degrees counterclockwise*
0 Add horizontal line*
21,1,$1,$2,0,0,$3*%
%AMFreePoly0*
4,1,12,0.707250,0.605397,0.612657,0.415428,0.554581,0.211312,0.535000,0.000000,0.554581,-0.211312,0.612657,-0.415428,0.707250,-0.605397,0.722054,-0.625000,-0.535000,-0.625000,-0.535000,0.625000,0.722054,0.625000,0.707250,0.605397,0.707250,0.605397,$1*%
G04 Aperture macros list end*
%ADD10FreePoly0,225.000000*%
%ADD11FreePoly0,45.000000*%
%ADD12R,5.000000X1.500000*%
%ADD13R,4.200000X3.800000*%
%ADD14RoundRect,0.200000X0.053033X-0.335876X0.335876X-0.053033X-0.053033X0.335876X-0.335876X0.053033X0*%
%ADD15RoundRect,0.075000X-0.075000X0.662500X-0.075000X-0.662500X0.075000X-0.662500X0.075000X0.662500X0*%
%ADD16RoundRect,0.075000X-0.662500X0.075000X-0.662500X-0.075000X0.662500X-0.075000X0.662500X0.075000X0*%
%ADD17RoundRect,0.140000X-0.140000X-0.170000X0.140000X-0.170000X0.140000X0.170000X-0.140000X0.170000X0*%
%ADD18RoundRect,0.200000X-0.335876X-0.053033X-0.053033X-0.335876X0.335876X0.053033X0.053033X0.335876X0*%
%ADD19RoundRect,0.225000X-0.225000X-0.250000X0.225000X-0.250000X0.225000X0.250000X-0.225000X0.250000X0*%
%ADD20RoundRect,0.140000X0.170000X-0.140000X0.170000X0.140000X-0.170000X0.140000X-0.170000X-0.140000X0*%
%ADD21RotRect,1.000000X1.800000X225.000000*%
%ADD22RoundRect,0.140000X0.219203X0.021213X0.021213X0.219203X-0.219203X-0.021213X-0.021213X-0.219203X0*%
G04 APERTURE END LIST*
D10*
%TO.C,D45*%
X115978803Y-84521197D03*
D11*
X113421197Y-87078803D03*
%TD*%
D10*
%TO.C,D42*%
X100978803Y-84521197D03*
D11*
X98421197Y-87078803D03*
%TD*%
D10*
%TO.C,D61*%
X115978803Y-94521197D03*
D11*
X113421197Y-97078803D03*
%TD*%
D10*
%TO.C,D46*%
X120978803Y-84521197D03*
D11*
X118421197Y-87078803D03*
%TD*%
D10*
%TO.C,D54*%
X120978803Y-89521197D03*
D11*
X118421197Y-92078803D03*
%TD*%
D10*
%TO.C,D5*%
X115978803Y-59583696D03*
D11*
X113421197Y-62141302D03*
%TD*%
D10*
%TO.C,D51*%
X105978803Y-89521197D03*
D11*
X103421197Y-92078803D03*
%TD*%
D10*
%TO.C,D17*%
X95978803Y-69521197D03*
D11*
X93421197Y-72078803D03*
%TD*%
D10*
%TO.C,D7*%
X125978803Y-59521197D03*
D11*
X123421197Y-62078803D03*
%TD*%
D10*
%TO.C,D52*%
X110978803Y-89521197D03*
D11*
X108421197Y-92078803D03*
%TD*%
D10*
%TO.C,D63*%
X125978803Y-94521197D03*
D11*
X123421197Y-97078803D03*
%TD*%
D10*
%TO.C,D48*%
X130978803Y-84521197D03*
D11*
X128421197Y-87078803D03*
%TD*%
D10*
%TO.C,D50*%
X100978803Y-89521197D03*
D11*
X98421197Y-92078803D03*
%TD*%
D10*
%TO.C,D31*%
X125978803Y-74521197D03*
D11*
X123421197Y-77078803D03*
%TD*%
D10*
%TO.C,D40*%
X130978803Y-79521197D03*
D11*
X128421197Y-82078803D03*
%TD*%
D10*
%TO.C,D4*%
X110978803Y-59521197D03*
D11*
X108421197Y-62078803D03*
%TD*%
D10*
%TO.C,D49*%
X95978803Y-89521197D03*
D11*
X93421197Y-92078803D03*
%TD*%
D10*
%TO.C,D34*%
X100978803Y-79583696D03*
D11*
X98421197Y-82141302D03*
%TD*%
D10*
%TO.C,D43*%
X105978803Y-84521197D03*
D11*
X103421197Y-87078803D03*
%TD*%
D10*
%TO.C,D3*%
X105978803Y-59521197D03*
D11*
X103421197Y-62078803D03*
%TD*%
D10*
%TO.C,D13*%
X115978803Y-64521197D03*
D11*
X113421197Y-67078803D03*
%TD*%
D10*
%TO.C,D12*%
X110978803Y-64521197D03*
D11*
X108421197Y-67078803D03*
%TD*%
D10*
%TO.C,D44*%
X110978803Y-84521197D03*
D11*
X108421197Y-87078803D03*
%TD*%
D10*
%TO.C,D25*%
X95978803Y-74521197D03*
D11*
X93421197Y-77078803D03*
%TD*%
D10*
%TO.C,D22*%
X120978803Y-69521197D03*
D11*
X118421197Y-72078803D03*
%TD*%
D10*
%TO.C,D41*%
X95978803Y-84521197D03*
D11*
X93421197Y-87078803D03*
%TD*%
D10*
%TO.C,D33*%
X95978803Y-79521197D03*
D11*
X93421197Y-82078803D03*
%TD*%
D10*
%TO.C,D37*%
X115978803Y-79521197D03*
D11*
X113421197Y-82078803D03*
%TD*%
D10*
%TO.C,D9*%
X95978803Y-64521197D03*
D11*
X93421197Y-67078803D03*
%TD*%
D10*
%TO.C,D27*%
X105978803Y-74521197D03*
D11*
X103421197Y-77078803D03*
%TD*%
D10*
%TO.C,D58*%
X100978803Y-94521197D03*
D11*
X98421197Y-97078803D03*
%TD*%
D10*
%TO.C,D62*%
X120978803Y-94521197D03*
D11*
X118421197Y-97078803D03*
%TD*%
D10*
%TO.C,D6*%
X120978803Y-59583696D03*
D11*
X118421197Y-62141302D03*
%TD*%
D10*
%TO.C,D38*%
X120978803Y-79521197D03*
D11*
X118421197Y-82078803D03*
%TD*%
D10*
%TO.C,D64*%
X130978803Y-94521197D03*
D11*
X128421197Y-97078803D03*
%TD*%
D10*
%TO.C,D16*%
X130978803Y-64521197D03*
D11*
X128421197Y-67078803D03*
%TD*%
D10*
%TO.C,D19*%
X105978803Y-69521197D03*
D11*
X103421197Y-72078803D03*
%TD*%
D10*
%TO.C,D59*%
X105978803Y-94521197D03*
D11*
X103421197Y-97078803D03*
%TD*%
D10*
%TO.C,D26*%
X100978803Y-74521197D03*
D11*
X98421197Y-77078803D03*
%TD*%
D10*
%TO.C,D30*%
X120978803Y-74521197D03*
D11*
X118421197Y-77078803D03*
%TD*%
D10*
%TO.C,D1*%
X95978803Y-59583696D03*
D11*
X93421197Y-62141302D03*
%TD*%
D10*
%TO.C,D39*%
X125978803Y-79521197D03*
D11*
X123421197Y-82078803D03*
%TD*%
D10*
%TO.C,D56*%
X130978803Y-89521197D03*
D11*
X128421197Y-92078803D03*
%TD*%
D10*
%TO.C,D60*%
X110978803Y-94521197D03*
D11*
X108421197Y-97078803D03*
%TD*%
D10*
%TO.C,D57*%
X95978803Y-94521197D03*
D11*
X93421197Y-97078803D03*
%TD*%
D10*
%TO.C,D8*%
X130978803Y-59521197D03*
D11*
X128421197Y-62078803D03*
%TD*%
D10*
%TO.C,D29*%
X115978803Y-74521197D03*
D11*
X113421197Y-77078803D03*
%TD*%
D10*
%TO.C,D20*%
X110978803Y-69521197D03*
D11*
X108421197Y-72078803D03*
%TD*%
D10*
%TO.C,D18*%
X100978803Y-69521197D03*
D11*
X98421197Y-72078803D03*
%TD*%
D10*
%TO.C,D14*%
X120978803Y-64521197D03*
D11*
X118421197Y-67078803D03*
%TD*%
D10*
%TO.C,D36*%
X110978803Y-79521197D03*
D11*
X108421197Y-82078803D03*
%TD*%
D10*
%TO.C,D2*%
X100978803Y-59521197D03*
D11*
X98421197Y-62078803D03*
%TD*%
D10*
%TO.C,D11*%
X105978803Y-64521197D03*
D11*
X103421197Y-67078803D03*
%TD*%
D10*
%TO.C,D35*%
X105978803Y-79521197D03*
D11*
X103421197Y-82078803D03*
%TD*%
D10*
%TO.C,D21*%
X115978803Y-69521197D03*
D11*
X113421197Y-72078803D03*
%TD*%
D10*
%TO.C,D32*%
X130978803Y-74521197D03*
D11*
X128421197Y-77078803D03*
%TD*%
D10*
%TO.C,D47*%
X125978803Y-84521197D03*
D11*
X123421197Y-87078803D03*
%TD*%
D10*
%TO.C,D55*%
X125978803Y-89521197D03*
D11*
X123421197Y-92078803D03*
%TD*%
D10*
%TO.C,D28*%
X110978803Y-74521197D03*
D11*
X108421197Y-77078803D03*
%TD*%
D10*
%TO.C,D10*%
X100978803Y-64521197D03*
D11*
X98421197Y-67078803D03*
%TD*%
D10*
%TO.C,D53*%
X115978803Y-89521197D03*
D11*
X113421197Y-92078803D03*
%TD*%
D10*
%TO.C,D24*%
X130978803Y-69521197D03*
D11*
X128421197Y-72078803D03*
%TD*%
D10*
%TO.C,D23*%
X125978803Y-69521197D03*
D11*
X123421197Y-72078803D03*
%TD*%
D10*
%TO.C,D15*%
X125978803Y-64521197D03*
D11*
X123421197Y-67078803D03*
%TD*%
D12*
%TO.C,LS1*%
X81500000Y-71400000D03*
X81500000Y-60600000D03*
%TD*%
D13*
%TO.C,BT1*%
X102815000Y-41200000D03*
X131585000Y-41200000D03*
%TD*%
D14*
%TO.C,R5*%
X83116637Y-40383363D03*
X84283363Y-39216637D03*
%TD*%
D15*
%TO.C,U1*%
X82500000Y-47087500D03*
X83000000Y-47087500D03*
X83500000Y-47087500D03*
X84000000Y-47087500D03*
X84500000Y-47087500D03*
X85000000Y-47087500D03*
X85500000Y-47087500D03*
X86000000Y-47087500D03*
X86500000Y-47087500D03*
X87000000Y-47087500D03*
X87500000Y-47087500D03*
X88000000Y-47087500D03*
D16*
X89412500Y-48500000D03*
X89412500Y-49000000D03*
X89412500Y-49500000D03*
X89412500Y-50000000D03*
X89412500Y-50500000D03*
X89412500Y-51000000D03*
X89412500Y-51500000D03*
X89412500Y-52000000D03*
X89412500Y-52500000D03*
X89412500Y-53000000D03*
X89412500Y-53500000D03*
X89412500Y-54000000D03*
D15*
X88000000Y-55412500D03*
X87500000Y-55412500D03*
X87000000Y-55412500D03*
X86500000Y-55412500D03*
X86000000Y-55412500D03*
X85500000Y-55412500D03*
X85000000Y-55412500D03*
X84500000Y-55412500D03*
X84000000Y-55412500D03*
X83500000Y-55412500D03*
X83000000Y-55412500D03*
X82500000Y-55412500D03*
D16*
X81087500Y-54000000D03*
X81087500Y-53500000D03*
X81087500Y-53000000D03*
X81087500Y-52500000D03*
X81087500Y-52000000D03*
X81087500Y-51500000D03*
X81087500Y-51000000D03*
X81087500Y-50500000D03*
X81087500Y-50000000D03*
X81087500Y-49500000D03*
%TD*%
D17*
%TO.C,C2*%
X85820000Y-45275000D03*
X86780000Y-45275000D03*
%TD*%
D18*
%TO.C,R2*%
X69116637Y-74116637D03*
X70283363Y-75283363D03*
%TD*%
D19*
%TO.C,C3*%
X86100000Y-43950000D03*
X87650000Y-43950000D03*
%TD*%
D17*
%TO.C,C5*%
X88545000Y-45250000D03*
X89505000Y-45250000D03*
%TD*%
D20*
%TO.C,C1*%
X83850000Y-45255000D03*
X83850000Y-44295000D03*
%TD*%
D14*
%TO.C,R4*%
X73116637Y-47583363D03*
X74283363Y-46416637D03*
%TD*%
D21*
%TO.C,Y1*%
X80016117Y-44733883D03*
X81783883Y-42966117D03*
%TD*%
D20*
%TO.C,C4*%
X84850000Y-45255000D03*
X84850000Y-44295000D03*
%TD*%
D22*
%TO.C,C7*%
X80639411Y-41789411D03*
X79960589Y-41110589D03*
%TD*%
%TO.C,C6*%
X78839411Y-43589411D03*
X78160589Y-42910589D03*
%TD*%
M02*
