%TF.GenerationSoftware,KiCad,Pcbnew,8.0.6*%
%TF.CreationDate,2024-11-20T00:12:52+00:00*%
%TF.ProjectId,Chirstmas-Card,43686972-7374-46d6-9173-2d436172642e,rev?*%
%TF.SameCoordinates,Original*%
%TF.FileFunction,Copper,L2,Bot*%
%TF.FilePolarity,Positive*%
%FSLAX46Y46*%
G04 Gerber Fmt 4.6, Leading zero omitted, Abs format (unit mm)*
G04 Created by KiCad (PCBNEW 8.0.6) date 2024-11-20 00:12:52*
%MOMM*%
%LPD*%
G01*
G04 APERTURE LIST*
G04 Aperture macros list*
%AMRoundRect*
0 Rectangle with rounded corners*
0 $1 Rounding radius*
0 $2 $3 $4 $5 $6 $7 $8 $9 X,Y pos of 4 corners*
0 Add a 4 corners polygon primitive as box body*
4,1,4,$2,$3,$4,$5,$6,$7,$8,$9,$2,$3,0*
0 Add four circle primitives for the rounded corners*
1,1,$1+$1,$2,$3*
1,1,$1+$1,$4,$5*
1,1,$1+$1,$6,$7*
1,1,$1+$1,$8,$9*
0 Add four rect primitives between the rounded corners*
20,1,$1+$1,$2,$3,$4,$5,0*
20,1,$1+$1,$4,$5,$6,$7,0*
20,1,$1+$1,$6,$7,$8,$9,0*
20,1,$1+$1,$8,$9,$2,$3,0*%
%AMFreePoly0*
4,1,12,0.707250,0.605397,0.612657,0.415428,0.554581,0.211312,0.535000,0.000000,0.554581,-0.211312,0.612657,-0.415428,0.707250,-0.605397,0.722054,-0.625000,-0.535000,-0.625000,-0.535000,0.625000,0.722054,0.625000,0.707250,0.605397,0.707250,0.605397,$1*%
G04 Aperture macros list end*
%TA.AperFunction,SMDPad,CuDef*%
%ADD10FreePoly0,225.000000*%
%TD*%
%TA.AperFunction,SMDPad,CuDef*%
%ADD11FreePoly0,45.000000*%
%TD*%
%TA.AperFunction,SMDPad,CuDef*%
%ADD12RoundRect,0.075000X-0.075000X0.662500X-0.075000X-0.662500X0.075000X-0.662500X0.075000X0.662500X0*%
%TD*%
%TA.AperFunction,SMDPad,CuDef*%
%ADD13RoundRect,0.075000X-0.662500X0.075000X-0.662500X-0.075000X0.662500X-0.075000X0.662500X0.075000X0*%
%TD*%
%TA.AperFunction,SMDPad,CuDef*%
%ADD14RoundRect,0.140000X-0.140000X-0.170000X0.140000X-0.170000X0.140000X0.170000X-0.140000X0.170000X0*%
%TD*%
%TA.AperFunction,SMDPad,CuDef*%
%ADD15RoundRect,0.200000X-0.200000X-0.275000X0.200000X-0.275000X0.200000X0.275000X-0.200000X0.275000X0*%
%TD*%
%TA.AperFunction,SMDPad,CuDef*%
%ADD16RoundRect,0.225000X-0.225000X-0.250000X0.225000X-0.250000X0.225000X0.250000X-0.225000X0.250000X0*%
%TD*%
%TA.AperFunction,ConnectorPad*%
%ADD17C,0.787400*%
%TD*%
%TA.AperFunction,SMDPad,CuDef*%
%ADD18RoundRect,0.140000X0.170000X-0.140000X0.170000X0.140000X-0.170000X0.140000X-0.170000X-0.140000X0*%
%TD*%
%TA.AperFunction,SMDPad,CuDef*%
%ADD19R,1.800000X1.000000*%
%TD*%
%TA.AperFunction,SMDPad,CuDef*%
%ADD20R,5.000000X1.500000*%
%TD*%
%TA.AperFunction,SMDPad,CuDef*%
%ADD21RoundRect,0.140000X0.140000X0.170000X-0.140000X0.170000X-0.140000X-0.170000X0.140000X-0.170000X0*%
%TD*%
%TA.AperFunction,SMDPad,CuDef*%
%ADD22R,4.200000X3.800000*%
%TD*%
%TA.AperFunction,ViaPad*%
%ADD23C,0.600000*%
%TD*%
%TA.AperFunction,Conductor*%
%ADD24C,0.200000*%
%TD*%
%TA.AperFunction,Conductor*%
%ADD25C,0.500000*%
%TD*%
%TA.AperFunction,Conductor*%
%ADD26C,1.000000*%
%TD*%
G04 APERTURE END LIST*
D10*
%TO.P,D43,1,K*%
%TO.N,/R6*%
X110278803Y-84721197D03*
D11*
%TO.P,D43,2,A*%
%TO.N,/C4*%
X107721197Y-87278803D03*
%TD*%
D10*
%TO.P,D48,1,K*%
%TO.N,/R6*%
X125278803Y-84783696D03*
D11*
%TO.P,D48,2,A*%
%TO.N,/C7*%
X122721197Y-87341302D03*
%TD*%
D10*
%TO.P,D59,1,K*%
%TO.N,/R8*%
X110278803Y-94721197D03*
D11*
%TO.P,D59,2,A*%
%TO.N,/C4*%
X107721197Y-97278803D03*
%TD*%
D10*
%TO.P,D44,1,K*%
%TO.N,/R6*%
X105278803Y-84783696D03*
D11*
%TO.P,D44,2,A*%
%TO.N,/C3*%
X102721197Y-87341302D03*
%TD*%
D10*
%TO.P,D52,1,K*%
%TO.N,/R7*%
X105278803Y-89783696D03*
D11*
%TO.P,D52,2,A*%
%TO.N,/C3*%
X102721197Y-92341302D03*
%TD*%
D10*
%TO.P,D3,1,K*%
%TO.N,/R1*%
X110278803Y-59721197D03*
D11*
%TO.P,D3,2,A*%
%TO.N,/C4*%
X107721197Y-62278803D03*
%TD*%
D10*
%TO.P,D49,1,K*%
%TO.N,/R7*%
X120278803Y-89721197D03*
D11*
%TO.P,D49,2,A*%
%TO.N,/C6*%
X117721197Y-92278803D03*
%TD*%
D10*
%TO.P,D23,1,K*%
%TO.N,/R3*%
X130278803Y-69721197D03*
D11*
%TO.P,D23,2,A*%
%TO.N,/C8*%
X127721197Y-72278803D03*
%TD*%
D12*
%TO.P,U2,1,PC13*%
%TO.N,unconnected-(U2-PC13-Pad1)*%
X82500000Y-47087500D03*
%TO.P,U2,2,PC14*%
%TO.N,Net-(U2-PC14)*%
X83000000Y-47087500D03*
%TO.P,U2,3,PC15*%
%TO.N,Net-(U2-PC15)*%
X83500000Y-47087500D03*
%TO.P,U2,4,VBAT*%
%TO.N,VCC*%
X84000000Y-47087500D03*
%TO.P,U2,5,VREF+*%
X84500000Y-47087500D03*
%TO.P,U2,6,VDD*%
X85000000Y-47087500D03*
%TO.P,U2,7,VSS*%
%TO.N,GND*%
X85500000Y-47087500D03*
%TO.P,U2,8,PF0*%
%TO.N,unconnected-(U2-PF0-Pad8)*%
X86000000Y-47087500D03*
%TO.P,U2,9,PF1*%
%TO.N,unconnected-(U2-PF1-Pad9)*%
X86500000Y-47087500D03*
%TO.P,U2,10,NRST*%
%TO.N,/RESET*%
X87000000Y-47087500D03*
%TO.P,U2,11,PA0*%
%TO.N,unconnected-(U2-PA0-Pad11)*%
X87500000Y-47087500D03*
%TO.P,U2,12,PA1*%
%TO.N,unconnected-(U2-PA1-Pad12)*%
X88000000Y-47087500D03*
D13*
%TO.P,U2,13,PA2*%
%TO.N,unconnected-(U2-PA2-Pad13)*%
X89412500Y-48500000D03*
%TO.P,U2,14,PA3*%
%TO.N,unconnected-(U2-PA3-Pad14)*%
X89412500Y-49000000D03*
%TO.P,U2,15,PA4*%
%TO.N,unconnected-(U2-PA4-Pad15)*%
X89412500Y-49500000D03*
%TO.P,U2,16,PA5*%
%TO.N,unconnected-(U2-PA5-Pad16)*%
X89412500Y-50000000D03*
%TO.P,U2,17,PA6*%
%TO.N,/C8*%
X89412500Y-50500000D03*
%TO.P,U2,18,PA7*%
%TO.N,/C7*%
X89412500Y-51000000D03*
%TO.P,U2,19,PB0*%
%TO.N,/C6*%
X89412500Y-51500000D03*
%TO.P,U2,20,PB1*%
%TO.N,/C5*%
X89412500Y-52000000D03*
%TO.P,U2,21,PB2*%
%TO.N,/C4*%
X89412500Y-52500000D03*
%TO.P,U2,22,PB10*%
%TO.N,/C3*%
X89412500Y-53000000D03*
%TO.P,U2,23,PB11*%
%TO.N,/C2*%
X89412500Y-53500000D03*
%TO.P,U2,24,PB12*%
%TO.N,/C1*%
X89412500Y-54000000D03*
D12*
%TO.P,U2,25,PB13*%
%TO.N,/R1*%
X88000000Y-55412500D03*
%TO.P,U2,26,PB14*%
%TO.N,/R2*%
X87500000Y-55412500D03*
%TO.P,U2,27,PB15*%
%TO.N,/R3*%
X87000000Y-55412500D03*
%TO.P,U2,28,PA8*%
%TO.N,/R4*%
X86500000Y-55412500D03*
%TO.P,U2,29,PA9/NC*%
%TO.N,/R5*%
X86000000Y-55412500D03*
%TO.P,U2,30,PC6*%
%TO.N,/R6*%
X85500000Y-55412500D03*
%TO.P,U2,31,PC7*%
%TO.N,/R7*%
X85000000Y-55412500D03*
%TO.P,U2,32,PA10/NC*%
%TO.N,/R8*%
X84500000Y-55412500D03*
%TO.P,U2,33,PA11/PA9*%
%TO.N,unconnected-(U2-PA11{slash}PA9-Pad33)*%
X84000000Y-55412500D03*
%TO.P,U2,34,PA12/PA10*%
%TO.N,unconnected-(U2-PA12{slash}PA10-Pad34)*%
X83500000Y-55412500D03*
%TO.P,U2,35,PA13*%
%TO.N,/SWDIO*%
X83000000Y-55412500D03*
%TO.P,U2,36,PA14*%
%TO.N,/SWCLK*%
X82500000Y-55412500D03*
D13*
%TO.P,U2,37,PA15*%
%TO.N,/BTN3*%
X81087500Y-54000000D03*
%TO.P,U2,38,PD0*%
%TO.N,/BTN2*%
X81087500Y-53500000D03*
%TO.P,U2,39,PD1*%
%TO.N,/BTN1*%
X81087500Y-53000000D03*
%TO.P,U2,40,PD2*%
%TO.N,unconnected-(U2-PD2-Pad40)*%
X81087500Y-52500000D03*
%TO.P,U2,41,PD3*%
%TO.N,unconnected-(U2-PD3-Pad41)*%
X81087500Y-52000000D03*
%TO.P,U2,42,PB3*%
%TO.N,Net-(U2-PB3)*%
X81087500Y-51500000D03*
%TO.P,U2,43,PB4*%
%TO.N,unconnected-(U2-PB4-Pad43)*%
X81087500Y-51000000D03*
%TO.P,U2,44,PB5*%
%TO.N,/BTN2*%
X81087500Y-50500000D03*
%TO.P,U2,45,PB6*%
%TO.N,Net-(U2-PB6)*%
X81087500Y-50000000D03*
%TO.P,U2,46,PB7*%
%TO.N,unconnected-(U2-PB7-Pad46)*%
X81087500Y-49500000D03*
%TO.P,U2,47,PB8*%
%TO.N,unconnected-(U2-PB8-Pad47)*%
X81087500Y-49000000D03*
%TO.P,U2,48,PB9*%
%TO.N,unconnected-(U2-PB9-Pad48)*%
X81087500Y-48500000D03*
%TD*%
D10*
%TO.P,D5,1,K*%
%TO.N,/R1*%
X100278803Y-59721197D03*
D11*
%TO.P,D5,2,A*%
%TO.N,/C2*%
X97721197Y-62278803D03*
%TD*%
D10*
%TO.P,D50,1,K*%
%TO.N,/R7*%
X115278803Y-89721197D03*
D11*
%TO.P,D50,2,A*%
%TO.N,/C5*%
X112721197Y-92278803D03*
%TD*%
D10*
%TO.P,D61,1,K*%
%TO.N,/R8*%
X100278803Y-94721197D03*
D11*
%TO.P,D61,2,A*%
%TO.N,/C2*%
X97721197Y-97278803D03*
%TD*%
D10*
%TO.P,D46,1,K*%
%TO.N,/R6*%
X95278803Y-84721197D03*
D11*
%TO.P,D46,2,A*%
%TO.N,/C1*%
X92721197Y-87278803D03*
%TD*%
D10*
%TO.P,D56,1,K*%
%TO.N,/R7*%
X125278803Y-89783696D03*
D11*
%TO.P,D56,2,A*%
%TO.N,/C7*%
X122721197Y-92341302D03*
%TD*%
D10*
%TO.P,D29,1,K*%
%TO.N,/R4*%
X100278803Y-74721197D03*
D11*
%TO.P,D29,2,A*%
%TO.N,/C2*%
X97721197Y-77278803D03*
%TD*%
D14*
%TO.P,C10,1*%
%TO.N,VCC*%
X85820000Y-45275000D03*
%TO.P,C10,2*%
%TO.N,GND*%
X86780000Y-45275000D03*
%TD*%
D10*
%TO.P,D38,1,K*%
%TO.N,/R5*%
X95278803Y-79721197D03*
D11*
%TO.P,D38,2,A*%
%TO.N,/C1*%
X92721197Y-82278803D03*
%TD*%
D15*
%TO.P,R12,1*%
%TO.N,VCC*%
X76625000Y-61100000D03*
%TO.P,R12,2*%
%TO.N,/BTN2*%
X78275000Y-61100000D03*
%TD*%
D10*
%TO.P,D2,1,K*%
%TO.N,/R1*%
X115278803Y-59721197D03*
D11*
%TO.P,D2,2,A*%
%TO.N,/C5*%
X112721197Y-62278803D03*
%TD*%
D10*
%TO.P,D55,1,K*%
%TO.N,/R7*%
X130278803Y-89721197D03*
D11*
%TO.P,D55,2,A*%
%TO.N,/C8*%
X127721197Y-92278803D03*
%TD*%
D10*
%TO.P,D40,1,K*%
%TO.N,/R5*%
X125278803Y-79783696D03*
D11*
%TO.P,D40,2,A*%
%TO.N,/C7*%
X122721197Y-82341302D03*
%TD*%
D10*
%TO.P,D41,1,K*%
%TO.N,/R6*%
X120278803Y-84721197D03*
D11*
%TO.P,D41,2,A*%
%TO.N,/C6*%
X117721197Y-87278803D03*
%TD*%
D10*
%TO.P,D1,1,K*%
%TO.N,/R1*%
X120278803Y-59721197D03*
D11*
%TO.P,D1,2,A*%
%TO.N,/C6*%
X117721197Y-62278803D03*
%TD*%
D10*
%TO.P,D11,1,K*%
%TO.N,/R2*%
X110278803Y-64721197D03*
D11*
%TO.P,D11,2,A*%
%TO.N,/C4*%
X107721197Y-67278803D03*
%TD*%
D10*
%TO.P,D10,1,K*%
%TO.N,/R2*%
X115278803Y-64721197D03*
D11*
%TO.P,D10,2,A*%
%TO.N,/C5*%
X112721197Y-67278803D03*
%TD*%
D10*
%TO.P,D42,1,K*%
%TO.N,/R6*%
X115278803Y-84721197D03*
D11*
%TO.P,D42,2,A*%
%TO.N,/C5*%
X112721197Y-87278803D03*
%TD*%
D10*
%TO.P,D31,1,K*%
%TO.N,/R4*%
X130278803Y-74721197D03*
D11*
%TO.P,D31,2,A*%
%TO.N,/C8*%
X127721197Y-77278803D03*
%TD*%
D16*
%TO.P,C11,1*%
%TO.N,VCC*%
X86100000Y-43950000D03*
%TO.P,C11,2*%
%TO.N,GND*%
X87650000Y-43950000D03*
%TD*%
D10*
%TO.P,D20,1,K*%
%TO.N,/R3*%
X105278803Y-69783696D03*
D11*
%TO.P,D20,2,A*%
%TO.N,/C3*%
X102721197Y-72341302D03*
%TD*%
D10*
%TO.P,D47,1,K*%
%TO.N,/R6*%
X130278803Y-84721197D03*
D11*
%TO.P,D47,2,A*%
%TO.N,/C8*%
X127721197Y-87278803D03*
%TD*%
D10*
%TO.P,D39,1,K*%
%TO.N,/R5*%
X130278803Y-79721197D03*
D11*
%TO.P,D39,2,A*%
%TO.N,/C8*%
X127721197Y-82278803D03*
%TD*%
D10*
%TO.P,D35,1,K*%
%TO.N,/R5*%
X110278803Y-79721197D03*
D11*
%TO.P,D35,2,A*%
%TO.N,/C4*%
X107721197Y-82278803D03*
%TD*%
D17*
%TO.P,J1,1,VCC*%
%TO.N,VCC*%
X140095000Y-174320000D03*
%TO.P,J1,2,SWDIO*%
%TO.N,/SWDIO*%
X140095000Y-173050000D03*
%TO.P,J1,3,~{RESET}*%
%TO.N,/RESET*%
X138825000Y-174320000D03*
%TO.P,J1,4,SWCLK*%
%TO.N,/SWCLK*%
X138825000Y-173050000D03*
%TO.P,J1,5,GND*%
%TO.N,GND*%
X137555000Y-174320000D03*
%TO.P,J1,6,SWO*%
%TO.N,unconnected-(J1-SWO-Pad6)*%
X137555000Y-173050000D03*
%TD*%
D10*
%TO.P,D15,1,K*%
%TO.N,/R2*%
X130278803Y-64721197D03*
D11*
%TO.P,D15,2,A*%
%TO.N,/C8*%
X127721197Y-67278803D03*
%TD*%
D10*
%TO.P,D25,1,K*%
%TO.N,/R4*%
X120278803Y-74721197D03*
D11*
%TO.P,D25,2,A*%
%TO.N,/C6*%
X117721197Y-77278803D03*
%TD*%
D10*
%TO.P,D64,1,K*%
%TO.N,/R8*%
X125278803Y-94783696D03*
D11*
%TO.P,D64,2,A*%
%TO.N,/C7*%
X122721197Y-97341302D03*
%TD*%
D10*
%TO.P,D60,1,K*%
%TO.N,/R8*%
X105278803Y-94783696D03*
D11*
%TO.P,D60,2,A*%
%TO.N,/C3*%
X102721197Y-97341302D03*
%TD*%
D10*
%TO.P,D4,1,K*%
%TO.N,/R1*%
X105278803Y-59783696D03*
D11*
%TO.P,D4,2,A*%
%TO.N,/C3*%
X102721197Y-62341302D03*
%TD*%
D10*
%TO.P,D36,1,K*%
%TO.N,/R5*%
X105278803Y-79783696D03*
D11*
%TO.P,D36,2,A*%
%TO.N,/C3*%
X102721197Y-82341302D03*
%TD*%
D10*
%TO.P,D62,1,K*%
%TO.N,/R8*%
X95278803Y-94721197D03*
D11*
%TO.P,D62,2,A*%
%TO.N,/C1*%
X92721197Y-97278803D03*
%TD*%
D10*
%TO.P,D14,1,K*%
%TO.N,/R2*%
X95278803Y-64721197D03*
D11*
%TO.P,D14,2,A*%
%TO.N,/C1*%
X92721197Y-67278803D03*
%TD*%
D10*
%TO.P,D17,1,K*%
%TO.N,/R3*%
X120278803Y-69721197D03*
D11*
%TO.P,D17,2,A*%
%TO.N,/C6*%
X117721197Y-72278803D03*
%TD*%
D10*
%TO.P,D57,1,K*%
%TO.N,/R8*%
X120278803Y-94721197D03*
D11*
%TO.P,D57,2,A*%
%TO.N,/C6*%
X117721197Y-97278803D03*
%TD*%
D10*
%TO.P,D32,1,K*%
%TO.N,/R4*%
X125278803Y-74783696D03*
D11*
%TO.P,D32,2,A*%
%TO.N,/C7*%
X122721197Y-77341302D03*
%TD*%
D14*
%TO.P,C7,1*%
%TO.N,/RESET*%
X88545000Y-45250000D03*
%TO.P,C7,2*%
%TO.N,GND*%
X89505000Y-45250000D03*
%TD*%
D10*
%TO.P,D28,1,K*%
%TO.N,/R4*%
X105278803Y-74783696D03*
D11*
%TO.P,D28,2,A*%
%TO.N,/C3*%
X102721197Y-77341302D03*
%TD*%
D18*
%TO.P,C9,1*%
%TO.N,VCC*%
X83850000Y-45255000D03*
%TO.P,C9,2*%
%TO.N,GND*%
X83850000Y-44295000D03*
%TD*%
D10*
%TO.P,D7,1,K*%
%TO.N,/R1*%
X130278803Y-59721197D03*
D11*
%TO.P,D7,2,A*%
%TO.N,/C8*%
X127721197Y-62278803D03*
%TD*%
D19*
%TO.P,Y1,1,1*%
%TO.N,Net-(U2-PC14)*%
X79750000Y-46900000D03*
%TO.P,Y1,2,2*%
%TO.N,Net-(U2-PC15)*%
X79750000Y-44400000D03*
%TD*%
D10*
%TO.P,D37,1,K*%
%TO.N,/R5*%
X100278803Y-79721197D03*
D11*
%TO.P,D37,2,A*%
%TO.N,/C2*%
X97721197Y-82278803D03*
%TD*%
D10*
%TO.P,D54,1,K*%
%TO.N,/R7*%
X95278803Y-89721197D03*
D11*
%TO.P,D54,2,A*%
%TO.N,/C1*%
X92721197Y-92278803D03*
%TD*%
D10*
%TO.P,D58,1,K*%
%TO.N,/R8*%
X115278803Y-94721197D03*
D11*
%TO.P,D58,2,A*%
%TO.N,/C5*%
X112721197Y-97278803D03*
%TD*%
D20*
%TO.P,LS1,1,1*%
%TO.N,Net-(U2-PB3)*%
X68500000Y-55900000D03*
%TO.P,LS1,2,2*%
%TO.N,Net-(U2-PB6)*%
X68500000Y-45100000D03*
%TD*%
D15*
%TO.P,R9,1*%
%TO.N,VCC*%
X75800000Y-63450000D03*
%TO.P,R9,2*%
%TO.N,/BTN1*%
X77450000Y-63450000D03*
%TD*%
D10*
%TO.P,D63,1,K*%
%TO.N,/R8*%
X130278803Y-94721197D03*
D11*
%TO.P,D63,2,A*%
%TO.N,/C8*%
X127721197Y-97278803D03*
%TD*%
D10*
%TO.P,D6,1,K*%
%TO.N,/R1*%
X95278803Y-59721197D03*
D11*
%TO.P,D6,2,A*%
%TO.N,/C1*%
X92721197Y-62278803D03*
%TD*%
D10*
%TO.P,D27,1,K*%
%TO.N,/R4*%
X110278803Y-74721197D03*
D11*
%TO.P,D27,2,A*%
%TO.N,/C4*%
X107721197Y-77278803D03*
%TD*%
D10*
%TO.P,D18,1,K*%
%TO.N,/R3*%
X115278803Y-69721197D03*
D11*
%TO.P,D18,2,A*%
%TO.N,/C5*%
X112721197Y-72278803D03*
%TD*%
D10*
%TO.P,D24,1,K*%
%TO.N,/R3*%
X125278803Y-69783696D03*
D11*
%TO.P,D24,2,A*%
%TO.N,/C7*%
X122721197Y-72341302D03*
%TD*%
D10*
%TO.P,D12,1,K*%
%TO.N,/R2*%
X105278803Y-64783696D03*
D11*
%TO.P,D12,2,A*%
%TO.N,/C3*%
X102721197Y-67341302D03*
%TD*%
D10*
%TO.P,D34,1,K*%
%TO.N,/R5*%
X115278803Y-79721197D03*
D11*
%TO.P,D34,2,A*%
%TO.N,/C5*%
X112721197Y-82278803D03*
%TD*%
D10*
%TO.P,D8,1,K*%
%TO.N,/R1*%
X125278803Y-59783696D03*
D11*
%TO.P,D8,2,A*%
%TO.N,/C7*%
X122721197Y-62341302D03*
%TD*%
D10*
%TO.P,D9,1,K*%
%TO.N,/R2*%
X120278803Y-64721197D03*
D11*
%TO.P,D9,2,A*%
%TO.N,/C6*%
X117721197Y-67278803D03*
%TD*%
D18*
%TO.P,C8,1*%
%TO.N,VCC*%
X84850000Y-45255000D03*
%TO.P,C8,2*%
%TO.N,GND*%
X84850000Y-44295000D03*
%TD*%
D15*
%TO.P,R13,1*%
%TO.N,VCC*%
X77275000Y-58600000D03*
%TO.P,R13,2*%
%TO.N,/BTN3*%
X78925000Y-58600000D03*
%TD*%
D10*
%TO.P,D33,1,K*%
%TO.N,/R5*%
X120278803Y-79721197D03*
D11*
%TO.P,D33,2,A*%
%TO.N,/C6*%
X117721197Y-82278803D03*
%TD*%
D21*
%TO.P,C5,1*%
%TO.N,Net-(U2-PC15)*%
X77830000Y-44400000D03*
%TO.P,C5,2*%
%TO.N,GND*%
X76870000Y-44400000D03*
%TD*%
D10*
%TO.P,D19,1,K*%
%TO.N,/R3*%
X110278803Y-69721197D03*
D11*
%TO.P,D19,2,A*%
%TO.N,/C4*%
X107721197Y-72278803D03*
%TD*%
D22*
%TO.P,BT1,1,+*%
%TO.N,VCC*%
X94615000Y-40000000D03*
%TO.P,BT1,2,-*%
%TO.N,GND*%
X123385000Y-40000000D03*
%TD*%
D10*
%TO.P,D30,1,K*%
%TO.N,/R4*%
X95278803Y-74721197D03*
D11*
%TO.P,D30,2,A*%
%TO.N,/C1*%
X92721197Y-77278803D03*
%TD*%
D10*
%TO.P,D45,1,K*%
%TO.N,/R6*%
X100278803Y-84721197D03*
D11*
%TO.P,D45,2,A*%
%TO.N,/C2*%
X97721197Y-87278803D03*
%TD*%
D10*
%TO.P,D53,1,K*%
%TO.N,/R7*%
X100278803Y-89721197D03*
D11*
%TO.P,D53,2,A*%
%TO.N,/C2*%
X97721197Y-92278803D03*
%TD*%
D10*
%TO.P,D26,1,K*%
%TO.N,/R4*%
X115278803Y-74721197D03*
D11*
%TO.P,D26,2,A*%
%TO.N,/C5*%
X112721197Y-77278803D03*
%TD*%
D10*
%TO.P,D16,1,K*%
%TO.N,/R2*%
X125278803Y-64783696D03*
D11*
%TO.P,D16,2,A*%
%TO.N,/C7*%
X122721197Y-67341302D03*
%TD*%
D21*
%TO.P,C6,1*%
%TO.N,Net-(U2-PC14)*%
X77830000Y-46900000D03*
%TO.P,C6,2*%
%TO.N,GND*%
X76870000Y-46900000D03*
%TD*%
D10*
%TO.P,D51,1,K*%
%TO.N,/R7*%
X110278803Y-89721197D03*
D11*
%TO.P,D51,2,A*%
%TO.N,/C4*%
X107721197Y-92278803D03*
%TD*%
D10*
%TO.P,D22,1,K*%
%TO.N,/R3*%
X95278803Y-69721197D03*
D11*
%TO.P,D22,2,A*%
%TO.N,/C1*%
X92721197Y-72278803D03*
%TD*%
D10*
%TO.P,D21,1,K*%
%TO.N,/R3*%
X100278803Y-69721197D03*
D11*
%TO.P,D21,2,A*%
%TO.N,/C2*%
X97721197Y-72278803D03*
%TD*%
D10*
%TO.P,D13,1,K*%
%TO.N,/R2*%
X100278803Y-64721197D03*
D11*
%TO.P,D13,2,A*%
%TO.N,/C2*%
X97721197Y-67278803D03*
%TD*%
D23*
%TO.N,GND*%
X126500000Y-40000000D03*
X88700000Y-43950000D03*
X140000000Y-93000000D03*
X47000000Y-86000000D03*
X133000000Y-139000000D03*
X47000000Y-37000000D03*
X53000000Y-163000000D03*
X92000000Y-158000000D03*
X81000000Y-173000000D03*
X120000000Y-116000000D03*
X140000000Y-68000000D03*
X136000000Y-170000000D03*
X90700000Y-45250000D03*
X76900000Y-45850000D03*
X140000000Y-46000000D03*
X76900000Y-43400000D03*
X83850000Y-43350000D03*
X80000000Y-57000000D03*
X87000000Y-53000000D03*
X121000000Y-173000000D03*
X109000000Y-40000000D03*
X82000000Y-119000000D03*
X137550000Y-175250000D03*
X63000000Y-108000000D03*
X123385000Y-37300000D03*
X79000000Y-34000000D03*
X63000000Y-71000000D03*
X47000000Y-68000000D03*
X138000000Y-159000000D03*
X92000000Y-141000000D03*
X48000000Y-132000000D03*
X85500000Y-48650000D03*
X101000000Y-108000000D03*
X106000000Y-158000000D03*
X123375000Y-42700000D03*
%TO.N,/C1*%
X91500000Y-97971197D03*
X91500000Y-67971197D03*
X91500000Y-82971197D03*
X91500000Y-77971197D03*
X91500000Y-87971197D03*
X91500000Y-58000000D03*
X91500000Y-72971197D03*
X91500000Y-92971197D03*
X91500000Y-62971197D03*
%TO.N,/C2*%
X96500000Y-62971197D03*
X96500000Y-73000000D03*
X96500000Y-78000000D03*
X96500000Y-58000000D03*
X96500000Y-98000000D03*
X96500000Y-88000000D03*
X96500000Y-93000000D03*
X96500000Y-68000000D03*
X96500000Y-83000000D03*
%TO.N,/C3*%
X101500000Y-58000000D03*
X101500000Y-88000000D03*
X101500000Y-73000000D03*
X101500000Y-62971197D03*
X101500000Y-78000000D03*
X101500000Y-98000000D03*
X101500000Y-83000000D03*
X101500000Y-68000000D03*
X101500000Y-93000000D03*
%TO.N,/C4*%
X106500000Y-78000000D03*
X106500000Y-98000000D03*
X106500000Y-73000000D03*
X106500000Y-68000000D03*
X106500000Y-88000000D03*
X106500000Y-93000000D03*
X106500000Y-58000000D03*
X106500000Y-62971197D03*
X106500000Y-83000000D03*
%TO.N,/C5*%
X111500000Y-93000000D03*
X111500000Y-78000000D03*
X111500000Y-73000000D03*
X111500000Y-58000000D03*
X111500000Y-62971197D03*
X111500000Y-88000000D03*
X111500000Y-98000000D03*
X111500000Y-83000000D03*
X111500000Y-68000000D03*
%TO.N,/C6*%
X116500000Y-83000000D03*
X116500000Y-98000000D03*
X116500000Y-62971197D03*
X116500000Y-58000000D03*
X116500000Y-73000000D03*
X116500000Y-88000000D03*
X116500000Y-78000000D03*
X116500000Y-68000000D03*
X116500000Y-93000000D03*
%TO.N,/C7*%
X121500000Y-73000000D03*
X121500000Y-58000000D03*
X121500000Y-93000000D03*
X121500000Y-78000000D03*
X121500000Y-88000000D03*
X121500000Y-68000000D03*
X121500000Y-98000000D03*
X121500000Y-62971197D03*
X121500000Y-83000000D03*
%TO.N,/C8*%
X126500000Y-73000000D03*
X126500000Y-68000000D03*
X126500000Y-83000000D03*
X126500000Y-78000000D03*
X126500000Y-98000000D03*
X126500000Y-62971197D03*
X126500000Y-58000000D03*
X126500000Y-93000000D03*
X126500000Y-88000000D03*
%TO.N,/BTN1*%
X63200000Y-165750000D03*
%TO.N,/BTN2*%
X89425000Y-165750000D03*
%TO.N,/BTN3*%
X121750000Y-165750000D03*
%TD*%
D24*
%TO.N,GND*%
X89505000Y-45250000D02*
X90700000Y-45250000D01*
D25*
X88700000Y-43950000D02*
X87650000Y-43950000D01*
D24*
X137550000Y-175250000D02*
X137555000Y-175245000D01*
X83850000Y-43350000D02*
X84300000Y-43350000D01*
D26*
X123375000Y-40000000D02*
X123375000Y-37310000D01*
D24*
X85500000Y-47087500D02*
X85500000Y-48650000D01*
D26*
X123385000Y-40000000D02*
X123385000Y-42690000D01*
D24*
X86780000Y-45275000D02*
X86780000Y-44820000D01*
X84300000Y-43350000D02*
X84850000Y-43900000D01*
X76870000Y-46900000D02*
X76870000Y-45880000D01*
D26*
X123385000Y-40000000D02*
X126500000Y-40000000D01*
X123385000Y-42690000D02*
X123375000Y-42700000D01*
D24*
X76870000Y-45880000D02*
X76900000Y-45850000D01*
X137555000Y-175245000D02*
X137555000Y-174320000D01*
X76870000Y-44400000D02*
X76870000Y-43430000D01*
X84850000Y-43900000D02*
X84850000Y-44295000D01*
X83850000Y-43350000D02*
X83850000Y-44295000D01*
X86780000Y-44820000D02*
X87650000Y-43950000D01*
X76870000Y-43430000D02*
X76900000Y-43400000D01*
%TO.N,VCC*%
X60250000Y-45150000D02*
X63250000Y-42150000D01*
X133625000Y-175750000D02*
X135100000Y-177225000D01*
D26*
X94615000Y-40000000D02*
X88250000Y-40000000D01*
D24*
X83850000Y-45255000D02*
X84850000Y-45255000D01*
X62225000Y-165400000D02*
X62225000Y-166275000D01*
X77275000Y-58600000D02*
X62700000Y-58600000D01*
X84500000Y-47087500D02*
X84500000Y-45605000D01*
X85000000Y-46095000D02*
X85820000Y-45275000D01*
X63250000Y-42150000D02*
X86100000Y-42150000D01*
X62225000Y-166275000D02*
X62850000Y-166900000D01*
X135100000Y-177225000D02*
X138900000Y-177225000D01*
X77275000Y-58600000D02*
X77275000Y-59650000D01*
X75800000Y-62750000D02*
X75800000Y-63450000D01*
X76625000Y-60300000D02*
X76625000Y-61100000D01*
X133625000Y-170025000D02*
X133625000Y-175750000D01*
X72325000Y-164675000D02*
X62950000Y-164675000D01*
X130500000Y-166900000D02*
X133625000Y-170025000D01*
D26*
X88250000Y-40000000D02*
X86100000Y-42150000D01*
D24*
X85000000Y-47087500D02*
X85000000Y-46095000D01*
D25*
X86100000Y-43950000D02*
X86100000Y-43750000D01*
D26*
X86100000Y-42150000D02*
X86100000Y-43950000D01*
D24*
X138900000Y-177225000D02*
X140095000Y-176030000D01*
X77275000Y-59650000D02*
X76625000Y-60300000D01*
X62950000Y-164675000D02*
X62225000Y-165400000D01*
X62850000Y-166900000D02*
X130500000Y-166900000D01*
X75800000Y-63450000D02*
X75800000Y-64725000D01*
X84500000Y-45605000D02*
X84850000Y-45255000D01*
X85800000Y-45255000D02*
X85820000Y-45275000D01*
X140095000Y-176030000D02*
X140095000Y-174320000D01*
X77150000Y-159850000D02*
X72325000Y-164675000D01*
X84000000Y-45405000D02*
X83850000Y-45255000D01*
X85820000Y-44230000D02*
X86100000Y-43950000D01*
X84850000Y-45255000D02*
X85800000Y-45255000D01*
X85820000Y-45275000D02*
X85820000Y-44230000D01*
X76625000Y-61100000D02*
X76625000Y-61925000D01*
X75800000Y-64725000D02*
X77150000Y-66075000D01*
X60250000Y-56150000D02*
X60250000Y-45150000D01*
X76625000Y-61925000D02*
X75800000Y-62750000D01*
X62700000Y-58600000D02*
X60250000Y-56150000D01*
X84000000Y-47087500D02*
X84000000Y-45405000D01*
X77150000Y-66075000D02*
X77150000Y-159850000D01*
%TO.N,Net-(U2-PB3)*%
X68500000Y-53500000D02*
X68500000Y-55900000D01*
X81087500Y-51500000D02*
X70500000Y-51500000D01*
X70500000Y-51500000D02*
X68500000Y-53500000D01*
%TO.N,Net-(U2-PB6)*%
X81087500Y-50000000D02*
X70500000Y-50000000D01*
X68500000Y-48000000D02*
X68500000Y-45100000D01*
X70500000Y-50000000D02*
X68500000Y-48000000D01*
%TO.N,/R1*%
X100278803Y-59721197D02*
X101000000Y-59000000D01*
X120278803Y-59721197D02*
X121000000Y-59000000D01*
X95278803Y-59721197D02*
X96000000Y-59000000D01*
X111000000Y-59000000D02*
X114557606Y-59000000D01*
X88000000Y-55412500D02*
X88000000Y-56253120D01*
X115278803Y-59721197D02*
X116000000Y-59000000D01*
X88000000Y-56253120D02*
X90746880Y-59000000D01*
X99557606Y-59000000D02*
X100278803Y-59721197D01*
X104495107Y-59000000D02*
X105278803Y-59783696D01*
X90746880Y-59000000D02*
X94557606Y-59000000D01*
X96000000Y-59000000D02*
X99557606Y-59000000D01*
X110278803Y-59721197D02*
X111000000Y-59000000D01*
X121000000Y-59000000D02*
X124495107Y-59000000D01*
X94557606Y-59000000D02*
X95278803Y-59721197D01*
X129557606Y-59000000D02*
X130278803Y-59721197D01*
X126062499Y-59000000D02*
X129557606Y-59000000D01*
X125278803Y-59783696D02*
X126062499Y-59000000D01*
X106062499Y-59000000D02*
X109557606Y-59000000D01*
X105278803Y-59783696D02*
X106062499Y-59000000D01*
X101000000Y-59000000D02*
X104495107Y-59000000D01*
X116000000Y-59000000D02*
X119557606Y-59000000D01*
X109557606Y-59000000D02*
X110278803Y-59721197D01*
X124495107Y-59000000D02*
X125278803Y-59783696D01*
X114557606Y-59000000D02*
X115278803Y-59721197D01*
X119557606Y-59000000D02*
X120278803Y-59721197D01*
%TO.N,/R2*%
X124495107Y-64000000D02*
X125278803Y-64783696D01*
X121000000Y-64000000D02*
X124495107Y-64000000D01*
X119557606Y-64000000D02*
X120278803Y-64721197D01*
X91000000Y-64000000D02*
X94557606Y-64000000D01*
X104495107Y-64000000D02*
X105278803Y-64783696D01*
X106062499Y-64000000D02*
X109557606Y-64000000D01*
X111000000Y-64000000D02*
X114557606Y-64000000D01*
X94557606Y-64000000D02*
X95278803Y-64721197D01*
X109557606Y-64000000D02*
X110278803Y-64721197D01*
X99557606Y-64000000D02*
X100278803Y-64721197D01*
X87500000Y-55412500D02*
X87500000Y-60500000D01*
X129557606Y-64000000D02*
X130278803Y-64721197D01*
X105278803Y-64783696D02*
X106062499Y-64000000D01*
X116000000Y-64000000D02*
X119557606Y-64000000D01*
X100278803Y-64721197D02*
X101000000Y-64000000D01*
X95278803Y-64721197D02*
X96000000Y-64000000D01*
X87500000Y-60500000D02*
X91000000Y-64000000D01*
X96000000Y-64000000D02*
X99557606Y-64000000D01*
X110278803Y-64721197D02*
X111000000Y-64000000D01*
X126062499Y-64000000D02*
X129557606Y-64000000D01*
X114557606Y-64000000D02*
X115278803Y-64721197D01*
X125278803Y-64783696D02*
X126062499Y-64000000D01*
X101000000Y-64000000D02*
X104495107Y-64000000D01*
X120278803Y-64721197D02*
X121000000Y-64000000D01*
X115278803Y-64721197D02*
X116000000Y-64000000D01*
%TO.N,/R3*%
X95278803Y-69721197D02*
X96000000Y-69000000D01*
X110278803Y-69721197D02*
X111000000Y-69000000D01*
X125278803Y-69783696D02*
X126062499Y-69000000D01*
X87000000Y-64695218D02*
X91304782Y-69000000D01*
X115278803Y-69721197D02*
X116000000Y-69000000D01*
X129557606Y-69000000D02*
X130278803Y-69721197D01*
X120278803Y-69721197D02*
X121000000Y-69000000D01*
X109557606Y-69000000D02*
X110278803Y-69721197D01*
X91304782Y-69000000D02*
X94557606Y-69000000D01*
X124495107Y-69000000D02*
X125278803Y-69783696D01*
X121000000Y-69000000D02*
X124495107Y-69000000D01*
X100278803Y-69721197D02*
X101000000Y-69000000D01*
X126062499Y-69000000D02*
X129557606Y-69000000D01*
X96000000Y-69000000D02*
X99557606Y-69000000D01*
X106062499Y-69000000D02*
X109557606Y-69000000D01*
X114557606Y-69000000D02*
X115278803Y-69721197D01*
X116000000Y-69000000D02*
X119557606Y-69000000D01*
X87000000Y-55412500D02*
X87000000Y-64695218D01*
X105278803Y-69783696D02*
X106062499Y-69000000D01*
X104495107Y-69000000D02*
X105278803Y-69783696D01*
X94557606Y-69000000D02*
X95278803Y-69721197D01*
X119557606Y-69000000D02*
X120278803Y-69721197D01*
X111000000Y-69000000D02*
X114557606Y-69000000D01*
X101000000Y-69000000D02*
X104495107Y-69000000D01*
X99557606Y-69000000D02*
X100278803Y-69721197D01*
%TO.N,/R4*%
X95278803Y-74721197D02*
X96000000Y-74000000D01*
X86500000Y-55412500D02*
X86500000Y-69500000D01*
X120278803Y-74721197D02*
X121000000Y-74000000D01*
X104495107Y-74000000D02*
X105278803Y-74783696D01*
X126062499Y-74000000D02*
X129557606Y-74000000D01*
X99557606Y-74000000D02*
X100278803Y-74721197D01*
X111000000Y-74000000D02*
X114557606Y-74000000D01*
X116000000Y-74000000D02*
X119557606Y-74000000D01*
X105278803Y-74783696D02*
X106062499Y-74000000D01*
X115278803Y-74721197D02*
X116000000Y-74000000D01*
X100278803Y-74721197D02*
X101000000Y-74000000D01*
X114557606Y-74000000D02*
X115278803Y-74721197D01*
X106062499Y-74000000D02*
X109557606Y-74000000D01*
X125278803Y-74783696D02*
X126062499Y-74000000D01*
X124495107Y-74000000D02*
X125278803Y-74783696D01*
X119557606Y-74000000D02*
X120278803Y-74721197D01*
X101000000Y-74000000D02*
X104495107Y-74000000D01*
X94557606Y-74000000D02*
X95278803Y-74721197D01*
X96000000Y-74000000D02*
X99557606Y-74000000D01*
X110278803Y-74721197D02*
X111000000Y-74000000D01*
X109557606Y-74000000D02*
X110278803Y-74721197D01*
X129557606Y-74000000D02*
X130278803Y-74721197D01*
X91000000Y-74000000D02*
X94557606Y-74000000D01*
X121000000Y-74000000D02*
X124495107Y-74000000D01*
X86500000Y-69500000D02*
X91000000Y-74000000D01*
%TO.N,/R5*%
X105278803Y-79783696D02*
X106062499Y-79000000D01*
X111000000Y-79000000D02*
X114557606Y-79000000D01*
X125278803Y-79783696D02*
X126062499Y-79000000D01*
X109557606Y-79000000D02*
X110278803Y-79721197D01*
X119557606Y-79000000D02*
X120278803Y-79721197D01*
X95278803Y-79721197D02*
X96000000Y-79000000D01*
X99557606Y-79000000D02*
X100278803Y-79721197D01*
X91304782Y-79000000D02*
X94557606Y-79000000D01*
X120278803Y-79721197D02*
X121000000Y-79000000D01*
X86000000Y-55412500D02*
X86000000Y-73695218D01*
X101000000Y-79000000D02*
X104495107Y-79000000D01*
X124495107Y-79000000D02*
X125278803Y-79783696D01*
X86000000Y-73695218D02*
X91304782Y-79000000D01*
X104495107Y-79000000D02*
X105278803Y-79783696D01*
X116000000Y-79000000D02*
X119557606Y-79000000D01*
X100278803Y-79721197D02*
X101000000Y-79000000D01*
X115278803Y-79721197D02*
X116000000Y-79000000D01*
X110278803Y-79721197D02*
X111000000Y-79000000D01*
X106062499Y-79000000D02*
X109557606Y-79000000D01*
X114557606Y-79000000D02*
X115278803Y-79721197D01*
X96000000Y-79000000D02*
X99557606Y-79000000D01*
X121000000Y-79000000D02*
X124495107Y-79000000D01*
X126062499Y-79000000D02*
X129557606Y-79000000D01*
X129557606Y-79000000D02*
X130278803Y-79721197D01*
X94557606Y-79000000D02*
X95278803Y-79721197D01*
%TO.N,/R6*%
X99557606Y-84000000D02*
X100278803Y-84721197D01*
X94557606Y-84000000D02*
X95278803Y-84721197D01*
X119557606Y-84000000D02*
X120278803Y-84721197D01*
X124495107Y-84000000D02*
X125278803Y-84783696D01*
X129557606Y-84000000D02*
X130278803Y-84721197D01*
X101000000Y-84000000D02*
X104495107Y-84000000D01*
X91304782Y-84000000D02*
X94557606Y-84000000D01*
X85500000Y-78195218D02*
X91304782Y-84000000D01*
X111000000Y-84000000D02*
X114557606Y-84000000D01*
X100278803Y-84721197D02*
X101000000Y-84000000D01*
X126062499Y-84000000D02*
X129557606Y-84000000D01*
X115278803Y-84721197D02*
X116000000Y-84000000D01*
X114557606Y-84000000D02*
X115278803Y-84721197D01*
X121000000Y-84000000D02*
X124495107Y-84000000D01*
X125278803Y-84783696D02*
X126062499Y-84000000D01*
X106062499Y-84000000D02*
X109557606Y-84000000D01*
X105278803Y-84783696D02*
X106062499Y-84000000D01*
X120278803Y-84721197D02*
X121000000Y-84000000D01*
X110278803Y-84721197D02*
X111000000Y-84000000D01*
X96000000Y-84000000D02*
X99557606Y-84000000D01*
X85500000Y-55412500D02*
X85500000Y-78195218D01*
X109557606Y-84000000D02*
X110278803Y-84721197D01*
X116000000Y-84000000D02*
X119557606Y-84000000D01*
X95278803Y-84721197D02*
X96000000Y-84000000D01*
X104495107Y-84000000D02*
X105278803Y-84783696D01*
%TO.N,/R7*%
X106062499Y-89000000D02*
X109557606Y-89000000D01*
X94557606Y-89000000D02*
X95278803Y-89721197D01*
X104495107Y-89000000D02*
X105278803Y-89783696D01*
X101000000Y-89000000D02*
X104495107Y-89000000D01*
X120278803Y-89721197D02*
X121000000Y-89000000D01*
X85000000Y-55412500D02*
X85000000Y-83000000D01*
X119557606Y-89000000D02*
X120278803Y-89721197D01*
X111000000Y-89000000D02*
X114557606Y-89000000D01*
X91000000Y-89000000D02*
X94557606Y-89000000D01*
X125278803Y-89783696D02*
X126062499Y-89000000D01*
X124495107Y-89000000D02*
X125278803Y-89783696D01*
X121000000Y-89000000D02*
X124495107Y-89000000D01*
X114557606Y-89000000D02*
X115278803Y-89721197D01*
X85000000Y-83000000D02*
X91000000Y-89000000D01*
X115278803Y-89721197D02*
X116000000Y-89000000D01*
X99557606Y-89000000D02*
X100278803Y-89721197D01*
X96000000Y-89000000D02*
X99557606Y-89000000D01*
X105278803Y-89783696D02*
X106062499Y-89000000D01*
X126062499Y-89000000D02*
X129557606Y-89000000D01*
X110278803Y-89721197D02*
X111000000Y-89000000D01*
X95278803Y-89721197D02*
X96000000Y-89000000D01*
X109557606Y-89000000D02*
X110278803Y-89721197D01*
X129557606Y-89000000D02*
X130278803Y-89721197D01*
X100278803Y-89721197D02*
X101000000Y-89000000D01*
X116000000Y-89000000D02*
X119557606Y-89000000D01*
%TO.N,/R8*%
X95278803Y-94721197D02*
X96000000Y-94000000D01*
X129557606Y-94000000D02*
X130278803Y-94721197D01*
X104495107Y-94000000D02*
X105278803Y-94783696D01*
X106062499Y-94000000D02*
X109557606Y-94000000D01*
X115278803Y-94721197D02*
X116000000Y-94000000D01*
X110278803Y-94721197D02*
X111000000Y-94000000D01*
X84500000Y-87500000D02*
X91000000Y-94000000D01*
X99557606Y-94000000D02*
X100278803Y-94721197D01*
X111000000Y-94000000D02*
X114557606Y-94000000D01*
X109557606Y-94000000D02*
X110278803Y-94721197D01*
X126062499Y-94000000D02*
X129557606Y-94000000D01*
X119557606Y-94000000D02*
X120278803Y-94721197D01*
X94557606Y-94000000D02*
X95278803Y-94721197D01*
X91000000Y-94000000D02*
X94557606Y-94000000D01*
X100278803Y-94721197D02*
X101000000Y-94000000D01*
X124495107Y-94000000D02*
X125278803Y-94783696D01*
X114557606Y-94000000D02*
X115278803Y-94721197D01*
X125278803Y-94783696D02*
X126062499Y-94000000D01*
X105278803Y-94783696D02*
X106062499Y-94000000D01*
X84500000Y-55412500D02*
X84500000Y-87500000D01*
X116000000Y-94000000D02*
X119557606Y-94000000D01*
X101000000Y-94000000D02*
X104495107Y-94000000D01*
X121000000Y-94000000D02*
X124495107Y-94000000D01*
X120278803Y-94721197D02*
X121000000Y-94000000D01*
X96000000Y-94000000D02*
X99557606Y-94000000D01*
%TO.N,/SWCLK*%
X82500000Y-115050000D02*
X138825000Y-171375000D01*
X138825000Y-171375000D02*
X138825000Y-173050000D01*
X82500000Y-55412500D02*
X82500000Y-115050000D01*
%TO.N,/RESET*%
X138125000Y-176375000D02*
X135650000Y-176375000D01*
X81300000Y-115650000D02*
X81300000Y-55200000D01*
X138825000Y-175675000D02*
X138125000Y-176375000D01*
X87938302Y-45250000D02*
X87000000Y-46188302D01*
X134850000Y-169200000D02*
X81300000Y-115650000D01*
X87000000Y-49500000D02*
X87000000Y-47087500D01*
X88545000Y-45250000D02*
X87938302Y-45250000D01*
X138825000Y-174320000D02*
X138825000Y-175675000D01*
X81300000Y-55200000D02*
X87000000Y-49500000D01*
X134850000Y-175575000D02*
X134850000Y-169200000D01*
X135650000Y-176375000D02*
X134850000Y-175575000D01*
X87000000Y-46188302D02*
X87000000Y-47087500D01*
%TO.N,/SWDIO*%
X83000000Y-55412500D02*
X83000000Y-57000000D01*
X83000000Y-57000000D02*
X83500000Y-57500000D01*
X83500000Y-57500000D02*
X83500000Y-114450000D01*
X83500000Y-114450000D02*
X140095000Y-171045000D01*
X140095000Y-171045000D02*
X140095000Y-173050000D01*
%TO.N,Net-(U2-PC15)*%
X82855849Y-45300000D02*
X83500000Y-45944151D01*
X79750000Y-44400001D02*
X80150001Y-44400001D01*
X77830001Y-44400001D02*
X77830000Y-44400000D01*
X81050000Y-45300000D02*
X82855849Y-45300000D01*
X83500000Y-45944151D02*
X83500000Y-47087500D01*
X80150001Y-44400001D02*
X81050000Y-45300000D01*
X79750000Y-44400001D02*
X77830001Y-44400001D01*
%TO.N,Net-(U2-PC14)*%
X80137501Y-46899999D02*
X79750000Y-46899999D01*
X83000000Y-46150000D02*
X82799999Y-45949999D01*
X79750000Y-46899999D02*
X77830001Y-46899999D01*
X83000000Y-47087500D02*
X83000000Y-46150000D01*
X82799999Y-45949999D02*
X81087501Y-45949999D01*
X81087501Y-45949999D02*
X80137501Y-46899999D01*
X77830001Y-46899999D02*
X77830000Y-46900000D01*
%TO.N,/C1*%
X90500000Y-54000000D02*
X91500000Y-55000000D01*
X92000000Y-77971197D02*
X91500000Y-77971197D01*
X92000000Y-87971197D02*
X91500000Y-87971197D01*
X92721197Y-87250000D02*
X92000000Y-87971197D01*
X92000000Y-72971197D02*
X91500000Y-72971197D01*
X91500000Y-55000000D02*
X91500000Y-58000000D01*
X92721197Y-82250000D02*
X92000000Y-82971197D01*
X92721197Y-77250000D02*
X92000000Y-77971197D01*
X92000000Y-92971197D02*
X91500000Y-92971197D01*
X92721197Y-97250000D02*
X92000000Y-97971197D01*
X92721197Y-62250000D02*
X92000000Y-62971197D01*
X92000000Y-82971197D02*
X91500000Y-82971197D01*
X92000000Y-62971197D02*
X91500000Y-62971197D01*
X92000000Y-67971197D02*
X91500000Y-67971197D01*
X89412500Y-54000000D02*
X90500000Y-54000000D01*
X92000000Y-97971197D02*
X91500000Y-97971197D01*
X92721197Y-92250000D02*
X92000000Y-92971197D01*
X92721197Y-72250000D02*
X92000000Y-72971197D01*
X92721197Y-67250000D02*
X92000000Y-67971197D01*
%TO.N,/C2*%
X97000000Y-93000000D02*
X96500000Y-93000000D01*
X97000000Y-68000000D02*
X96500000Y-68000000D01*
X97721197Y-87278803D02*
X97000000Y-88000000D01*
X97721197Y-62250000D02*
X97000000Y-62971197D01*
X89412500Y-53500000D02*
X94010000Y-53500000D01*
X97000000Y-62971197D02*
X96500000Y-62971197D01*
X96500000Y-55990000D02*
X96500000Y-58000000D01*
X97000000Y-83000000D02*
X96500000Y-83000000D01*
X97721197Y-82278803D02*
X97000000Y-83000000D01*
X97000000Y-78000000D02*
X96500000Y-78000000D01*
X94010000Y-53500000D02*
X96500000Y-55990000D01*
X97000000Y-88000000D02*
X96500000Y-88000000D01*
X97721197Y-77278803D02*
X97000000Y-78000000D01*
X97721197Y-72278803D02*
X97000000Y-73000000D01*
X97000000Y-73000000D02*
X96500000Y-73000000D01*
X97721197Y-67278803D02*
X97000000Y-68000000D01*
X97721197Y-92278803D02*
X97000000Y-93000000D01*
X97721197Y-97278803D02*
X97000000Y-98000000D01*
X97000000Y-98000000D02*
X96500000Y-98000000D01*
%TO.N,/C3*%
X102000000Y-62971197D02*
X101500000Y-62971197D01*
X102000000Y-98000000D02*
X101500000Y-98000000D01*
X102000000Y-73000000D02*
X101500000Y-73000000D01*
X102721197Y-92278803D02*
X102000000Y-93000000D01*
X102000000Y-68000000D02*
X101500000Y-68000000D01*
X102000000Y-78000000D02*
X101500000Y-78000000D01*
X102721197Y-82278803D02*
X102000000Y-83000000D01*
X102721197Y-62250000D02*
X102000000Y-62971197D01*
X102721197Y-87278803D02*
X102000000Y-88000000D01*
X102721197Y-72278803D02*
X102000000Y-73000000D01*
X102721197Y-77278803D02*
X102000000Y-78000000D01*
X98447501Y-53000000D02*
X101500000Y-56052499D01*
X102000000Y-93000000D02*
X101500000Y-93000000D01*
X102000000Y-88000000D02*
X101500000Y-88000000D01*
X89412500Y-53000000D02*
X98447501Y-53000000D01*
X102721197Y-97278803D02*
X102000000Y-98000000D01*
X102721197Y-67278803D02*
X102000000Y-68000000D01*
X102000000Y-83000000D02*
X101500000Y-83000000D01*
X101500000Y-56052499D02*
X101500000Y-58000000D01*
%TO.N,/C4*%
X107000000Y-78000000D02*
X106500000Y-78000000D01*
X103010000Y-52500000D02*
X106500000Y-55990000D01*
X89412500Y-52500000D02*
X103010000Y-52500000D01*
X107721197Y-97278803D02*
X107000000Y-98000000D01*
X107721197Y-92278803D02*
X107000000Y-93000000D01*
X107721197Y-67278803D02*
X107000000Y-68000000D01*
X107000000Y-73000000D02*
X106500000Y-73000000D01*
X107721197Y-62250000D02*
X107000000Y-62971197D01*
X107000000Y-98000000D02*
X106500000Y-98000000D01*
X107000000Y-62971197D02*
X106500000Y-62971197D01*
X107721197Y-87278803D02*
X107000000Y-88000000D01*
X107000000Y-68000000D02*
X106500000Y-68000000D01*
X107721197Y-72278803D02*
X107000000Y-73000000D01*
X107000000Y-88000000D02*
X106500000Y-88000000D01*
X107000000Y-93000000D02*
X106500000Y-93000000D01*
X107721197Y-77278803D02*
X107000000Y-78000000D01*
X107721197Y-82278803D02*
X107000000Y-83000000D01*
X106500000Y-55990000D02*
X106500000Y-58000000D01*
X107000000Y-83000000D02*
X106500000Y-83000000D01*
%TO.N,/C5*%
X107510000Y-52000000D02*
X111500000Y-55990000D01*
X112000000Y-78000000D02*
X111500000Y-78000000D01*
X112721197Y-92278803D02*
X112000000Y-93000000D01*
X112000000Y-83000000D02*
X111500000Y-83000000D01*
X112721197Y-87278803D02*
X112000000Y-88000000D01*
X112721197Y-77278803D02*
X112000000Y-78000000D01*
X112000000Y-93000000D02*
X111500000Y-93000000D01*
X112721197Y-97278803D02*
X112000000Y-98000000D01*
X112721197Y-72278803D02*
X112000000Y-73000000D01*
X112000000Y-98000000D02*
X111500000Y-98000000D01*
X112721197Y-67278803D02*
X112000000Y-68000000D01*
X112721197Y-82278803D02*
X112000000Y-83000000D01*
X112000000Y-68000000D02*
X111500000Y-68000000D01*
X112721197Y-62250000D02*
X112000000Y-62971197D01*
X112000000Y-73000000D02*
X111500000Y-73000000D01*
X89412500Y-52000000D02*
X107510000Y-52000000D01*
X111500000Y-55990000D02*
X111500000Y-58000000D01*
X112000000Y-62971197D02*
X111500000Y-62971197D01*
X112000000Y-88000000D02*
X111500000Y-88000000D01*
%TO.N,/C6*%
X117721197Y-72278803D02*
X117000000Y-73000000D01*
X117000000Y-68000000D02*
X116500000Y-68000000D01*
X117721197Y-92278803D02*
X117000000Y-93000000D01*
X117000000Y-62971197D02*
X116500000Y-62971197D01*
X117000000Y-98000000D02*
X116500000Y-98000000D01*
X117721197Y-62250000D02*
X117000000Y-62971197D01*
X117000000Y-83000000D02*
X116500000Y-83000000D01*
X116500000Y-55990000D02*
X116500000Y-58000000D01*
X117000000Y-78000000D02*
X116500000Y-78000000D01*
X117000000Y-93000000D02*
X116500000Y-93000000D01*
X117721197Y-82278803D02*
X117000000Y-83000000D01*
X117721197Y-67278803D02*
X117000000Y-68000000D01*
X117721197Y-97278803D02*
X117000000Y-98000000D01*
X117721197Y-77278803D02*
X117000000Y-78000000D01*
X112010000Y-51500000D02*
X116500000Y-55990000D01*
X117721197Y-87278803D02*
X117000000Y-88000000D01*
X117000000Y-88000000D02*
X116500000Y-88000000D01*
X117000000Y-73000000D02*
X116500000Y-73000000D01*
X89412500Y-51500000D02*
X112010000Y-51500000D01*
%TO.N,/C7*%
X122721197Y-87278803D02*
X122000000Y-88000000D01*
X122721197Y-92278803D02*
X122000000Y-93000000D01*
X122721197Y-82278803D02*
X122000000Y-83000000D01*
X122000000Y-88000000D02*
X121500000Y-88000000D01*
X122000000Y-83000000D02*
X121500000Y-83000000D01*
X122721197Y-77278803D02*
X122000000Y-78000000D01*
X122000000Y-68000000D02*
X121500000Y-68000000D01*
X122000000Y-62971197D02*
X121500000Y-62971197D01*
X122721197Y-67278803D02*
X122000000Y-68000000D01*
X122721197Y-97278803D02*
X122000000Y-98000000D01*
X122721197Y-72278803D02*
X122000000Y-73000000D01*
X122000000Y-93000000D02*
X121500000Y-93000000D01*
X121500000Y-56052499D02*
X121500000Y-58000000D01*
X89412500Y-51000000D02*
X116447501Y-51000000D01*
X122000000Y-98000000D02*
X121500000Y-98000000D01*
X122000000Y-73000000D02*
X121500000Y-73000000D01*
X116447501Y-51000000D02*
X121500000Y-56052499D01*
X122721197Y-62250000D02*
X122000000Y-62971197D01*
X122000000Y-78000000D02*
X121500000Y-78000000D01*
%TO.N,/C8*%
X127721197Y-92278803D02*
X127000000Y-93000000D01*
X127721197Y-77278803D02*
X127000000Y-78000000D01*
X121010000Y-50500000D02*
X126500000Y-55990000D01*
X127721197Y-72278803D02*
X127000000Y-73000000D01*
X127000000Y-62971197D02*
X126500000Y-62971197D01*
X127000000Y-98000000D02*
X126500000Y-98000000D01*
X127721197Y-62250000D02*
X127000000Y-62971197D01*
X127000000Y-93000000D02*
X126500000Y-93000000D01*
X127721197Y-97278803D02*
X127000000Y-98000000D01*
X127000000Y-73000000D02*
X126500000Y-73000000D01*
X127000000Y-78000000D02*
X126500000Y-78000000D01*
X127000000Y-68000000D02*
X126500000Y-68000000D01*
X126500000Y-55990000D02*
X126500000Y-58000000D01*
X127000000Y-83000000D02*
X126500000Y-83000000D01*
X127721197Y-87278803D02*
X127000000Y-88000000D01*
X127721197Y-82278803D02*
X127000000Y-83000000D01*
X127721197Y-67278803D02*
X127000000Y-68000000D01*
X127000000Y-88000000D02*
X126500000Y-88000000D01*
X89412500Y-50500000D02*
X121010000Y-50500000D01*
%TO.N,/BTN1*%
X77925000Y-54250000D02*
X79175000Y-53000000D01*
X79175000Y-53000000D02*
X81087500Y-53000000D01*
X77450000Y-63450000D02*
X77450000Y-60350000D01*
X72925000Y-165750000D02*
X77975000Y-160700000D01*
X77450000Y-60350000D02*
X77925000Y-59875000D01*
X63200000Y-165750000D02*
X72925000Y-165750000D01*
X77975000Y-63975000D02*
X77450000Y-63450000D01*
X77925000Y-59875000D02*
X77925000Y-54250000D01*
X77975000Y-160700000D02*
X77975000Y-63975000D01*
%TO.N,/BTN2*%
X78275000Y-54775000D02*
X79550000Y-53500000D01*
X78275000Y-61100000D02*
X78275000Y-54775000D01*
X82750000Y-51100000D02*
X82150000Y-50500000D01*
X89425000Y-165750000D02*
X83850000Y-165750000D01*
X82150000Y-50500000D02*
X81087500Y-50500000D01*
X78800000Y-160700000D02*
X78800000Y-61625000D01*
X82750000Y-52900000D02*
X82750000Y-51100000D01*
X79550000Y-53500000D02*
X81087500Y-53500000D01*
X78800000Y-61625000D02*
X78275000Y-61100000D01*
X81087500Y-53500000D02*
X82150000Y-53500000D01*
X82150000Y-53500000D02*
X82750000Y-52900000D01*
X83850000Y-165750000D02*
X78800000Y-160700000D01*
%TO.N,/BTN3*%
X79925000Y-54000000D02*
X81087500Y-54000000D01*
X79575000Y-59250000D02*
X79575000Y-159800000D01*
X78925000Y-55000000D02*
X79925000Y-54000000D01*
X84175000Y-164400000D02*
X90275000Y-164400000D01*
X91625000Y-165750000D02*
X121750000Y-165750000D01*
X79575000Y-159800000D02*
X84175000Y-164400000D01*
X78925000Y-58600000D02*
X78925000Y-55000000D01*
X90275000Y-164400000D02*
X91625000Y-165750000D01*
X78925000Y-58600000D02*
X79575000Y-59250000D01*
%TD*%
%TA.AperFunction,Conductor*%
%TO.N,GND*%
G36*
X144866413Y-30449464D02*
G01*
X144940902Y-30469461D01*
X144949093Y-30474557D01*
X145087360Y-30566944D01*
X145102798Y-30578791D01*
X145265107Y-30721131D01*
X145278868Y-30734892D01*
X145421206Y-30897199D01*
X145433062Y-30912650D01*
X145552987Y-31092130D01*
X145562732Y-31109008D01*
X145584222Y-31152585D01*
X145599588Y-31218537D01*
X145550382Y-176866618D01*
X145530395Y-176941112D01*
X145525271Y-176949348D01*
X145433062Y-177087349D01*
X145421198Y-177102811D01*
X145278879Y-177265096D01*
X145265099Y-177278875D01*
X145122343Y-177404069D01*
X145102811Y-177421198D01*
X145087349Y-177433062D01*
X144949121Y-177525423D01*
X144876086Y-177550215D01*
X144866411Y-177550534D01*
X139639600Y-177552999D01*
X139565091Y-177533072D01*
X139510527Y-177478560D01*
X139490530Y-177404069D01*
X139510457Y-177329560D01*
X139534167Y-177298644D01*
X140390045Y-176442766D01*
X140390055Y-176442759D01*
X140435438Y-176397376D01*
X140495500Y-176337314D01*
X140561392Y-176223186D01*
X140561393Y-176223180D01*
X140561395Y-176223177D01*
X140567472Y-176200499D01*
X140595499Y-176095898D01*
X140595500Y-176095891D01*
X140595500Y-175004386D01*
X140615462Y-174929886D01*
X140639141Y-174899027D01*
X140719858Y-174818310D01*
X140719859Y-174818309D01*
X140815077Y-174666771D01*
X140874187Y-174497844D01*
X140880332Y-174443296D01*
X140908509Y-174371502D01*
X140968809Y-174323412D01*
X141045075Y-174311916D01*
X141085414Y-174322321D01*
X141147773Y-174348150D01*
X141162043Y-174354061D01*
X141296470Y-174380800D01*
X141433530Y-174380800D01*
X141567957Y-174354061D01*
X141694585Y-174301610D01*
X141808547Y-174225463D01*
X141905463Y-174128547D01*
X141981610Y-174014585D01*
X142034061Y-173887957D01*
X142060800Y-173753530D01*
X142060800Y-173616470D01*
X142034061Y-173482043D01*
X141981610Y-173355415D01*
X141905463Y-173241453D01*
X141808547Y-173144537D01*
X141694585Y-173068390D01*
X141694581Y-173068388D01*
X141694577Y-173068386D01*
X141567958Y-173015939D01*
X141567954Y-173015938D01*
X141433530Y-172989200D01*
X141296470Y-172989200D01*
X141162045Y-173015938D01*
X141162041Y-173015939D01*
X141085412Y-173047679D01*
X141008944Y-173057745D01*
X140937688Y-173028228D01*
X140890736Y-172967037D01*
X140880333Y-172926705D01*
X140874187Y-172872156D01*
X140815077Y-172703229D01*
X140719859Y-172551691D01*
X140639141Y-172470973D01*
X140600577Y-172404178D01*
X140595500Y-172365614D01*
X140595500Y-170979108D01*
X140595499Y-170979106D01*
X140594265Y-170974500D01*
X140561392Y-170851814D01*
X140495500Y-170737686D01*
X140495497Y-170737683D01*
X140402314Y-170644499D01*
X140402314Y-170644500D01*
X84044141Y-114286327D01*
X84005577Y-114219532D01*
X84000500Y-114180968D01*
X84000500Y-88068031D01*
X84020462Y-87993531D01*
X84075000Y-87938993D01*
X84149500Y-87919031D01*
X84224000Y-87938993D01*
X84254854Y-87962668D01*
X90692686Y-94400500D01*
X90692688Y-94400501D01*
X90692689Y-94400502D01*
X90806810Y-94466390D01*
X90806811Y-94466390D01*
X90806814Y-94466392D01*
X90934107Y-94500500D01*
X90934108Y-94500500D01*
X93632879Y-94500500D01*
X93707379Y-94520462D01*
X93761917Y-94575000D01*
X93781879Y-94649500D01*
X93761917Y-94724000D01*
X93707379Y-94778538D01*
X93671443Y-94793422D01*
X93635656Y-94803011D01*
X93570673Y-94820424D01*
X93570672Y-94820424D01*
X93570670Y-94820425D01*
X93372362Y-94912898D01*
X93372359Y-94912899D01*
X93372359Y-94912900D01*
X93193120Y-95038404D01*
X93038404Y-95193120D01*
X93038402Y-95193123D01*
X92912898Y-95372362D01*
X92820425Y-95570670D01*
X92820424Y-95570673D01*
X92763793Y-95782021D01*
X92760537Y-95819237D01*
X92734157Y-95891714D01*
X92675073Y-95941290D01*
X92658149Y-95947957D01*
X92605734Y-95964987D01*
X92605730Y-95964990D01*
X92503099Y-96039554D01*
X92503091Y-96039561D01*
X91614222Y-96928429D01*
X91614215Y-96928437D01*
X91539651Y-97031068D01*
X91539648Y-97031074D01*
X91500445Y-97151728D01*
X91499782Y-97155914D01*
X91497203Y-97161705D01*
X91496821Y-97162882D01*
X91496697Y-97162841D01*
X91468409Y-97226373D01*
X91406009Y-97271705D01*
X91388275Y-97277270D01*
X91249775Y-97311406D01*
X91099145Y-97390464D01*
X90971820Y-97503264D01*
X90971817Y-97503268D01*
X90875181Y-97643267D01*
X90814860Y-97802322D01*
X90794355Y-97971197D01*
X90814860Y-98140071D01*
X90875181Y-98299126D01*
X90875182Y-98299127D01*
X90971817Y-98439126D01*
X90971819Y-98439127D01*
X90971820Y-98439129D01*
X90982153Y-98448283D01*
X91083391Y-98537972D01*
X91099146Y-98551929D01*
X91099148Y-98551931D01*
X91249775Y-98630987D01*
X91414944Y-98671697D01*
X91585056Y-98671697D01*
X91750225Y-98630987D01*
X91900852Y-98551931D01*
X91949121Y-98509169D01*
X92018122Y-98474708D01*
X92047926Y-98471697D01*
X92065892Y-98471697D01*
X92193186Y-98437589D01*
X92307314Y-98371697D01*
X92307313Y-98371697D01*
X92315772Y-98366814D01*
X92317020Y-98368976D01*
X92374884Y-98345007D01*
X92451353Y-98355070D01*
X92492917Y-98382841D01*
X92493655Y-98381978D01*
X92498111Y-98385784D01*
X92525001Y-98405320D01*
X92600744Y-98460350D01*
X92721403Y-98499555D01*
X92848271Y-98499555D01*
X92968930Y-98460350D01*
X93071569Y-98385779D01*
X93960440Y-97496907D01*
X93965698Y-97491551D01*
X94038357Y-97387549D01*
X94051480Y-97344459D01*
X94092282Y-97279009D01*
X94160343Y-97242727D01*
X94181030Y-97239439D01*
X94217977Y-97236207D01*
X94429330Y-97179575D01*
X94613764Y-97093572D01*
X94627633Y-97087105D01*
X94627634Y-97087104D01*
X94627639Y-97087102D01*
X94806877Y-96961598D01*
X94961598Y-96806877D01*
X95087102Y-96627639D01*
X95179575Y-96429330D01*
X95236207Y-96217977D01*
X95239462Y-96180764D01*
X95265840Y-96108288D01*
X95324922Y-96058710D01*
X95341840Y-96052046D01*
X95394268Y-96035011D01*
X95496907Y-95960440D01*
X96385779Y-95071569D01*
X96460350Y-94968930D01*
X96499555Y-94848271D01*
X96499555Y-94721403D01*
X96491153Y-94695544D01*
X96487116Y-94618521D01*
X96522131Y-94549800D01*
X96586816Y-94507793D01*
X96632860Y-94500500D01*
X98632879Y-94500500D01*
X98707379Y-94520462D01*
X98761917Y-94575000D01*
X98781879Y-94649500D01*
X98761917Y-94724000D01*
X98707379Y-94778538D01*
X98671443Y-94793422D01*
X98635656Y-94803011D01*
X98570673Y-94820424D01*
X98570672Y-94820424D01*
X98570670Y-94820425D01*
X98372362Y-94912898D01*
X98372359Y-94912899D01*
X98372359Y-94912900D01*
X98193120Y-95038404D01*
X98038404Y-95193120D01*
X98038402Y-95193123D01*
X97912898Y-95372362D01*
X97820425Y-95570670D01*
X97820424Y-95570673D01*
X97763793Y-95782021D01*
X97760537Y-95819237D01*
X97734157Y-95891714D01*
X97675073Y-95941290D01*
X97658149Y-95947957D01*
X97605734Y-95964987D01*
X97605730Y-95964990D01*
X97503099Y-96039554D01*
X97503091Y-96039561D01*
X96614222Y-96928429D01*
X96614215Y-96928437D01*
X96539651Y-97031068D01*
X96539648Y-97031074D01*
X96500445Y-97151728D01*
X96500445Y-97161692D01*
X96480483Y-97236192D01*
X96425945Y-97290730D01*
X96387103Y-97306362D01*
X96249775Y-97340209D01*
X96099145Y-97419267D01*
X95971820Y-97532067D01*
X95971817Y-97532071D01*
X95875181Y-97672070D01*
X95814860Y-97831125D01*
X95794355Y-98000000D01*
X95814860Y-98168874D01*
X95875181Y-98327929D01*
X95899462Y-98363105D01*
X95971817Y-98467929D01*
X95971819Y-98467930D01*
X95971820Y-98467932D01*
X96033807Y-98522847D01*
X96050879Y-98537972D01*
X96099146Y-98580732D01*
X96099148Y-98580734D01*
X96249775Y-98659790D01*
X96414944Y-98700500D01*
X96585056Y-98700500D01*
X96750225Y-98659790D01*
X96900852Y-98580734D01*
X96919917Y-98563843D01*
X96949121Y-98537972D01*
X97018122Y-98503511D01*
X97047926Y-98500500D01*
X97065892Y-98500500D01*
X97193186Y-98466392D01*
X97307314Y-98400500D01*
X97307318Y-98400495D01*
X97315055Y-98394559D01*
X97316101Y-98395923D01*
X97372922Y-98363111D01*
X97450050Y-98363105D01*
X97499078Y-98386487D01*
X97557591Y-98428998D01*
X97600744Y-98460350D01*
X97721403Y-98499555D01*
X97848271Y-98499555D01*
X97968930Y-98460350D01*
X98071569Y-98385779D01*
X98960440Y-97496907D01*
X98965698Y-97491551D01*
X99038357Y-97387549D01*
X99051480Y-97344459D01*
X99092282Y-97279009D01*
X99160343Y-97242727D01*
X99181030Y-97239439D01*
X99217977Y-97236207D01*
X99429330Y-97179575D01*
X99613764Y-97093572D01*
X99627633Y-97087105D01*
X99627634Y-97087104D01*
X99627639Y-97087102D01*
X99806877Y-96961598D01*
X99961598Y-96806877D01*
X100087102Y-96627639D01*
X100179575Y-96429330D01*
X100236207Y-96217977D01*
X100239462Y-96180764D01*
X100265840Y-96108288D01*
X100324922Y-96058710D01*
X100341840Y-96052046D01*
X100394268Y-96035011D01*
X100496907Y-95960440D01*
X101385779Y-95071569D01*
X101460350Y-94968930D01*
X101499555Y-94848271D01*
X101499555Y-94721403D01*
X101491153Y-94695544D01*
X101487116Y-94618521D01*
X101522131Y-94549800D01*
X101586816Y-94507793D01*
X101632860Y-94500500D01*
X103813637Y-94500500D01*
X103888137Y-94520462D01*
X103942675Y-94575000D01*
X103962637Y-94649500D01*
X103956170Y-94692919D01*
X103948516Y-94718045D01*
X103907711Y-94783495D01*
X103839648Y-94819773D01*
X103818971Y-94823059D01*
X103782021Y-94826292D01*
X103570673Y-94882923D01*
X103570672Y-94882923D01*
X103570670Y-94882924D01*
X103372362Y-94975397D01*
X103372359Y-94975398D01*
X103372359Y-94975399D01*
X103193120Y-95100903D01*
X103038404Y-95255619D01*
X103038402Y-95255622D01*
X102912898Y-95434861D01*
X102849569Y-95570670D01*
X102820424Y-95633172D01*
X102763793Y-95844520D01*
X102760537Y-95881736D01*
X102734157Y-95954213D01*
X102675073Y-96003789D01*
X102658149Y-96010456D01*
X102605734Y-96027486D01*
X102605730Y-96027489D01*
X102503099Y-96102053D01*
X102503091Y-96102060D01*
X101614222Y-96990928D01*
X101614215Y-96990936D01*
X101539651Y-97093567D01*
X101539648Y-97093572D01*
X101503372Y-97205217D01*
X101461364Y-97269901D01*
X101397324Y-97303842D01*
X101249774Y-97340210D01*
X101099145Y-97419267D01*
X100971820Y-97532067D01*
X100971817Y-97532071D01*
X100875181Y-97672070D01*
X100814860Y-97831125D01*
X100794355Y-98000000D01*
X100814860Y-98168874D01*
X100875181Y-98327929D01*
X100899462Y-98363105D01*
X100971817Y-98467929D01*
X100971819Y-98467930D01*
X100971820Y-98467932D01*
X101033807Y-98522847D01*
X101050879Y-98537972D01*
X101099146Y-98580732D01*
X101099148Y-98580734D01*
X101249775Y-98659790D01*
X101414944Y-98700500D01*
X101585056Y-98700500D01*
X101750225Y-98659790D01*
X101900852Y-98580734D01*
X101919917Y-98563843D01*
X101949121Y-98537972D01*
X102018122Y-98503511D01*
X102047926Y-98500500D01*
X102065892Y-98500500D01*
X102193186Y-98466392D01*
X102298966Y-98405319D01*
X102373465Y-98385357D01*
X102447965Y-98405319D01*
X102478825Y-98428998D01*
X102498103Y-98448276D01*
X102498111Y-98448283D01*
X102534483Y-98474708D01*
X102600744Y-98522849D01*
X102721403Y-98562054D01*
X102848271Y-98562054D01*
X102968930Y-98522849D01*
X103071569Y-98448278D01*
X103960440Y-97559406D01*
X103965698Y-97554050D01*
X104038357Y-97450048D01*
X104051480Y-97406958D01*
X104092282Y-97341508D01*
X104160343Y-97305226D01*
X104181030Y-97301938D01*
X104217977Y-97298706D01*
X104429330Y-97242074D01*
X104614101Y-97155914D01*
X104627633Y-97149604D01*
X104627634Y-97149603D01*
X104627639Y-97149601D01*
X104806877Y-97024097D01*
X104961598Y-96869376D01*
X105087102Y-96690138D01*
X105179575Y-96491829D01*
X105236207Y-96280476D01*
X105239462Y-96243263D01*
X105265840Y-96170787D01*
X105324922Y-96121209D01*
X105341840Y-96114545D01*
X105394268Y-96097510D01*
X105496907Y-96022939D01*
X106385779Y-95134068D01*
X106460350Y-95031429D01*
X106499555Y-94910770D01*
X106499555Y-94783902D01*
X106499555Y-94783900D01*
X106470846Y-94695543D01*
X106466809Y-94618521D01*
X106501824Y-94549799D01*
X106566510Y-94507793D01*
X106612553Y-94500500D01*
X108632879Y-94500500D01*
X108707379Y-94520462D01*
X108761917Y-94575000D01*
X108781879Y-94649500D01*
X108761917Y-94724000D01*
X108707379Y-94778538D01*
X108671443Y-94793422D01*
X108635656Y-94803011D01*
X108570673Y-94820424D01*
X108570672Y-94820424D01*
X108570670Y-94820425D01*
X108372362Y-94912898D01*
X108372359Y-94912899D01*
X108372359Y-94912900D01*
X108193120Y-95038404D01*
X108038404Y-95193120D01*
X108038402Y-95193123D01*
X107912898Y-95372362D01*
X107820425Y-95570670D01*
X107820424Y-95570673D01*
X107763793Y-95782021D01*
X107760537Y-95819237D01*
X107734157Y-95891714D01*
X107675073Y-95941290D01*
X107658149Y-95947957D01*
X107605734Y-95964987D01*
X107605730Y-95964990D01*
X107503099Y-96039554D01*
X107503091Y-96039561D01*
X106614222Y-96928429D01*
X106614215Y-96928437D01*
X106539651Y-97031068D01*
X106539648Y-97031074D01*
X106500445Y-97151728D01*
X106500445Y-97161692D01*
X106480483Y-97236192D01*
X106425945Y-97290730D01*
X106387103Y-97306362D01*
X106249775Y-97340209D01*
X106099145Y-97419267D01*
X105971820Y-97532067D01*
X105971817Y-97532071D01*
X105875181Y-97672070D01*
X105814860Y-97831125D01*
X105794355Y-98000000D01*
X105814860Y-98168874D01*
X105875181Y-98327929D01*
X105899462Y-98363105D01*
X105971817Y-98467929D01*
X105971819Y-98467930D01*
X105971820Y-98467932D01*
X106033807Y-98522847D01*
X106050879Y-98537972D01*
X106099146Y-98580732D01*
X106099148Y-98580734D01*
X106249775Y-98659790D01*
X106414944Y-98700500D01*
X106585056Y-98700500D01*
X106750225Y-98659790D01*
X106900852Y-98580734D01*
X106919917Y-98563843D01*
X106949121Y-98537972D01*
X107018122Y-98503511D01*
X107047926Y-98500500D01*
X107065892Y-98500500D01*
X107193186Y-98466392D01*
X107307314Y-98400500D01*
X107307318Y-98400495D01*
X107315055Y-98394559D01*
X107316101Y-98395923D01*
X107372922Y-98363111D01*
X107450050Y-98363105D01*
X107499078Y-98386487D01*
X107557591Y-98428998D01*
X107600744Y-98460350D01*
X107721403Y-98499555D01*
X107848271Y-98499555D01*
X107968930Y-98460350D01*
X108071569Y-98385779D01*
X108960440Y-97496907D01*
X108965698Y-97491551D01*
X109038357Y-97387549D01*
X109051480Y-97344459D01*
X109092282Y-97279009D01*
X109160343Y-97242727D01*
X109181030Y-97239439D01*
X109217977Y-97236207D01*
X109429330Y-97179575D01*
X109613764Y-97093572D01*
X109627633Y-97087105D01*
X109627634Y-97087104D01*
X109627639Y-97087102D01*
X109806877Y-96961598D01*
X109961598Y-96806877D01*
X110087102Y-96627639D01*
X110179575Y-96429330D01*
X110236207Y-96217977D01*
X110239462Y-96180764D01*
X110265840Y-96108288D01*
X110324922Y-96058710D01*
X110341840Y-96052046D01*
X110394268Y-96035011D01*
X110496907Y-95960440D01*
X111385779Y-95071569D01*
X111460350Y-94968930D01*
X111499555Y-94848271D01*
X111499555Y-94721403D01*
X111491153Y-94695544D01*
X111487116Y-94618521D01*
X111522131Y-94549800D01*
X111586816Y-94507793D01*
X111632860Y-94500500D01*
X113632879Y-94500500D01*
X113707379Y-94520462D01*
X113761917Y-94575000D01*
X113781879Y-94649500D01*
X113761917Y-94724000D01*
X113707379Y-94778538D01*
X113671443Y-94793422D01*
X113635656Y-94803011D01*
X113570673Y-94820424D01*
X113570672Y-94820424D01*
X113570670Y-94820425D01*
X113372362Y-94912898D01*
X113372359Y-94912899D01*
X113372359Y-94912900D01*
X113193120Y-95038404D01*
X113038404Y-95193120D01*
X113038402Y-95193123D01*
X112912898Y-95372362D01*
X112820425Y-95570670D01*
X112820424Y-95570673D01*
X112763793Y-95782021D01*
X112760537Y-95819237D01*
X112734157Y-95891714D01*
X112675073Y-95941290D01*
X112658149Y-95947957D01*
X112605734Y-95964987D01*
X112605730Y-95964990D01*
X112503099Y-96039554D01*
X112503091Y-96039561D01*
X111614222Y-96928429D01*
X111614215Y-96928437D01*
X111539651Y-97031068D01*
X111539648Y-97031074D01*
X111500445Y-97151728D01*
X111500445Y-97161692D01*
X111480483Y-97236192D01*
X111425945Y-97290730D01*
X111387103Y-97306362D01*
X111249775Y-97340209D01*
X111099145Y-97419267D01*
X110971820Y-97532067D01*
X110971817Y-97532071D01*
X110875181Y-97672070D01*
X110814860Y-97831125D01*
X110794355Y-98000000D01*
X110814860Y-98168874D01*
X110875181Y-98327929D01*
X110899462Y-98363105D01*
X110971817Y-98467929D01*
X110971819Y-98467930D01*
X110971820Y-98467932D01*
X111033807Y-98522847D01*
X111050879Y-98537972D01*
X111099146Y-98580732D01*
X111099148Y-98580734D01*
X111249775Y-98659790D01*
X111414944Y-98700500D01*
X111585056Y-98700500D01*
X111750225Y-98659790D01*
X111900852Y-98580734D01*
X111919917Y-98563843D01*
X111949121Y-98537972D01*
X112018122Y-98503511D01*
X112047926Y-98500500D01*
X112065892Y-98500500D01*
X112193186Y-98466392D01*
X112307314Y-98400500D01*
X112307318Y-98400495D01*
X112315055Y-98394559D01*
X112316101Y-98395923D01*
X112372922Y-98363111D01*
X112450050Y-98363105D01*
X112499078Y-98386487D01*
X112557591Y-98428998D01*
X112600744Y-98460350D01*
X112721403Y-98499555D01*
X112848271Y-98499555D01*
X112968930Y-98460350D01*
X113071569Y-98385779D01*
X113960440Y-97496907D01*
X113965698Y-97491551D01*
X114038357Y-97387549D01*
X114051480Y-97344459D01*
X114092282Y-97279009D01*
X114160343Y-97242727D01*
X114181030Y-97239439D01*
X114217977Y-97236207D01*
X114429330Y-97179575D01*
X114613764Y-97093572D01*
X114627633Y-97087105D01*
X114627634Y-97087104D01*
X114627639Y-97087102D01*
X114806877Y-96961598D01*
X114961598Y-96806877D01*
X115087102Y-96627639D01*
X115179575Y-96429330D01*
X115236207Y-96217977D01*
X115239462Y-96180764D01*
X115265840Y-96108288D01*
X115324922Y-96058710D01*
X115341840Y-96052046D01*
X115394268Y-96035011D01*
X115496907Y-95960440D01*
X116385779Y-95071569D01*
X116460350Y-94968930D01*
X116499555Y-94848271D01*
X116499555Y-94721403D01*
X116491153Y-94695544D01*
X116487116Y-94618521D01*
X116522131Y-94549800D01*
X116586816Y-94507793D01*
X116632860Y-94500500D01*
X118632879Y-94500500D01*
X118707379Y-94520462D01*
X118761917Y-94575000D01*
X118781879Y-94649500D01*
X118761917Y-94724000D01*
X118707379Y-94778538D01*
X118671443Y-94793422D01*
X118635656Y-94803011D01*
X118570673Y-94820424D01*
X118570672Y-94820424D01*
X118570670Y-94820425D01*
X118372362Y-94912898D01*
X118372359Y-94912899D01*
X118372359Y-94912900D01*
X118193120Y-95038404D01*
X118038404Y-95193120D01*
X118038402Y-95193123D01*
X117912898Y-95372362D01*
X117820425Y-95570670D01*
X117820424Y-95570673D01*
X117763793Y-95782021D01*
X117760537Y-95819237D01*
X117734157Y-95891714D01*
X117675073Y-95941290D01*
X117658149Y-95947957D01*
X117605734Y-95964987D01*
X117605730Y-95964990D01*
X117503099Y-96039554D01*
X117503091Y-96039561D01*
X116614222Y-96928429D01*
X116614215Y-96928437D01*
X116539651Y-97031068D01*
X116539648Y-97031074D01*
X116500445Y-97151728D01*
X116500445Y-97161692D01*
X116480483Y-97236192D01*
X116425945Y-97290730D01*
X116387103Y-97306362D01*
X116249775Y-97340209D01*
X116099145Y-97419267D01*
X115971820Y-97532067D01*
X115971817Y-97532071D01*
X115875181Y-97672070D01*
X115814860Y-97831125D01*
X115794355Y-98000000D01*
X115814860Y-98168874D01*
X115875181Y-98327929D01*
X115899462Y-98363105D01*
X115971817Y-98467929D01*
X115971819Y-98467930D01*
X115971820Y-98467932D01*
X116033807Y-98522847D01*
X116050879Y-98537972D01*
X116099146Y-98580732D01*
X116099148Y-98580734D01*
X116249775Y-98659790D01*
X116414944Y-98700500D01*
X116585056Y-98700500D01*
X116750225Y-98659790D01*
X116900852Y-98580734D01*
X116919917Y-98563843D01*
X116949121Y-98537972D01*
X117018122Y-98503511D01*
X117047926Y-98500500D01*
X117065892Y-98500500D01*
X117193186Y-98466392D01*
X117307314Y-98400500D01*
X117307318Y-98400495D01*
X117315055Y-98394559D01*
X117316101Y-98395923D01*
X117372922Y-98363111D01*
X117450050Y-98363105D01*
X117499078Y-98386487D01*
X117557591Y-98428998D01*
X117600744Y-98460350D01*
X117721403Y-98499555D01*
X117848271Y-98499555D01*
X117968930Y-98460350D01*
X118071569Y-98385779D01*
X118960440Y-97496907D01*
X118965698Y-97491551D01*
X119038357Y-97387549D01*
X119051480Y-97344459D01*
X119092282Y-97279009D01*
X119160343Y-97242727D01*
X119181030Y-97239439D01*
X119217977Y-97236207D01*
X119429330Y-97179575D01*
X119613764Y-97093572D01*
X119627633Y-97087105D01*
X119627634Y-97087104D01*
X119627639Y-97087102D01*
X119806877Y-96961598D01*
X119961598Y-96806877D01*
X120087102Y-96627639D01*
X120179575Y-96429330D01*
X120236207Y-96217977D01*
X120239462Y-96180764D01*
X120265840Y-96108288D01*
X120324922Y-96058710D01*
X120341840Y-96052046D01*
X120394268Y-96035011D01*
X120496907Y-95960440D01*
X121385779Y-95071569D01*
X121460350Y-94968930D01*
X121499555Y-94848271D01*
X121499555Y-94721403D01*
X121491153Y-94695544D01*
X121487116Y-94618521D01*
X121522131Y-94549800D01*
X121586816Y-94507793D01*
X121632860Y-94500500D01*
X123813637Y-94500500D01*
X123888137Y-94520462D01*
X123942675Y-94575000D01*
X123962637Y-94649500D01*
X123956170Y-94692919D01*
X123948516Y-94718045D01*
X123907711Y-94783495D01*
X123839648Y-94819773D01*
X123818971Y-94823059D01*
X123782021Y-94826292D01*
X123570673Y-94882923D01*
X123570672Y-94882923D01*
X123570670Y-94882924D01*
X123372362Y-94975397D01*
X123372359Y-94975398D01*
X123372359Y-94975399D01*
X123193120Y-95100903D01*
X123038404Y-95255619D01*
X123038402Y-95255622D01*
X122912898Y-95434861D01*
X122849569Y-95570670D01*
X122820424Y-95633172D01*
X122763793Y-95844520D01*
X122760537Y-95881736D01*
X122734157Y-95954213D01*
X122675073Y-96003789D01*
X122658149Y-96010456D01*
X122605734Y-96027486D01*
X122605730Y-96027489D01*
X122503099Y-96102053D01*
X122503091Y-96102060D01*
X121614222Y-96990928D01*
X121614215Y-96990936D01*
X121539651Y-97093567D01*
X121539648Y-97093572D01*
X121503372Y-97205217D01*
X121461364Y-97269901D01*
X121397324Y-97303842D01*
X121249774Y-97340210D01*
X121099145Y-97419267D01*
X120971820Y-97532067D01*
X120971817Y-97532071D01*
X120875181Y-97672070D01*
X120814860Y-97831125D01*
X120794355Y-98000000D01*
X120814860Y-98168874D01*
X120875181Y-98327929D01*
X120899462Y-98363105D01*
X120971817Y-98467929D01*
X120971819Y-98467930D01*
X120971820Y-98467932D01*
X121033807Y-98522847D01*
X121050879Y-98537972D01*
X121099146Y-98580732D01*
X121099148Y-98580734D01*
X121249775Y-98659790D01*
X121414944Y-98700500D01*
X121585056Y-98700500D01*
X121750225Y-98659790D01*
X121900852Y-98580734D01*
X121919917Y-98563843D01*
X121949121Y-98537972D01*
X122018122Y-98503511D01*
X122047926Y-98500500D01*
X122065892Y-98500500D01*
X122193186Y-98466392D01*
X122298966Y-98405319D01*
X122373465Y-98385357D01*
X122447965Y-98405319D01*
X122478825Y-98428998D01*
X122498103Y-98448276D01*
X122498111Y-98448283D01*
X122534483Y-98474708D01*
X122600744Y-98522849D01*
X122721403Y-98562054D01*
X122848271Y-98562054D01*
X122968930Y-98522849D01*
X123071569Y-98448278D01*
X123960440Y-97559406D01*
X123965698Y-97554050D01*
X124038357Y-97450048D01*
X124051480Y-97406958D01*
X124092282Y-97341508D01*
X124160343Y-97305226D01*
X124181030Y-97301938D01*
X124217977Y-97298706D01*
X124429330Y-97242074D01*
X124614101Y-97155914D01*
X124627633Y-97149604D01*
X124627634Y-97149603D01*
X124627639Y-97149601D01*
X124806877Y-97024097D01*
X124961598Y-96869376D01*
X125087102Y-96690138D01*
X125179575Y-96491829D01*
X125236207Y-96280476D01*
X125239462Y-96243263D01*
X125265840Y-96170787D01*
X125324922Y-96121209D01*
X125341840Y-96114545D01*
X125394268Y-96097510D01*
X125496907Y-96022939D01*
X126385779Y-95134068D01*
X126460350Y-95031429D01*
X126499555Y-94910770D01*
X126499555Y-94783902D01*
X126499555Y-94783900D01*
X126470846Y-94695543D01*
X126466809Y-94618521D01*
X126501824Y-94549799D01*
X126566510Y-94507793D01*
X126612553Y-94500500D01*
X128632879Y-94500500D01*
X128707379Y-94520462D01*
X128761917Y-94575000D01*
X128781879Y-94649500D01*
X128761917Y-94724000D01*
X128707379Y-94778538D01*
X128671443Y-94793422D01*
X128635656Y-94803011D01*
X128570673Y-94820424D01*
X128570672Y-94820424D01*
X128570670Y-94820425D01*
X128372362Y-94912898D01*
X128372359Y-94912899D01*
X128372359Y-94912900D01*
X128193120Y-95038404D01*
X128038404Y-95193120D01*
X128038402Y-95193123D01*
X127912898Y-95372362D01*
X127820425Y-95570670D01*
X127820424Y-95570673D01*
X127763793Y-95782021D01*
X127760537Y-95819237D01*
X127734157Y-95891714D01*
X127675073Y-95941290D01*
X127658149Y-95947957D01*
X127605734Y-95964987D01*
X127605730Y-95964990D01*
X127503099Y-96039554D01*
X127503091Y-96039561D01*
X126614222Y-96928429D01*
X126614215Y-96928437D01*
X126539651Y-97031068D01*
X126539648Y-97031074D01*
X126500445Y-97151728D01*
X126500445Y-97161692D01*
X126480483Y-97236192D01*
X126425945Y-97290730D01*
X126387103Y-97306362D01*
X126249775Y-97340209D01*
X126099145Y-97419267D01*
X125971820Y-97532067D01*
X125971817Y-97532071D01*
X125875181Y-97672070D01*
X125814860Y-97831125D01*
X125794355Y-98000000D01*
X125814860Y-98168874D01*
X125875181Y-98327929D01*
X125899462Y-98363105D01*
X125971817Y-98467929D01*
X125971819Y-98467930D01*
X125971820Y-98467932D01*
X126033807Y-98522847D01*
X126050879Y-98537972D01*
X126099146Y-98580732D01*
X126099148Y-98580734D01*
X126249775Y-98659790D01*
X126414944Y-98700500D01*
X126585056Y-98700500D01*
X126750225Y-98659790D01*
X126900852Y-98580734D01*
X126919917Y-98563843D01*
X126949121Y-98537972D01*
X127018122Y-98503511D01*
X127047926Y-98500500D01*
X127065892Y-98500500D01*
X127193186Y-98466392D01*
X127307314Y-98400500D01*
X127307318Y-98400495D01*
X127315055Y-98394559D01*
X127316101Y-98395923D01*
X127372922Y-98363111D01*
X127450050Y-98363105D01*
X127499078Y-98386487D01*
X127557591Y-98428998D01*
X127600744Y-98460350D01*
X127721403Y-98499555D01*
X127848271Y-98499555D01*
X127968930Y-98460350D01*
X128071569Y-98385779D01*
X128960440Y-97496907D01*
X128965698Y-97491551D01*
X129038357Y-97387549D01*
X129051480Y-97344459D01*
X129092282Y-97279009D01*
X129160343Y-97242727D01*
X129181030Y-97239439D01*
X129217977Y-97236207D01*
X129429330Y-97179575D01*
X129613764Y-97093572D01*
X129627633Y-97087105D01*
X129627634Y-97087104D01*
X129627639Y-97087102D01*
X129806877Y-96961598D01*
X129961598Y-96806877D01*
X130087102Y-96627639D01*
X130179575Y-96429330D01*
X130236207Y-96217977D01*
X130239462Y-96180764D01*
X130265840Y-96108288D01*
X130324922Y-96058710D01*
X130341840Y-96052046D01*
X130394268Y-96035011D01*
X130496907Y-95960440D01*
X131385779Y-95071569D01*
X131460350Y-94968930D01*
X131499555Y-94848271D01*
X131499555Y-94721403D01*
X131491152Y-94695543D01*
X131460351Y-94600748D01*
X131460350Y-94600744D01*
X131423337Y-94549799D01*
X131385784Y-94498111D01*
X131385777Y-94498103D01*
X130501896Y-93614222D01*
X130501888Y-93614215D01*
X130399257Y-93539651D01*
X130399258Y-93539651D01*
X130399256Y-93539650D01*
X130399253Y-93539649D01*
X130399251Y-93539648D01*
X130278597Y-93500445D01*
X130151729Y-93500445D01*
X130031074Y-93539648D01*
X130031068Y-93539650D01*
X129989879Y-93569576D01*
X129917873Y-93597215D01*
X129841695Y-93585148D01*
X129827801Y-93578069D01*
X129773849Y-93546920D01*
X129750792Y-93533608D01*
X129623498Y-93499500D01*
X128317566Y-93499500D01*
X128243066Y-93479538D01*
X128188528Y-93425000D01*
X128168566Y-93350500D01*
X128188528Y-93276000D01*
X128212207Y-93245141D01*
X128288476Y-93168872D01*
X128960440Y-92496907D01*
X128965698Y-92491551D01*
X129038357Y-92387549D01*
X129051480Y-92344459D01*
X129092282Y-92279009D01*
X129160343Y-92242727D01*
X129181030Y-92239439D01*
X129217977Y-92236207D01*
X129429330Y-92179575D01*
X129613764Y-92093572D01*
X129627633Y-92087105D01*
X129627634Y-92087104D01*
X129627639Y-92087102D01*
X129806877Y-91961598D01*
X129961598Y-91806877D01*
X130087102Y-91627639D01*
X130179575Y-91429330D01*
X130236207Y-91217977D01*
X130239462Y-91180764D01*
X130265840Y-91108288D01*
X130324922Y-91058710D01*
X130341840Y-91052046D01*
X130394268Y-91035011D01*
X130496907Y-90960440D01*
X131385779Y-90071569D01*
X131460350Y-89968930D01*
X131499555Y-89848271D01*
X131499555Y-89721403D01*
X131491152Y-89695543D01*
X131460351Y-89600748D01*
X131460350Y-89600744D01*
X131423337Y-89549799D01*
X131385784Y-89498111D01*
X131385777Y-89498103D01*
X130501896Y-88614222D01*
X130501888Y-88614215D01*
X130399257Y-88539651D01*
X130399258Y-88539651D01*
X130399256Y-88539650D01*
X130399253Y-88539649D01*
X130399251Y-88539648D01*
X130278597Y-88500445D01*
X130151729Y-88500445D01*
X130031074Y-88539648D01*
X130031068Y-88539650D01*
X129989879Y-88569576D01*
X129917873Y-88597215D01*
X129841695Y-88585148D01*
X129827801Y-88578069D01*
X129773849Y-88546920D01*
X129750792Y-88533608D01*
X129623498Y-88499500D01*
X128317566Y-88499500D01*
X128243066Y-88479538D01*
X128188528Y-88425000D01*
X128168566Y-88350500D01*
X128188528Y-88276000D01*
X128212207Y-88245141D01*
X128288476Y-88168872D01*
X128960440Y-87496907D01*
X128965698Y-87491551D01*
X129038357Y-87387549D01*
X129051480Y-87344459D01*
X129092282Y-87279009D01*
X129160343Y-87242727D01*
X129181030Y-87239439D01*
X129217977Y-87236207D01*
X129429330Y-87179575D01*
X129613764Y-87093572D01*
X129627633Y-87087105D01*
X129627634Y-87087104D01*
X129627639Y-87087102D01*
X129806877Y-86961598D01*
X129961598Y-86806877D01*
X130087102Y-86627639D01*
X130179575Y-86429330D01*
X130236207Y-86217977D01*
X130239462Y-86180764D01*
X130265840Y-86108288D01*
X130324922Y-86058710D01*
X130341840Y-86052046D01*
X130394268Y-86035011D01*
X130496907Y-85960440D01*
X131385779Y-85071569D01*
X131460350Y-84968930D01*
X131499555Y-84848271D01*
X131499555Y-84721403D01*
X131491152Y-84695543D01*
X131460351Y-84600748D01*
X131460350Y-84600744D01*
X131423337Y-84549799D01*
X131385784Y-84498111D01*
X131385777Y-84498103D01*
X130501896Y-83614222D01*
X130501888Y-83614215D01*
X130399257Y-83539651D01*
X130399258Y-83539651D01*
X130399256Y-83539650D01*
X130399253Y-83539649D01*
X130399251Y-83539648D01*
X130278597Y-83500445D01*
X130151729Y-83500445D01*
X130031074Y-83539648D01*
X130031068Y-83539650D01*
X129989879Y-83569576D01*
X129917873Y-83597215D01*
X129841695Y-83585148D01*
X129827801Y-83578069D01*
X129773849Y-83546920D01*
X129750792Y-83533608D01*
X129623498Y-83499500D01*
X128317566Y-83499500D01*
X128243066Y-83479538D01*
X128188528Y-83425000D01*
X128168566Y-83350500D01*
X128188528Y-83276000D01*
X128212207Y-83245141D01*
X128288476Y-83168872D01*
X128960440Y-82496907D01*
X128965698Y-82491551D01*
X129038357Y-82387549D01*
X129051480Y-82344459D01*
X129092282Y-82279009D01*
X129160343Y-82242727D01*
X129181030Y-82239439D01*
X129217977Y-82236207D01*
X129429330Y-82179575D01*
X129613764Y-82093572D01*
X129627633Y-82087105D01*
X129627634Y-82087104D01*
X129627639Y-82087102D01*
X129806877Y-81961598D01*
X129961598Y-81806877D01*
X130087102Y-81627639D01*
X130179575Y-81429330D01*
X130236207Y-81217977D01*
X130239462Y-81180764D01*
X130265840Y-81108288D01*
X130324922Y-81058710D01*
X130341840Y-81052046D01*
X130394268Y-81035011D01*
X130496907Y-80960440D01*
X131385779Y-80071569D01*
X131460350Y-79968930D01*
X131499555Y-79848271D01*
X131499555Y-79721403D01*
X131491152Y-79695543D01*
X131460351Y-79600748D01*
X131460350Y-79600744D01*
X131423337Y-79549799D01*
X131385784Y-79498111D01*
X131385777Y-79498103D01*
X130501896Y-78614222D01*
X130501888Y-78614215D01*
X130399257Y-78539651D01*
X130399258Y-78539651D01*
X130399256Y-78539650D01*
X130399253Y-78539649D01*
X130399251Y-78539648D01*
X130278597Y-78500445D01*
X130151729Y-78500445D01*
X130031074Y-78539648D01*
X130031068Y-78539650D01*
X129989879Y-78569576D01*
X129917873Y-78597215D01*
X129841695Y-78585148D01*
X129827801Y-78578069D01*
X129773849Y-78546920D01*
X129750792Y-78533608D01*
X129623498Y-78499500D01*
X128317566Y-78499500D01*
X128243066Y-78479538D01*
X128188528Y-78425000D01*
X128168566Y-78350500D01*
X128188528Y-78276000D01*
X128212207Y-78245141D01*
X128288476Y-78168872D01*
X128960440Y-77496907D01*
X128965698Y-77491551D01*
X129038357Y-77387549D01*
X129051480Y-77344459D01*
X129092282Y-77279009D01*
X129160343Y-77242727D01*
X129181030Y-77239439D01*
X129217977Y-77236207D01*
X129429330Y-77179575D01*
X129613764Y-77093572D01*
X129627633Y-77087105D01*
X129627634Y-77087104D01*
X129627639Y-77087102D01*
X129806877Y-76961598D01*
X129961598Y-76806877D01*
X130087102Y-76627639D01*
X130179575Y-76429330D01*
X130236207Y-76217977D01*
X130239462Y-76180764D01*
X130265840Y-76108288D01*
X130324922Y-76058710D01*
X130341840Y-76052046D01*
X130394268Y-76035011D01*
X130496907Y-75960440D01*
X131385779Y-75071569D01*
X131460350Y-74968930D01*
X131499555Y-74848271D01*
X131499555Y-74721403D01*
X131491152Y-74695543D01*
X131460351Y-74600748D01*
X131460350Y-74600744D01*
X131423337Y-74549799D01*
X131385784Y-74498111D01*
X131385777Y-74498103D01*
X130501896Y-73614222D01*
X130501888Y-73614215D01*
X130399257Y-73539651D01*
X130399258Y-73539651D01*
X130399256Y-73539650D01*
X130399253Y-73539649D01*
X130399251Y-73539648D01*
X130278597Y-73500445D01*
X130151729Y-73500445D01*
X130031074Y-73539648D01*
X130031068Y-73539650D01*
X129989879Y-73569576D01*
X129917873Y-73597215D01*
X129841695Y-73585148D01*
X129827801Y-73578069D01*
X129773849Y-73546920D01*
X129750792Y-73533608D01*
X129623498Y-73499500D01*
X128317566Y-73499500D01*
X128243066Y-73479538D01*
X128188528Y-73425000D01*
X128168566Y-73350500D01*
X128188528Y-73276000D01*
X128212207Y-73245141D01*
X128288476Y-73168872D01*
X128960440Y-72496907D01*
X128965698Y-72491551D01*
X129038357Y-72387549D01*
X129051480Y-72344459D01*
X129092282Y-72279009D01*
X129160343Y-72242727D01*
X129181030Y-72239439D01*
X129217977Y-72236207D01*
X129429330Y-72179575D01*
X129613764Y-72093572D01*
X129627633Y-72087105D01*
X129627634Y-72087104D01*
X129627639Y-72087102D01*
X129806877Y-71961598D01*
X129961598Y-71806877D01*
X130087102Y-71627639D01*
X130179575Y-71429330D01*
X130236207Y-71217977D01*
X130239462Y-71180764D01*
X130265840Y-71108288D01*
X130324922Y-71058710D01*
X130341840Y-71052046D01*
X130394268Y-71035011D01*
X130496907Y-70960440D01*
X131385779Y-70071569D01*
X131460350Y-69968930D01*
X131499555Y-69848271D01*
X131499555Y-69721403D01*
X131491152Y-69695543D01*
X131460351Y-69600748D01*
X131460350Y-69600744D01*
X131423337Y-69549799D01*
X131385784Y-69498111D01*
X131385777Y-69498103D01*
X130501896Y-68614222D01*
X130501888Y-68614215D01*
X130399257Y-68539651D01*
X130399258Y-68539651D01*
X130399256Y-68539650D01*
X130399253Y-68539649D01*
X130399251Y-68539648D01*
X130278597Y-68500445D01*
X130151729Y-68500445D01*
X130031074Y-68539648D01*
X130031068Y-68539650D01*
X129989879Y-68569576D01*
X129917873Y-68597215D01*
X129841695Y-68585148D01*
X129827801Y-68578069D01*
X129773849Y-68546920D01*
X129750792Y-68533608D01*
X129623498Y-68499500D01*
X128317566Y-68499500D01*
X128243066Y-68479538D01*
X128188528Y-68425000D01*
X128168566Y-68350500D01*
X128188528Y-68276000D01*
X128212207Y-68245141D01*
X128288476Y-68168872D01*
X128960440Y-67496907D01*
X128965698Y-67491551D01*
X129038357Y-67387549D01*
X129051480Y-67344459D01*
X129092282Y-67279009D01*
X129160343Y-67242727D01*
X129181030Y-67239439D01*
X129217977Y-67236207D01*
X129429330Y-67179575D01*
X129613764Y-67093572D01*
X129627633Y-67087105D01*
X129627634Y-67087104D01*
X129627639Y-67087102D01*
X129806877Y-66961598D01*
X129961598Y-66806877D01*
X130087102Y-66627639D01*
X130179575Y-66429330D01*
X130236207Y-66217977D01*
X130239462Y-66180764D01*
X130265840Y-66108288D01*
X130324922Y-66058710D01*
X130341840Y-66052046D01*
X130394268Y-66035011D01*
X130496907Y-65960440D01*
X131385779Y-65071569D01*
X131460350Y-64968930D01*
X131499555Y-64848271D01*
X131499555Y-64721403D01*
X131491152Y-64695543D01*
X131460351Y-64600748D01*
X131460350Y-64600744D01*
X131423337Y-64549799D01*
X131385784Y-64498111D01*
X131385777Y-64498103D01*
X130501896Y-63614222D01*
X130501888Y-63614215D01*
X130422887Y-63556818D01*
X130399256Y-63539650D01*
X130399253Y-63539649D01*
X130399251Y-63539648D01*
X130278597Y-63500445D01*
X130151729Y-63500445D01*
X130031074Y-63539648D01*
X130031068Y-63539650D01*
X129989879Y-63569576D01*
X129917873Y-63597215D01*
X129841695Y-63585148D01*
X129827801Y-63578069D01*
X129797076Y-63560330D01*
X129750792Y-63533608D01*
X129623498Y-63499500D01*
X128317566Y-63499500D01*
X128243066Y-63479538D01*
X128188528Y-63425000D01*
X128168566Y-63350500D01*
X128188528Y-63276000D01*
X128212207Y-63245141D01*
X128321715Y-63135633D01*
X128960440Y-62496907D01*
X128965698Y-62491551D01*
X129038357Y-62387549D01*
X129051480Y-62344459D01*
X129092282Y-62279009D01*
X129160343Y-62242727D01*
X129181030Y-62239439D01*
X129217977Y-62236207D01*
X129429330Y-62179575D01*
X129613762Y-62093573D01*
X129627633Y-62087105D01*
X129627634Y-62087104D01*
X129627639Y-62087102D01*
X129806877Y-61961598D01*
X129961598Y-61806877D01*
X130087102Y-61627639D01*
X130179575Y-61429330D01*
X130236207Y-61217977D01*
X130239462Y-61180764D01*
X130265840Y-61108288D01*
X130324922Y-61058710D01*
X130341840Y-61052046D01*
X130394268Y-61035011D01*
X130496907Y-60960440D01*
X131385779Y-60071569D01*
X131460350Y-59968930D01*
X131499555Y-59848271D01*
X131499555Y-59721403D01*
X131491152Y-59695543D01*
X131476192Y-59649500D01*
X131460350Y-59600744D01*
X131405155Y-59524774D01*
X131385784Y-59498111D01*
X131385777Y-59498103D01*
X130501896Y-58614222D01*
X130501888Y-58614215D01*
X130399257Y-58539651D01*
X130399258Y-58539651D01*
X130399256Y-58539650D01*
X130399253Y-58539649D01*
X130399251Y-58539648D01*
X130278597Y-58500445D01*
X130151729Y-58500445D01*
X130031074Y-58539648D01*
X130031068Y-58539650D01*
X129989879Y-58569576D01*
X129917873Y-58597215D01*
X129841695Y-58585148D01*
X129827801Y-58578069D01*
X129773849Y-58546920D01*
X129750792Y-58533608D01*
X129623498Y-58499500D01*
X127275614Y-58499500D01*
X127201114Y-58479538D01*
X127146576Y-58425000D01*
X127126614Y-58350500D01*
X127136296Y-58297664D01*
X127185139Y-58168874D01*
X127185138Y-58168874D01*
X127185140Y-58168872D01*
X127205645Y-58000000D01*
X127185140Y-57831128D01*
X127173510Y-57800463D01*
X127124818Y-57672070D01*
X127026876Y-57530178D01*
X127000983Y-57457526D01*
X127000500Y-57445536D01*
X127000500Y-55924108D01*
X127000499Y-55924106D01*
X126999273Y-55919532D01*
X126983138Y-55859313D01*
X126966392Y-55796814D01*
X126960569Y-55786728D01*
X126900500Y-55682686D01*
X126869812Y-55651998D01*
X126807314Y-55589499D01*
X126807314Y-55589500D01*
X121317314Y-50099500D01*
X121317311Y-50099498D01*
X121317310Y-50099497D01*
X121246514Y-50058623D01*
X121203186Y-50033608D01*
X121075892Y-49999500D01*
X90697238Y-49999500D01*
X90622738Y-49979538D01*
X90568200Y-49925000D01*
X90549092Y-49866427D01*
X90544412Y-49822886D01*
X90540176Y-49811530D01*
X90536649Y-49802073D01*
X90529315Y-49725295D01*
X90536648Y-49697930D01*
X90544412Y-49677114D01*
X90550500Y-49620485D01*
X90550499Y-49379516D01*
X90544412Y-49322886D01*
X90536649Y-49302073D01*
X90529315Y-49225295D01*
X90536648Y-49197930D01*
X90544412Y-49177114D01*
X90550500Y-49120485D01*
X90550499Y-48879516D01*
X90544412Y-48822886D01*
X90536649Y-48802073D01*
X90529315Y-48725295D01*
X90536648Y-48697930D01*
X90544412Y-48677114D01*
X90550500Y-48620485D01*
X90550499Y-48379516D01*
X90544412Y-48322886D01*
X90496628Y-48194774D01*
X90414687Y-48085313D01*
X90305226Y-48003372D01*
X90284793Y-47995751D01*
X90177113Y-47955587D01*
X90120499Y-47949501D01*
X90120490Y-47949500D01*
X90120485Y-47949500D01*
X90120478Y-47949500D01*
X88700526Y-47949501D01*
X88700526Y-47947894D01*
X88631935Y-47933390D01*
X88574564Y-47881841D01*
X88550653Y-47808513D01*
X88550658Y-47799475D01*
X88550500Y-47799475D01*
X88550499Y-46379520D01*
X88550499Y-46379516D01*
X88544412Y-46322886D01*
X88496628Y-46194774D01*
X88496623Y-46194768D01*
X88491520Y-46185420D01*
X88493785Y-46184182D01*
X88470970Y-46127181D01*
X88481950Y-46050839D01*
X88529631Y-45990214D01*
X88601236Y-45961553D01*
X88618917Y-45960500D01*
X88727319Y-45960500D01*
X88727320Y-45960500D01*
X88814174Y-45950070D01*
X88860290Y-45931883D01*
X88936918Y-45923122D01*
X88990800Y-45942243D01*
X89108809Y-46012033D01*
X89254999Y-46054505D01*
X89255000Y-46054505D01*
X89755000Y-46054505D01*
X89901190Y-46012033D01*
X90040374Y-45929720D01*
X90040376Y-45929719D01*
X90154719Y-45815376D01*
X90154720Y-45815374D01*
X90237031Y-45676194D01*
X90237031Y-45676193D01*
X90282144Y-45520917D01*
X90283790Y-45500000D01*
X89755000Y-45500000D01*
X89755000Y-46054505D01*
X89255000Y-46054505D01*
X89255000Y-45000000D01*
X89755000Y-45000000D01*
X90283790Y-45000000D01*
X90282145Y-44979090D01*
X90282144Y-44979085D01*
X90237032Y-44823808D01*
X90237031Y-44823805D01*
X90154720Y-44684625D01*
X90154719Y-44684623D01*
X90040374Y-44570278D01*
X89901195Y-44487968D01*
X89755000Y-44445494D01*
X89755000Y-45000000D01*
X89255000Y-45000000D01*
X89255000Y-44445494D01*
X89108804Y-44487968D01*
X88990800Y-44557756D01*
X88916513Y-44578497D01*
X88860292Y-44568117D01*
X88814174Y-44549930D01*
X88814171Y-44549929D01*
X88814173Y-44549929D01*
X88727323Y-44539500D01*
X88723692Y-44539283D01*
X88650518Y-44514906D01*
X88599335Y-44457208D01*
X88583859Y-44381648D01*
X88588846Y-44355706D01*
X88588154Y-44355558D01*
X88589857Y-44347603D01*
X88599999Y-44248325D01*
X88600000Y-44248315D01*
X88600000Y-44200000D01*
X87549000Y-44200000D01*
X87474500Y-44180038D01*
X87419962Y-44125500D01*
X87400000Y-44051000D01*
X87400000Y-43700000D01*
X87900000Y-43700000D01*
X88599999Y-43700000D01*
X88599999Y-43651690D01*
X88589855Y-43552393D01*
X88589855Y-43552390D01*
X88536546Y-43391514D01*
X88447572Y-43247267D01*
X88327732Y-43127427D01*
X88183485Y-43038453D01*
X88022603Y-42985143D01*
X88022603Y-42985142D01*
X87923325Y-42975000D01*
X87900000Y-42975000D01*
X87900000Y-43700000D01*
X87400000Y-43700000D01*
X87400000Y-42974999D01*
X87376691Y-42975000D01*
X87376690Y-42975000D01*
X87277393Y-42985144D01*
X87277390Y-42985145D01*
X87196367Y-43011993D01*
X87119369Y-43016478D01*
X87050445Y-42981863D01*
X87008063Y-42917423D01*
X87000500Y-42870556D01*
X87000500Y-42584718D01*
X87020462Y-42510218D01*
X87044141Y-42479359D01*
X88579359Y-40944141D01*
X88646154Y-40905577D01*
X88684718Y-40900500D01*
X91965501Y-40900500D01*
X92040001Y-40920462D01*
X92094539Y-40975000D01*
X92114501Y-41049500D01*
X92114501Y-41931518D01*
X92129354Y-42025304D01*
X92186950Y-42138342D01*
X92276658Y-42228050D01*
X92389696Y-42285646D01*
X92483481Y-42300500D01*
X96746518Y-42300499D01*
X96840304Y-42285646D01*
X96953342Y-42228050D01*
X97043050Y-42138342D01*
X97100646Y-42025304D01*
X97112918Y-41947822D01*
X120785000Y-41947822D01*
X120785001Y-41947842D01*
X120791401Y-42007377D01*
X120841645Y-42142084D01*
X120841650Y-42142094D01*
X120927809Y-42257187D01*
X120927812Y-42257190D01*
X121042905Y-42343349D01*
X121042915Y-42343354D01*
X121177623Y-42393598D01*
X121177621Y-42393598D01*
X121237157Y-42399998D01*
X121237177Y-42400000D01*
X123135000Y-42400000D01*
X123635000Y-42400000D01*
X125532823Y-42400000D01*
X125532842Y-42399998D01*
X125592377Y-42393598D01*
X125727084Y-42343354D01*
X125727094Y-42343349D01*
X125842187Y-42257190D01*
X125842190Y-42257187D01*
X125928349Y-42142094D01*
X125928354Y-42142084D01*
X125978598Y-42007377D01*
X125984998Y-41947842D01*
X125985000Y-41947822D01*
X125985000Y-40250000D01*
X123635000Y-40250000D01*
X123635000Y-42400000D01*
X123135000Y-42400000D01*
X123135000Y-40250000D01*
X120785000Y-40250000D01*
X120785000Y-41947822D01*
X97112918Y-41947822D01*
X97115500Y-41931519D01*
X97115499Y-38068482D01*
X97112917Y-38052177D01*
X120785000Y-38052177D01*
X120785000Y-39750000D01*
X123135000Y-39750000D01*
X123635000Y-39750000D01*
X125985000Y-39750000D01*
X125985000Y-38052177D01*
X125984998Y-38052157D01*
X125978598Y-37992622D01*
X125928354Y-37857915D01*
X125928349Y-37857905D01*
X125842190Y-37742812D01*
X125842187Y-37742809D01*
X125727094Y-37656650D01*
X125727084Y-37656645D01*
X125592376Y-37606401D01*
X125592378Y-37606401D01*
X125532842Y-37600001D01*
X125532823Y-37600000D01*
X123635000Y-37600000D01*
X123635000Y-39750000D01*
X123135000Y-39750000D01*
X123135000Y-37600000D01*
X121237177Y-37600000D01*
X121237157Y-37600001D01*
X121177622Y-37606401D01*
X121042915Y-37656645D01*
X121042905Y-37656650D01*
X120927812Y-37742809D01*
X120927809Y-37742812D01*
X120841650Y-37857905D01*
X120841645Y-37857915D01*
X120791401Y-37992622D01*
X120785001Y-38052157D01*
X120785000Y-38052177D01*
X97112917Y-38052177D01*
X97100646Y-37974696D01*
X97043050Y-37861658D01*
X96953342Y-37771950D01*
X96896150Y-37742809D01*
X96840305Y-37714354D01*
X96824673Y-37711878D01*
X96746519Y-37699500D01*
X96746514Y-37699500D01*
X92483481Y-37699500D01*
X92389695Y-37714354D01*
X92389693Y-37714355D01*
X92276657Y-37771950D01*
X92186950Y-37861657D01*
X92129354Y-37974694D01*
X92129354Y-37974696D01*
X92114500Y-38068481D01*
X92114500Y-38068482D01*
X92114500Y-38068485D01*
X92114500Y-38950500D01*
X92094538Y-39025000D01*
X92040000Y-39079538D01*
X91965500Y-39099500D01*
X88161308Y-39099500D01*
X87987336Y-39134104D01*
X87987330Y-39134106D01*
X87905392Y-39168045D01*
X87905393Y-39168046D01*
X87823456Y-39201985D01*
X87735040Y-39261063D01*
X87735039Y-39261064D01*
X87675965Y-39300535D01*
X87675963Y-39300536D01*
X85400536Y-41575963D01*
X85400532Y-41575968D01*
X85395647Y-41583280D01*
X85337659Y-41634134D01*
X85271758Y-41649500D01*
X63315893Y-41649500D01*
X63184108Y-41649500D01*
X63056814Y-41683608D01*
X63056812Y-41683608D01*
X63056812Y-41683609D01*
X62942689Y-41749497D01*
X59942686Y-44749500D01*
X59942685Y-44749499D01*
X59849502Y-44842683D01*
X59849497Y-44842689D01*
X59787065Y-44950826D01*
X59783608Y-44956814D01*
X59767778Y-45015890D01*
X59749500Y-45084106D01*
X59749500Y-45084108D01*
X59749500Y-56084108D01*
X59749500Y-56215892D01*
X59783608Y-56343186D01*
X59783609Y-56343187D01*
X59849497Y-56457310D01*
X59849498Y-56457311D01*
X59849500Y-56457314D01*
X62299498Y-58907311D01*
X62299500Y-58907314D01*
X62392686Y-59000500D01*
X62392688Y-59000501D01*
X62392692Y-59000504D01*
X62468194Y-59044094D01*
X62490224Y-59056814D01*
X62505945Y-59065890D01*
X62505946Y-59065891D01*
X62506811Y-59066390D01*
X62506811Y-59066391D01*
X62506813Y-59066391D01*
X62506814Y-59066392D01*
X62634107Y-59100500D01*
X62634108Y-59100500D01*
X76419785Y-59100500D01*
X76494285Y-59120462D01*
X76544178Y-59170354D01*
X76544519Y-59170094D01*
X76546501Y-59172677D01*
X76548820Y-59174996D01*
X76550460Y-59177836D01*
X76646716Y-59303280D01*
X76646721Y-59303285D01*
X76663107Y-59315859D01*
X76710059Y-59377049D01*
X76720125Y-59453518D01*
X76690608Y-59524774D01*
X76677759Y-59539426D01*
X76317686Y-59899500D01*
X76317685Y-59899499D01*
X76224502Y-59992683D01*
X76224497Y-59992689D01*
X76178956Y-60071570D01*
X76158608Y-60106814D01*
X76151305Y-60134069D01*
X76124500Y-60234106D01*
X76123226Y-60243787D01*
X76119642Y-60243315D01*
X76104538Y-60299688D01*
X76066206Y-60343397D01*
X75996720Y-60396715D01*
X75996717Y-60396718D01*
X75900463Y-60522159D01*
X75839954Y-60668242D01*
X75824500Y-60785633D01*
X75824500Y-61414356D01*
X75839956Y-61531761D01*
X75900463Y-61677840D01*
X75935487Y-61723484D01*
X75965002Y-61794741D01*
X75954935Y-61871209D01*
X75922636Y-61919548D01*
X75471731Y-62370453D01*
X75471729Y-62370457D01*
X75399497Y-62442689D01*
X75333609Y-62556811D01*
X75333608Y-62556813D01*
X75333608Y-62556814D01*
X75332914Y-62559406D01*
X75324544Y-62590642D01*
X75285979Y-62657436D01*
X75271326Y-62670286D01*
X75171719Y-62746716D01*
X75171717Y-62746718D01*
X75075463Y-62872159D01*
X75014954Y-63018242D01*
X74999500Y-63135633D01*
X74999500Y-63764356D01*
X75014956Y-63881761D01*
X75075463Y-64027840D01*
X75075464Y-64027841D01*
X75171718Y-64153282D01*
X75241206Y-64206602D01*
X75288157Y-64267788D01*
X75299500Y-64324810D01*
X75299500Y-64790893D01*
X75307239Y-64819773D01*
X75333608Y-64918186D01*
X75333609Y-64918187D01*
X75399497Y-65032310D01*
X75399498Y-65032311D01*
X75399500Y-65032314D01*
X76025077Y-65657890D01*
X76605859Y-66238672D01*
X76644423Y-66305467D01*
X76649500Y-66344031D01*
X76649500Y-159580968D01*
X76629538Y-159655468D01*
X76605859Y-159686327D01*
X72161327Y-164130859D01*
X72094532Y-164169423D01*
X72055968Y-164174500D01*
X63015893Y-164174500D01*
X62884108Y-164174500D01*
X62756814Y-164208608D01*
X62756812Y-164208608D01*
X62756812Y-164208609D01*
X62642689Y-164274497D01*
X61917686Y-164999500D01*
X61917685Y-164999499D01*
X61824502Y-165092683D01*
X61824497Y-165092689D01*
X61776687Y-165175500D01*
X61758608Y-165206814D01*
X61742778Y-165265890D01*
X61724500Y-165334106D01*
X61724500Y-165334108D01*
X61724500Y-166209108D01*
X61724500Y-166340892D01*
X61758608Y-166468186D01*
X61776686Y-166499498D01*
X61824497Y-166582310D01*
X61824498Y-166582311D01*
X61824500Y-166582314D01*
X62449500Y-167207314D01*
X62449499Y-167207314D01*
X62542683Y-167300497D01*
X62542686Y-167300500D01*
X62542687Y-167300501D01*
X62542689Y-167300502D01*
X62656810Y-167366390D01*
X62656811Y-167366390D01*
X62656814Y-167366392D01*
X62784107Y-167400500D01*
X62784108Y-167400500D01*
X130230968Y-167400500D01*
X130305468Y-167420462D01*
X130336327Y-167444141D01*
X133080859Y-170188673D01*
X133119423Y-170255468D01*
X133124500Y-170294032D01*
X133124500Y-175684108D01*
X133124500Y-175815892D01*
X133158608Y-175943186D01*
X133181199Y-175982315D01*
X133224497Y-176057310D01*
X133224498Y-176057311D01*
X133224500Y-176057314D01*
X133891686Y-176724500D01*
X134468315Y-177301129D01*
X134506879Y-177367924D01*
X134506879Y-177445052D01*
X134468315Y-177511847D01*
X134401520Y-177550411D01*
X134363026Y-177555488D01*
X41218225Y-177599424D01*
X41152257Y-177584059D01*
X41109014Y-177562735D01*
X41092132Y-177552989D01*
X41088426Y-177550513D01*
X40912649Y-177433061D01*
X40897199Y-177421206D01*
X40734892Y-177278868D01*
X40721131Y-177265107D01*
X40578791Y-177102798D01*
X40566937Y-177087349D01*
X40474727Y-176949348D01*
X40447010Y-176907866D01*
X40437271Y-176890999D01*
X40415364Y-176846575D01*
X40400000Y-176780678D01*
X40400000Y-174923517D01*
X42223500Y-174923517D01*
X42223500Y-175076482D01*
X42253340Y-175226495D01*
X42311875Y-175367813D01*
X42340951Y-175411327D01*
X42396853Y-175494990D01*
X42505010Y-175603147D01*
X42555812Y-175637091D01*
X42632186Y-175688124D01*
X42664200Y-175701384D01*
X42773503Y-175746659D01*
X42923521Y-175776500D01*
X42923525Y-175776500D01*
X43076475Y-175776500D01*
X43076479Y-175776500D01*
X43226497Y-175746659D01*
X43367811Y-175688125D01*
X43367811Y-175688124D01*
X43367813Y-175688124D01*
X43438500Y-175640892D01*
X43494990Y-175603147D01*
X43603147Y-175494990D01*
X43686622Y-175370061D01*
X43688124Y-175367813D01*
X43697767Y-175344532D01*
X43746659Y-175226497D01*
X43776500Y-175076479D01*
X43776500Y-174923521D01*
X43746659Y-174773503D01*
X43702449Y-174666771D01*
X43688124Y-174632186D01*
X43605148Y-174508005D01*
X43603147Y-174505010D01*
X43494990Y-174396853D01*
X43469415Y-174379764D01*
X43367813Y-174311875D01*
X43236424Y-174257453D01*
X43226497Y-174253341D01*
X43226495Y-174253340D01*
X43226496Y-174253340D01*
X43076482Y-174223500D01*
X43076479Y-174223500D01*
X42923521Y-174223500D01*
X42923517Y-174223500D01*
X42773504Y-174253340D01*
X42632186Y-174311875D01*
X42505011Y-174396852D01*
X42505006Y-174396856D01*
X42396856Y-174505006D01*
X42396852Y-174505011D01*
X42311875Y-174632186D01*
X42253340Y-174773504D01*
X42223500Y-174923517D01*
X40400000Y-174923517D01*
X40400000Y-32923517D01*
X42223500Y-32923517D01*
X42223500Y-33076482D01*
X42253340Y-33226495D01*
X42311875Y-33367813D01*
X42379764Y-33469415D01*
X42396853Y-33494990D01*
X42505010Y-33603147D01*
X42555812Y-33637091D01*
X42632186Y-33688124D01*
X42664200Y-33701384D01*
X42773503Y-33746659D01*
X42923521Y-33776500D01*
X42923525Y-33776500D01*
X43076475Y-33776500D01*
X43076479Y-33776500D01*
X43226497Y-33746659D01*
X43367811Y-33688125D01*
X43367811Y-33688124D01*
X43367813Y-33688124D01*
X43393385Y-33671036D01*
X43494990Y-33603147D01*
X43603147Y-33494990D01*
X43688125Y-33367811D01*
X43746659Y-33226497D01*
X43776500Y-33076479D01*
X43776500Y-32923521D01*
X43776499Y-32923517D01*
X142223500Y-32923517D01*
X142223500Y-33076482D01*
X142253340Y-33226495D01*
X142311875Y-33367813D01*
X142379764Y-33469415D01*
X142396853Y-33494990D01*
X142505010Y-33603147D01*
X142555812Y-33637091D01*
X142632186Y-33688124D01*
X142664200Y-33701384D01*
X142773503Y-33746659D01*
X142923521Y-33776500D01*
X142923525Y-33776500D01*
X143076475Y-33776500D01*
X143076479Y-33776500D01*
X143226497Y-33746659D01*
X143367811Y-33688125D01*
X143367811Y-33688124D01*
X143367813Y-33688124D01*
X143393385Y-33671036D01*
X143494990Y-33603147D01*
X143603147Y-33494990D01*
X143688125Y-33367811D01*
X143746659Y-33226497D01*
X143776500Y-33076479D01*
X143776500Y-32923521D01*
X143746659Y-32773503D01*
X143688125Y-32632189D01*
X143688124Y-32632186D01*
X143637091Y-32555812D01*
X143603147Y-32505010D01*
X143494990Y-32396853D01*
X143469415Y-32379764D01*
X143367813Y-32311875D01*
X143258508Y-32266600D01*
X143226497Y-32253341D01*
X143226495Y-32253340D01*
X143226496Y-32253340D01*
X143076482Y-32223500D01*
X143076479Y-32223500D01*
X142923521Y-32223500D01*
X142923517Y-32223500D01*
X142773504Y-32253340D01*
X142632186Y-32311875D01*
X142505011Y-32396852D01*
X142505006Y-32396856D01*
X142396856Y-32505006D01*
X142396852Y-32505011D01*
X142311875Y-32632186D01*
X142253340Y-32773504D01*
X142223500Y-32923517D01*
X43776499Y-32923517D01*
X43746659Y-32773503D01*
X43688125Y-32632189D01*
X43688124Y-32632186D01*
X43637091Y-32555812D01*
X43603147Y-32505010D01*
X43494990Y-32396853D01*
X43469415Y-32379764D01*
X43367813Y-32311875D01*
X43258508Y-32266600D01*
X43226497Y-32253341D01*
X43226495Y-32253340D01*
X43226496Y-32253340D01*
X43076482Y-32223500D01*
X43076479Y-32223500D01*
X42923521Y-32223500D01*
X42923517Y-32223500D01*
X42773504Y-32253340D01*
X42632186Y-32311875D01*
X42505011Y-32396852D01*
X42505006Y-32396856D01*
X42396856Y-32505006D01*
X42396852Y-32505011D01*
X42311875Y-32632186D01*
X42253340Y-32773504D01*
X42223500Y-32923517D01*
X40400000Y-32923517D01*
X40400000Y-31219321D01*
X40415366Y-31153420D01*
X40415778Y-31152585D01*
X40437270Y-31109002D01*
X40447007Y-31092137D01*
X40566944Y-30912639D01*
X40578785Y-30897208D01*
X40721138Y-30734884D01*
X40734884Y-30721138D01*
X40897208Y-30578785D01*
X40912639Y-30566944D01*
X41092137Y-30447007D01*
X41108996Y-30437273D01*
X41152258Y-30415938D01*
X41218224Y-30400574D01*
X144866413Y-30449464D01*
G37*
%TD.AperFunction*%
%TA.AperFunction,Conductor*%
G36*
X135574000Y-174883166D02*
G01*
X135628538Y-174937704D01*
X135637158Y-174955185D01*
X135668386Y-175030577D01*
X135668388Y-175030581D01*
X135668390Y-175030585D01*
X135744537Y-175144547D01*
X135841453Y-175241463D01*
X135955415Y-175317610D01*
X136082043Y-175370061D01*
X136216470Y-175396800D01*
X136353530Y-175396800D01*
X136487957Y-175370061D01*
X136614585Y-175317610D01*
X136728547Y-175241463D01*
X136825463Y-175144547D01*
X136851782Y-175105156D01*
X136909766Y-175054306D01*
X136985412Y-175039258D01*
X137058448Y-175064049D01*
X137063250Y-175067396D01*
X137105688Y-175098229D01*
X137105689Y-175098230D01*
X137277305Y-175174638D01*
X137277311Y-175174640D01*
X137461067Y-175213700D01*
X137648933Y-175213700D01*
X137832688Y-175174640D01*
X137832694Y-175174638D01*
X138004310Y-175098230D01*
X138004312Y-175098229D01*
X138087919Y-175037485D01*
X138159925Y-175009844D01*
X138236103Y-175021909D01*
X138296043Y-175070447D01*
X138323684Y-175142453D01*
X138324500Y-175158028D01*
X138324500Y-175405968D01*
X138304538Y-175480468D01*
X138280859Y-175511327D01*
X137961327Y-175830859D01*
X137894532Y-175869423D01*
X137855968Y-175874500D01*
X135919032Y-175874500D01*
X135844532Y-175854538D01*
X135813673Y-175830859D01*
X135394141Y-175411327D01*
X135355577Y-175344532D01*
X135350500Y-175305968D01*
X135350500Y-175012204D01*
X135370462Y-174937704D01*
X135425000Y-174883166D01*
X135499500Y-174863204D01*
X135574000Y-174883166D01*
G37*
%TD.AperFunction*%
%TA.AperFunction,Conductor*%
G36*
X135574000Y-172851166D02*
G01*
X135628538Y-172905704D01*
X135637158Y-172923185D01*
X135668386Y-172998577D01*
X135668388Y-172998581D01*
X135668390Y-172998585D01*
X135744537Y-173112547D01*
X135841453Y-173209463D01*
X135955415Y-173285610D01*
X136082043Y-173338061D01*
X136216470Y-173364800D01*
X136353530Y-173364800D01*
X136487957Y-173338061D01*
X136546954Y-173313623D01*
X136621349Y-173282809D01*
X136621877Y-173284084D01*
X136689112Y-173268399D01*
X136762922Y-173290780D01*
X136815652Y-173347067D01*
X136824892Y-173368106D01*
X136834923Y-173396771D01*
X136930141Y-173548309D01*
X137056691Y-173674859D01*
X137208229Y-173770077D01*
X137377156Y-173829187D01*
X137377157Y-173829187D01*
X137377160Y-173829188D01*
X137385314Y-173831049D01*
X137384676Y-173833842D01*
X137442853Y-173856660D01*
X137459758Y-173871205D01*
X137511358Y-173922804D01*
X137549923Y-173989599D01*
X137555000Y-174028164D01*
X137555000Y-174313835D01*
X137535038Y-174388335D01*
X137480500Y-174442873D01*
X137406000Y-174462835D01*
X137331500Y-174442873D01*
X137300641Y-174419194D01*
X136771355Y-173889910D01*
X136734070Y-173954491D01*
X136734063Y-173954506D01*
X136732500Y-173959317D01*
X136690487Y-174023998D01*
X136621762Y-174059007D01*
X136544740Y-174054963D01*
X136533785Y-174050921D01*
X136487957Y-174031939D01*
X136487956Y-174031938D01*
X136487952Y-174031937D01*
X136353530Y-174005200D01*
X136216470Y-174005200D01*
X136082045Y-174031938D01*
X136082041Y-174031939D01*
X135955422Y-174084386D01*
X135955415Y-174084390D01*
X135889330Y-174128547D01*
X135841449Y-174160540D01*
X135744540Y-174257449D01*
X135744537Y-174257452D01*
X135744537Y-174257453D01*
X135701194Y-174322321D01*
X135668390Y-174371415D01*
X135668387Y-174371419D01*
X135637158Y-174446815D01*
X135590205Y-174508005D01*
X135518948Y-174537520D01*
X135442480Y-174527453D01*
X135381290Y-174480500D01*
X135351775Y-174409243D01*
X135350500Y-174389795D01*
X135350500Y-172980204D01*
X135370462Y-172905704D01*
X135425000Y-172851166D01*
X135499500Y-172831204D01*
X135574000Y-172851166D01*
G37*
%TD.AperFunction*%
%TA.AperFunction,Conductor*%
G36*
X135494860Y-168759854D02*
G01*
X135525719Y-168783533D01*
X138280860Y-171538674D01*
X138319423Y-171605467D01*
X138324500Y-171644031D01*
X138324500Y-172336614D01*
X138304538Y-172411114D01*
X138250000Y-172465652D01*
X138175500Y-172485614D01*
X138101000Y-172465652D01*
X138070141Y-172441973D01*
X138053310Y-172425142D01*
X138053309Y-172425141D01*
X137901771Y-172329923D01*
X137732844Y-172270813D01*
X137732843Y-172270812D01*
X137732842Y-172270812D01*
X137555001Y-172250775D01*
X137554999Y-172250775D01*
X137377158Y-172270812D01*
X137208225Y-172329924D01*
X137110234Y-172391496D01*
X137036533Y-172414230D01*
X136961339Y-172397067D01*
X136905728Y-172345467D01*
X136905677Y-172345502D01*
X136905532Y-172345285D01*
X136904800Y-172344606D01*
X136902961Y-172341437D01*
X136895268Y-172329924D01*
X136825463Y-172225453D01*
X136728547Y-172128537D01*
X136614585Y-172052390D01*
X136614581Y-172052388D01*
X136614577Y-172052386D01*
X136487958Y-171999939D01*
X136487954Y-171999938D01*
X136353530Y-171973200D01*
X136216470Y-171973200D01*
X136082045Y-171999938D01*
X136082041Y-171999939D01*
X135955422Y-172052386D01*
X135955415Y-172052390D01*
X135841449Y-172128540D01*
X135744540Y-172225449D01*
X135744537Y-172225452D01*
X135744537Y-172225453D01*
X135674732Y-172329923D01*
X135668390Y-172339415D01*
X135668387Y-172339419D01*
X135637158Y-172414815D01*
X135590205Y-172476005D01*
X135518948Y-172505520D01*
X135442480Y-172495453D01*
X135381290Y-172448500D01*
X135351775Y-172377243D01*
X135350500Y-172357795D01*
X135350500Y-169134108D01*
X135350499Y-169134106D01*
X135316392Y-169006814D01*
X135291321Y-168963391D01*
X135271360Y-168888892D01*
X135291322Y-168814392D01*
X135345860Y-168759854D01*
X135420360Y-168739892D01*
X135494860Y-168759854D01*
G37*
%TD.AperFunction*%
%TA.AperFunction,Conductor*%
G36*
X80241822Y-54514176D02*
G01*
X80322886Y-54544412D01*
X80379515Y-54550500D01*
X80881968Y-54550499D01*
X80956467Y-54570461D01*
X81011005Y-54624999D01*
X81030967Y-54699499D01*
X81011005Y-54773999D01*
X80987329Y-54804855D01*
X80971732Y-54820453D01*
X80971729Y-54820457D01*
X80899497Y-54892689D01*
X80833609Y-55006812D01*
X80833608Y-55006814D01*
X80828817Y-55024694D01*
X80799500Y-55134106D01*
X80799500Y-55134108D01*
X80799500Y-115584108D01*
X80799500Y-115715892D01*
X80833608Y-115843186D01*
X80833609Y-115843187D01*
X80899497Y-115957310D01*
X80899498Y-115957311D01*
X80899500Y-115957314D01*
X124473155Y-159530968D01*
X134305859Y-169363672D01*
X134344423Y-169430467D01*
X134349500Y-169469031D01*
X134349500Y-169722794D01*
X134329538Y-169797294D01*
X134275000Y-169851832D01*
X134200500Y-169871794D01*
X134126000Y-169851832D01*
X134071462Y-169797294D01*
X134025502Y-169717689D01*
X134025497Y-169717683D01*
X133932314Y-169624499D01*
X133932314Y-169624500D01*
X130807314Y-166499500D01*
X130807311Y-166499498D01*
X130807310Y-166499497D01*
X130736514Y-166458623D01*
X130693186Y-166433608D01*
X130565892Y-166399500D01*
X122436749Y-166399500D01*
X122362249Y-166379538D01*
X122307711Y-166325000D01*
X122287749Y-166250500D01*
X122307711Y-166176000D01*
X122314125Y-166165858D01*
X122328425Y-166145141D01*
X122374818Y-166077930D01*
X122435140Y-165918872D01*
X122455645Y-165750000D01*
X122435140Y-165581128D01*
X122374818Y-165422070D01*
X122278183Y-165282071D01*
X122278180Y-165282068D01*
X122278179Y-165282067D01*
X122150853Y-165169267D01*
X122150854Y-165169267D01*
X122000224Y-165090209D01*
X121835056Y-165049500D01*
X121664944Y-165049500D01*
X121499775Y-165090209D01*
X121349145Y-165169267D01*
X121300879Y-165212028D01*
X121231878Y-165246489D01*
X121202074Y-165249500D01*
X91894031Y-165249500D01*
X91819531Y-165229538D01*
X91788672Y-165205859D01*
X91290127Y-164707314D01*
X90582314Y-163999500D01*
X90582311Y-163999498D01*
X90582310Y-163999497D01*
X90511514Y-163958623D01*
X90468186Y-163933608D01*
X90340892Y-163899500D01*
X84444032Y-163899500D01*
X84369532Y-163879538D01*
X84338673Y-163855859D01*
X80119141Y-159636327D01*
X80080577Y-159569532D01*
X80075500Y-159530968D01*
X80075500Y-59184108D01*
X80075499Y-59184106D01*
X80041392Y-59056814D01*
X79975500Y-58942686D01*
X79940125Y-58907311D01*
X79882314Y-58849499D01*
X79882314Y-58849500D01*
X79769140Y-58736326D01*
X79730576Y-58669531D01*
X79725499Y-58630967D01*
X79725499Y-58285643D01*
X79725499Y-58285640D01*
X79710044Y-58168238D01*
X79649536Y-58022159D01*
X79553282Y-57896718D01*
X79553281Y-57896717D01*
X79553279Y-57896715D01*
X79483794Y-57843397D01*
X79436842Y-57782207D01*
X79425500Y-57725188D01*
X79425500Y-55269032D01*
X79445462Y-55194532D01*
X79469141Y-55163673D01*
X79740128Y-54892686D01*
X80084393Y-54548420D01*
X80151186Y-54509858D01*
X80228314Y-54509858D01*
X80241822Y-54514176D01*
G37*
%TD.AperFunction*%
%TA.AperFunction,Conductor*%
G36*
X85125000Y-42670462D02*
G01*
X85179538Y-42725000D01*
X85199500Y-42799500D01*
X85199500Y-43362852D01*
X85179538Y-43437352D01*
X85146447Y-43470442D01*
X85147859Y-43471970D01*
X85100000Y-43516210D01*
X85100000Y-44396000D01*
X85080038Y-44470500D01*
X85025500Y-44525038D01*
X84951000Y-44545000D01*
X83045495Y-44545000D01*
X83064068Y-44608931D01*
X83065683Y-44686042D01*
X83028526Y-44753630D01*
X82962553Y-44793584D01*
X82920984Y-44799500D01*
X81319032Y-44799500D01*
X81244532Y-44779538D01*
X81213673Y-44755859D01*
X81094140Y-44636326D01*
X81055576Y-44569531D01*
X81050499Y-44530967D01*
X81050499Y-44044999D01*
X83045494Y-44044999D01*
X83045495Y-44045000D01*
X83600000Y-44045000D01*
X83600000Y-43516210D01*
X83599999Y-43516209D01*
X84100000Y-43516209D01*
X84100000Y-44045000D01*
X84600000Y-44045000D01*
X84600000Y-43516210D01*
X84599999Y-43516209D01*
X84579082Y-43517856D01*
X84579080Y-43517856D01*
X84423805Y-43562967D01*
X84415201Y-43566691D01*
X84414445Y-43564944D01*
X84351554Y-43582501D01*
X84285318Y-43565491D01*
X84284799Y-43566691D01*
X84277223Y-43563413D01*
X84276850Y-43563317D01*
X84276394Y-43563054D01*
X84276194Y-43562967D01*
X84120918Y-43517856D01*
X84100000Y-43516209D01*
X83599999Y-43516209D01*
X83579082Y-43517855D01*
X83423806Y-43562968D01*
X83423805Y-43562968D01*
X83284625Y-43645279D01*
X83284623Y-43645280D01*
X83170280Y-43759623D01*
X83170279Y-43759625D01*
X83087966Y-43898809D01*
X83045494Y-44044999D01*
X81050499Y-44044999D01*
X81050499Y-43868481D01*
X81045137Y-43834623D01*
X81035646Y-43774696D01*
X80978050Y-43661658D01*
X80888342Y-43571950D01*
X80870712Y-43562967D01*
X80775305Y-43514354D01*
X80759673Y-43511878D01*
X80681519Y-43499500D01*
X80681514Y-43499500D01*
X78818481Y-43499500D01*
X78724695Y-43514354D01*
X78724693Y-43514355D01*
X78611657Y-43571950D01*
X78521950Y-43661657D01*
X78521949Y-43661659D01*
X78489409Y-43725521D01*
X78437800Y-43782838D01*
X78364446Y-43806671D01*
X78289004Y-43790634D01*
X78266620Y-43776600D01*
X78264105Y-43774693D01*
X78237395Y-43754438D01*
X78237394Y-43754437D01*
X78099179Y-43699931D01*
X78099171Y-43699929D01*
X78012323Y-43689500D01*
X78012320Y-43689500D01*
X77647680Y-43689500D01*
X77647676Y-43689500D01*
X77560826Y-43699929D01*
X77514704Y-43718117D01*
X77438075Y-43726875D01*
X77384199Y-43707755D01*
X77266195Y-43637968D01*
X77120000Y-43595494D01*
X77120000Y-45204505D01*
X77266190Y-45162033D01*
X77266193Y-45162032D01*
X77384198Y-45092244D01*
X77458485Y-45071502D01*
X77514706Y-45081882D01*
X77560826Y-45100070D01*
X77647680Y-45110500D01*
X77647681Y-45110500D01*
X78012319Y-45110500D01*
X78012320Y-45110500D01*
X78099174Y-45100070D01*
X78237395Y-45045562D01*
X78266620Y-45023400D01*
X78338042Y-44994291D01*
X78414451Y-45004792D01*
X78475373Y-45052092D01*
X78489409Y-45074478D01*
X78521949Y-45138341D01*
X78521950Y-45138342D01*
X78611658Y-45228050D01*
X78724696Y-45285646D01*
X78818481Y-45300500D01*
X80280967Y-45300499D01*
X80355467Y-45320461D01*
X80386326Y-45344140D01*
X80580576Y-45538390D01*
X80619140Y-45605185D01*
X80619140Y-45682313D01*
X80580576Y-45749108D01*
X80373826Y-45955859D01*
X80307031Y-45994423D01*
X80268467Y-45999500D01*
X78818481Y-45999500D01*
X78724695Y-46014354D01*
X78724693Y-46014355D01*
X78611657Y-46071950D01*
X78521950Y-46161657D01*
X78521949Y-46161659D01*
X78489409Y-46225521D01*
X78437800Y-46282838D01*
X78364446Y-46306671D01*
X78289004Y-46290634D01*
X78266620Y-46276600D01*
X78237394Y-46254437D01*
X78099179Y-46199931D01*
X78099171Y-46199929D01*
X78012323Y-46189500D01*
X78012320Y-46189500D01*
X77647680Y-46189500D01*
X77647676Y-46189500D01*
X77560826Y-46199929D01*
X77514704Y-46218117D01*
X77438075Y-46226875D01*
X77384199Y-46207755D01*
X77266195Y-46137968D01*
X77120000Y-46095494D01*
X77120000Y-47704505D01*
X77266190Y-47662033D01*
X77266193Y-47662032D01*
X77384198Y-47592244D01*
X77458485Y-47571502D01*
X77514706Y-47581882D01*
X77560826Y-47600070D01*
X77647680Y-47610500D01*
X77647681Y-47610500D01*
X78012319Y-47610500D01*
X78012320Y-47610500D01*
X78099174Y-47600070D01*
X78237395Y-47545562D01*
X78266620Y-47523400D01*
X78338042Y-47494291D01*
X78414451Y-47504792D01*
X78475373Y-47552092D01*
X78489409Y-47574478D01*
X78521949Y-47638341D01*
X78521950Y-47638342D01*
X78611658Y-47728050D01*
X78724696Y-47785646D01*
X78818481Y-47800500D01*
X80018108Y-47800499D01*
X80092607Y-47820461D01*
X80147145Y-47874999D01*
X80167107Y-47949499D01*
X80147145Y-48023999D01*
X80107400Y-48068779D01*
X80085315Y-48085311D01*
X80085313Y-48085313D01*
X80003373Y-48194772D01*
X80003371Y-48194776D01*
X79955587Y-48322886D01*
X79949501Y-48379500D01*
X79949500Y-48379521D01*
X79949500Y-48620478D01*
X79951396Y-48638117D01*
X79955588Y-48677114D01*
X79955589Y-48677116D01*
X79963352Y-48697930D01*
X79970683Y-48774709D01*
X79963352Y-48802067D01*
X79955589Y-48822879D01*
X79955587Y-48822889D01*
X79949501Y-48879500D01*
X79949500Y-48879521D01*
X79949500Y-49120478D01*
X79951396Y-49138117D01*
X79955588Y-49177114D01*
X79955589Y-49177116D01*
X79963352Y-49197930D01*
X79970683Y-49274709D01*
X79963352Y-49302067D01*
X79955589Y-49322879D01*
X79955587Y-49322889D01*
X79950907Y-49366426D01*
X79923096Y-49438366D01*
X79863042Y-49486762D01*
X79802761Y-49499500D01*
X70769032Y-49499500D01*
X70694532Y-49479538D01*
X70663673Y-49455859D01*
X69044141Y-47836327D01*
X69005577Y-47769532D01*
X69000500Y-47730968D01*
X69000500Y-47150000D01*
X76091210Y-47150000D01*
X76092854Y-47170909D01*
X76092855Y-47170914D01*
X76137967Y-47326191D01*
X76137968Y-47326194D01*
X76220279Y-47465374D01*
X76220280Y-47465376D01*
X76334623Y-47579719D01*
X76334625Y-47579720D01*
X76473809Y-47662033D01*
X76619999Y-47704505D01*
X76620000Y-47704505D01*
X76620000Y-47150000D01*
X76091210Y-47150000D01*
X69000500Y-47150000D01*
X69000500Y-46649999D01*
X76091209Y-46649999D01*
X76091210Y-46650000D01*
X76620000Y-46650000D01*
X76620000Y-46095494D01*
X76473804Y-46137968D01*
X76334625Y-46220278D01*
X76220280Y-46334623D01*
X76220279Y-46334625D01*
X76137968Y-46473805D01*
X76137968Y-46473806D01*
X76092855Y-46629082D01*
X76091209Y-46649999D01*
X69000500Y-46649999D01*
X69000500Y-46399499D01*
X69020462Y-46324999D01*
X69075000Y-46270461D01*
X69149500Y-46250499D01*
X71031519Y-46250499D01*
X71044341Y-46248468D01*
X71125304Y-46235646D01*
X71238342Y-46178050D01*
X71328050Y-46088342D01*
X71385646Y-45975304D01*
X71400500Y-45881519D01*
X71400499Y-44650000D01*
X76091210Y-44650000D01*
X76092854Y-44670909D01*
X76092855Y-44670914D01*
X76137967Y-44826191D01*
X76137968Y-44826194D01*
X76220279Y-44965374D01*
X76220280Y-44965376D01*
X76334623Y-45079719D01*
X76334625Y-45079720D01*
X76473809Y-45162033D01*
X76619999Y-45204505D01*
X76620000Y-45204505D01*
X76620000Y-44650000D01*
X76091210Y-44650000D01*
X71400499Y-44650000D01*
X71400499Y-44318482D01*
X71385646Y-44224696D01*
X71347586Y-44149999D01*
X76091209Y-44149999D01*
X76091210Y-44150000D01*
X76620000Y-44150000D01*
X76620000Y-43595494D01*
X76473804Y-43637968D01*
X76334625Y-43720278D01*
X76220280Y-43834623D01*
X76220279Y-43834625D01*
X76137968Y-43973805D01*
X76137968Y-43973806D01*
X76092855Y-44129082D01*
X76091209Y-44149999D01*
X71347586Y-44149999D01*
X71328050Y-44111658D01*
X71238342Y-44021950D01*
X71143853Y-43973805D01*
X71125305Y-43964354D01*
X71109673Y-43961878D01*
X71031519Y-43949500D01*
X71031514Y-43949500D01*
X65968481Y-43949500D01*
X65874695Y-43964354D01*
X65874693Y-43964355D01*
X65761657Y-44021950D01*
X65671950Y-44111657D01*
X65614354Y-44224694D01*
X65610373Y-44249830D01*
X65599500Y-44318481D01*
X65599500Y-44318482D01*
X65599500Y-44318485D01*
X65599500Y-45881518D01*
X65611274Y-45955859D01*
X65614354Y-45975304D01*
X65671950Y-46088342D01*
X65761658Y-46178050D01*
X65874696Y-46235646D01*
X65968481Y-46250500D01*
X67850500Y-46250499D01*
X67925000Y-46270461D01*
X67979538Y-46324999D01*
X67999500Y-46399499D01*
X67999500Y-48065893D01*
X68001214Y-48072289D01*
X68033608Y-48193186D01*
X68053000Y-48226774D01*
X68099497Y-48307310D01*
X68099498Y-48307311D01*
X68099500Y-48307314D01*
X70192686Y-50400500D01*
X70192688Y-50400501D01*
X70192689Y-50400502D01*
X70306810Y-50466390D01*
X70306811Y-50466390D01*
X70306814Y-50466392D01*
X70434107Y-50500500D01*
X70434108Y-50500500D01*
X79802762Y-50500500D01*
X79877262Y-50520462D01*
X79931800Y-50575000D01*
X79950907Y-50633572D01*
X79955588Y-50677114D01*
X79955589Y-50677116D01*
X79963352Y-50697930D01*
X79970683Y-50774709D01*
X79963352Y-50802067D01*
X79955589Y-50822879D01*
X79955587Y-50822889D01*
X79950907Y-50866426D01*
X79923096Y-50938366D01*
X79863042Y-50986762D01*
X79802761Y-50999500D01*
X70434107Y-50999500D01*
X70306810Y-51033609D01*
X70192689Y-51099497D01*
X68192686Y-53099500D01*
X68192685Y-53099499D01*
X68099502Y-53192683D01*
X68099497Y-53192689D01*
X68033609Y-53306812D01*
X68033608Y-53306814D01*
X68029302Y-53322886D01*
X67999500Y-53434106D01*
X67999500Y-54600500D01*
X67979538Y-54675000D01*
X67925000Y-54729538D01*
X67850500Y-54749500D01*
X65968481Y-54749500D01*
X65874695Y-54764354D01*
X65874693Y-54764355D01*
X65761657Y-54821950D01*
X65671950Y-54911657D01*
X65614354Y-55024694D01*
X65614354Y-55024696D01*
X65599500Y-55118481D01*
X65599500Y-55118482D01*
X65599500Y-55118485D01*
X65599500Y-56681518D01*
X65614354Y-56775304D01*
X65671950Y-56888342D01*
X65761658Y-56978050D01*
X65874696Y-57035646D01*
X65968481Y-57050500D01*
X71031518Y-57050499D01*
X71125304Y-57035646D01*
X71238342Y-56978050D01*
X71328050Y-56888342D01*
X71385646Y-56775304D01*
X71400500Y-56681519D01*
X71400499Y-55118482D01*
X71385646Y-55024696D01*
X71328050Y-54911658D01*
X71238342Y-54821950D01*
X71208632Y-54806812D01*
X71125305Y-54764354D01*
X71109673Y-54761878D01*
X71031519Y-54749500D01*
X71031514Y-54749500D01*
X69149500Y-54749500D01*
X69075000Y-54729538D01*
X69020462Y-54675000D01*
X69000500Y-54600500D01*
X69000500Y-53769032D01*
X69020462Y-53694532D01*
X69044141Y-53663673D01*
X70663673Y-52044141D01*
X70730468Y-52005577D01*
X70769032Y-52000500D01*
X79802762Y-52000500D01*
X79877262Y-52020462D01*
X79931800Y-52075000D01*
X79950907Y-52133572D01*
X79955588Y-52177114D01*
X79959672Y-52188064D01*
X79963352Y-52197930D01*
X79970683Y-52274709D01*
X79963352Y-52302067D01*
X79955589Y-52322879D01*
X79955587Y-52322889D01*
X79950907Y-52366426D01*
X79923096Y-52438366D01*
X79863042Y-52486762D01*
X79802761Y-52499500D01*
X79240892Y-52499500D01*
X79109108Y-52499500D01*
X78981814Y-52533608D01*
X78981812Y-52533608D01*
X78981812Y-52533609D01*
X78867689Y-52599497D01*
X77617686Y-53849500D01*
X77617685Y-53849499D01*
X77524502Y-53942683D01*
X77524497Y-53942689D01*
X77458609Y-54056812D01*
X77424500Y-54184106D01*
X77424500Y-57575500D01*
X77404538Y-57650000D01*
X77350000Y-57704538D01*
X77275501Y-57724500D01*
X77035643Y-57724500D01*
X76918238Y-57739956D01*
X76772159Y-57800463D01*
X76646718Y-57896717D01*
X76646716Y-57896719D01*
X76550460Y-58022163D01*
X76548820Y-58025004D01*
X76546501Y-58027322D01*
X76544519Y-58029906D01*
X76544178Y-58029644D01*
X76494281Y-58079540D01*
X76419785Y-58099500D01*
X62969031Y-58099500D01*
X62894531Y-58079538D01*
X62863672Y-58055859D01*
X60794141Y-55986327D01*
X60755577Y-55919532D01*
X60750500Y-55880968D01*
X60750500Y-45419032D01*
X60770462Y-45344532D01*
X60794141Y-45313673D01*
X63413673Y-42694141D01*
X63480468Y-42655577D01*
X63519032Y-42650500D01*
X85050500Y-42650500D01*
X85125000Y-42670462D01*
G37*
%TD.AperFunction*%
%TA.AperFunction,Conductor*%
G36*
X87802072Y-48211649D02*
G01*
X87822880Y-48219410D01*
X87822881Y-48219410D01*
X87822886Y-48219412D01*
X87879515Y-48225500D01*
X88120484Y-48225499D01*
X88124473Y-48225499D01*
X88124473Y-48227135D01*
X88192935Y-48241544D01*
X88250356Y-48293037D01*
X88274338Y-48366342D01*
X88274342Y-48375524D01*
X88274500Y-48375524D01*
X88274500Y-48620478D01*
X88276396Y-48638117D01*
X88280588Y-48677114D01*
X88280589Y-48677116D01*
X88288352Y-48697930D01*
X88295683Y-48774709D01*
X88288352Y-48802067D01*
X88280589Y-48822879D01*
X88280587Y-48822889D01*
X88274501Y-48879500D01*
X88274500Y-48879521D01*
X88274500Y-49120478D01*
X88276396Y-49138117D01*
X88280588Y-49177114D01*
X88280589Y-49177116D01*
X88288352Y-49197930D01*
X88295683Y-49274709D01*
X88288352Y-49302067D01*
X88280589Y-49322879D01*
X88280587Y-49322889D01*
X88274501Y-49379500D01*
X88274500Y-49379521D01*
X88274500Y-49620478D01*
X88276396Y-49638117D01*
X88280588Y-49677114D01*
X88280589Y-49677116D01*
X88288352Y-49697930D01*
X88295683Y-49774709D01*
X88288352Y-49802067D01*
X88280589Y-49822879D01*
X88280587Y-49822889D01*
X88274501Y-49879500D01*
X88274500Y-49879521D01*
X88274500Y-50120478D01*
X88274501Y-50120484D01*
X88280588Y-50177114D01*
X88280589Y-50177116D01*
X88288352Y-50197930D01*
X88295683Y-50274709D01*
X88288352Y-50302067D01*
X88280589Y-50322879D01*
X88280587Y-50322889D01*
X88274501Y-50379500D01*
X88274500Y-50379521D01*
X88274500Y-50620478D01*
X88274501Y-50620484D01*
X88280588Y-50677114D01*
X88280589Y-50677116D01*
X88288352Y-50697930D01*
X88295683Y-50774709D01*
X88288352Y-50802067D01*
X88280589Y-50822879D01*
X88280587Y-50822889D01*
X88274501Y-50879500D01*
X88274500Y-50879521D01*
X88274500Y-51120478D01*
X88274501Y-51120484D01*
X88280588Y-51177114D01*
X88280589Y-51177116D01*
X88288352Y-51197930D01*
X88295683Y-51274709D01*
X88288352Y-51302067D01*
X88280589Y-51322879D01*
X88280587Y-51322889D01*
X88274501Y-51379500D01*
X88274500Y-51379521D01*
X88274500Y-51620478D01*
X88274501Y-51620484D01*
X88280588Y-51677114D01*
X88280589Y-51677116D01*
X88288352Y-51697930D01*
X88295683Y-51774709D01*
X88288352Y-51802067D01*
X88280589Y-51822879D01*
X88280587Y-51822889D01*
X88274501Y-51879500D01*
X88274500Y-51879521D01*
X88274500Y-52120478D01*
X88274501Y-52120484D01*
X88280588Y-52177114D01*
X88284672Y-52188064D01*
X88288352Y-52197930D01*
X88295683Y-52274709D01*
X88288352Y-52302067D01*
X88280589Y-52322879D01*
X88280587Y-52322889D01*
X88274501Y-52379500D01*
X88274500Y-52379521D01*
X88274500Y-52620478D01*
X88274501Y-52620484D01*
X88280588Y-52677114D01*
X88280589Y-52677116D01*
X88288352Y-52697930D01*
X88295683Y-52774709D01*
X88288352Y-52802067D01*
X88280589Y-52822879D01*
X88280587Y-52822889D01*
X88274501Y-52879500D01*
X88274500Y-52879521D01*
X88274500Y-53120478D01*
X88274501Y-53120484D01*
X88280588Y-53177114D01*
X88280589Y-53177116D01*
X88288352Y-53197930D01*
X88295683Y-53274709D01*
X88288352Y-53302067D01*
X88280589Y-53322879D01*
X88280587Y-53322889D01*
X88274501Y-53379500D01*
X88274500Y-53379521D01*
X88274500Y-53620478D01*
X88274501Y-53620484D01*
X88280588Y-53677114D01*
X88280589Y-53677116D01*
X88288352Y-53697930D01*
X88295683Y-53774709D01*
X88288352Y-53802067D01*
X88280589Y-53822879D01*
X88280587Y-53822889D01*
X88274501Y-53879500D01*
X88274500Y-53879521D01*
X88274501Y-54124473D01*
X88272892Y-54124473D01*
X88258393Y-54193057D01*
X88206847Y-54250431D01*
X88133520Y-54274345D01*
X88124476Y-54274345D01*
X88124476Y-54274500D01*
X87879521Y-54274500D01*
X87851201Y-54277544D01*
X87822886Y-54280588D01*
X87822884Y-54280588D01*
X87822881Y-54280589D01*
X87802068Y-54288352D01*
X87725289Y-54295683D01*
X87697931Y-54288352D01*
X87677116Y-54280588D01*
X87677110Y-54280587D01*
X87620499Y-54274501D01*
X87620490Y-54274500D01*
X87620485Y-54274500D01*
X87620478Y-54274500D01*
X87379521Y-54274500D01*
X87351201Y-54277544D01*
X87322886Y-54280588D01*
X87322884Y-54280588D01*
X87322881Y-54280589D01*
X87302068Y-54288352D01*
X87225289Y-54295683D01*
X87197931Y-54288352D01*
X87177116Y-54280588D01*
X87177110Y-54280587D01*
X87120499Y-54274501D01*
X87120490Y-54274500D01*
X87120485Y-54274500D01*
X87120478Y-54274500D01*
X86879521Y-54274500D01*
X86851201Y-54277544D01*
X86822886Y-54280588D01*
X86822884Y-54280588D01*
X86822881Y-54280589D01*
X86802068Y-54288352D01*
X86725289Y-54295683D01*
X86697931Y-54288352D01*
X86677116Y-54280588D01*
X86677110Y-54280587D01*
X86620499Y-54274501D01*
X86620490Y-54274500D01*
X86620485Y-54274500D01*
X86620478Y-54274500D01*
X86379521Y-54274500D01*
X86351201Y-54277544D01*
X86322886Y-54280588D01*
X86322884Y-54280588D01*
X86322881Y-54280589D01*
X86302068Y-54288352D01*
X86225289Y-54295683D01*
X86197931Y-54288352D01*
X86177116Y-54280588D01*
X86177110Y-54280587D01*
X86120499Y-54274501D01*
X86120490Y-54274500D01*
X86120485Y-54274500D01*
X86120478Y-54274500D01*
X85879521Y-54274500D01*
X85851201Y-54277544D01*
X85822886Y-54280588D01*
X85822884Y-54280588D01*
X85822881Y-54280589D01*
X85802068Y-54288352D01*
X85725289Y-54295683D01*
X85697931Y-54288352D01*
X85677116Y-54280588D01*
X85677110Y-54280587D01*
X85620499Y-54274501D01*
X85620490Y-54274500D01*
X85620485Y-54274500D01*
X85620478Y-54274500D01*
X85379521Y-54274500D01*
X85351201Y-54277544D01*
X85322886Y-54280588D01*
X85322884Y-54280588D01*
X85322881Y-54280589D01*
X85302068Y-54288352D01*
X85225289Y-54295683D01*
X85197931Y-54288352D01*
X85177116Y-54280588D01*
X85177110Y-54280587D01*
X85120499Y-54274501D01*
X85120490Y-54274500D01*
X85120485Y-54274500D01*
X85120478Y-54274500D01*
X84879521Y-54274500D01*
X84851201Y-54277544D01*
X84822886Y-54280588D01*
X84822884Y-54280588D01*
X84822881Y-54280589D01*
X84802068Y-54288352D01*
X84725289Y-54295683D01*
X84697931Y-54288352D01*
X84677116Y-54280588D01*
X84677110Y-54280587D01*
X84620499Y-54274501D01*
X84620490Y-54274500D01*
X84620485Y-54274500D01*
X84620478Y-54274500D01*
X84379521Y-54274500D01*
X84351201Y-54277544D01*
X84322886Y-54280588D01*
X84322884Y-54280588D01*
X84322881Y-54280589D01*
X84302068Y-54288352D01*
X84225289Y-54295683D01*
X84197931Y-54288352D01*
X84177116Y-54280588D01*
X84177110Y-54280587D01*
X84120499Y-54274501D01*
X84120490Y-54274500D01*
X84120485Y-54274500D01*
X84120478Y-54274500D01*
X83879521Y-54274500D01*
X83851201Y-54277544D01*
X83822886Y-54280588D01*
X83822884Y-54280588D01*
X83822881Y-54280589D01*
X83802068Y-54288352D01*
X83725289Y-54295683D01*
X83697931Y-54288352D01*
X83677116Y-54280588D01*
X83677110Y-54280587D01*
X83620499Y-54274501D01*
X83620490Y-54274500D01*
X83620485Y-54274500D01*
X83620478Y-54274500D01*
X83379521Y-54274500D01*
X83336045Y-54279173D01*
X83322886Y-54280588D01*
X83322885Y-54280588D01*
X83322878Y-54280589D01*
X83315448Y-54282345D01*
X83238354Y-54280045D01*
X83172739Y-54239506D01*
X83136184Y-54171591D01*
X83138484Y-54094497D01*
X83175832Y-54031979D01*
X87295045Y-49912766D01*
X87295055Y-49912759D01*
X87341390Y-49866424D01*
X87400500Y-49807314D01*
X87466392Y-49693186D01*
X87500500Y-49565892D01*
X87500500Y-48372238D01*
X87520462Y-48297738D01*
X87575000Y-48243200D01*
X87633572Y-48224092D01*
X87677114Y-48219412D01*
X87697927Y-48211648D01*
X87774703Y-48204315D01*
X87802072Y-48211649D01*
G37*
%TD.AperFunction*%
%TA.AperFunction,Conductor*%
G36*
X85558618Y-48074961D02*
G01*
X85589320Y-48092687D01*
X85590324Y-48093438D01*
X85637985Y-48154077D01*
X85650000Y-48212695D01*
X85650000Y-48320087D01*
X85725101Y-48310201D01*
X85725107Y-48310199D01*
X85864974Y-48252265D01*
X85873435Y-48247380D01*
X85874941Y-48249989D01*
X85930990Y-48226774D01*
X85950427Y-48225499D01*
X86120484Y-48225499D01*
X86177114Y-48219412D01*
X86197927Y-48211648D01*
X86274703Y-48204315D01*
X86302072Y-48211649D01*
X86322880Y-48219410D01*
X86322881Y-48219410D01*
X86322886Y-48219412D01*
X86348125Y-48222125D01*
X86366426Y-48224093D01*
X86438365Y-48251903D01*
X86486761Y-48311958D01*
X86499500Y-48372239D01*
X86499500Y-49230968D01*
X86479538Y-49305468D01*
X86455859Y-49336327D01*
X83504859Y-52287327D01*
X83438064Y-52325891D01*
X83360936Y-52325891D01*
X83294141Y-52287327D01*
X83255577Y-52220532D01*
X83250500Y-52181968D01*
X83250500Y-51034111D01*
X83250499Y-51034104D01*
X83242266Y-51003380D01*
X83242264Y-51003372D01*
X83216392Y-50906814D01*
X83150500Y-50792686D01*
X82457314Y-50099500D01*
X82457311Y-50099498D01*
X82457310Y-50099497D01*
X82395151Y-50063610D01*
X82343186Y-50033608D01*
X82335931Y-50031664D01*
X82269137Y-49993098D01*
X82230575Y-49926302D01*
X82225499Y-49887742D01*
X82225499Y-49879519D01*
X82225497Y-49879500D01*
X82219412Y-49822886D01*
X82215176Y-49811530D01*
X82211649Y-49802073D01*
X82204315Y-49725295D01*
X82211648Y-49697930D01*
X82219412Y-49677114D01*
X82225500Y-49620485D01*
X82225499Y-49379516D01*
X82219412Y-49322886D01*
X82211649Y-49302073D01*
X82204315Y-49225295D01*
X82211648Y-49197930D01*
X82219412Y-49177114D01*
X82225500Y-49120485D01*
X82225499Y-48879516D01*
X82219412Y-48822886D01*
X82211649Y-48802073D01*
X82204315Y-48725295D01*
X82211648Y-48697930D01*
X82219412Y-48677114D01*
X82225500Y-48620485D01*
X82225499Y-48379516D01*
X82225499Y-48379515D01*
X82225499Y-48375527D01*
X82227134Y-48375526D01*
X82241547Y-48307057D01*
X82293043Y-48249639D01*
X82366350Y-48225661D01*
X82375524Y-48225661D01*
X82375524Y-48225500D01*
X82379514Y-48225499D01*
X82379515Y-48225500D01*
X82620484Y-48225499D01*
X82677114Y-48219412D01*
X82697927Y-48211648D01*
X82774703Y-48204315D01*
X82802072Y-48211649D01*
X82822880Y-48219410D01*
X82822881Y-48219410D01*
X82822886Y-48219412D01*
X82879515Y-48225500D01*
X83120484Y-48225499D01*
X83177114Y-48219412D01*
X83197927Y-48211648D01*
X83274703Y-48204315D01*
X83302072Y-48211649D01*
X83322880Y-48219410D01*
X83322881Y-48219410D01*
X83322886Y-48219412D01*
X83379515Y-48225500D01*
X83620484Y-48225499D01*
X83677114Y-48219412D01*
X83697927Y-48211648D01*
X83774703Y-48204315D01*
X83802072Y-48211649D01*
X83822880Y-48219410D01*
X83822881Y-48219410D01*
X83822886Y-48219412D01*
X83879515Y-48225500D01*
X84120484Y-48225499D01*
X84177114Y-48219412D01*
X84197927Y-48211648D01*
X84274703Y-48204315D01*
X84302072Y-48211649D01*
X84322880Y-48219410D01*
X84322881Y-48219410D01*
X84322886Y-48219412D01*
X84379515Y-48225500D01*
X84620484Y-48225499D01*
X84677114Y-48219412D01*
X84697927Y-48211648D01*
X84774703Y-48204315D01*
X84802072Y-48211649D01*
X84822880Y-48219410D01*
X84822881Y-48219410D01*
X84822886Y-48219412D01*
X84879515Y-48225500D01*
X85049562Y-48225499D01*
X85124061Y-48245461D01*
X85129290Y-48248954D01*
X85135018Y-48252261D01*
X85274892Y-48310199D01*
X85274898Y-48310201D01*
X85349999Y-48320087D01*
X85350000Y-48320087D01*
X85350000Y-48212695D01*
X85369962Y-48138195D01*
X85409676Y-48093438D01*
X85410677Y-48092688D01*
X85482272Y-48064004D01*
X85558618Y-48074961D01*
G37*
%TD.AperFunction*%
%TD*%
M02*
