%TF.GenerationSoftware,KiCad,Pcbnew,8.0.6*%
%TF.CreationDate,2024-10-30T01:37:24+00:00*%
%TF.ProjectId,Chirstmas-Card,43686972-7374-46d6-9173-2d436172642e,rev?*%
%TF.SameCoordinates,Original*%
%TF.FileFunction,Copper,L2,Bot*%
%TF.FilePolarity,Positive*%
%FSLAX46Y46*%
G04 Gerber Fmt 4.6, Leading zero omitted, Abs format (unit mm)*
G04 Created by KiCad (PCBNEW 8.0.6) date 2024-10-30 01:37:24*
%MOMM*%
%LPD*%
G01*
G04 APERTURE LIST*
%TA.AperFunction,ViaPad*%
%ADD10C,0.600000*%
%TD*%
%TA.AperFunction,ViaPad*%
%ADD11C,1.000000*%
%TD*%
%TA.AperFunction,Conductor*%
%ADD12C,0.200000*%
%TD*%
%TA.AperFunction,Conductor*%
%ADD13C,0.300000*%
%TD*%
%TA.AperFunction,Conductor*%
%ADD14C,1.000000*%
%TD*%
G04 APERTURE END LIST*
D10*
%TO.N,*%
X19000000Y-42000000D03*
%TO.N,GND*%
X93000000Y-175000000D03*
X92000000Y-33000000D03*
X43000000Y-100000000D03*
X142000000Y-175000000D03*
X43000000Y-175000000D03*
X43000000Y-33000000D03*
X142000000Y-33000000D03*
X142500000Y-73500000D03*
X140000000Y-73500000D03*
X127500000Y-75000000D03*
X122500000Y-75000000D03*
X117500000Y-75000000D03*
X112500000Y-75000000D03*
X107500000Y-75000000D03*
X102500000Y-75000000D03*
X97500000Y-75000000D03*
X92500000Y-75000000D03*
X127500000Y-112500000D03*
X127500000Y-107500000D03*
X127500000Y-102500000D03*
X127500000Y-97500000D03*
X127500000Y-92500000D03*
X127500000Y-87500000D03*
X127500000Y-82500000D03*
X142400000Y-84550000D03*
X140050000Y-84600000D03*
X142300000Y-101300000D03*
X140000000Y-101300000D03*
X142250000Y-138600000D03*
X140000000Y-138550000D03*
X135600000Y-154850000D03*
X137300000Y-156450000D03*
%TO.N,/BUZZER*%
X127325000Y-68250000D03*
X125900000Y-56350000D03*
%TO.N,GND*%
X119975000Y-61700000D03*
X122350000Y-57125000D03*
X125950000Y-62700000D03*
X127750000Y-61225000D03*
X127750000Y-57175000D03*
X127750000Y-58225000D03*
%TO.N,Net-(U1-CP1)*%
X120247500Y-56125000D03*
X119947500Y-60350000D03*
%TO.N,GND*%
X65700000Y-170250000D03*
X98175000Y-170250000D03*
X130675000Y-170250000D03*
X110775000Y-40450000D03*
X110775000Y-45600000D03*
X107950000Y-43000000D03*
%TO.N,VCC*%
X132150000Y-58850000D03*
%TO.N,/RESET*%
X131250000Y-67100000D03*
%TO.N,GND*%
X128000000Y-64000000D03*
X130600000Y-61725000D03*
X133400000Y-62275000D03*
X134400000Y-62275000D03*
X132750000Y-67100000D03*
X143250000Y-65675000D03*
X143250000Y-63200000D03*
X138150000Y-79150000D03*
%TO.N,/RESET*%
X138150000Y-80450000D03*
%TO.N,VCC*%
X138150000Y-81700000D03*
X142350000Y-77850000D03*
X140150000Y-76600000D03*
X137900000Y-75400000D03*
D11*
%TO.N,Net-(D15-A)*%
X90000000Y-77000000D03*
%TO.N,Net-(D16-A)*%
X95000000Y-77000000D03*
%TO.N,Net-(D1-A)*%
X100000000Y-77000000D03*
%TO.N,Net-(D10-A)*%
X105000000Y-77000000D03*
%TO.N,Net-(D11-A)*%
X110000000Y-77000000D03*
%TO.N,Net-(D12-A)*%
X115000000Y-77000000D03*
%TO.N,Net-(D13-A)*%
X120000000Y-77000000D03*
%TO.N,Net-(D14-A)*%
X125000000Y-77000000D03*
X124992913Y-117437501D03*
%TO.N,Net-(D13-A)*%
X119992913Y-117437501D03*
%TO.N,Net-(D12-A)*%
X114992913Y-117437501D03*
%TO.N,Net-(D11-A)*%
X109992913Y-117437501D03*
%TO.N,Net-(D10-A)*%
X104992913Y-117437501D03*
%TO.N,Net-(D1-A)*%
X99992913Y-117437501D03*
%TO.N,Net-(D16-A)*%
X94992913Y-117437501D03*
%TO.N,Net-(D15-A)*%
X89992913Y-117437501D03*
%TO.N,Net-(D14-A)*%
X124992913Y-112437501D03*
%TO.N,Net-(D13-A)*%
X119992913Y-112437501D03*
%TO.N,Net-(D12-A)*%
X114992913Y-112437501D03*
%TO.N,Net-(D11-A)*%
X109992913Y-112437501D03*
%TO.N,Net-(D10-A)*%
X104992913Y-112437501D03*
%TO.N,Net-(D1-A)*%
X99992913Y-112437501D03*
%TO.N,Net-(D16-A)*%
X94992913Y-112437501D03*
%TO.N,Net-(D15-A)*%
X89992913Y-112437501D03*
%TO.N,Net-(D14-A)*%
X124992913Y-107437501D03*
%TO.N,Net-(D13-A)*%
X119992913Y-107437501D03*
%TO.N,Net-(D12-A)*%
X114992913Y-107437501D03*
%TO.N,Net-(D11-A)*%
X109992913Y-107437501D03*
%TO.N,Net-(D10-A)*%
X104992913Y-107437501D03*
%TO.N,Net-(D1-A)*%
X99992913Y-107437501D03*
%TO.N,Net-(D16-A)*%
X94992913Y-107437501D03*
%TO.N,Net-(D15-A)*%
X89992913Y-107437501D03*
%TO.N,Net-(D14-A)*%
X124992913Y-102437501D03*
%TO.N,Net-(D13-A)*%
X119992913Y-102437501D03*
%TO.N,Net-(D12-A)*%
X114992913Y-102437501D03*
%TO.N,Net-(D11-A)*%
X109992913Y-102437501D03*
%TO.N,Net-(D10-A)*%
X104992913Y-102437501D03*
%TO.N,Net-(D1-A)*%
X99992913Y-102437501D03*
%TO.N,Net-(D16-A)*%
X94992913Y-102437501D03*
%TO.N,Net-(D15-A)*%
X89992913Y-102437501D03*
%TO.N,Net-(D14-A)*%
X124992913Y-97437501D03*
%TO.N,Net-(D13-A)*%
X119992913Y-97437501D03*
%TO.N,Net-(D12-A)*%
X114992913Y-97437501D03*
%TO.N,Net-(D11-A)*%
X109992913Y-97437501D03*
%TO.N,Net-(D10-A)*%
X104992913Y-97437501D03*
%TO.N,Net-(D1-A)*%
X99992913Y-97437501D03*
%TO.N,Net-(D16-A)*%
X94992913Y-97437501D03*
%TO.N,Net-(D15-A)*%
X89992913Y-97437501D03*
%TO.N,Net-(D14-A)*%
X124992913Y-92437501D03*
%TO.N,Net-(D13-A)*%
X119992913Y-92437501D03*
%TO.N,Net-(D12-A)*%
X114992913Y-92437501D03*
%TO.N,Net-(D11-A)*%
X109992913Y-92437501D03*
%TO.N,Net-(D10-A)*%
X104992913Y-92437501D03*
%TO.N,Net-(D1-A)*%
X99992913Y-92437501D03*
%TO.N,Net-(D16-A)*%
X94992913Y-92437501D03*
%TO.N,Net-(D15-A)*%
X89992913Y-92437501D03*
%TO.N,Net-(D14-A)*%
X124992913Y-87437501D03*
%TO.N,Net-(D13-A)*%
X119992913Y-87437501D03*
%TO.N,Net-(D12-A)*%
X114992913Y-87437501D03*
%TO.N,Net-(D11-A)*%
X109992913Y-87437501D03*
%TO.N,Net-(D10-A)*%
X104992913Y-87437501D03*
%TO.N,Net-(D1-A)*%
X99992913Y-87437501D03*
%TO.N,Net-(D16-A)*%
X94992913Y-87437501D03*
%TO.N,Net-(D15-A)*%
X89992913Y-87437501D03*
%TO.N,Net-(D14-A)*%
X124992913Y-82437501D03*
%TO.N,Net-(D13-A)*%
X119992913Y-82437501D03*
%TO.N,Net-(D12-A)*%
X114992913Y-82437501D03*
%TO.N,Net-(D11-A)*%
X109992913Y-82437501D03*
%TO.N,Net-(D10-A)*%
X104992913Y-82437501D03*
%TO.N,Net-(D1-A)*%
X99992913Y-82437501D03*
%TO.N,Net-(D16-A)*%
X94992913Y-82437501D03*
%TO.N,Net-(D15-A)*%
X89992913Y-82437501D03*
%TD*%
D12*
%TO.N,/BUZZER*%
X127325000Y-68250000D02*
X127325000Y-62900000D01*
X125900000Y-61475000D02*
X125900000Y-56350000D01*
X127325000Y-62900000D02*
X125900000Y-61475000D01*
%TO.N,Net-(U1-CP1)*%
X120247500Y-56125000D02*
X119947500Y-56425000D01*
X119947500Y-56425000D02*
X119947500Y-60350000D01*
%TO.N,/RESET*%
X131250000Y-67100000D02*
X131250000Y-75350000D01*
X131250000Y-75350000D02*
X136350000Y-80450000D01*
X136350000Y-80450000D02*
X138150000Y-80450000D01*
D13*
%TO.N,VCC*%
X137900000Y-64600000D02*
X132150000Y-58850000D01*
X137900000Y-75400000D02*
X137900000Y-64600000D01*
D12*
X138150000Y-81700000D02*
X138500000Y-81700000D01*
X138500000Y-81700000D02*
X142350000Y-77850000D01*
X140150000Y-76600000D02*
X138950000Y-75400000D01*
X138950000Y-75400000D02*
X137900000Y-75400000D01*
X142350000Y-77850000D02*
X141100000Y-76600000D01*
X141100000Y-76600000D02*
X140150000Y-76600000D01*
D14*
%TO.N,Net-(D15-A)*%
X89992913Y-82437501D02*
X89992913Y-77000000D01*
X89992913Y-77000000D02*
X90000000Y-77000000D01*
%TO.N,Net-(D16-A)*%
X94992913Y-82437501D02*
X94992913Y-77000000D01*
X94992913Y-77000000D02*
X95000000Y-77000000D01*
%TO.N,Net-(D1-A)*%
X99992913Y-82437501D02*
X99992913Y-77000000D01*
X99992913Y-77000000D02*
X100000000Y-77000000D01*
%TO.N,Net-(D10-A)*%
X104992913Y-82437501D02*
X104992913Y-77000000D01*
X104992913Y-77000000D02*
X105000000Y-77000000D01*
%TO.N,Net-(D11-A)*%
X109992913Y-82437501D02*
X109992913Y-77000000D01*
X109992913Y-77000000D02*
X110000000Y-77000000D01*
%TO.N,Net-(D12-A)*%
X114992913Y-82437501D02*
X114992913Y-77000000D01*
X114992913Y-77000000D02*
X115000000Y-77000000D01*
%TO.N,Net-(D13-A)*%
X119992913Y-82437501D02*
X119992913Y-77000000D01*
X119992913Y-77000000D02*
X120000000Y-77000000D01*
%TO.N,Net-(D14-A)*%
X125000000Y-77000000D02*
X125000000Y-82437501D01*
X125000000Y-82437501D02*
X124992913Y-82437501D01*
%TO.N,Net-(D15-A)*%
X89992913Y-117437501D02*
X89992913Y-82437501D01*
%TO.N,Net-(D16-A)*%
X94992913Y-82437501D02*
X94992913Y-117437501D01*
%TO.N,Net-(D1-A)*%
X99992913Y-117437501D02*
X99992913Y-82437501D01*
%TO.N,Net-(D10-A)*%
X104992913Y-82437501D02*
X104992913Y-117437501D01*
%TO.N,Net-(D11-A)*%
X109992913Y-117437501D02*
X109992913Y-82437501D01*
%TO.N,Net-(D12-A)*%
X114992913Y-82437501D02*
X114992913Y-117437501D01*
%TO.N,Net-(D13-A)*%
X119992913Y-117437501D02*
X119992913Y-82437501D01*
%TO.N,Net-(D14-A)*%
X124992913Y-82437501D02*
X124992913Y-117437501D01*
%TD*%
%TA.AperFunction,Conductor*%
%TO.N,GND*%
G36*
X142504043Y-30500765D02*
G01*
X142752895Y-30517075D01*
X142768953Y-30519190D01*
X142976105Y-30560395D01*
X143009535Y-30567045D01*
X143025202Y-30571243D01*
X143194947Y-30628863D01*
X143257481Y-30650091D01*
X143272458Y-30656294D01*
X143481799Y-30759529D01*
X143492460Y-30764787D01*
X143506508Y-30772897D01*
X143710464Y-30909177D01*
X143723328Y-30919048D01*
X143907749Y-31080781D01*
X143919218Y-31092250D01*
X144080951Y-31276671D01*
X144090825Y-31289539D01*
X144227102Y-31493492D01*
X144235212Y-31507539D01*
X144343702Y-31727534D01*
X144349909Y-31742520D01*
X144428756Y-31974797D01*
X144432954Y-31990464D01*
X144480807Y-32231035D01*
X144482925Y-32247116D01*
X144499235Y-32495956D01*
X144499500Y-32504066D01*
X144499500Y-175495933D01*
X144499235Y-175504043D01*
X144482925Y-175752883D01*
X144480807Y-175768964D01*
X144432954Y-176009535D01*
X144428756Y-176025202D01*
X144349909Y-176257479D01*
X144343702Y-176272465D01*
X144235212Y-176492460D01*
X144227102Y-176506507D01*
X144090825Y-176710460D01*
X144080951Y-176723328D01*
X143919218Y-176907749D01*
X143907749Y-176919218D01*
X143723328Y-177080951D01*
X143710460Y-177090825D01*
X143506507Y-177227102D01*
X143492460Y-177235212D01*
X143272465Y-177343702D01*
X143257479Y-177349909D01*
X143025202Y-177428756D01*
X143009535Y-177432954D01*
X142768964Y-177480807D01*
X142752883Y-177482925D01*
X142504043Y-177499235D01*
X142495933Y-177499500D01*
X42504067Y-177499500D01*
X42495957Y-177499235D01*
X42247116Y-177482925D01*
X42231035Y-177480807D01*
X41990464Y-177432954D01*
X41974797Y-177428756D01*
X41742520Y-177349909D01*
X41727534Y-177343702D01*
X41507539Y-177235212D01*
X41493492Y-177227102D01*
X41289539Y-177090825D01*
X41276671Y-177080951D01*
X41092250Y-176919218D01*
X41080781Y-176907749D01*
X40919048Y-176723328D01*
X40909174Y-176710460D01*
X40772897Y-176506507D01*
X40764787Y-176492460D01*
X40658855Y-176277652D01*
X40656294Y-176272458D01*
X40650090Y-176257479D01*
X40571243Y-176025202D01*
X40567045Y-176009535D01*
X40559186Y-175970026D01*
X40519190Y-175768953D01*
X40517075Y-175752895D01*
X40500765Y-175504043D01*
X40500500Y-175495933D01*
X40500500Y-167881995D01*
X46199500Y-167881995D01*
X46199500Y-168118004D01*
X46199501Y-168118020D01*
X46230306Y-168352010D01*
X46291394Y-168579993D01*
X46381714Y-168798045D01*
X46381719Y-168798056D01*
X46452677Y-168920957D01*
X46499727Y-169002450D01*
X46499729Y-169002453D01*
X46499730Y-169002454D01*
X46643406Y-169189697D01*
X46643412Y-169189704D01*
X46810295Y-169356587D01*
X46810301Y-169356592D01*
X46997550Y-169500273D01*
X47128918Y-169576118D01*
X47201943Y-169618280D01*
X47201948Y-169618282D01*
X47201951Y-169618284D01*
X47420007Y-169708606D01*
X47647986Y-169769693D01*
X47881989Y-169800500D01*
X47881996Y-169800500D01*
X48118004Y-169800500D01*
X48118011Y-169800500D01*
X48352014Y-169769693D01*
X48579993Y-169708606D01*
X48798049Y-169618284D01*
X49002450Y-169500273D01*
X49189699Y-169356592D01*
X49356592Y-169189699D01*
X49500273Y-169002450D01*
X49618284Y-168798049D01*
X49708606Y-168579993D01*
X49769693Y-168352014D01*
X49800500Y-168118011D01*
X49800500Y-167881995D01*
X135199500Y-167881995D01*
X135199500Y-168118004D01*
X135199501Y-168118020D01*
X135230306Y-168352010D01*
X135291394Y-168579993D01*
X135381714Y-168798045D01*
X135381719Y-168798056D01*
X135452677Y-168920957D01*
X135499727Y-169002450D01*
X135499729Y-169002453D01*
X135499730Y-169002454D01*
X135643406Y-169189697D01*
X135643412Y-169189704D01*
X135810295Y-169356587D01*
X135810301Y-169356592D01*
X135997550Y-169500273D01*
X136128918Y-169576118D01*
X136201943Y-169618280D01*
X136201948Y-169618282D01*
X136201951Y-169618284D01*
X136420007Y-169708606D01*
X136647986Y-169769693D01*
X136881989Y-169800500D01*
X136881996Y-169800500D01*
X137118004Y-169800500D01*
X137118011Y-169800500D01*
X137352014Y-169769693D01*
X137579993Y-169708606D01*
X137798049Y-169618284D01*
X138002450Y-169500273D01*
X138189699Y-169356592D01*
X138356592Y-169189699D01*
X138500273Y-169002450D01*
X138618284Y-168798049D01*
X138708606Y-168579993D01*
X138769693Y-168352014D01*
X138800500Y-168118011D01*
X138800500Y-167881989D01*
X138769693Y-167647986D01*
X138708606Y-167420007D01*
X138618284Y-167201951D01*
X138618282Y-167201948D01*
X138618280Y-167201943D01*
X138576118Y-167128918D01*
X138500273Y-166997550D01*
X138356592Y-166810301D01*
X138356587Y-166810295D01*
X138189704Y-166643412D01*
X138189697Y-166643406D01*
X138002454Y-166499730D01*
X138002453Y-166499729D01*
X138002450Y-166499727D01*
X137920957Y-166452677D01*
X137798056Y-166381719D01*
X137798045Y-166381714D01*
X137579993Y-166291394D01*
X137352010Y-166230306D01*
X137118020Y-166199501D01*
X137118017Y-166199500D01*
X137118011Y-166199500D01*
X136881989Y-166199500D01*
X136881983Y-166199500D01*
X136881979Y-166199501D01*
X136647989Y-166230306D01*
X136420006Y-166291394D01*
X136201954Y-166381714D01*
X136201943Y-166381719D01*
X135997545Y-166499730D01*
X135810302Y-166643406D01*
X135810295Y-166643412D01*
X135643412Y-166810295D01*
X135643406Y-166810302D01*
X135499730Y-166997545D01*
X135381719Y-167201943D01*
X135381714Y-167201954D01*
X135291394Y-167420006D01*
X135230306Y-167647989D01*
X135199501Y-167881979D01*
X135199500Y-167881995D01*
X49800500Y-167881995D01*
X49800500Y-167881989D01*
X49769693Y-167647986D01*
X49708606Y-167420007D01*
X49618284Y-167201951D01*
X49618282Y-167201948D01*
X49618280Y-167201943D01*
X49576118Y-167128918D01*
X49500273Y-166997550D01*
X49356592Y-166810301D01*
X49356587Y-166810295D01*
X49189704Y-166643412D01*
X49189697Y-166643406D01*
X49002454Y-166499730D01*
X49002453Y-166499729D01*
X49002450Y-166499727D01*
X48920957Y-166452677D01*
X48798056Y-166381719D01*
X48798045Y-166381714D01*
X48579993Y-166291394D01*
X48352010Y-166230306D01*
X48118020Y-166199501D01*
X48118017Y-166199500D01*
X48118011Y-166199500D01*
X47881989Y-166199500D01*
X47881983Y-166199500D01*
X47881979Y-166199501D01*
X47647989Y-166230306D01*
X47420006Y-166291394D01*
X47201954Y-166381714D01*
X47201943Y-166381719D01*
X46997545Y-166499730D01*
X46810302Y-166643406D01*
X46810295Y-166643412D01*
X46643412Y-166810295D01*
X46643406Y-166810302D01*
X46499730Y-166997545D01*
X46381719Y-167201943D01*
X46381714Y-167201954D01*
X46291394Y-167420006D01*
X46230306Y-167647989D01*
X46199501Y-167881979D01*
X46199500Y-167881995D01*
X40500500Y-167881995D01*
X40500500Y-122881995D01*
X82199500Y-122881995D01*
X82199500Y-123118004D01*
X82199501Y-123118020D01*
X82230306Y-123352010D01*
X82291394Y-123579993D01*
X82381714Y-123798045D01*
X82381719Y-123798056D01*
X82452677Y-123920957D01*
X82499727Y-124002450D01*
X82499729Y-124002453D01*
X82499730Y-124002454D01*
X82643406Y-124189697D01*
X82643412Y-124189704D01*
X82810295Y-124356587D01*
X82810301Y-124356592D01*
X82997550Y-124500273D01*
X83128918Y-124576118D01*
X83201943Y-124618280D01*
X83201948Y-124618282D01*
X83201951Y-124618284D01*
X83420007Y-124708606D01*
X83647986Y-124769693D01*
X83881989Y-124800500D01*
X83881996Y-124800500D01*
X84118004Y-124800500D01*
X84118011Y-124800500D01*
X84352014Y-124769693D01*
X84579993Y-124708606D01*
X84798049Y-124618284D01*
X85002450Y-124500273D01*
X85189699Y-124356592D01*
X85356592Y-124189699D01*
X85500273Y-124002450D01*
X85618284Y-123798049D01*
X85708606Y-123579993D01*
X85769693Y-123352014D01*
X85800500Y-123118011D01*
X85800500Y-122881989D01*
X85769693Y-122647986D01*
X85708606Y-122420007D01*
X85618284Y-122201951D01*
X85618282Y-122201948D01*
X85618280Y-122201943D01*
X85569817Y-122118004D01*
X85500273Y-121997550D01*
X85411600Y-121881989D01*
X131199500Y-121881989D01*
X131199500Y-122118011D01*
X131230307Y-122352014D01*
X131248526Y-122420007D01*
X131291394Y-122579993D01*
X131381714Y-122798045D01*
X131381719Y-122798056D01*
X131430182Y-122881995D01*
X131499727Y-123002450D01*
X131499729Y-123002453D01*
X131499730Y-123002454D01*
X131643406Y-123189697D01*
X131643412Y-123189704D01*
X131810295Y-123356587D01*
X131810301Y-123356592D01*
X131997550Y-123500273D01*
X132128918Y-123576118D01*
X132201943Y-123618280D01*
X132201948Y-123618282D01*
X132201951Y-123618284D01*
X132420007Y-123708606D01*
X132647986Y-123769693D01*
X132881989Y-123800500D01*
X132881996Y-123800500D01*
X133118004Y-123800500D01*
X133118011Y-123800500D01*
X133352014Y-123769693D01*
X133579993Y-123708606D01*
X133798049Y-123618284D01*
X134002450Y-123500273D01*
X134189699Y-123356592D01*
X134356592Y-123189699D01*
X134500273Y-123002450D01*
X134618284Y-122798049D01*
X134708606Y-122579993D01*
X134769693Y-122352014D01*
X134800500Y-122118011D01*
X134800500Y-121881989D01*
X134769693Y-121647986D01*
X134708606Y-121420007D01*
X134618284Y-121201951D01*
X134618282Y-121201948D01*
X134618280Y-121201943D01*
X134576118Y-121128918D01*
X134500273Y-120997550D01*
X134356592Y-120810301D01*
X134356587Y-120810295D01*
X134189704Y-120643412D01*
X134189697Y-120643406D01*
X134002454Y-120499730D01*
X134002453Y-120499729D01*
X134002450Y-120499727D01*
X133920957Y-120452677D01*
X133798056Y-120381719D01*
X133798045Y-120381714D01*
X133579993Y-120291394D01*
X133352010Y-120230306D01*
X133118020Y-120199501D01*
X133118017Y-120199500D01*
X133118011Y-120199500D01*
X132881989Y-120199500D01*
X132881983Y-120199500D01*
X132881979Y-120199501D01*
X132647989Y-120230306D01*
X132420006Y-120291394D01*
X132201954Y-120381714D01*
X132201943Y-120381719D01*
X131997545Y-120499730D01*
X131810302Y-120643406D01*
X131810295Y-120643412D01*
X131643412Y-120810295D01*
X131643406Y-120810302D01*
X131499730Y-120997545D01*
X131381719Y-121201943D01*
X131381714Y-121201954D01*
X131291394Y-121420006D01*
X131230306Y-121647989D01*
X131199501Y-121881979D01*
X131199500Y-121881989D01*
X85411600Y-121881989D01*
X85356592Y-121810301D01*
X85356587Y-121810295D01*
X85189704Y-121643412D01*
X85189697Y-121643406D01*
X85002454Y-121499730D01*
X85002453Y-121499729D01*
X85002450Y-121499727D01*
X84920957Y-121452677D01*
X84798056Y-121381719D01*
X84798045Y-121381714D01*
X84579993Y-121291394D01*
X84352010Y-121230306D01*
X84118020Y-121199501D01*
X84118017Y-121199500D01*
X84118011Y-121199500D01*
X83881989Y-121199500D01*
X83881983Y-121199500D01*
X83881979Y-121199501D01*
X83647989Y-121230306D01*
X83420006Y-121291394D01*
X83201954Y-121381714D01*
X83201943Y-121381719D01*
X82997545Y-121499730D01*
X82810302Y-121643406D01*
X82810295Y-121643412D01*
X82643412Y-121810295D01*
X82643406Y-121810302D01*
X82499730Y-121997545D01*
X82381719Y-122201943D01*
X82381714Y-122201954D01*
X82291394Y-122420006D01*
X82230306Y-122647989D01*
X82199501Y-122881979D01*
X82199500Y-122881995D01*
X40500500Y-122881995D01*
X40500500Y-82437501D01*
X88987572Y-82437501D01*
X88988758Y-82449539D01*
X88991816Y-82480591D01*
X88992413Y-82492745D01*
X88992413Y-87382255D01*
X88991816Y-87394408D01*
X88987572Y-87437500D01*
X88991816Y-87480591D01*
X88992413Y-87492745D01*
X88992413Y-92382255D01*
X88991816Y-92394408D01*
X88987572Y-92437500D01*
X88991816Y-92480591D01*
X88992413Y-92492745D01*
X88992413Y-97382255D01*
X88991816Y-97394408D01*
X88987572Y-97437500D01*
X88991816Y-97480591D01*
X88992413Y-97492745D01*
X88992413Y-102382255D01*
X88991816Y-102394408D01*
X88987572Y-102437500D01*
X88991816Y-102480591D01*
X88992413Y-102492745D01*
X88992413Y-107382255D01*
X88991816Y-107394408D01*
X88987572Y-107437500D01*
X88991816Y-107480591D01*
X88992413Y-107492745D01*
X88992413Y-112382255D01*
X88991816Y-112394408D01*
X88987572Y-112437500D01*
X88991816Y-112480591D01*
X88992413Y-112492745D01*
X88992413Y-117382255D01*
X88991816Y-117394408D01*
X88987572Y-117437500D01*
X88991816Y-117480591D01*
X88992413Y-117492745D01*
X88992413Y-117536045D01*
X89000858Y-117578507D01*
X89002643Y-117590536D01*
X89006888Y-117633631D01*
X89006889Y-117633635D01*
X89019460Y-117675076D01*
X89022416Y-117686879D01*
X89030859Y-117729328D01*
X89030861Y-117729335D01*
X89047430Y-117769335D01*
X89051525Y-117780778D01*
X89064099Y-117822227D01*
X89064100Y-117822230D01*
X89084510Y-117860414D01*
X89089713Y-117871416D01*
X89106281Y-117911415D01*
X89106283Y-117911419D01*
X89130338Y-117947419D01*
X89136591Y-117957851D01*
X89147861Y-117978937D01*
X89157001Y-117996036D01*
X89157007Y-117996044D01*
X89184465Y-118029503D01*
X89191712Y-118039273D01*
X89215773Y-118075282D01*
X89215775Y-118075284D01*
X89215778Y-118075288D01*
X89246392Y-118105902D01*
X89254564Y-118114917D01*
X89282030Y-118148384D01*
X89315492Y-118175846D01*
X89315494Y-118175847D01*
X89324512Y-118184021D01*
X89355127Y-118214637D01*
X89355130Y-118214639D01*
X89355131Y-118214640D01*
X89391130Y-118238694D01*
X89391132Y-118238695D01*
X89400901Y-118245939D01*
X89434375Y-118273411D01*
X89472553Y-118293817D01*
X89482991Y-118300073D01*
X89490812Y-118305298D01*
X89518999Y-118324133D01*
X89559008Y-118340704D01*
X89570004Y-118345905D01*
X89608186Y-118366315D01*
X89649623Y-118378884D01*
X89661073Y-118382981D01*
X89701078Y-118399552D01*
X89743553Y-118408000D01*
X89755327Y-118410949D01*
X89796781Y-118423525D01*
X89839877Y-118427769D01*
X89851903Y-118429553D01*
X89882393Y-118435618D01*
X89894371Y-118438001D01*
X89894372Y-118438001D01*
X89937669Y-118438001D01*
X89949822Y-118438597D01*
X89992913Y-118442842D01*
X90036003Y-118438597D01*
X90048157Y-118438001D01*
X90091455Y-118438001D01*
X90107367Y-118434835D01*
X90133918Y-118429554D01*
X90145950Y-118427769D01*
X90189045Y-118423525D01*
X90230493Y-118410951D01*
X90242266Y-118408001D01*
X90284748Y-118399552D01*
X90324760Y-118382977D01*
X90336193Y-118378887D01*
X90377640Y-118366315D01*
X90415831Y-118345900D01*
X90426823Y-118340702D01*
X90466827Y-118324133D01*
X90502851Y-118300061D01*
X90513264Y-118293821D01*
X90539504Y-118279796D01*
X90551448Y-118273413D01*
X90551452Y-118273410D01*
X90584918Y-118245945D01*
X90594695Y-118238694D01*
X90630694Y-118214641D01*
X90630696Y-118214639D01*
X90630698Y-118214637D01*
X90661321Y-118184013D01*
X90670315Y-118175860D01*
X90703796Y-118148384D01*
X90731272Y-118114903D01*
X90739425Y-118105909D01*
X90770052Y-118075283D01*
X90794113Y-118039273D01*
X90801357Y-118029506D01*
X90828822Y-117996040D01*
X90828825Y-117996036D01*
X90835208Y-117984092D01*
X90849233Y-117957852D01*
X90855473Y-117947439D01*
X90879545Y-117911415D01*
X90896115Y-117871407D01*
X90901315Y-117860414D01*
X90921727Y-117822228D01*
X90934299Y-117780781D01*
X90938389Y-117769348D01*
X90954964Y-117729336D01*
X90963413Y-117686854D01*
X90966363Y-117675081D01*
X90978937Y-117633633D01*
X90983181Y-117590538D01*
X90984967Y-117578500D01*
X90993413Y-117536042D01*
X90993413Y-117492745D01*
X90994010Y-117480591D01*
X90998254Y-117437501D01*
X90994010Y-117394408D01*
X90993413Y-117382255D01*
X90993413Y-112492745D01*
X90994010Y-112480591D01*
X90998254Y-112437501D01*
X90994010Y-112394408D01*
X90993413Y-112382255D01*
X90993413Y-107492745D01*
X90994010Y-107480591D01*
X90998254Y-107437501D01*
X90994010Y-107394408D01*
X90993413Y-107382255D01*
X90993413Y-102492745D01*
X90994010Y-102480591D01*
X90998254Y-102437501D01*
X90994010Y-102394408D01*
X90993413Y-102382255D01*
X90993413Y-97492745D01*
X90994010Y-97480591D01*
X90998254Y-97437501D01*
X90994010Y-97394408D01*
X90993413Y-97382255D01*
X90993413Y-92492745D01*
X90994010Y-92480591D01*
X90998254Y-92437501D01*
X90994010Y-92394408D01*
X90993413Y-92382255D01*
X90993413Y-87492745D01*
X90994010Y-87480591D01*
X90998254Y-87437501D01*
X90994010Y-87394408D01*
X90993413Y-87382255D01*
X90993413Y-82492745D01*
X90994010Y-82480591D01*
X90997068Y-82449539D01*
X90998254Y-82437501D01*
X93987572Y-82437501D01*
X93988758Y-82449539D01*
X93991816Y-82480591D01*
X93992413Y-82492745D01*
X93992413Y-87382255D01*
X93991816Y-87394408D01*
X93987572Y-87437500D01*
X93991816Y-87480591D01*
X93992413Y-87492745D01*
X93992413Y-92382255D01*
X93991816Y-92394408D01*
X93987572Y-92437500D01*
X93991816Y-92480591D01*
X93992413Y-92492745D01*
X93992413Y-97382255D01*
X93991816Y-97394408D01*
X93987572Y-97437500D01*
X93991816Y-97480591D01*
X93992413Y-97492745D01*
X93992413Y-102382255D01*
X93991816Y-102394408D01*
X93987572Y-102437500D01*
X93991816Y-102480591D01*
X93992413Y-102492745D01*
X93992413Y-107382255D01*
X93991816Y-107394408D01*
X93987572Y-107437500D01*
X93991816Y-107480591D01*
X93992413Y-107492745D01*
X93992413Y-112382255D01*
X93991816Y-112394408D01*
X93987572Y-112437500D01*
X93991816Y-112480591D01*
X93992413Y-112492745D01*
X93992413Y-117382255D01*
X93991816Y-117394408D01*
X93987572Y-117437500D01*
X93991816Y-117480591D01*
X93992413Y-117492745D01*
X93992413Y-117536045D01*
X94000858Y-117578507D01*
X94002643Y-117590536D01*
X94006888Y-117633631D01*
X94006889Y-117633635D01*
X94019460Y-117675076D01*
X94022416Y-117686879D01*
X94030859Y-117729328D01*
X94030861Y-117729335D01*
X94047430Y-117769335D01*
X94051525Y-117780778D01*
X94064099Y-117822227D01*
X94064100Y-117822230D01*
X94084510Y-117860414D01*
X94089713Y-117871416D01*
X94106281Y-117911415D01*
X94106283Y-117911419D01*
X94130338Y-117947419D01*
X94136591Y-117957851D01*
X94147861Y-117978937D01*
X94157001Y-117996036D01*
X94157007Y-117996044D01*
X94184465Y-118029503D01*
X94191712Y-118039273D01*
X94215773Y-118075282D01*
X94215775Y-118075284D01*
X94215778Y-118075288D01*
X94246392Y-118105902D01*
X94254564Y-118114917D01*
X94282030Y-118148384D01*
X94315492Y-118175846D01*
X94315494Y-118175847D01*
X94324512Y-118184021D01*
X94355127Y-118214637D01*
X94355130Y-118214639D01*
X94355131Y-118214640D01*
X94391130Y-118238694D01*
X94391132Y-118238695D01*
X94400901Y-118245939D01*
X94434375Y-118273411D01*
X94472553Y-118293817D01*
X94482991Y-118300073D01*
X94490812Y-118305298D01*
X94518999Y-118324133D01*
X94559008Y-118340704D01*
X94570004Y-118345905D01*
X94608186Y-118366315D01*
X94649623Y-118378884D01*
X94661073Y-118382981D01*
X94701078Y-118399552D01*
X94743553Y-118408000D01*
X94755327Y-118410949D01*
X94796781Y-118423525D01*
X94839877Y-118427769D01*
X94851903Y-118429553D01*
X94882393Y-118435618D01*
X94894371Y-118438001D01*
X94894372Y-118438001D01*
X94937669Y-118438001D01*
X94949822Y-118438597D01*
X94992913Y-118442842D01*
X95036003Y-118438597D01*
X95048157Y-118438001D01*
X95091455Y-118438001D01*
X95107367Y-118434835D01*
X95133918Y-118429554D01*
X95145950Y-118427769D01*
X95189045Y-118423525D01*
X95230493Y-118410951D01*
X95242266Y-118408001D01*
X95284748Y-118399552D01*
X95324760Y-118382977D01*
X95336193Y-118378887D01*
X95377640Y-118366315D01*
X95415831Y-118345900D01*
X95426823Y-118340702D01*
X95466827Y-118324133D01*
X95502851Y-118300061D01*
X95513264Y-118293821D01*
X95539504Y-118279796D01*
X95551448Y-118273413D01*
X95551452Y-118273410D01*
X95584918Y-118245945D01*
X95594695Y-118238694D01*
X95630694Y-118214641D01*
X95630696Y-118214639D01*
X95630698Y-118214637D01*
X95661321Y-118184013D01*
X95670315Y-118175860D01*
X95703796Y-118148384D01*
X95731272Y-118114903D01*
X95739425Y-118105909D01*
X95770052Y-118075283D01*
X95794113Y-118039273D01*
X95801357Y-118029506D01*
X95828822Y-117996040D01*
X95828825Y-117996036D01*
X95835208Y-117984092D01*
X95849233Y-117957852D01*
X95855473Y-117947439D01*
X95879545Y-117911415D01*
X95896115Y-117871407D01*
X95901315Y-117860414D01*
X95921727Y-117822228D01*
X95934299Y-117780781D01*
X95938389Y-117769348D01*
X95954964Y-117729336D01*
X95963413Y-117686854D01*
X95966363Y-117675081D01*
X95978937Y-117633633D01*
X95983181Y-117590538D01*
X95984967Y-117578500D01*
X95993413Y-117536042D01*
X95993413Y-117492745D01*
X95994010Y-117480591D01*
X95998254Y-117437501D01*
X95994010Y-117394408D01*
X95993413Y-117382255D01*
X95993413Y-112492745D01*
X95994010Y-112480591D01*
X95998254Y-112437501D01*
X95994010Y-112394408D01*
X95993413Y-112382255D01*
X95993413Y-107492745D01*
X95994010Y-107480591D01*
X95998254Y-107437501D01*
X95994010Y-107394408D01*
X95993413Y-107382255D01*
X95993413Y-102492745D01*
X95994010Y-102480591D01*
X95998254Y-102437501D01*
X95994010Y-102394408D01*
X95993413Y-102382255D01*
X95993413Y-97492745D01*
X95994010Y-97480591D01*
X95998254Y-97437501D01*
X95994010Y-97394408D01*
X95993413Y-97382255D01*
X95993413Y-92492745D01*
X95994010Y-92480591D01*
X95998254Y-92437501D01*
X95994010Y-92394408D01*
X95993413Y-92382255D01*
X95993413Y-87492745D01*
X95994010Y-87480591D01*
X95998254Y-87437501D01*
X95994010Y-87394408D01*
X95993413Y-87382255D01*
X95993413Y-82492745D01*
X95994010Y-82480591D01*
X95997068Y-82449539D01*
X95998254Y-82437501D01*
X98987572Y-82437501D01*
X98988758Y-82449539D01*
X98991816Y-82480591D01*
X98992413Y-82492745D01*
X98992413Y-87382255D01*
X98991816Y-87394408D01*
X98987572Y-87437500D01*
X98991816Y-87480591D01*
X98992413Y-87492745D01*
X98992413Y-92382255D01*
X98991816Y-92394408D01*
X98987572Y-92437500D01*
X98991816Y-92480591D01*
X98992413Y-92492745D01*
X98992413Y-97382255D01*
X98991816Y-97394408D01*
X98987572Y-97437500D01*
X98991816Y-97480591D01*
X98992413Y-97492745D01*
X98992413Y-102382255D01*
X98991816Y-102394408D01*
X98987572Y-102437500D01*
X98991816Y-102480591D01*
X98992413Y-102492745D01*
X98992413Y-107382255D01*
X98991816Y-107394408D01*
X98987572Y-107437500D01*
X98991816Y-107480591D01*
X98992413Y-107492745D01*
X98992413Y-112382255D01*
X98991816Y-112394408D01*
X98987572Y-112437500D01*
X98991816Y-112480591D01*
X98992413Y-112492745D01*
X98992413Y-117382255D01*
X98991816Y-117394408D01*
X98987572Y-117437500D01*
X98991816Y-117480591D01*
X98992413Y-117492745D01*
X98992413Y-117536045D01*
X99000858Y-117578507D01*
X99002643Y-117590536D01*
X99006888Y-117633631D01*
X99006889Y-117633635D01*
X99019460Y-117675076D01*
X99022416Y-117686879D01*
X99030859Y-117729328D01*
X99030861Y-117729335D01*
X99047430Y-117769335D01*
X99051525Y-117780778D01*
X99064099Y-117822227D01*
X99064100Y-117822230D01*
X99084510Y-117860414D01*
X99089713Y-117871416D01*
X99106281Y-117911415D01*
X99106283Y-117911419D01*
X99130338Y-117947419D01*
X99136591Y-117957851D01*
X99147861Y-117978937D01*
X99157001Y-117996036D01*
X99157007Y-117996044D01*
X99184465Y-118029503D01*
X99191712Y-118039273D01*
X99215773Y-118075282D01*
X99215775Y-118075284D01*
X99215778Y-118075288D01*
X99246392Y-118105902D01*
X99254564Y-118114917D01*
X99282030Y-118148384D01*
X99315492Y-118175846D01*
X99315494Y-118175847D01*
X99324512Y-118184021D01*
X99355127Y-118214637D01*
X99355130Y-118214639D01*
X99355131Y-118214640D01*
X99391130Y-118238694D01*
X99391132Y-118238695D01*
X99400901Y-118245939D01*
X99434375Y-118273411D01*
X99472553Y-118293817D01*
X99482991Y-118300073D01*
X99490812Y-118305298D01*
X99518999Y-118324133D01*
X99559008Y-118340704D01*
X99570004Y-118345905D01*
X99608186Y-118366315D01*
X99649623Y-118378884D01*
X99661073Y-118382981D01*
X99701078Y-118399552D01*
X99743553Y-118408000D01*
X99755327Y-118410949D01*
X99796781Y-118423525D01*
X99839877Y-118427769D01*
X99851903Y-118429553D01*
X99882393Y-118435618D01*
X99894371Y-118438001D01*
X99894372Y-118438001D01*
X99937669Y-118438001D01*
X99949822Y-118438597D01*
X99992913Y-118442842D01*
X100036003Y-118438597D01*
X100048157Y-118438001D01*
X100091455Y-118438001D01*
X100107367Y-118434835D01*
X100133918Y-118429554D01*
X100145950Y-118427769D01*
X100189045Y-118423525D01*
X100230493Y-118410951D01*
X100242266Y-118408001D01*
X100284748Y-118399552D01*
X100324760Y-118382977D01*
X100336193Y-118378887D01*
X100377640Y-118366315D01*
X100415831Y-118345900D01*
X100426823Y-118340702D01*
X100466827Y-118324133D01*
X100502851Y-118300061D01*
X100513264Y-118293821D01*
X100539504Y-118279796D01*
X100551448Y-118273413D01*
X100551452Y-118273410D01*
X100584918Y-118245945D01*
X100594695Y-118238694D01*
X100630694Y-118214641D01*
X100630696Y-118214639D01*
X100630698Y-118214637D01*
X100661321Y-118184013D01*
X100670315Y-118175860D01*
X100703796Y-118148384D01*
X100731272Y-118114903D01*
X100739425Y-118105909D01*
X100770052Y-118075283D01*
X100794113Y-118039273D01*
X100801357Y-118029506D01*
X100828822Y-117996040D01*
X100828825Y-117996036D01*
X100835208Y-117984092D01*
X100849233Y-117957852D01*
X100855473Y-117947439D01*
X100879545Y-117911415D01*
X100896115Y-117871407D01*
X100901315Y-117860414D01*
X100921727Y-117822228D01*
X100934299Y-117780781D01*
X100938389Y-117769348D01*
X100954964Y-117729336D01*
X100963413Y-117686854D01*
X100966363Y-117675081D01*
X100978937Y-117633633D01*
X100983181Y-117590538D01*
X100984967Y-117578500D01*
X100993413Y-117536042D01*
X100993413Y-117492745D01*
X100994010Y-117480591D01*
X100998254Y-117437501D01*
X100994010Y-117394408D01*
X100993413Y-117382255D01*
X100993413Y-112492745D01*
X100994010Y-112480591D01*
X100998254Y-112437501D01*
X100994010Y-112394408D01*
X100993413Y-112382255D01*
X100993413Y-107492745D01*
X100994010Y-107480591D01*
X100998254Y-107437501D01*
X100994010Y-107394408D01*
X100993413Y-107382255D01*
X100993413Y-102492745D01*
X100994010Y-102480591D01*
X100998254Y-102437501D01*
X100994010Y-102394408D01*
X100993413Y-102382255D01*
X100993413Y-97492745D01*
X100994010Y-97480591D01*
X100998254Y-97437501D01*
X100994010Y-97394408D01*
X100993413Y-97382255D01*
X100993413Y-92492745D01*
X100994010Y-92480591D01*
X100998254Y-92437501D01*
X100994010Y-92394408D01*
X100993413Y-92382255D01*
X100993413Y-87492745D01*
X100994010Y-87480591D01*
X100998254Y-87437501D01*
X100994010Y-87394408D01*
X100993413Y-87382255D01*
X100993413Y-82492745D01*
X100994010Y-82480591D01*
X100997068Y-82449539D01*
X100998254Y-82437501D01*
X103987572Y-82437501D01*
X103988758Y-82449539D01*
X103991816Y-82480591D01*
X103992413Y-82492745D01*
X103992413Y-87382255D01*
X103991816Y-87394408D01*
X103987572Y-87437500D01*
X103991816Y-87480591D01*
X103992413Y-87492745D01*
X103992413Y-92382255D01*
X103991816Y-92394408D01*
X103987572Y-92437500D01*
X103991816Y-92480591D01*
X103992413Y-92492745D01*
X103992413Y-97382255D01*
X103991816Y-97394408D01*
X103987572Y-97437500D01*
X103991816Y-97480591D01*
X103992413Y-97492745D01*
X103992413Y-102382255D01*
X103991816Y-102394408D01*
X103987572Y-102437500D01*
X103991816Y-102480591D01*
X103992413Y-102492745D01*
X103992413Y-107382255D01*
X103991816Y-107394408D01*
X103987572Y-107437500D01*
X103991816Y-107480591D01*
X103992413Y-107492745D01*
X103992413Y-112382255D01*
X103991816Y-112394408D01*
X103987572Y-112437500D01*
X103991816Y-112480591D01*
X103992413Y-112492745D01*
X103992413Y-117382255D01*
X103991816Y-117394408D01*
X103987572Y-117437500D01*
X103991816Y-117480591D01*
X103992413Y-117492745D01*
X103992413Y-117536045D01*
X104000858Y-117578507D01*
X104002643Y-117590536D01*
X104006888Y-117633631D01*
X104006889Y-117633635D01*
X104019460Y-117675076D01*
X104022416Y-117686879D01*
X104030859Y-117729328D01*
X104030861Y-117729335D01*
X104047430Y-117769335D01*
X104051525Y-117780778D01*
X104064099Y-117822227D01*
X104064100Y-117822230D01*
X104084510Y-117860414D01*
X104089713Y-117871416D01*
X104106281Y-117911415D01*
X104106283Y-117911419D01*
X104130338Y-117947419D01*
X104136591Y-117957851D01*
X104147861Y-117978937D01*
X104157001Y-117996036D01*
X104157007Y-117996044D01*
X104184465Y-118029503D01*
X104191712Y-118039273D01*
X104215773Y-118075282D01*
X104215775Y-118075284D01*
X104215778Y-118075288D01*
X104246392Y-118105902D01*
X104254564Y-118114917D01*
X104282030Y-118148384D01*
X104315492Y-118175846D01*
X104315494Y-118175847D01*
X104324512Y-118184021D01*
X104355127Y-118214637D01*
X104355130Y-118214639D01*
X104355131Y-118214640D01*
X104391130Y-118238694D01*
X104391132Y-118238695D01*
X104400901Y-118245939D01*
X104434375Y-118273411D01*
X104472553Y-118293817D01*
X104482991Y-118300073D01*
X104490812Y-118305298D01*
X104518999Y-118324133D01*
X104559008Y-118340704D01*
X104570004Y-118345905D01*
X104608186Y-118366315D01*
X104649623Y-118378884D01*
X104661073Y-118382981D01*
X104701078Y-118399552D01*
X104743553Y-118408000D01*
X104755327Y-118410949D01*
X104796781Y-118423525D01*
X104839877Y-118427769D01*
X104851903Y-118429553D01*
X104882393Y-118435618D01*
X104894371Y-118438001D01*
X104894372Y-118438001D01*
X104937669Y-118438001D01*
X104949822Y-118438597D01*
X104992913Y-118442842D01*
X105036003Y-118438597D01*
X105048157Y-118438001D01*
X105091455Y-118438001D01*
X105107367Y-118434835D01*
X105133918Y-118429554D01*
X105145950Y-118427769D01*
X105189045Y-118423525D01*
X105230493Y-118410951D01*
X105242266Y-118408001D01*
X105284748Y-118399552D01*
X105324760Y-118382977D01*
X105336193Y-118378887D01*
X105377640Y-118366315D01*
X105415831Y-118345900D01*
X105426823Y-118340702D01*
X105466827Y-118324133D01*
X105502851Y-118300061D01*
X105513264Y-118293821D01*
X105539504Y-118279796D01*
X105551448Y-118273413D01*
X105551452Y-118273410D01*
X105584918Y-118245945D01*
X105594695Y-118238694D01*
X105630694Y-118214641D01*
X105630696Y-118214639D01*
X105630698Y-118214637D01*
X105661321Y-118184013D01*
X105670315Y-118175860D01*
X105703796Y-118148384D01*
X105731272Y-118114903D01*
X105739425Y-118105909D01*
X105770052Y-118075283D01*
X105794113Y-118039273D01*
X105801357Y-118029506D01*
X105828822Y-117996040D01*
X105828825Y-117996036D01*
X105835208Y-117984092D01*
X105849233Y-117957852D01*
X105855473Y-117947439D01*
X105879545Y-117911415D01*
X105896115Y-117871407D01*
X105901315Y-117860414D01*
X105921727Y-117822228D01*
X105934299Y-117780781D01*
X105938389Y-117769348D01*
X105954964Y-117729336D01*
X105963413Y-117686854D01*
X105966363Y-117675081D01*
X105978937Y-117633633D01*
X105983181Y-117590538D01*
X105984967Y-117578500D01*
X105993413Y-117536042D01*
X105993413Y-117492745D01*
X105994010Y-117480591D01*
X105998254Y-117437501D01*
X105994010Y-117394408D01*
X105993413Y-117382255D01*
X105993413Y-112492745D01*
X105994010Y-112480591D01*
X105998254Y-112437501D01*
X105994010Y-112394408D01*
X105993413Y-112382255D01*
X105993413Y-107492745D01*
X105994010Y-107480591D01*
X105998254Y-107437501D01*
X105994010Y-107394408D01*
X105993413Y-107382255D01*
X105993413Y-102492745D01*
X105994010Y-102480591D01*
X105998254Y-102437501D01*
X105994010Y-102394408D01*
X105993413Y-102382255D01*
X105993413Y-97492745D01*
X105994010Y-97480591D01*
X105998254Y-97437501D01*
X105994010Y-97394408D01*
X105993413Y-97382255D01*
X105993413Y-92492745D01*
X105994010Y-92480591D01*
X105998254Y-92437501D01*
X105994010Y-92394408D01*
X105993413Y-92382255D01*
X105993413Y-87492745D01*
X105994010Y-87480591D01*
X105998254Y-87437501D01*
X105994010Y-87394408D01*
X105993413Y-87382255D01*
X105993413Y-82492745D01*
X105994010Y-82480591D01*
X105997068Y-82449539D01*
X105998254Y-82437501D01*
X108987572Y-82437501D01*
X108988758Y-82449539D01*
X108991816Y-82480591D01*
X108992413Y-82492745D01*
X108992413Y-87382255D01*
X108991816Y-87394408D01*
X108987572Y-87437500D01*
X108991816Y-87480591D01*
X108992413Y-87492745D01*
X108992413Y-92382255D01*
X108991816Y-92394408D01*
X108987572Y-92437500D01*
X108991816Y-92480591D01*
X108992413Y-92492745D01*
X108992413Y-97382255D01*
X108991816Y-97394408D01*
X108987572Y-97437500D01*
X108991816Y-97480591D01*
X108992413Y-97492745D01*
X108992413Y-102382255D01*
X108991816Y-102394408D01*
X108987572Y-102437500D01*
X108991816Y-102480591D01*
X108992413Y-102492745D01*
X108992413Y-107382255D01*
X108991816Y-107394408D01*
X108987572Y-107437500D01*
X108991816Y-107480591D01*
X108992413Y-107492745D01*
X108992413Y-112382255D01*
X108991816Y-112394408D01*
X108987572Y-112437500D01*
X108991816Y-112480591D01*
X108992413Y-112492745D01*
X108992413Y-117382255D01*
X108991816Y-117394408D01*
X108987572Y-117437500D01*
X108991816Y-117480591D01*
X108992413Y-117492745D01*
X108992413Y-117536045D01*
X109000858Y-117578507D01*
X109002643Y-117590536D01*
X109006888Y-117633631D01*
X109006889Y-117633635D01*
X109019460Y-117675076D01*
X109022416Y-117686879D01*
X109030859Y-117729328D01*
X109030861Y-117729335D01*
X109047430Y-117769335D01*
X109051525Y-117780778D01*
X109064099Y-117822227D01*
X109064100Y-117822230D01*
X109084510Y-117860414D01*
X109089713Y-117871416D01*
X109106281Y-117911415D01*
X109106283Y-117911419D01*
X109130338Y-117947419D01*
X109136591Y-117957851D01*
X109147861Y-117978937D01*
X109157001Y-117996036D01*
X109157007Y-117996044D01*
X109184465Y-118029503D01*
X109191712Y-118039273D01*
X109215773Y-118075282D01*
X109215775Y-118075284D01*
X109215778Y-118075288D01*
X109246392Y-118105902D01*
X109254564Y-118114917D01*
X109282030Y-118148384D01*
X109315492Y-118175846D01*
X109315494Y-118175847D01*
X109324512Y-118184021D01*
X109355127Y-118214637D01*
X109355130Y-118214639D01*
X109355131Y-118214640D01*
X109391130Y-118238694D01*
X109391132Y-118238695D01*
X109400901Y-118245939D01*
X109434375Y-118273411D01*
X109472553Y-118293817D01*
X109482991Y-118300073D01*
X109490812Y-118305298D01*
X109518999Y-118324133D01*
X109559008Y-118340704D01*
X109570004Y-118345905D01*
X109608186Y-118366315D01*
X109649623Y-118378884D01*
X109661073Y-118382981D01*
X109701078Y-118399552D01*
X109743553Y-118408000D01*
X109755327Y-118410949D01*
X109796781Y-118423525D01*
X109839877Y-118427769D01*
X109851903Y-118429553D01*
X109882393Y-118435618D01*
X109894371Y-118438001D01*
X109894372Y-118438001D01*
X109937669Y-118438001D01*
X109949822Y-118438597D01*
X109992913Y-118442842D01*
X110036003Y-118438597D01*
X110048157Y-118438001D01*
X110091455Y-118438001D01*
X110107367Y-118434835D01*
X110133918Y-118429554D01*
X110145950Y-118427769D01*
X110189045Y-118423525D01*
X110230493Y-118410951D01*
X110242266Y-118408001D01*
X110284748Y-118399552D01*
X110324760Y-118382977D01*
X110336193Y-118378887D01*
X110377640Y-118366315D01*
X110415831Y-118345900D01*
X110426823Y-118340702D01*
X110466827Y-118324133D01*
X110502851Y-118300061D01*
X110513264Y-118293821D01*
X110539504Y-118279796D01*
X110551448Y-118273413D01*
X110551452Y-118273410D01*
X110584918Y-118245945D01*
X110594695Y-118238694D01*
X110630694Y-118214641D01*
X110630696Y-118214639D01*
X110630698Y-118214637D01*
X110661321Y-118184013D01*
X110670315Y-118175860D01*
X110703796Y-118148384D01*
X110731272Y-118114903D01*
X110739425Y-118105909D01*
X110770052Y-118075283D01*
X110794113Y-118039273D01*
X110801357Y-118029506D01*
X110828822Y-117996040D01*
X110828825Y-117996036D01*
X110835208Y-117984092D01*
X110849233Y-117957852D01*
X110855473Y-117947439D01*
X110879545Y-117911415D01*
X110896115Y-117871407D01*
X110901315Y-117860414D01*
X110921727Y-117822228D01*
X110934299Y-117780781D01*
X110938389Y-117769348D01*
X110954964Y-117729336D01*
X110963413Y-117686854D01*
X110966363Y-117675081D01*
X110978937Y-117633633D01*
X110983181Y-117590538D01*
X110984967Y-117578500D01*
X110993413Y-117536042D01*
X110993413Y-117492745D01*
X110994010Y-117480591D01*
X110998254Y-117437501D01*
X110994010Y-117394408D01*
X110993413Y-117382255D01*
X110993413Y-112492745D01*
X110994010Y-112480591D01*
X110998254Y-112437501D01*
X110994010Y-112394408D01*
X110993413Y-112382255D01*
X110993413Y-107492745D01*
X110994010Y-107480591D01*
X110998254Y-107437501D01*
X110994010Y-107394408D01*
X110993413Y-107382255D01*
X110993413Y-102492745D01*
X110994010Y-102480591D01*
X110998254Y-102437501D01*
X110994010Y-102394408D01*
X110993413Y-102382255D01*
X110993413Y-97492745D01*
X110994010Y-97480591D01*
X110998254Y-97437501D01*
X110994010Y-97394408D01*
X110993413Y-97382255D01*
X110993413Y-92492745D01*
X110994010Y-92480591D01*
X110998254Y-92437501D01*
X110994010Y-92394408D01*
X110993413Y-92382255D01*
X110993413Y-87492745D01*
X110994010Y-87480591D01*
X110998254Y-87437501D01*
X110994010Y-87394408D01*
X110993413Y-87382255D01*
X110993413Y-82492745D01*
X110994010Y-82480591D01*
X110997068Y-82449539D01*
X110998254Y-82437501D01*
X113987572Y-82437501D01*
X113988758Y-82449539D01*
X113991816Y-82480591D01*
X113992413Y-82492745D01*
X113992413Y-87382255D01*
X113991816Y-87394408D01*
X113987572Y-87437500D01*
X113991816Y-87480591D01*
X113992413Y-87492745D01*
X113992413Y-92382255D01*
X113991816Y-92394408D01*
X113987572Y-92437500D01*
X113991816Y-92480591D01*
X113992413Y-92492745D01*
X113992413Y-97382255D01*
X113991816Y-97394408D01*
X113987572Y-97437500D01*
X113991816Y-97480591D01*
X113992413Y-97492745D01*
X113992413Y-102382255D01*
X113991816Y-102394408D01*
X113987572Y-102437500D01*
X113991816Y-102480591D01*
X113992413Y-102492745D01*
X113992413Y-107382255D01*
X113991816Y-107394408D01*
X113987572Y-107437500D01*
X113991816Y-107480591D01*
X113992413Y-107492745D01*
X113992413Y-112382255D01*
X113991816Y-112394408D01*
X113987572Y-112437500D01*
X113991816Y-112480591D01*
X113992413Y-112492745D01*
X113992413Y-117382255D01*
X113991816Y-117394408D01*
X113987572Y-117437500D01*
X113991816Y-117480591D01*
X113992413Y-117492745D01*
X113992413Y-117536045D01*
X114000858Y-117578507D01*
X114002643Y-117590536D01*
X114006888Y-117633631D01*
X114006889Y-117633635D01*
X114019460Y-117675076D01*
X114022416Y-117686879D01*
X114030859Y-117729328D01*
X114030861Y-117729335D01*
X114047430Y-117769335D01*
X114051525Y-117780778D01*
X114064099Y-117822227D01*
X114064100Y-117822230D01*
X114084510Y-117860414D01*
X114089713Y-117871416D01*
X114106281Y-117911415D01*
X114106283Y-117911419D01*
X114130338Y-117947419D01*
X114136591Y-117957851D01*
X114147861Y-117978937D01*
X114157001Y-117996036D01*
X114157007Y-117996044D01*
X114184465Y-118029503D01*
X114191712Y-118039273D01*
X114215773Y-118075282D01*
X114215775Y-118075284D01*
X114215778Y-118075288D01*
X114246392Y-118105902D01*
X114254564Y-118114917D01*
X114282030Y-118148384D01*
X114315492Y-118175846D01*
X114315494Y-118175847D01*
X114324512Y-118184021D01*
X114355127Y-118214637D01*
X114355130Y-118214639D01*
X114355131Y-118214640D01*
X114391130Y-118238694D01*
X114391132Y-118238695D01*
X114400901Y-118245939D01*
X114434375Y-118273411D01*
X114472553Y-118293817D01*
X114482991Y-118300073D01*
X114490812Y-118305298D01*
X114518999Y-118324133D01*
X114559008Y-118340704D01*
X114570004Y-118345905D01*
X114608186Y-118366315D01*
X114649623Y-118378884D01*
X114661073Y-118382981D01*
X114701078Y-118399552D01*
X114743553Y-118408000D01*
X114755327Y-118410949D01*
X114796781Y-118423525D01*
X114839877Y-118427769D01*
X114851903Y-118429553D01*
X114882393Y-118435618D01*
X114894371Y-118438001D01*
X114894372Y-118438001D01*
X114937669Y-118438001D01*
X114949822Y-118438597D01*
X114992913Y-118442842D01*
X115036003Y-118438597D01*
X115048157Y-118438001D01*
X115091455Y-118438001D01*
X115107367Y-118434835D01*
X115133918Y-118429554D01*
X115145950Y-118427769D01*
X115189045Y-118423525D01*
X115230493Y-118410951D01*
X115242266Y-118408001D01*
X115284748Y-118399552D01*
X115324760Y-118382977D01*
X115336193Y-118378887D01*
X115377640Y-118366315D01*
X115415831Y-118345900D01*
X115426823Y-118340702D01*
X115466827Y-118324133D01*
X115502851Y-118300061D01*
X115513264Y-118293821D01*
X115539504Y-118279796D01*
X115551448Y-118273413D01*
X115551452Y-118273410D01*
X115584918Y-118245945D01*
X115594695Y-118238694D01*
X115630694Y-118214641D01*
X115630696Y-118214639D01*
X115630698Y-118214637D01*
X115661321Y-118184013D01*
X115670315Y-118175860D01*
X115703796Y-118148384D01*
X115731272Y-118114903D01*
X115739425Y-118105909D01*
X115770052Y-118075283D01*
X115794113Y-118039273D01*
X115801357Y-118029506D01*
X115828822Y-117996040D01*
X115828825Y-117996036D01*
X115835208Y-117984092D01*
X115849233Y-117957852D01*
X115855473Y-117947439D01*
X115879545Y-117911415D01*
X115896115Y-117871407D01*
X115901315Y-117860414D01*
X115921727Y-117822228D01*
X115934299Y-117780781D01*
X115938389Y-117769348D01*
X115954964Y-117729336D01*
X115963413Y-117686854D01*
X115966363Y-117675081D01*
X115978937Y-117633633D01*
X115983181Y-117590538D01*
X115984967Y-117578500D01*
X115993413Y-117536042D01*
X115993413Y-117492745D01*
X115994010Y-117480591D01*
X115998254Y-117437501D01*
X115994010Y-117394408D01*
X115993413Y-117382255D01*
X115993413Y-112492745D01*
X115994010Y-112480591D01*
X115998254Y-112437501D01*
X115994010Y-112394408D01*
X115993413Y-112382255D01*
X115993413Y-107492745D01*
X115994010Y-107480591D01*
X115998254Y-107437501D01*
X115994010Y-107394408D01*
X115993413Y-107382255D01*
X115993413Y-102492745D01*
X115994010Y-102480591D01*
X115998254Y-102437501D01*
X115994010Y-102394408D01*
X115993413Y-102382255D01*
X115993413Y-97492745D01*
X115994010Y-97480591D01*
X115998254Y-97437501D01*
X115994010Y-97394408D01*
X115993413Y-97382255D01*
X115993413Y-92492745D01*
X115994010Y-92480591D01*
X115998254Y-92437501D01*
X115994010Y-92394408D01*
X115993413Y-92382255D01*
X115993413Y-87492745D01*
X115994010Y-87480591D01*
X115998254Y-87437501D01*
X115994010Y-87394408D01*
X115993413Y-87382255D01*
X115993413Y-82492745D01*
X115994010Y-82480591D01*
X115997068Y-82449539D01*
X115998254Y-82437501D01*
X118987572Y-82437501D01*
X118988758Y-82449539D01*
X118991816Y-82480591D01*
X118992413Y-82492745D01*
X118992413Y-87382255D01*
X118991816Y-87394408D01*
X118987572Y-87437500D01*
X118991816Y-87480591D01*
X118992413Y-87492745D01*
X118992413Y-92382255D01*
X118991816Y-92394408D01*
X118987572Y-92437500D01*
X118991816Y-92480591D01*
X118992413Y-92492745D01*
X118992413Y-97382255D01*
X118991816Y-97394408D01*
X118987572Y-97437500D01*
X118991816Y-97480591D01*
X118992413Y-97492745D01*
X118992413Y-102382255D01*
X118991816Y-102394408D01*
X118987572Y-102437500D01*
X118991816Y-102480591D01*
X118992413Y-102492745D01*
X118992413Y-107382255D01*
X118991816Y-107394408D01*
X118987572Y-107437500D01*
X118991816Y-107480591D01*
X118992413Y-107492745D01*
X118992413Y-112382255D01*
X118991816Y-112394408D01*
X118987572Y-112437500D01*
X118991816Y-112480591D01*
X118992413Y-112492745D01*
X118992413Y-117382255D01*
X118991816Y-117394408D01*
X118987572Y-117437500D01*
X118991816Y-117480591D01*
X118992413Y-117492745D01*
X118992413Y-117536045D01*
X119000858Y-117578507D01*
X119002643Y-117590536D01*
X119006888Y-117633631D01*
X119006889Y-117633635D01*
X119019460Y-117675076D01*
X119022416Y-117686879D01*
X119030859Y-117729328D01*
X119030861Y-117729335D01*
X119047430Y-117769335D01*
X119051525Y-117780778D01*
X119064099Y-117822227D01*
X119064100Y-117822230D01*
X119084510Y-117860414D01*
X119089713Y-117871416D01*
X119106281Y-117911415D01*
X119106283Y-117911419D01*
X119130338Y-117947419D01*
X119136591Y-117957851D01*
X119147861Y-117978937D01*
X119157001Y-117996036D01*
X119157007Y-117996044D01*
X119184465Y-118029503D01*
X119191712Y-118039273D01*
X119215773Y-118075282D01*
X119215775Y-118075284D01*
X119215778Y-118075288D01*
X119246392Y-118105902D01*
X119254564Y-118114917D01*
X119282030Y-118148384D01*
X119315492Y-118175846D01*
X119315494Y-118175847D01*
X119324512Y-118184021D01*
X119355127Y-118214637D01*
X119355130Y-118214639D01*
X119355131Y-118214640D01*
X119391130Y-118238694D01*
X119391132Y-118238695D01*
X119400901Y-118245939D01*
X119434375Y-118273411D01*
X119472553Y-118293817D01*
X119482991Y-118300073D01*
X119490812Y-118305298D01*
X119518999Y-118324133D01*
X119559008Y-118340704D01*
X119570004Y-118345905D01*
X119608186Y-118366315D01*
X119649623Y-118378884D01*
X119661073Y-118382981D01*
X119701078Y-118399552D01*
X119743553Y-118408000D01*
X119755327Y-118410949D01*
X119796781Y-118423525D01*
X119839877Y-118427769D01*
X119851903Y-118429553D01*
X119882393Y-118435618D01*
X119894371Y-118438001D01*
X119894372Y-118438001D01*
X119937669Y-118438001D01*
X119949822Y-118438597D01*
X119992913Y-118442842D01*
X120036003Y-118438597D01*
X120048157Y-118438001D01*
X120091455Y-118438001D01*
X120107367Y-118434835D01*
X120133918Y-118429554D01*
X120145950Y-118427769D01*
X120189045Y-118423525D01*
X120230493Y-118410951D01*
X120242266Y-118408001D01*
X120284748Y-118399552D01*
X120324760Y-118382977D01*
X120336193Y-118378887D01*
X120377640Y-118366315D01*
X120415831Y-118345900D01*
X120426823Y-118340702D01*
X120466827Y-118324133D01*
X120502851Y-118300061D01*
X120513264Y-118293821D01*
X120539504Y-118279796D01*
X120551448Y-118273413D01*
X120551452Y-118273410D01*
X120584918Y-118245945D01*
X120594695Y-118238694D01*
X120630694Y-118214641D01*
X120630696Y-118214639D01*
X120630698Y-118214637D01*
X120661321Y-118184013D01*
X120670315Y-118175860D01*
X120703796Y-118148384D01*
X120731272Y-118114903D01*
X120739425Y-118105909D01*
X120770052Y-118075283D01*
X120794113Y-118039273D01*
X120801357Y-118029506D01*
X120828822Y-117996040D01*
X120828825Y-117996036D01*
X120835208Y-117984092D01*
X120849233Y-117957852D01*
X120855473Y-117947439D01*
X120879545Y-117911415D01*
X120896115Y-117871407D01*
X120901315Y-117860414D01*
X120921727Y-117822228D01*
X120934299Y-117780781D01*
X120938389Y-117769348D01*
X120954964Y-117729336D01*
X120963413Y-117686854D01*
X120966363Y-117675081D01*
X120978937Y-117633633D01*
X120983181Y-117590538D01*
X120984967Y-117578500D01*
X120993413Y-117536042D01*
X120993413Y-117492745D01*
X120994010Y-117480591D01*
X120998254Y-117437501D01*
X120994010Y-117394408D01*
X120993413Y-117382255D01*
X120993413Y-112492745D01*
X120994010Y-112480591D01*
X120998254Y-112437501D01*
X120994010Y-112394408D01*
X120993413Y-112382255D01*
X120993413Y-107492745D01*
X120994010Y-107480591D01*
X120998254Y-107437501D01*
X120994010Y-107394408D01*
X120993413Y-107382255D01*
X120993413Y-102492745D01*
X120994010Y-102480591D01*
X120998254Y-102437501D01*
X120994010Y-102394408D01*
X120993413Y-102382255D01*
X120993413Y-97492745D01*
X120994010Y-97480591D01*
X120998254Y-97437501D01*
X120994010Y-97394408D01*
X120993413Y-97382255D01*
X120993413Y-92492745D01*
X120994010Y-92480591D01*
X120998254Y-92437501D01*
X120994010Y-92394408D01*
X120993413Y-92382255D01*
X120993413Y-87492745D01*
X120994010Y-87480591D01*
X120998254Y-87437501D01*
X120994010Y-87394408D01*
X120993413Y-87382255D01*
X120993413Y-82492745D01*
X120994010Y-82480591D01*
X120997068Y-82449539D01*
X120998254Y-82437501D01*
X123987572Y-82437501D01*
X123988758Y-82449539D01*
X123991816Y-82480591D01*
X123992413Y-82492745D01*
X123992413Y-87382255D01*
X123991816Y-87394408D01*
X123987572Y-87437500D01*
X123991816Y-87480591D01*
X123992413Y-87492745D01*
X123992413Y-92382255D01*
X123991816Y-92394408D01*
X123987572Y-92437500D01*
X123991816Y-92480591D01*
X123992413Y-92492745D01*
X123992413Y-97382255D01*
X123991816Y-97394408D01*
X123987572Y-97437500D01*
X123991816Y-97480591D01*
X123992413Y-97492745D01*
X123992413Y-102382255D01*
X123991816Y-102394408D01*
X123987572Y-102437500D01*
X123991816Y-102480591D01*
X123992413Y-102492745D01*
X123992413Y-107382255D01*
X123991816Y-107394408D01*
X123987572Y-107437500D01*
X123991816Y-107480591D01*
X123992413Y-107492745D01*
X123992413Y-112382255D01*
X123991816Y-112394408D01*
X123987572Y-112437500D01*
X123991816Y-112480591D01*
X123992413Y-112492745D01*
X123992413Y-117382255D01*
X123991816Y-117394408D01*
X123987572Y-117437500D01*
X123991816Y-117480591D01*
X123992413Y-117492745D01*
X123992413Y-117536045D01*
X124000858Y-117578507D01*
X124002643Y-117590536D01*
X124006888Y-117633631D01*
X124006889Y-117633635D01*
X124019460Y-117675076D01*
X124022416Y-117686879D01*
X124030859Y-117729328D01*
X124030861Y-117729335D01*
X124047430Y-117769335D01*
X124051525Y-117780778D01*
X124064099Y-117822227D01*
X124064100Y-117822230D01*
X124084510Y-117860414D01*
X124089713Y-117871416D01*
X124106281Y-117911415D01*
X124106283Y-117911419D01*
X124130338Y-117947419D01*
X124136591Y-117957851D01*
X124147861Y-117978937D01*
X124157001Y-117996036D01*
X124157007Y-117996044D01*
X124184465Y-118029503D01*
X124191712Y-118039273D01*
X124215773Y-118075282D01*
X124215775Y-118075284D01*
X124215778Y-118075288D01*
X124246392Y-118105902D01*
X124254564Y-118114917D01*
X124282030Y-118148384D01*
X124315492Y-118175846D01*
X124315494Y-118175847D01*
X124324512Y-118184021D01*
X124355127Y-118214637D01*
X124355130Y-118214639D01*
X124355131Y-118214640D01*
X124391130Y-118238694D01*
X124391132Y-118238695D01*
X124400901Y-118245939D01*
X124434375Y-118273411D01*
X124472553Y-118293817D01*
X124482991Y-118300073D01*
X124490812Y-118305298D01*
X124518999Y-118324133D01*
X124559008Y-118340704D01*
X124570004Y-118345905D01*
X124608186Y-118366315D01*
X124649623Y-118378884D01*
X124661073Y-118382981D01*
X124701078Y-118399552D01*
X124743553Y-118408000D01*
X124755327Y-118410949D01*
X124796781Y-118423525D01*
X124839877Y-118427769D01*
X124851903Y-118429553D01*
X124882393Y-118435618D01*
X124894371Y-118438001D01*
X124894372Y-118438001D01*
X124937669Y-118438001D01*
X124949822Y-118438597D01*
X124992913Y-118442842D01*
X125036003Y-118438597D01*
X125048157Y-118438001D01*
X125091455Y-118438001D01*
X125107367Y-118434835D01*
X125133918Y-118429554D01*
X125145950Y-118427769D01*
X125189045Y-118423525D01*
X125230493Y-118410951D01*
X125242266Y-118408001D01*
X125284748Y-118399552D01*
X125324760Y-118382977D01*
X125336193Y-118378887D01*
X125377640Y-118366315D01*
X125415831Y-118345900D01*
X125426823Y-118340702D01*
X125466827Y-118324133D01*
X125502851Y-118300061D01*
X125513264Y-118293821D01*
X125539504Y-118279796D01*
X125551448Y-118273413D01*
X125551452Y-118273410D01*
X125584918Y-118245945D01*
X125594695Y-118238694D01*
X125630694Y-118214641D01*
X125630696Y-118214639D01*
X125630698Y-118214637D01*
X125661321Y-118184013D01*
X125670315Y-118175860D01*
X125703796Y-118148384D01*
X125731272Y-118114903D01*
X125739425Y-118105909D01*
X125770052Y-118075283D01*
X125794113Y-118039273D01*
X125801357Y-118029506D01*
X125828822Y-117996040D01*
X125828825Y-117996036D01*
X125835208Y-117984092D01*
X125849233Y-117957852D01*
X125855473Y-117947439D01*
X125879545Y-117911415D01*
X125896115Y-117871407D01*
X125901315Y-117860414D01*
X125921727Y-117822228D01*
X125934299Y-117780781D01*
X125938389Y-117769348D01*
X125954964Y-117729336D01*
X125963413Y-117686854D01*
X125966363Y-117675081D01*
X125978937Y-117633633D01*
X125983181Y-117590538D01*
X125984967Y-117578500D01*
X125993413Y-117536042D01*
X125993413Y-117492745D01*
X125994010Y-117480591D01*
X125998254Y-117437501D01*
X125994010Y-117394408D01*
X125993413Y-117382255D01*
X125993413Y-112492745D01*
X125994010Y-112480591D01*
X125998254Y-112437501D01*
X125994010Y-112394408D01*
X125993413Y-112382255D01*
X125993413Y-107492745D01*
X125994010Y-107480591D01*
X125998254Y-107437501D01*
X125994010Y-107394408D01*
X125993413Y-107382255D01*
X125993413Y-102492745D01*
X125994010Y-102480591D01*
X125998254Y-102437501D01*
X125994010Y-102394408D01*
X125993413Y-102382255D01*
X125993413Y-97492745D01*
X125994010Y-97480591D01*
X125998254Y-97437501D01*
X125994010Y-97394408D01*
X125993413Y-97382255D01*
X125993413Y-92492745D01*
X125994010Y-92480591D01*
X125998254Y-92437501D01*
X125994010Y-92394408D01*
X125993413Y-92382255D01*
X125993413Y-87492745D01*
X125994010Y-87480591D01*
X125998254Y-87437501D01*
X125994010Y-87394408D01*
X125993413Y-87382255D01*
X125993413Y-82921465D01*
X136154200Y-82921465D01*
X136154200Y-83058534D01*
X136180937Y-83192949D01*
X136180940Y-83192961D01*
X136233386Y-83319578D01*
X136233393Y-83319591D01*
X136309536Y-83433546D01*
X136309539Y-83433550D01*
X136406449Y-83530460D01*
X136406453Y-83530463D01*
X136520408Y-83606606D01*
X136520421Y-83606613D01*
X136647038Y-83659059D01*
X136647043Y-83659061D01*
X136781465Y-83685799D01*
X136781469Y-83685800D01*
X136781470Y-83685800D01*
X136918531Y-83685800D01*
X136918532Y-83685799D01*
X137052957Y-83659061D01*
X137179585Y-83606610D01*
X137293547Y-83530463D01*
X137390463Y-83433547D01*
X137466610Y-83319585D01*
X137519061Y-83192957D01*
X137545800Y-83058530D01*
X137545800Y-82921470D01*
X137519061Y-82787043D01*
X137519059Y-82787038D01*
X137466613Y-82660421D01*
X137466606Y-82660408D01*
X137390463Y-82546453D01*
X137390460Y-82546449D01*
X137293550Y-82449539D01*
X137293546Y-82449536D01*
X137179591Y-82373393D01*
X137179578Y-82373386D01*
X137052961Y-82320940D01*
X137052949Y-82320937D01*
X136918534Y-82294200D01*
X136918530Y-82294200D01*
X136781470Y-82294200D01*
X136781465Y-82294200D01*
X136647050Y-82320937D01*
X136647038Y-82320940D01*
X136520421Y-82373386D01*
X136520408Y-82373393D01*
X136406453Y-82449536D01*
X136406449Y-82449539D01*
X136309539Y-82546449D01*
X136309536Y-82546453D01*
X136233393Y-82660408D01*
X136233386Y-82660421D01*
X136180940Y-82787038D01*
X136180937Y-82787050D01*
X136154200Y-82921465D01*
X125993413Y-82921465D01*
X125993413Y-82583882D01*
X125995796Y-82559688D01*
X126000500Y-82536041D01*
X126000500Y-77055244D01*
X126001097Y-77043090D01*
X126005341Y-77000000D01*
X126001097Y-76956907D01*
X126000500Y-76944754D01*
X126000500Y-76901458D01*
X125998117Y-76889480D01*
X125992052Y-76858990D01*
X125990268Y-76846961D01*
X125986024Y-76803869D01*
X125986024Y-76803868D01*
X125973448Y-76762414D01*
X125970499Y-76750640D01*
X125962051Y-76708165D01*
X125945480Y-76668159D01*
X125941383Y-76656710D01*
X125928814Y-76615273D01*
X125908404Y-76577091D01*
X125903203Y-76566095D01*
X125886632Y-76526086D01*
X125862572Y-76490078D01*
X125856316Y-76479640D01*
X125835911Y-76441464D01*
X125835910Y-76441462D01*
X125808438Y-76407988D01*
X125801194Y-76398219D01*
X125777140Y-76362219D01*
X125777136Y-76362214D01*
X125746520Y-76331599D01*
X125738346Y-76322581D01*
X125710884Y-76289118D01*
X125677416Y-76261651D01*
X125668401Y-76253479D01*
X125637787Y-76222865D01*
X125637783Y-76222862D01*
X125637780Y-76222860D01*
X125621139Y-76211740D01*
X125601772Y-76198799D01*
X125592002Y-76191552D01*
X125558543Y-76164094D01*
X125558535Y-76164088D01*
X125541436Y-76154948D01*
X125520350Y-76143678D01*
X125509918Y-76137425D01*
X125473918Y-76113370D01*
X125473914Y-76113368D01*
X125433915Y-76096800D01*
X125422913Y-76091597D01*
X125384729Y-76071187D01*
X125384728Y-76071186D01*
X125384727Y-76071186D01*
X125343277Y-76058612D01*
X125331834Y-76054517D01*
X125291834Y-76037948D01*
X125291827Y-76037946D01*
X125249378Y-76029503D01*
X125237575Y-76026547D01*
X125196134Y-76013976D01*
X125196130Y-76013975D01*
X125153035Y-76009730D01*
X125141006Y-76007945D01*
X125098544Y-75999500D01*
X125098541Y-75999500D01*
X125055244Y-75999500D01*
X125043090Y-75998903D01*
X125000000Y-75994659D01*
X124956910Y-75998903D01*
X124944756Y-75999500D01*
X124901453Y-75999500D01*
X124858991Y-76007945D01*
X124846963Y-76009730D01*
X124803867Y-76013976D01*
X124762427Y-76026546D01*
X124750626Y-76029502D01*
X124708166Y-76037948D01*
X124708161Y-76037949D01*
X124668159Y-76054518D01*
X124656707Y-76058616D01*
X124615272Y-76071186D01*
X124577091Y-76091594D01*
X124566093Y-76096795D01*
X124526091Y-76113364D01*
X124490080Y-76137426D01*
X124479645Y-76143680D01*
X124441465Y-76164087D01*
X124441460Y-76164091D01*
X124407990Y-76191557D01*
X124398225Y-76198799D01*
X124362225Y-76222855D01*
X124362219Y-76222860D01*
X124331595Y-76253483D01*
X124322584Y-76261650D01*
X124289117Y-76289117D01*
X124261650Y-76322584D01*
X124253483Y-76331595D01*
X124222860Y-76362219D01*
X124222855Y-76362225D01*
X124198799Y-76398225D01*
X124191557Y-76407990D01*
X124164091Y-76441460D01*
X124164087Y-76441465D01*
X124143680Y-76479645D01*
X124137426Y-76490080D01*
X124113364Y-76526091D01*
X124096795Y-76566093D01*
X124091594Y-76577091D01*
X124071186Y-76615272D01*
X124058616Y-76656707D01*
X124054518Y-76668159D01*
X124037949Y-76708161D01*
X124037948Y-76708166D01*
X124029502Y-76750626D01*
X124026546Y-76762427D01*
X124013976Y-76803867D01*
X124009730Y-76846963D01*
X124007945Y-76858991D01*
X123999500Y-76901453D01*
X123999500Y-76944754D01*
X123998903Y-76956907D01*
X123994659Y-76999999D01*
X123998903Y-77043090D01*
X123999500Y-77055244D01*
X123999500Y-82291119D01*
X123997117Y-82315311D01*
X123992413Y-82338958D01*
X123992413Y-82382255D01*
X123991816Y-82394408D01*
X123988725Y-82425789D01*
X123987572Y-82437501D01*
X120998254Y-82437501D01*
X120994010Y-82394408D01*
X120993413Y-82382255D01*
X120993413Y-77146381D01*
X120995796Y-77122187D01*
X121000500Y-77098540D01*
X121000500Y-77055244D01*
X121001097Y-77043090D01*
X121005341Y-77000000D01*
X121001097Y-76956907D01*
X121000500Y-76944754D01*
X121000500Y-76901458D01*
X120998117Y-76889480D01*
X120992052Y-76858990D01*
X120990268Y-76846961D01*
X120986024Y-76803869D01*
X120986024Y-76803868D01*
X120973448Y-76762414D01*
X120970499Y-76750640D01*
X120962051Y-76708165D01*
X120945480Y-76668159D01*
X120941383Y-76656710D01*
X120928814Y-76615273D01*
X120908404Y-76577091D01*
X120903203Y-76566095D01*
X120886632Y-76526086D01*
X120862572Y-76490078D01*
X120856316Y-76479640D01*
X120835911Y-76441464D01*
X120835910Y-76441462D01*
X120808438Y-76407988D01*
X120801194Y-76398219D01*
X120777140Y-76362219D01*
X120777136Y-76362214D01*
X120746520Y-76331599D01*
X120738346Y-76322581D01*
X120710884Y-76289118D01*
X120677416Y-76261651D01*
X120668401Y-76253479D01*
X120637787Y-76222865D01*
X120637783Y-76222862D01*
X120637780Y-76222860D01*
X120621139Y-76211740D01*
X120601772Y-76198799D01*
X120592002Y-76191552D01*
X120558543Y-76164094D01*
X120558535Y-76164088D01*
X120541436Y-76154948D01*
X120520350Y-76143678D01*
X120509918Y-76137425D01*
X120473918Y-76113370D01*
X120473914Y-76113368D01*
X120433915Y-76096800D01*
X120422913Y-76091597D01*
X120384729Y-76071187D01*
X120384728Y-76071186D01*
X120384727Y-76071186D01*
X120343277Y-76058612D01*
X120331834Y-76054517D01*
X120291834Y-76037948D01*
X120291827Y-76037946D01*
X120249378Y-76029503D01*
X120237575Y-76026547D01*
X120196134Y-76013976D01*
X120196130Y-76013975D01*
X120153035Y-76009730D01*
X120141006Y-76007945D01*
X120098544Y-75999500D01*
X120098541Y-75999500D01*
X120091454Y-75999500D01*
X120055244Y-75999500D01*
X120043090Y-75998903D01*
X120000000Y-75994659D01*
X119956910Y-75998903D01*
X119944756Y-75999500D01*
X119894372Y-75999500D01*
X119844954Y-76009329D01*
X119832921Y-76011114D01*
X119803870Y-76013975D01*
X119775927Y-76022451D01*
X119764129Y-76025406D01*
X119701077Y-76037948D01*
X119701075Y-76037949D01*
X119641678Y-76062551D01*
X119630231Y-76066647D01*
X119615276Y-76071184D01*
X119615269Y-76071187D01*
X119601479Y-76078557D01*
X119590489Y-76083754D01*
X119519002Y-76113365D01*
X119518998Y-76113367D01*
X119454645Y-76156366D01*
X119444217Y-76162617D01*
X119441469Y-76164085D01*
X119441457Y-76164093D01*
X119439029Y-76166086D01*
X119429277Y-76173316D01*
X119355133Y-76222858D01*
X119355125Y-76222865D01*
X119215776Y-76362214D01*
X119215773Y-76362218D01*
X119106284Y-76526079D01*
X119106277Y-76526092D01*
X119030863Y-76708160D01*
X119030860Y-76708170D01*
X118992413Y-76901456D01*
X118992413Y-82382255D01*
X118991816Y-82394408D01*
X118988725Y-82425789D01*
X118987572Y-82437501D01*
X115998254Y-82437501D01*
X115994010Y-82394408D01*
X115993413Y-82382255D01*
X115993413Y-77146381D01*
X115995796Y-77122187D01*
X116000500Y-77098540D01*
X116000500Y-77055244D01*
X116001097Y-77043090D01*
X116005341Y-77000000D01*
X116001097Y-76956907D01*
X116000500Y-76944754D01*
X116000500Y-76901458D01*
X115998117Y-76889480D01*
X115992052Y-76858990D01*
X115990268Y-76846961D01*
X115986024Y-76803869D01*
X115986024Y-76803868D01*
X115973448Y-76762414D01*
X115970499Y-76750640D01*
X115962051Y-76708165D01*
X115945480Y-76668159D01*
X115941383Y-76656710D01*
X115928814Y-76615273D01*
X115908404Y-76577091D01*
X115903203Y-76566095D01*
X115886632Y-76526086D01*
X115862572Y-76490078D01*
X115856316Y-76479640D01*
X115835911Y-76441464D01*
X115835910Y-76441462D01*
X115808438Y-76407988D01*
X115801194Y-76398219D01*
X115777140Y-76362219D01*
X115777136Y-76362214D01*
X115746520Y-76331599D01*
X115738346Y-76322581D01*
X115710884Y-76289118D01*
X115677416Y-76261651D01*
X115668401Y-76253479D01*
X115637787Y-76222865D01*
X115637783Y-76222862D01*
X115637780Y-76222860D01*
X115621139Y-76211740D01*
X115601772Y-76198799D01*
X115592002Y-76191552D01*
X115558543Y-76164094D01*
X115558535Y-76164088D01*
X115541436Y-76154948D01*
X115520350Y-76143678D01*
X115509918Y-76137425D01*
X115473918Y-76113370D01*
X115473914Y-76113368D01*
X115433915Y-76096800D01*
X115422913Y-76091597D01*
X115384729Y-76071187D01*
X115384728Y-76071186D01*
X115384727Y-76071186D01*
X115343277Y-76058612D01*
X115331834Y-76054517D01*
X115291834Y-76037948D01*
X115291827Y-76037946D01*
X115249378Y-76029503D01*
X115237575Y-76026547D01*
X115196134Y-76013976D01*
X115196130Y-76013975D01*
X115153035Y-76009730D01*
X115141006Y-76007945D01*
X115098544Y-75999500D01*
X115098541Y-75999500D01*
X115091454Y-75999500D01*
X115055244Y-75999500D01*
X115043090Y-75998903D01*
X115000000Y-75994659D01*
X114956910Y-75998903D01*
X114944756Y-75999500D01*
X114894372Y-75999500D01*
X114844954Y-76009329D01*
X114832921Y-76011114D01*
X114803870Y-76013975D01*
X114775927Y-76022451D01*
X114764129Y-76025406D01*
X114701077Y-76037948D01*
X114701075Y-76037949D01*
X114641678Y-76062551D01*
X114630231Y-76066647D01*
X114615276Y-76071184D01*
X114615269Y-76071187D01*
X114601479Y-76078557D01*
X114590489Y-76083754D01*
X114519002Y-76113365D01*
X114518998Y-76113367D01*
X114454645Y-76156366D01*
X114444217Y-76162617D01*
X114441469Y-76164085D01*
X114441457Y-76164093D01*
X114439029Y-76166086D01*
X114429277Y-76173316D01*
X114355133Y-76222858D01*
X114355125Y-76222865D01*
X114215776Y-76362214D01*
X114215773Y-76362218D01*
X114106284Y-76526079D01*
X114106277Y-76526092D01*
X114030863Y-76708160D01*
X114030860Y-76708170D01*
X113992413Y-76901456D01*
X113992413Y-82382255D01*
X113991816Y-82394408D01*
X113988725Y-82425789D01*
X113987572Y-82437501D01*
X110998254Y-82437501D01*
X110994010Y-82394408D01*
X110993413Y-82382255D01*
X110993413Y-77146381D01*
X110995796Y-77122187D01*
X111000500Y-77098540D01*
X111000500Y-77055244D01*
X111001097Y-77043090D01*
X111005341Y-77000000D01*
X111001097Y-76956907D01*
X111000500Y-76944754D01*
X111000500Y-76901458D01*
X110998117Y-76889480D01*
X110992052Y-76858990D01*
X110990268Y-76846961D01*
X110986024Y-76803869D01*
X110986024Y-76803868D01*
X110973448Y-76762414D01*
X110970499Y-76750640D01*
X110962051Y-76708165D01*
X110945480Y-76668159D01*
X110941383Y-76656710D01*
X110928814Y-76615273D01*
X110908404Y-76577091D01*
X110903203Y-76566095D01*
X110886632Y-76526086D01*
X110862572Y-76490078D01*
X110856316Y-76479640D01*
X110835911Y-76441464D01*
X110835910Y-76441462D01*
X110808438Y-76407988D01*
X110801194Y-76398219D01*
X110777140Y-76362219D01*
X110777136Y-76362214D01*
X110746520Y-76331599D01*
X110738346Y-76322581D01*
X110710884Y-76289118D01*
X110677416Y-76261651D01*
X110668401Y-76253479D01*
X110637787Y-76222865D01*
X110637783Y-76222862D01*
X110637780Y-76222860D01*
X110621139Y-76211740D01*
X110601772Y-76198799D01*
X110592002Y-76191552D01*
X110558543Y-76164094D01*
X110558535Y-76164088D01*
X110541436Y-76154948D01*
X110520350Y-76143678D01*
X110509918Y-76137425D01*
X110473918Y-76113370D01*
X110473914Y-76113368D01*
X110433915Y-76096800D01*
X110422913Y-76091597D01*
X110384729Y-76071187D01*
X110384728Y-76071186D01*
X110384727Y-76071186D01*
X110343277Y-76058612D01*
X110331834Y-76054517D01*
X110291834Y-76037948D01*
X110291827Y-76037946D01*
X110249378Y-76029503D01*
X110237575Y-76026547D01*
X110196134Y-76013976D01*
X110196130Y-76013975D01*
X110153035Y-76009730D01*
X110141006Y-76007945D01*
X110098544Y-75999500D01*
X110098541Y-75999500D01*
X110091454Y-75999500D01*
X110055244Y-75999500D01*
X110043090Y-75998903D01*
X110000000Y-75994659D01*
X109956910Y-75998903D01*
X109944756Y-75999500D01*
X109894372Y-75999500D01*
X109844954Y-76009329D01*
X109832921Y-76011114D01*
X109803870Y-76013975D01*
X109775927Y-76022451D01*
X109764129Y-76025406D01*
X109701077Y-76037948D01*
X109701075Y-76037949D01*
X109641678Y-76062551D01*
X109630231Y-76066647D01*
X109615276Y-76071184D01*
X109615269Y-76071187D01*
X109601479Y-76078557D01*
X109590489Y-76083754D01*
X109519002Y-76113365D01*
X109518998Y-76113367D01*
X109454645Y-76156366D01*
X109444217Y-76162617D01*
X109441469Y-76164085D01*
X109441457Y-76164093D01*
X109439029Y-76166086D01*
X109429277Y-76173316D01*
X109355133Y-76222858D01*
X109355125Y-76222865D01*
X109215776Y-76362214D01*
X109215773Y-76362218D01*
X109106284Y-76526079D01*
X109106277Y-76526092D01*
X109030863Y-76708160D01*
X109030860Y-76708170D01*
X108992413Y-76901456D01*
X108992413Y-82382255D01*
X108991816Y-82394408D01*
X108988725Y-82425789D01*
X108987572Y-82437501D01*
X105998254Y-82437501D01*
X105994010Y-82394408D01*
X105993413Y-82382255D01*
X105993413Y-77146381D01*
X105995796Y-77122187D01*
X106000500Y-77098540D01*
X106000500Y-77055244D01*
X106001097Y-77043090D01*
X106005341Y-77000000D01*
X106001097Y-76956907D01*
X106000500Y-76944754D01*
X106000500Y-76901458D01*
X105998117Y-76889480D01*
X105992052Y-76858990D01*
X105990268Y-76846961D01*
X105986024Y-76803869D01*
X105986024Y-76803868D01*
X105973448Y-76762414D01*
X105970499Y-76750640D01*
X105962051Y-76708165D01*
X105945480Y-76668159D01*
X105941383Y-76656710D01*
X105928814Y-76615273D01*
X105908404Y-76577091D01*
X105903203Y-76566095D01*
X105886632Y-76526086D01*
X105862572Y-76490078D01*
X105856316Y-76479640D01*
X105835911Y-76441464D01*
X105835910Y-76441462D01*
X105808438Y-76407988D01*
X105801194Y-76398219D01*
X105777140Y-76362219D01*
X105777136Y-76362214D01*
X105746520Y-76331599D01*
X105738346Y-76322581D01*
X105710884Y-76289118D01*
X105677416Y-76261651D01*
X105668401Y-76253479D01*
X105637787Y-76222865D01*
X105637783Y-76222862D01*
X105637780Y-76222860D01*
X105621139Y-76211740D01*
X105601772Y-76198799D01*
X105592002Y-76191552D01*
X105558543Y-76164094D01*
X105558535Y-76164088D01*
X105541436Y-76154948D01*
X105520350Y-76143678D01*
X105509918Y-76137425D01*
X105473918Y-76113370D01*
X105473914Y-76113368D01*
X105433915Y-76096800D01*
X105422913Y-76091597D01*
X105384729Y-76071187D01*
X105384728Y-76071186D01*
X105384727Y-76071186D01*
X105343277Y-76058612D01*
X105331834Y-76054517D01*
X105291834Y-76037948D01*
X105291827Y-76037946D01*
X105249378Y-76029503D01*
X105237575Y-76026547D01*
X105196134Y-76013976D01*
X105196130Y-76013975D01*
X105153035Y-76009730D01*
X105141006Y-76007945D01*
X105098544Y-75999500D01*
X105098541Y-75999500D01*
X105091454Y-75999500D01*
X105055244Y-75999500D01*
X105043090Y-75998903D01*
X105000000Y-75994659D01*
X104956910Y-75998903D01*
X104944756Y-75999500D01*
X104894372Y-75999500D01*
X104844954Y-76009329D01*
X104832921Y-76011114D01*
X104803870Y-76013975D01*
X104775927Y-76022451D01*
X104764129Y-76025406D01*
X104701077Y-76037948D01*
X104701075Y-76037949D01*
X104641678Y-76062551D01*
X104630231Y-76066647D01*
X104615276Y-76071184D01*
X104615269Y-76071187D01*
X104601479Y-76078557D01*
X104590489Y-76083754D01*
X104519002Y-76113365D01*
X104518998Y-76113367D01*
X104454645Y-76156366D01*
X104444217Y-76162617D01*
X104441469Y-76164085D01*
X104441457Y-76164093D01*
X104439029Y-76166086D01*
X104429277Y-76173316D01*
X104355133Y-76222858D01*
X104355125Y-76222865D01*
X104215776Y-76362214D01*
X104215773Y-76362218D01*
X104106284Y-76526079D01*
X104106277Y-76526092D01*
X104030863Y-76708160D01*
X104030860Y-76708170D01*
X103992413Y-76901456D01*
X103992413Y-82382255D01*
X103991816Y-82394408D01*
X103988725Y-82425789D01*
X103987572Y-82437501D01*
X100998254Y-82437501D01*
X100994010Y-82394408D01*
X100993413Y-82382255D01*
X100993413Y-77146381D01*
X100995796Y-77122187D01*
X101000500Y-77098540D01*
X101000500Y-77055244D01*
X101001097Y-77043090D01*
X101005341Y-77000000D01*
X101001097Y-76956907D01*
X101000500Y-76944754D01*
X101000500Y-76901458D01*
X100998117Y-76889480D01*
X100992052Y-76858990D01*
X100990268Y-76846961D01*
X100986024Y-76803869D01*
X100986024Y-76803868D01*
X100973448Y-76762414D01*
X100970499Y-76750640D01*
X100962051Y-76708165D01*
X100945480Y-76668159D01*
X100941383Y-76656710D01*
X100928814Y-76615273D01*
X100908404Y-76577091D01*
X100903203Y-76566095D01*
X100886632Y-76526086D01*
X100862572Y-76490078D01*
X100856316Y-76479640D01*
X100835911Y-76441464D01*
X100835910Y-76441462D01*
X100808438Y-76407988D01*
X100801194Y-76398219D01*
X100777140Y-76362219D01*
X100777136Y-76362214D01*
X100746520Y-76331599D01*
X100738346Y-76322581D01*
X100710884Y-76289118D01*
X100677416Y-76261651D01*
X100668401Y-76253479D01*
X100637787Y-76222865D01*
X100637783Y-76222862D01*
X100637780Y-76222860D01*
X100621139Y-76211740D01*
X100601772Y-76198799D01*
X100592002Y-76191552D01*
X100558543Y-76164094D01*
X100558535Y-76164088D01*
X100541436Y-76154948D01*
X100520350Y-76143678D01*
X100509918Y-76137425D01*
X100473918Y-76113370D01*
X100473914Y-76113368D01*
X100433915Y-76096800D01*
X100422913Y-76091597D01*
X100384729Y-76071187D01*
X100384728Y-76071186D01*
X100384727Y-76071186D01*
X100343277Y-76058612D01*
X100331834Y-76054517D01*
X100291834Y-76037948D01*
X100291827Y-76037946D01*
X100249378Y-76029503D01*
X100237575Y-76026547D01*
X100196134Y-76013976D01*
X100196130Y-76013975D01*
X100153035Y-76009730D01*
X100141006Y-76007945D01*
X100098544Y-75999500D01*
X100098541Y-75999500D01*
X100091454Y-75999500D01*
X100055244Y-75999500D01*
X100043090Y-75998903D01*
X100000000Y-75994659D01*
X99956910Y-75998903D01*
X99944756Y-75999500D01*
X99894372Y-75999500D01*
X99844954Y-76009329D01*
X99832921Y-76011114D01*
X99803870Y-76013975D01*
X99775927Y-76022451D01*
X99764129Y-76025406D01*
X99701077Y-76037948D01*
X99701075Y-76037949D01*
X99641678Y-76062551D01*
X99630231Y-76066647D01*
X99615276Y-76071184D01*
X99615269Y-76071187D01*
X99601479Y-76078557D01*
X99590489Y-76083754D01*
X99519002Y-76113365D01*
X99518998Y-76113367D01*
X99454645Y-76156366D01*
X99444217Y-76162617D01*
X99441469Y-76164085D01*
X99441457Y-76164093D01*
X99439029Y-76166086D01*
X99429277Y-76173316D01*
X99355133Y-76222858D01*
X99355125Y-76222865D01*
X99215776Y-76362214D01*
X99215773Y-76362218D01*
X99106284Y-76526079D01*
X99106277Y-76526092D01*
X99030863Y-76708160D01*
X99030860Y-76708170D01*
X98992413Y-76901456D01*
X98992413Y-82382255D01*
X98991816Y-82394408D01*
X98988725Y-82425789D01*
X98987572Y-82437501D01*
X95998254Y-82437501D01*
X95994010Y-82394408D01*
X95993413Y-82382255D01*
X95993413Y-77146381D01*
X95995796Y-77122187D01*
X96000500Y-77098540D01*
X96000500Y-77055244D01*
X96001097Y-77043090D01*
X96005341Y-77000000D01*
X96001097Y-76956907D01*
X96000500Y-76944754D01*
X96000500Y-76901458D01*
X95998117Y-76889480D01*
X95992052Y-76858990D01*
X95990268Y-76846961D01*
X95986024Y-76803869D01*
X95986024Y-76803868D01*
X95973448Y-76762414D01*
X95970499Y-76750640D01*
X95962051Y-76708165D01*
X95945480Y-76668159D01*
X95941383Y-76656710D01*
X95928814Y-76615273D01*
X95908404Y-76577091D01*
X95903203Y-76566095D01*
X95886632Y-76526086D01*
X95862572Y-76490078D01*
X95856316Y-76479640D01*
X95835911Y-76441464D01*
X95835910Y-76441462D01*
X95808438Y-76407988D01*
X95801194Y-76398219D01*
X95777140Y-76362219D01*
X95777136Y-76362214D01*
X95746520Y-76331599D01*
X95738346Y-76322581D01*
X95710884Y-76289118D01*
X95677416Y-76261651D01*
X95668401Y-76253479D01*
X95637787Y-76222865D01*
X95637783Y-76222862D01*
X95637780Y-76222860D01*
X95621139Y-76211740D01*
X95601772Y-76198799D01*
X95592002Y-76191552D01*
X95558543Y-76164094D01*
X95558535Y-76164088D01*
X95541436Y-76154948D01*
X95520350Y-76143678D01*
X95509918Y-76137425D01*
X95473918Y-76113370D01*
X95473914Y-76113368D01*
X95433915Y-76096800D01*
X95422913Y-76091597D01*
X95384729Y-76071187D01*
X95384728Y-76071186D01*
X95384727Y-76071186D01*
X95343277Y-76058612D01*
X95331834Y-76054517D01*
X95291834Y-76037948D01*
X95291827Y-76037946D01*
X95249378Y-76029503D01*
X95237575Y-76026547D01*
X95196134Y-76013976D01*
X95196130Y-76013975D01*
X95153035Y-76009730D01*
X95141006Y-76007945D01*
X95098544Y-75999500D01*
X95098541Y-75999500D01*
X95091454Y-75999500D01*
X95055244Y-75999500D01*
X95043090Y-75998903D01*
X95000000Y-75994659D01*
X94956910Y-75998903D01*
X94944756Y-75999500D01*
X94894372Y-75999500D01*
X94844954Y-76009329D01*
X94832921Y-76011114D01*
X94803870Y-76013975D01*
X94775927Y-76022451D01*
X94764129Y-76025406D01*
X94701077Y-76037948D01*
X94701075Y-76037949D01*
X94641678Y-76062551D01*
X94630231Y-76066647D01*
X94615276Y-76071184D01*
X94615269Y-76071187D01*
X94601479Y-76078557D01*
X94590489Y-76083754D01*
X94519002Y-76113365D01*
X94518998Y-76113367D01*
X94454645Y-76156366D01*
X94444217Y-76162617D01*
X94441469Y-76164085D01*
X94441457Y-76164093D01*
X94439029Y-76166086D01*
X94429277Y-76173316D01*
X94355133Y-76222858D01*
X94355125Y-76222865D01*
X94215776Y-76362214D01*
X94215773Y-76362218D01*
X94106284Y-76526079D01*
X94106277Y-76526092D01*
X94030863Y-76708160D01*
X94030860Y-76708170D01*
X93992413Y-76901456D01*
X93992413Y-82382255D01*
X93991816Y-82394408D01*
X93988725Y-82425789D01*
X93987572Y-82437501D01*
X90998254Y-82437501D01*
X90994010Y-82394408D01*
X90993413Y-82382255D01*
X90993413Y-77146381D01*
X90995796Y-77122187D01*
X91000500Y-77098540D01*
X91000500Y-77055244D01*
X91001097Y-77043090D01*
X91005341Y-77000000D01*
X91001097Y-76956907D01*
X91000500Y-76944754D01*
X91000500Y-76901458D01*
X90998117Y-76889480D01*
X90992052Y-76858990D01*
X90990268Y-76846961D01*
X90986024Y-76803869D01*
X90986024Y-76803868D01*
X90973448Y-76762414D01*
X90970499Y-76750640D01*
X90962051Y-76708165D01*
X90945480Y-76668159D01*
X90941383Y-76656710D01*
X90928814Y-76615273D01*
X90908404Y-76577091D01*
X90903203Y-76566095D01*
X90886632Y-76526086D01*
X90862572Y-76490078D01*
X90856316Y-76479640D01*
X90835911Y-76441464D01*
X90835910Y-76441462D01*
X90808438Y-76407988D01*
X90801194Y-76398219D01*
X90777140Y-76362219D01*
X90777136Y-76362214D01*
X90746520Y-76331599D01*
X90738346Y-76322581D01*
X90710884Y-76289118D01*
X90677416Y-76261651D01*
X90668401Y-76253479D01*
X90637787Y-76222865D01*
X90637783Y-76222862D01*
X90637780Y-76222860D01*
X90621139Y-76211740D01*
X90601772Y-76198799D01*
X90592002Y-76191552D01*
X90558543Y-76164094D01*
X90558535Y-76164088D01*
X90541436Y-76154948D01*
X90520350Y-76143678D01*
X90509918Y-76137425D01*
X90473918Y-76113370D01*
X90473914Y-76113368D01*
X90433915Y-76096800D01*
X90422913Y-76091597D01*
X90384729Y-76071187D01*
X90384728Y-76071186D01*
X90384727Y-76071186D01*
X90343277Y-76058612D01*
X90331834Y-76054517D01*
X90291834Y-76037948D01*
X90291827Y-76037946D01*
X90249378Y-76029503D01*
X90237575Y-76026547D01*
X90196134Y-76013976D01*
X90196130Y-76013975D01*
X90153035Y-76009730D01*
X90141006Y-76007945D01*
X90098544Y-75999500D01*
X90098541Y-75999500D01*
X90091454Y-75999500D01*
X90055244Y-75999500D01*
X90043090Y-75998903D01*
X90000000Y-75994659D01*
X89956910Y-75998903D01*
X89944756Y-75999500D01*
X89894372Y-75999500D01*
X89844954Y-76009329D01*
X89832921Y-76011114D01*
X89803870Y-76013975D01*
X89775927Y-76022451D01*
X89764129Y-76025406D01*
X89701077Y-76037948D01*
X89701075Y-76037949D01*
X89641678Y-76062551D01*
X89630231Y-76066647D01*
X89615276Y-76071184D01*
X89615269Y-76071187D01*
X89601479Y-76078557D01*
X89590489Y-76083754D01*
X89519002Y-76113365D01*
X89518998Y-76113367D01*
X89454645Y-76156366D01*
X89444217Y-76162617D01*
X89441469Y-76164085D01*
X89441457Y-76164093D01*
X89439029Y-76166086D01*
X89429277Y-76173316D01*
X89355133Y-76222858D01*
X89355125Y-76222865D01*
X89215776Y-76362214D01*
X89215773Y-76362218D01*
X89106284Y-76526079D01*
X89106277Y-76526092D01*
X89030863Y-76708160D01*
X89030860Y-76708170D01*
X88992413Y-76901456D01*
X88992413Y-82382255D01*
X88991816Y-82394408D01*
X88988725Y-82425789D01*
X88987572Y-82437501D01*
X40500500Y-82437501D01*
X40500500Y-70881995D01*
X82199500Y-70881995D01*
X82199500Y-71118004D01*
X82199501Y-71118020D01*
X82230306Y-71352010D01*
X82291394Y-71579993D01*
X82381714Y-71798045D01*
X82381719Y-71798056D01*
X82452677Y-71920957D01*
X82499727Y-72002450D01*
X82499729Y-72002453D01*
X82499730Y-72002454D01*
X82643406Y-72189697D01*
X82643412Y-72189704D01*
X82810295Y-72356587D01*
X82810301Y-72356592D01*
X82997550Y-72500273D01*
X83128918Y-72576118D01*
X83201943Y-72618280D01*
X83201948Y-72618282D01*
X83201951Y-72618284D01*
X83420007Y-72708606D01*
X83647986Y-72769693D01*
X83881989Y-72800500D01*
X83881996Y-72800500D01*
X84118004Y-72800500D01*
X84118011Y-72800500D01*
X84352014Y-72769693D01*
X84579993Y-72708606D01*
X84798049Y-72618284D01*
X85002450Y-72500273D01*
X85189699Y-72356592D01*
X85356592Y-72189699D01*
X85500273Y-72002450D01*
X85618284Y-71798049D01*
X85708606Y-71579993D01*
X85769693Y-71352014D01*
X85800500Y-71118011D01*
X85800500Y-70881989D01*
X85769693Y-70647986D01*
X85708606Y-70420007D01*
X85618284Y-70201951D01*
X85618282Y-70201948D01*
X85618280Y-70201943D01*
X85576118Y-70128918D01*
X85500273Y-69997550D01*
X85356592Y-69810301D01*
X85356587Y-69810295D01*
X85189704Y-69643412D01*
X85189697Y-69643406D01*
X85002454Y-69499730D01*
X85002453Y-69499729D01*
X85002450Y-69499727D01*
X84920957Y-69452677D01*
X84798056Y-69381719D01*
X84798045Y-69381714D01*
X84579993Y-69291394D01*
X84352010Y-69230306D01*
X84118020Y-69199501D01*
X84118017Y-69199500D01*
X84118011Y-69199500D01*
X83881989Y-69199500D01*
X83881983Y-69199500D01*
X83881979Y-69199501D01*
X83647989Y-69230306D01*
X83420006Y-69291394D01*
X83201954Y-69381714D01*
X83201943Y-69381719D01*
X82997545Y-69499730D01*
X82810302Y-69643406D01*
X82810295Y-69643412D01*
X82643412Y-69810295D01*
X82643406Y-69810302D01*
X82499730Y-69997545D01*
X82381719Y-70201943D01*
X82381714Y-70201954D01*
X82291394Y-70420006D01*
X82230306Y-70647989D01*
X82199501Y-70881979D01*
X82199500Y-70881995D01*
X40500500Y-70881995D01*
X40500500Y-60349996D01*
X119141935Y-60349996D01*
X119141935Y-60350003D01*
X119162130Y-60529249D01*
X119162131Y-60529254D01*
X119221711Y-60699523D01*
X119317684Y-60852262D01*
X119445238Y-60979816D01*
X119597978Y-61075789D01*
X119768245Y-61135368D01*
X119768250Y-61135369D01*
X119947496Y-61155565D01*
X119947500Y-61155565D01*
X119947504Y-61155565D01*
X120126749Y-61135369D01*
X120126752Y-61135368D01*
X120126755Y-61135368D01*
X120297022Y-61075789D01*
X120449762Y-60979816D01*
X120577316Y-60852262D01*
X120673289Y-60699522D01*
X120732868Y-60529255D01*
X120753065Y-60350000D01*
X120732868Y-60170745D01*
X120673289Y-60000478D01*
X120577316Y-59847738D01*
X120577314Y-59847736D01*
X120577313Y-59847734D01*
X120575050Y-59844896D01*
X120574159Y-59842715D01*
X120573611Y-59841842D01*
X120573764Y-59841745D01*
X120548644Y-59780209D01*
X120548000Y-59767587D01*
X120548000Y-56950123D01*
X120567685Y-56883084D01*
X120606024Y-56845132D01*
X120749762Y-56754816D01*
X120877316Y-56627262D01*
X120973289Y-56474522D01*
X121016863Y-56349996D01*
X125094435Y-56349996D01*
X125094435Y-56350003D01*
X125114630Y-56529249D01*
X125114631Y-56529254D01*
X125174211Y-56699523D01*
X125234515Y-56795496D01*
X125269258Y-56850789D01*
X125270185Y-56852263D01*
X125272445Y-56855097D01*
X125273334Y-56857275D01*
X125273889Y-56858158D01*
X125273734Y-56858255D01*
X125298855Y-56919783D01*
X125299500Y-56932412D01*
X125299500Y-61388330D01*
X125299499Y-61388348D01*
X125299499Y-61554054D01*
X125299498Y-61554054D01*
X125340423Y-61706785D01*
X125369358Y-61756900D01*
X125369359Y-61756904D01*
X125369360Y-61756904D01*
X125419479Y-61843714D01*
X125419481Y-61843717D01*
X125538349Y-61962585D01*
X125538355Y-61962590D01*
X126688181Y-63112416D01*
X126721666Y-63173739D01*
X126724500Y-63200097D01*
X126724500Y-67667587D01*
X126704815Y-67734626D01*
X126697450Y-67744896D01*
X126695186Y-67747734D01*
X126599211Y-67900476D01*
X126539631Y-68070745D01*
X126539630Y-68070750D01*
X126519435Y-68249996D01*
X126519435Y-68250003D01*
X126539630Y-68429249D01*
X126539631Y-68429254D01*
X126599211Y-68599523D01*
X126695184Y-68752262D01*
X126822738Y-68879816D01*
X126975478Y-68975789D01*
X127145745Y-69035368D01*
X127145750Y-69035369D01*
X127324996Y-69055565D01*
X127325000Y-69055565D01*
X127325004Y-69055565D01*
X127504249Y-69035369D01*
X127504252Y-69035368D01*
X127504255Y-69035368D01*
X127674522Y-68975789D01*
X127827262Y-68879816D01*
X127954816Y-68752262D01*
X128050789Y-68599522D01*
X128110368Y-68429255D01*
X128130565Y-68250000D01*
X128110368Y-68070745D01*
X128050789Y-67900478D01*
X127954816Y-67747738D01*
X127954814Y-67747736D01*
X127954813Y-67747734D01*
X127952550Y-67744896D01*
X127951659Y-67742715D01*
X127951111Y-67741842D01*
X127951264Y-67741745D01*
X127926144Y-67680209D01*
X127925500Y-67667587D01*
X127925500Y-67099996D01*
X130444435Y-67099996D01*
X130444435Y-67100003D01*
X130464630Y-67279249D01*
X130464631Y-67279254D01*
X130524211Y-67449523D01*
X130620185Y-67602263D01*
X130622445Y-67605097D01*
X130623334Y-67607275D01*
X130623889Y-67608158D01*
X130623734Y-67608255D01*
X130648855Y-67669783D01*
X130649500Y-67682412D01*
X130649500Y-75263330D01*
X130649499Y-75263348D01*
X130649499Y-75429054D01*
X130649498Y-75429054D01*
X130649499Y-75429057D01*
X130690423Y-75581785D01*
X130719290Y-75631784D01*
X130719290Y-75631785D01*
X130769475Y-75718709D01*
X130769481Y-75718717D01*
X130888349Y-75837585D01*
X130888355Y-75837590D01*
X135865139Y-80814374D01*
X135865149Y-80814385D01*
X135869479Y-80818715D01*
X135869480Y-80818716D01*
X135981284Y-80930520D01*
X136056960Y-80974211D01*
X136118215Y-81009577D01*
X136270943Y-81050500D01*
X137388339Y-81050500D01*
X137455378Y-81070185D01*
X137501133Y-81122989D01*
X137511077Y-81192147D01*
X137493332Y-81240473D01*
X137424211Y-81350475D01*
X137364631Y-81520745D01*
X137364630Y-81520750D01*
X137344435Y-81699996D01*
X137344435Y-81700003D01*
X137364630Y-81879249D01*
X137364631Y-81879254D01*
X137424211Y-82049523D01*
X137520184Y-82202262D01*
X137647738Y-82329816D01*
X137800478Y-82425789D01*
X137868346Y-82449537D01*
X137970745Y-82485368D01*
X137970750Y-82485369D01*
X138149996Y-82505565D01*
X138150000Y-82505565D01*
X138150004Y-82505565D01*
X138329249Y-82485369D01*
X138329252Y-82485368D01*
X138329255Y-82485368D01*
X138499522Y-82425789D01*
X138652262Y-82329816D01*
X138698496Y-82283580D01*
X138725756Y-82265393D01*
X138724745Y-82263642D01*
X138781899Y-82230642D01*
X138781904Y-82230639D01*
X138868716Y-82180520D01*
X138980520Y-82068716D01*
X138980520Y-82068714D01*
X138990728Y-82058507D01*
X138990730Y-82058504D01*
X142368535Y-78680698D01*
X142429856Y-78647215D01*
X142442311Y-78645163D01*
X142529255Y-78635368D01*
X142699522Y-78575789D01*
X142852262Y-78479816D01*
X142979816Y-78352262D01*
X143075789Y-78199522D01*
X143135368Y-78029255D01*
X143141083Y-77978531D01*
X143155565Y-77850003D01*
X143155565Y-77849996D01*
X143135369Y-77670750D01*
X143135368Y-77670745D01*
X143075788Y-77500476D01*
X143003461Y-77385369D01*
X142979816Y-77347738D01*
X142852262Y-77220184D01*
X142820935Y-77200500D01*
X142699521Y-77124210D01*
X142529249Y-77064630D01*
X142442330Y-77054837D01*
X142377916Y-77027770D01*
X142368533Y-77019298D01*
X141587590Y-76238355D01*
X141587588Y-76238352D01*
X141468717Y-76119481D01*
X141468716Y-76119480D01*
X141365329Y-76059790D01*
X141365328Y-76059789D01*
X141331783Y-76040422D01*
X141271312Y-76024219D01*
X141179057Y-75999499D01*
X141020943Y-75999499D01*
X141013347Y-75999499D01*
X141013331Y-75999500D01*
X140732412Y-75999500D01*
X140665373Y-75979815D01*
X140655097Y-75972445D01*
X140652263Y-75970185D01*
X140652262Y-75970184D01*
X140544165Y-75902262D01*
X140499521Y-75874210D01*
X140329249Y-75814630D01*
X140242330Y-75804837D01*
X140177916Y-75777770D01*
X140168533Y-75769298D01*
X139437590Y-75038355D01*
X139437588Y-75038352D01*
X139318717Y-74919481D01*
X139318716Y-74919480D01*
X139231904Y-74869360D01*
X139231904Y-74869359D01*
X139231900Y-74869358D01*
X139181785Y-74840423D01*
X139029057Y-74799499D01*
X138870943Y-74799499D01*
X138863347Y-74799499D01*
X138863331Y-74799500D01*
X138674500Y-74799500D01*
X138607461Y-74779815D01*
X138561706Y-74727011D01*
X138550500Y-74675500D01*
X138550500Y-64535928D01*
X138525502Y-64410261D01*
X138525501Y-64410260D01*
X138525501Y-64410256D01*
X138476465Y-64291873D01*
X138405277Y-64185331D01*
X138405275Y-64185329D01*
X138405273Y-64185326D01*
X138405272Y-64185325D01*
X132971722Y-58751776D01*
X132938237Y-58690453D01*
X132936182Y-58677973D01*
X132935368Y-58670745D01*
X132875789Y-58500478D01*
X132779816Y-58347738D01*
X132652262Y-58220184D01*
X132499523Y-58124211D01*
X132329254Y-58064631D01*
X132329249Y-58064630D01*
X132150004Y-58044435D01*
X132149996Y-58044435D01*
X131970750Y-58064630D01*
X131970745Y-58064631D01*
X131800476Y-58124211D01*
X131647737Y-58220184D01*
X131520184Y-58347737D01*
X131424211Y-58500476D01*
X131364631Y-58670745D01*
X131364630Y-58670750D01*
X131344435Y-58849996D01*
X131344435Y-58850003D01*
X131364630Y-59029249D01*
X131364631Y-59029254D01*
X131424211Y-59199523D01*
X131520184Y-59352262D01*
X131647738Y-59479816D01*
X131800478Y-59575789D01*
X131970745Y-59635368D01*
X131977974Y-59636182D01*
X132042388Y-59663246D01*
X132051776Y-59671722D01*
X137213181Y-64833127D01*
X137246666Y-64894450D01*
X137249500Y-64920808D01*
X137249500Y-74894931D01*
X137230494Y-74960903D01*
X137174211Y-75050477D01*
X137174209Y-75050481D01*
X137114633Y-75220737D01*
X137114630Y-75220750D01*
X137094435Y-75399996D01*
X137094435Y-75400003D01*
X137114630Y-75579249D01*
X137114631Y-75579254D01*
X137174211Y-75749523D01*
X137229548Y-75837590D01*
X137270184Y-75902262D01*
X137397738Y-76029816D01*
X137453542Y-76064880D01*
X137540435Y-76119479D01*
X137550478Y-76125789D01*
X137720745Y-76185368D01*
X137720750Y-76185369D01*
X137899996Y-76205565D01*
X137900000Y-76205565D01*
X137900004Y-76205565D01*
X138079249Y-76185369D01*
X138079252Y-76185368D01*
X138079255Y-76185368D01*
X138249522Y-76125789D01*
X138402262Y-76029816D01*
X138402267Y-76029810D01*
X138405097Y-76027555D01*
X138407275Y-76026665D01*
X138408158Y-76026111D01*
X138408255Y-76026265D01*
X138469783Y-76001145D01*
X138482412Y-76000500D01*
X138649903Y-76000500D01*
X138716942Y-76020185D01*
X138737584Y-76036819D01*
X139319298Y-76618533D01*
X139352783Y-76679856D01*
X139354837Y-76692330D01*
X139364630Y-76779249D01*
X139424210Y-76949521D01*
X139496538Y-77064630D01*
X139520184Y-77102262D01*
X139647738Y-77229816D01*
X139800478Y-77325789D01*
X139970745Y-77385368D01*
X139970750Y-77385369D01*
X140149996Y-77405565D01*
X140150000Y-77405565D01*
X140150004Y-77405565D01*
X140329249Y-77385369D01*
X140329252Y-77385368D01*
X140329255Y-77385368D01*
X140499522Y-77325789D01*
X140652262Y-77229816D01*
X140652267Y-77229810D01*
X140655097Y-77227555D01*
X140657275Y-77226665D01*
X140658158Y-77226111D01*
X140658255Y-77226265D01*
X140719783Y-77201145D01*
X140732412Y-77200500D01*
X140799903Y-77200500D01*
X140866942Y-77220185D01*
X140887584Y-77236819D01*
X141413083Y-77762318D01*
X141446568Y-77823641D01*
X141441584Y-77893333D01*
X141413083Y-77937680D01*
X139112407Y-80238356D01*
X139051084Y-80271841D01*
X138981392Y-80266857D01*
X138925459Y-80224985D01*
X138907684Y-80191629D01*
X138875789Y-80100478D01*
X138779815Y-79947737D01*
X138652262Y-79820184D01*
X138499523Y-79724211D01*
X138329254Y-79664631D01*
X138329249Y-79664630D01*
X138150004Y-79644435D01*
X138149996Y-79644435D01*
X137970750Y-79664630D01*
X137970745Y-79664631D01*
X137800476Y-79724211D01*
X137647736Y-79820185D01*
X137644903Y-79822445D01*
X137642724Y-79823334D01*
X137641842Y-79823889D01*
X137641744Y-79823734D01*
X137580217Y-79848855D01*
X137567588Y-79849500D01*
X136650097Y-79849500D01*
X136583058Y-79829815D01*
X136562416Y-79813181D01*
X135542169Y-78792934D01*
X135508684Y-78731611D01*
X135513668Y-78661919D01*
X135555540Y-78605986D01*
X135621004Y-78581569D01*
X135654041Y-78583636D01*
X135765465Y-78605799D01*
X135765469Y-78605800D01*
X135765470Y-78605800D01*
X135902531Y-78605800D01*
X135902532Y-78605799D01*
X136036957Y-78579061D01*
X136163585Y-78526610D01*
X136277547Y-78450463D01*
X136374463Y-78353547D01*
X136450610Y-78239585D01*
X136503061Y-78112957D01*
X136529800Y-77978530D01*
X136529800Y-77841470D01*
X136529799Y-77841465D01*
X137170200Y-77841465D01*
X137170200Y-77978534D01*
X137196937Y-78112949D01*
X137196940Y-78112961D01*
X137249386Y-78239578D01*
X137249393Y-78239591D01*
X137325536Y-78353546D01*
X137325539Y-78353550D01*
X137422449Y-78450460D01*
X137422453Y-78450463D01*
X137536408Y-78526606D01*
X137536421Y-78526613D01*
X137663038Y-78579059D01*
X137663043Y-78579061D01*
X137797465Y-78605799D01*
X137797469Y-78605800D01*
X137797470Y-78605800D01*
X137934531Y-78605800D01*
X137934532Y-78605799D01*
X138068957Y-78579061D01*
X138195585Y-78526610D01*
X138309547Y-78450463D01*
X138406463Y-78353547D01*
X138482610Y-78239585D01*
X138535061Y-78112957D01*
X138561800Y-77978530D01*
X138561800Y-77841470D01*
X138535061Y-77707043D01*
X138520026Y-77670745D01*
X138482613Y-77580421D01*
X138482606Y-77580408D01*
X138406463Y-77466453D01*
X138406460Y-77466449D01*
X138309550Y-77369539D01*
X138309546Y-77369536D01*
X138195591Y-77293393D01*
X138195578Y-77293386D01*
X138068961Y-77240940D01*
X138068949Y-77240937D01*
X137934534Y-77214200D01*
X137934530Y-77214200D01*
X137797470Y-77214200D01*
X137797465Y-77214200D01*
X137663050Y-77240937D01*
X137663038Y-77240940D01*
X137536421Y-77293386D01*
X137536408Y-77293393D01*
X137422453Y-77369536D01*
X137422449Y-77369539D01*
X137325539Y-77466449D01*
X137325536Y-77466453D01*
X137249393Y-77580408D01*
X137249386Y-77580421D01*
X137196940Y-77707038D01*
X137196937Y-77707050D01*
X137170200Y-77841465D01*
X136529799Y-77841465D01*
X136503061Y-77707043D01*
X136488026Y-77670745D01*
X136450613Y-77580421D01*
X136450606Y-77580408D01*
X136374463Y-77466453D01*
X136374460Y-77466449D01*
X136277550Y-77369539D01*
X136277546Y-77369536D01*
X136163591Y-77293393D01*
X136163578Y-77293386D01*
X136036961Y-77240940D01*
X136036949Y-77240937D01*
X135902534Y-77214200D01*
X135902530Y-77214200D01*
X135765470Y-77214200D01*
X135765465Y-77214200D01*
X135631050Y-77240937D01*
X135631038Y-77240940D01*
X135504421Y-77293386D01*
X135504408Y-77293393D01*
X135390453Y-77369536D01*
X135390449Y-77369539D01*
X135293539Y-77466449D01*
X135293536Y-77466453D01*
X135217393Y-77580408D01*
X135217386Y-77580421D01*
X135164940Y-77707038D01*
X135164937Y-77707050D01*
X135138200Y-77841465D01*
X135138200Y-77841469D01*
X135138200Y-77841470D01*
X135138200Y-77978530D01*
X135138201Y-77978534D01*
X135160364Y-78089959D01*
X135154135Y-78159550D01*
X135111272Y-78214727D01*
X135045382Y-78237971D01*
X134977385Y-78221903D01*
X134951065Y-78201830D01*
X131886819Y-75137584D01*
X131853334Y-75076261D01*
X131850500Y-75049903D01*
X131850500Y-67682412D01*
X131870185Y-67615373D01*
X131877555Y-67605097D01*
X131879810Y-67602267D01*
X131879816Y-67602262D01*
X131975789Y-67449522D01*
X132035368Y-67279255D01*
X132055565Y-67100000D01*
X132035368Y-66920745D01*
X131975789Y-66750478D01*
X131879816Y-66597738D01*
X131752262Y-66470184D01*
X131599523Y-66374211D01*
X131429254Y-66314631D01*
X131429249Y-66314630D01*
X131250004Y-66294435D01*
X131249996Y-66294435D01*
X131070750Y-66314630D01*
X131070745Y-66314631D01*
X130900476Y-66374211D01*
X130747737Y-66470184D01*
X130620184Y-66597737D01*
X130524211Y-66750476D01*
X130464631Y-66920745D01*
X130464630Y-66920750D01*
X130444435Y-67099996D01*
X127925500Y-67099996D01*
X127925500Y-62820945D01*
X127925500Y-62820943D01*
X127884577Y-62668216D01*
X127884573Y-62668209D01*
X127805524Y-62531290D01*
X127805521Y-62531286D01*
X127805520Y-62531284D01*
X127693716Y-62419480D01*
X127693715Y-62419479D01*
X127689385Y-62415149D01*
X127689374Y-62415139D01*
X126536819Y-61262584D01*
X126503334Y-61201261D01*
X126500500Y-61174903D01*
X126500500Y-56932412D01*
X126520185Y-56865373D01*
X126527555Y-56855097D01*
X126529810Y-56852267D01*
X126529816Y-56852262D01*
X126625789Y-56699522D01*
X126685368Y-56529255D01*
X126705565Y-56350000D01*
X126705108Y-56345945D01*
X126685369Y-56170750D01*
X126685368Y-56170745D01*
X126658346Y-56093520D01*
X126625789Y-56000478D01*
X126529816Y-55847738D01*
X126402262Y-55720184D01*
X126249523Y-55624211D01*
X126079254Y-55564631D01*
X126079249Y-55564630D01*
X125900004Y-55544435D01*
X125899996Y-55544435D01*
X125720750Y-55564630D01*
X125720745Y-55564631D01*
X125550476Y-55624211D01*
X125397737Y-55720184D01*
X125270184Y-55847737D01*
X125174211Y-56000476D01*
X125114631Y-56170745D01*
X125114630Y-56170750D01*
X125094435Y-56349996D01*
X121016863Y-56349996D01*
X121032868Y-56304255D01*
X121045379Y-56193215D01*
X121053065Y-56125003D01*
X121053065Y-56124996D01*
X121032869Y-55945750D01*
X121032868Y-55945745D01*
X120998574Y-55847738D01*
X120973289Y-55775478D01*
X120877316Y-55622738D01*
X120749762Y-55495184D01*
X120597023Y-55399211D01*
X120426754Y-55339631D01*
X120426749Y-55339630D01*
X120247504Y-55319435D01*
X120247496Y-55319435D01*
X120068250Y-55339630D01*
X120068245Y-55339631D01*
X119897976Y-55399211D01*
X119745237Y-55495184D01*
X119617684Y-55622737D01*
X119521710Y-55775478D01*
X119462130Y-55945750D01*
X119448377Y-56067813D01*
X119432552Y-56115915D01*
X119431224Y-56118216D01*
X119387923Y-56193215D01*
X119346999Y-56345943D01*
X119346999Y-56345945D01*
X119346999Y-56514046D01*
X119347000Y-56514059D01*
X119347000Y-59767587D01*
X119327315Y-59834626D01*
X119319950Y-59844896D01*
X119317686Y-59847734D01*
X119221711Y-60000476D01*
X119162131Y-60170745D01*
X119162130Y-60170750D01*
X119141935Y-60349996D01*
X40500500Y-60349996D01*
X40500500Y-32504066D01*
X40500765Y-32495956D01*
X40504819Y-32434108D01*
X40517075Y-32247102D01*
X40519190Y-32231048D01*
X40567045Y-31990462D01*
X40571243Y-31974797D01*
X40594337Y-31906762D01*
X40650093Y-31742512D01*
X40656291Y-31727547D01*
X40764790Y-31507533D01*
X40772893Y-31493498D01*
X40909182Y-31289527D01*
X40919039Y-31276681D01*
X41080786Y-31092244D01*
X41092244Y-31080786D01*
X41276681Y-30919039D01*
X41289527Y-30909182D01*
X41493498Y-30772893D01*
X41507533Y-30764790D01*
X41727547Y-30656291D01*
X41742512Y-30650093D01*
X41906762Y-30594337D01*
X41974797Y-30571243D01*
X41990464Y-30567045D01*
X42231048Y-30519190D01*
X42247102Y-30517075D01*
X42495957Y-30500765D01*
X42504067Y-30500500D01*
X42565892Y-30500500D01*
X142434108Y-30500500D01*
X142495933Y-30500500D01*
X142504043Y-30500765D01*
G37*
%TD.AperFunction*%
%TD*%
M02*
