M48
; DRILL file {KiCad 9.0.4} date 2025-09-01T02:23:11+0100
; FORMAT={-:-/ absolute / metric / decimal}
; #@! TF.CreationDate,2025-09-01T02:23:11+01:00
; #@! TF.GenerationSoftware,Kicad,Pcbnew,9.0.4
; #@! TF.FileFunction,Plated,1,2,PTH
FMAT,2
METRIC
; #@! TA.AperFunction,Plated,PTH,ViaDrill
T1C0.400
%
G90
G05
T1
X43.85Y-153.35
X44.6Y-112.35
X45.15Y-71.85
X47.95Y-38.25
X49.15Y-35.6
X53.75Y-31.95
X56.55Y-132.25
X59.7Y-40.2
X62.7Y-167.25
X62.7Y-171.75
X64.95Y-100.35
X70.4Y-73.3
X71.4Y-74.2
X72.3Y-75.2
X75.0Y-68.6
X76.0Y-69.6
X77.0Y-70.5
X77.6Y-43.5
X78.95Y-173.6
X79.1Y-42.0
X80.5Y-40.55
X80.55Y-112.25
X81.5Y-46.1
X82.4Y-53.5
X83.5Y-42.1
X83.5Y-43.5
X84.55Y-53.5
X84.9Y-48.6
X85.3Y-49.8
X85.35Y-64.95
X85.55Y-53.55
X85.8Y-33.45
X87.65Y-43.1
X89.9Y-46.15
X89.9Y-171.75
X89.925Y-167.25
X92.2Y-62.771
X92.2Y-67.771
X92.2Y-72.771
X92.2Y-77.771
X92.2Y-82.771
X92.2Y-87.771
X92.2Y-92.771
X92.2Y-97.771
X95.4Y-131.8
X95.4Y-157.15
X97.2Y-48.8
X97.2Y-62.771
X97.2Y-67.8
X97.2Y-72.8
X97.2Y-77.8
X97.2Y-82.8
X97.2Y-87.8
X97.2Y-92.8
X97.2Y-97.8
X102.2Y-53.3
X102.2Y-62.771
X102.2Y-67.8
X102.2Y-72.8
X102.2Y-77.8
X102.2Y-82.8
X102.2Y-87.8
X102.2Y-92.8
X102.2Y-97.8
X107.2Y-54.3
X107.2Y-62.771
X107.2Y-67.8
X107.2Y-72.8
X107.2Y-77.8
X107.2Y-82.8
X107.2Y-87.8
X107.2Y-92.8
X107.2Y-97.8
X112.2Y-55.3
X112.2Y-62.771
X112.2Y-67.8
X112.2Y-72.8
X112.2Y-77.8
X112.2Y-82.8
X112.2Y-87.8
X112.2Y-92.8
X112.2Y-97.8
X117.2Y-56.3
X117.2Y-62.771
X117.2Y-67.8
X117.2Y-72.8
X117.2Y-77.8
X117.2Y-82.8
X117.2Y-87.8
X117.2Y-92.8
X117.2Y-97.8
X122.2Y-57.3
X122.2Y-62.771
X122.2Y-67.8
X122.2Y-72.8
X122.2Y-77.8
X122.2Y-82.8
X122.2Y-87.8
X122.2Y-92.8
X122.2Y-97.8
X122.3Y-110.9
X123.25Y-167.25
X123.25Y-171.75
X127.2Y-58.25
X127.2Y-62.771
X127.2Y-67.8
X127.2Y-72.8
X127.2Y-77.8
X127.2Y-82.8
X127.2Y-87.8
X127.2Y-92.8
X127.2Y-97.8
X131.575Y-43.9
X131.585Y-38.5
X134.7Y-41.2
X136.9Y-35.15
X139.263Y-89.14
X139.55Y-59.4
X139.6Y-164.0
M30
