%TF.GenerationSoftware,KiCad,Pcbnew,8.0.6*%
%TF.CreationDate,2024-11-20T00:12:52+00:00*%
%TF.ProjectId,Chirstmas-Card,43686972-7374-46d6-9173-2d436172642e,rev?*%
%TF.SameCoordinates,Original*%
%TF.FileFunction,Legend,Bot*%
%TF.FilePolarity,Positive*%
%FSLAX46Y46*%
G04 Gerber Fmt 4.6, Leading zero omitted, Abs format (unit mm)*
G04 Created by KiCad (PCBNEW 8.0.6) date 2024-11-20 00:12:52*
%MOMM*%
%LPD*%
G01*
G04 APERTURE LIST*
%ADD10C,0.500000*%
%ADD11C,0.300000*%
%ADD12C,0.200000*%
%ADD13C,0.120000*%
%ADD14C,0.254000*%
%ADD15C,0.152000*%
%ADD16C,0.152500*%
%ADD17C,0.000000*%
G04 APERTURE END LIST*
D10*
X143000000Y-147000000D02*
X43000000Y-147000000D01*
X143000000Y-127000000D02*
X43000000Y-127000000D01*
X143000000Y-117000000D02*
X43000000Y-117000000D01*
X143000000Y-137000000D02*
X43000000Y-137000000D01*
X143000000Y-107000000D02*
X43000000Y-107000000D01*
X143000000Y-157000000D02*
X43000000Y-157000000D01*
D11*
X132159774Y-51347131D02*
X131874060Y-51442369D01*
X131874060Y-51442369D02*
X131778822Y-51537607D01*
X131778822Y-51537607D02*
X131683584Y-51728083D01*
X131683584Y-51728083D02*
X131683584Y-52013797D01*
X131683584Y-52013797D02*
X131778822Y-52204273D01*
X131778822Y-52204273D02*
X131874060Y-52299512D01*
X131874060Y-52299512D02*
X132064536Y-52394750D01*
X132064536Y-52394750D02*
X132826441Y-52394750D01*
X132826441Y-52394750D02*
X132826441Y-50394750D01*
X132826441Y-50394750D02*
X132159774Y-50394750D01*
X132159774Y-50394750D02*
X131969298Y-50489988D01*
X131969298Y-50489988D02*
X131874060Y-50585226D01*
X131874060Y-50585226D02*
X131778822Y-50775702D01*
X131778822Y-50775702D02*
X131778822Y-50966178D01*
X131778822Y-50966178D02*
X131874060Y-51156654D01*
X131874060Y-51156654D02*
X131969298Y-51251892D01*
X131969298Y-51251892D02*
X132159774Y-51347131D01*
X132159774Y-51347131D02*
X132826441Y-51347131D01*
X129969298Y-52394750D02*
X129969298Y-51347131D01*
X129969298Y-51347131D02*
X130064536Y-51156654D01*
X130064536Y-51156654D02*
X130255012Y-51061416D01*
X130255012Y-51061416D02*
X130635965Y-51061416D01*
X130635965Y-51061416D02*
X130826441Y-51156654D01*
X129969298Y-52299512D02*
X130159774Y-52394750D01*
X130159774Y-52394750D02*
X130635965Y-52394750D01*
X130635965Y-52394750D02*
X130826441Y-52299512D01*
X130826441Y-52299512D02*
X130921679Y-52109035D01*
X130921679Y-52109035D02*
X130921679Y-51918559D01*
X130921679Y-51918559D02*
X130826441Y-51728083D01*
X130826441Y-51728083D02*
X130635965Y-51632845D01*
X130635965Y-51632845D02*
X130159774Y-51632845D01*
X130159774Y-51632845D02*
X129969298Y-51537607D01*
X129302631Y-51061416D02*
X128540727Y-51061416D01*
X129016917Y-50394750D02*
X129016917Y-52109035D01*
X129016917Y-52109035D02*
X128921679Y-52299512D01*
X128921679Y-52299512D02*
X128731203Y-52394750D01*
X128731203Y-52394750D02*
X128540727Y-52394750D01*
X128159774Y-51061416D02*
X127397870Y-51061416D01*
X127874060Y-50394750D02*
X127874060Y-52109035D01*
X127874060Y-52109035D02*
X127778822Y-52299512D01*
X127778822Y-52299512D02*
X127588346Y-52394750D01*
X127588346Y-52394750D02*
X127397870Y-52394750D01*
X125969298Y-52299512D02*
X126159774Y-52394750D01*
X126159774Y-52394750D02*
X126540727Y-52394750D01*
X126540727Y-52394750D02*
X126731203Y-52299512D01*
X126731203Y-52299512D02*
X126826441Y-52109035D01*
X126826441Y-52109035D02*
X126826441Y-51347131D01*
X126826441Y-51347131D02*
X126731203Y-51156654D01*
X126731203Y-51156654D02*
X126540727Y-51061416D01*
X126540727Y-51061416D02*
X126159774Y-51061416D01*
X126159774Y-51061416D02*
X125969298Y-51156654D01*
X125969298Y-51156654D02*
X125874060Y-51347131D01*
X125874060Y-51347131D02*
X125874060Y-51537607D01*
X125874060Y-51537607D02*
X126826441Y-51728083D01*
X125016917Y-52394750D02*
X125016917Y-51061416D01*
X125016917Y-51442369D02*
X124921679Y-51251892D01*
X124921679Y-51251892D02*
X124826441Y-51156654D01*
X124826441Y-51156654D02*
X124635965Y-51061416D01*
X124635965Y-51061416D02*
X124445488Y-51061416D01*
X123969298Y-51061416D02*
X123493108Y-52394750D01*
X123016917Y-51061416D02*
X123493108Y-52394750D01*
X123493108Y-52394750D02*
X123683584Y-52870940D01*
X123683584Y-52870940D02*
X123778822Y-52966178D01*
X123778822Y-52966178D02*
X123969298Y-53061416D01*
X120731202Y-52394750D02*
X120731202Y-51061416D01*
X120731202Y-51251892D02*
X120635964Y-51156654D01*
X120635964Y-51156654D02*
X120445488Y-51061416D01*
X120445488Y-51061416D02*
X120159773Y-51061416D01*
X120159773Y-51061416D02*
X119969297Y-51156654D01*
X119969297Y-51156654D02*
X119874059Y-51347131D01*
X119874059Y-51347131D02*
X119874059Y-52394750D01*
X119874059Y-51347131D02*
X119778821Y-51156654D01*
X119778821Y-51156654D02*
X119588345Y-51061416D01*
X119588345Y-51061416D02*
X119302631Y-51061416D01*
X119302631Y-51061416D02*
X119112154Y-51156654D01*
X119112154Y-51156654D02*
X119016916Y-51347131D01*
X119016916Y-51347131D02*
X119016916Y-52394750D01*
X117778821Y-52394750D02*
X117969297Y-52299512D01*
X117969297Y-52299512D02*
X118064535Y-52204273D01*
X118064535Y-52204273D02*
X118159773Y-52013797D01*
X118159773Y-52013797D02*
X118159773Y-51442369D01*
X118159773Y-51442369D02*
X118064535Y-51251892D01*
X118064535Y-51251892D02*
X117969297Y-51156654D01*
X117969297Y-51156654D02*
X117778821Y-51061416D01*
X117778821Y-51061416D02*
X117493106Y-51061416D01*
X117493106Y-51061416D02*
X117302630Y-51156654D01*
X117302630Y-51156654D02*
X117207392Y-51251892D01*
X117207392Y-51251892D02*
X117112154Y-51442369D01*
X117112154Y-51442369D02*
X117112154Y-52013797D01*
X117112154Y-52013797D02*
X117207392Y-52204273D01*
X117207392Y-52204273D02*
X117302630Y-52299512D01*
X117302630Y-52299512D02*
X117493106Y-52394750D01*
X117493106Y-52394750D02*
X117778821Y-52394750D01*
X115397868Y-52394750D02*
X115397868Y-50394750D01*
X115397868Y-52299512D02*
X115588344Y-52394750D01*
X115588344Y-52394750D02*
X115969297Y-52394750D01*
X115969297Y-52394750D02*
X116159773Y-52299512D01*
X116159773Y-52299512D02*
X116255011Y-52204273D01*
X116255011Y-52204273D02*
X116350249Y-52013797D01*
X116350249Y-52013797D02*
X116350249Y-51442369D01*
X116350249Y-51442369D02*
X116255011Y-51251892D01*
X116255011Y-51251892D02*
X116159773Y-51156654D01*
X116159773Y-51156654D02*
X115969297Y-51061416D01*
X115969297Y-51061416D02*
X115588344Y-51061416D01*
X115588344Y-51061416D02*
X115397868Y-51156654D01*
X113683582Y-52299512D02*
X113874058Y-52394750D01*
X113874058Y-52394750D02*
X114255011Y-52394750D01*
X114255011Y-52394750D02*
X114445487Y-52299512D01*
X114445487Y-52299512D02*
X114540725Y-52109035D01*
X114540725Y-52109035D02*
X114540725Y-51347131D01*
X114540725Y-51347131D02*
X114445487Y-51156654D01*
X114445487Y-51156654D02*
X114255011Y-51061416D01*
X114255011Y-51061416D02*
X113874058Y-51061416D01*
X113874058Y-51061416D02*
X113683582Y-51156654D01*
X113683582Y-51156654D02*
X113588344Y-51347131D01*
X113588344Y-51347131D02*
X113588344Y-51537607D01*
X113588344Y-51537607D02*
X114540725Y-51728083D01*
X112445487Y-52394750D02*
X112635963Y-52299512D01*
X112635963Y-52299512D02*
X112731201Y-52109035D01*
X112731201Y-52109035D02*
X112731201Y-50394750D01*
X111683582Y-52204273D02*
X111588344Y-52299512D01*
X111588344Y-52299512D02*
X111683582Y-52394750D01*
X111683582Y-52394750D02*
X111778820Y-52299512D01*
X111778820Y-52299512D02*
X111683582Y-52204273D01*
X111683582Y-52204273D02*
X111683582Y-52394750D01*
X111683582Y-51156654D02*
X111588344Y-51251892D01*
X111588344Y-51251892D02*
X111683582Y-51347131D01*
X111683582Y-51347131D02*
X111778820Y-51251892D01*
X111778820Y-51251892D02*
X111683582Y-51156654D01*
X111683582Y-51156654D02*
X111683582Y-51347131D01*
X108064534Y-52204273D02*
X108159772Y-52299512D01*
X108159772Y-52299512D02*
X108445486Y-52394750D01*
X108445486Y-52394750D02*
X108635962Y-52394750D01*
X108635962Y-52394750D02*
X108921677Y-52299512D01*
X108921677Y-52299512D02*
X109112153Y-52109035D01*
X109112153Y-52109035D02*
X109207391Y-51918559D01*
X109207391Y-51918559D02*
X109302629Y-51537607D01*
X109302629Y-51537607D02*
X109302629Y-51251892D01*
X109302629Y-51251892D02*
X109207391Y-50870940D01*
X109207391Y-50870940D02*
X109112153Y-50680464D01*
X109112153Y-50680464D02*
X108921677Y-50489988D01*
X108921677Y-50489988D02*
X108635962Y-50394750D01*
X108635962Y-50394750D02*
X108445486Y-50394750D01*
X108445486Y-50394750D02*
X108159772Y-50489988D01*
X108159772Y-50489988D02*
X108064534Y-50585226D01*
X106064534Y-52394750D02*
X106731201Y-51442369D01*
X107207391Y-52394750D02*
X107207391Y-50394750D01*
X107207391Y-50394750D02*
X106445486Y-50394750D01*
X106445486Y-50394750D02*
X106255010Y-50489988D01*
X106255010Y-50489988D02*
X106159772Y-50585226D01*
X106159772Y-50585226D02*
X106064534Y-50775702D01*
X106064534Y-50775702D02*
X106064534Y-51061416D01*
X106064534Y-51061416D02*
X106159772Y-51251892D01*
X106159772Y-51251892D02*
X106255010Y-51347131D01*
X106255010Y-51347131D02*
X106445486Y-51442369D01*
X106445486Y-51442369D02*
X107207391Y-51442369D01*
X105302629Y-50585226D02*
X105207391Y-50489988D01*
X105207391Y-50489988D02*
X105016915Y-50394750D01*
X105016915Y-50394750D02*
X104540724Y-50394750D01*
X104540724Y-50394750D02*
X104350248Y-50489988D01*
X104350248Y-50489988D02*
X104255010Y-50585226D01*
X104255010Y-50585226D02*
X104159772Y-50775702D01*
X104159772Y-50775702D02*
X104159772Y-50966178D01*
X104159772Y-50966178D02*
X104255010Y-51251892D01*
X104255010Y-51251892D02*
X105397867Y-52394750D01*
X105397867Y-52394750D02*
X104159772Y-52394750D01*
X102921677Y-50394750D02*
X102731200Y-50394750D01*
X102731200Y-50394750D02*
X102540724Y-50489988D01*
X102540724Y-50489988D02*
X102445486Y-50585226D01*
X102445486Y-50585226D02*
X102350248Y-50775702D01*
X102350248Y-50775702D02*
X102255010Y-51156654D01*
X102255010Y-51156654D02*
X102255010Y-51632845D01*
X102255010Y-51632845D02*
X102350248Y-52013797D01*
X102350248Y-52013797D02*
X102445486Y-52204273D01*
X102445486Y-52204273D02*
X102540724Y-52299512D01*
X102540724Y-52299512D02*
X102731200Y-52394750D01*
X102731200Y-52394750D02*
X102921677Y-52394750D01*
X102921677Y-52394750D02*
X103112153Y-52299512D01*
X103112153Y-52299512D02*
X103207391Y-52204273D01*
X103207391Y-52204273D02*
X103302629Y-52013797D01*
X103302629Y-52013797D02*
X103397867Y-51632845D01*
X103397867Y-51632845D02*
X103397867Y-51156654D01*
X103397867Y-51156654D02*
X103302629Y-50775702D01*
X103302629Y-50775702D02*
X103207391Y-50585226D01*
X103207391Y-50585226D02*
X103112153Y-50489988D01*
X103112153Y-50489988D02*
X102921677Y-50394750D01*
X101588343Y-50394750D02*
X100350248Y-50394750D01*
X100350248Y-50394750D02*
X101016915Y-51156654D01*
X101016915Y-51156654D02*
X100731200Y-51156654D01*
X100731200Y-51156654D02*
X100540724Y-51251892D01*
X100540724Y-51251892D02*
X100445486Y-51347131D01*
X100445486Y-51347131D02*
X100350248Y-51537607D01*
X100350248Y-51537607D02*
X100350248Y-52013797D01*
X100350248Y-52013797D02*
X100445486Y-52204273D01*
X100445486Y-52204273D02*
X100540724Y-52299512D01*
X100540724Y-52299512D02*
X100731200Y-52394750D01*
X100731200Y-52394750D02*
X101302629Y-52394750D01*
X101302629Y-52394750D02*
X101493105Y-52299512D01*
X101493105Y-52299512D02*
X101588343Y-52204273D01*
X99588343Y-50585226D02*
X99493105Y-50489988D01*
X99493105Y-50489988D02*
X99302629Y-50394750D01*
X99302629Y-50394750D02*
X98826438Y-50394750D01*
X98826438Y-50394750D02*
X98635962Y-50489988D01*
X98635962Y-50489988D02*
X98540724Y-50585226D01*
X98540724Y-50585226D02*
X98445486Y-50775702D01*
X98445486Y-50775702D02*
X98445486Y-50966178D01*
X98445486Y-50966178D02*
X98540724Y-51251892D01*
X98540724Y-51251892D02*
X99683581Y-52394750D01*
X99683581Y-52394750D02*
X98445486Y-52394750D01*
X132826441Y-55614638D02*
X132826441Y-53614638D01*
X131874060Y-54281304D02*
X131874060Y-55614638D01*
X131874060Y-54471780D02*
X131778822Y-54376542D01*
X131778822Y-54376542D02*
X131588346Y-54281304D01*
X131588346Y-54281304D02*
X131302631Y-54281304D01*
X131302631Y-54281304D02*
X131112155Y-54376542D01*
X131112155Y-54376542D02*
X131016917Y-54567019D01*
X131016917Y-54567019D02*
X131016917Y-55614638D01*
X130159774Y-55519400D02*
X129969298Y-55614638D01*
X129969298Y-55614638D02*
X129588346Y-55614638D01*
X129588346Y-55614638D02*
X129397869Y-55519400D01*
X129397869Y-55519400D02*
X129302631Y-55328923D01*
X129302631Y-55328923D02*
X129302631Y-55233685D01*
X129302631Y-55233685D02*
X129397869Y-55043209D01*
X129397869Y-55043209D02*
X129588346Y-54947971D01*
X129588346Y-54947971D02*
X129874060Y-54947971D01*
X129874060Y-54947971D02*
X130064536Y-54852733D01*
X130064536Y-54852733D02*
X130159774Y-54662257D01*
X130159774Y-54662257D02*
X130159774Y-54567019D01*
X130159774Y-54567019D02*
X130064536Y-54376542D01*
X130064536Y-54376542D02*
X129874060Y-54281304D01*
X129874060Y-54281304D02*
X129588346Y-54281304D01*
X129588346Y-54281304D02*
X129397869Y-54376542D01*
X127683583Y-55519400D02*
X127874059Y-55614638D01*
X127874059Y-55614638D02*
X128255012Y-55614638D01*
X128255012Y-55614638D02*
X128445488Y-55519400D01*
X128445488Y-55519400D02*
X128540726Y-55328923D01*
X128540726Y-55328923D02*
X128540726Y-54567019D01*
X128540726Y-54567019D02*
X128445488Y-54376542D01*
X128445488Y-54376542D02*
X128255012Y-54281304D01*
X128255012Y-54281304D02*
X127874059Y-54281304D01*
X127874059Y-54281304D02*
X127683583Y-54376542D01*
X127683583Y-54376542D02*
X127588345Y-54567019D01*
X127588345Y-54567019D02*
X127588345Y-54757495D01*
X127588345Y-54757495D02*
X128540726Y-54947971D01*
X126731202Y-55614638D02*
X126731202Y-54281304D01*
X126731202Y-54662257D02*
X126635964Y-54471780D01*
X126635964Y-54471780D02*
X126540726Y-54376542D01*
X126540726Y-54376542D02*
X126350250Y-54281304D01*
X126350250Y-54281304D02*
X126159773Y-54281304D01*
X125778821Y-54281304D02*
X125016917Y-54281304D01*
X125493107Y-53614638D02*
X125493107Y-55328923D01*
X125493107Y-55328923D02*
X125397869Y-55519400D01*
X125397869Y-55519400D02*
X125207393Y-55614638D01*
X125207393Y-55614638D02*
X125016917Y-55614638D01*
X123016916Y-54281304D02*
X122635964Y-55614638D01*
X122635964Y-55614638D02*
X122255011Y-54662257D01*
X122255011Y-54662257D02*
X121874059Y-55614638D01*
X121874059Y-55614638D02*
X121493107Y-54281304D01*
X120731202Y-55614638D02*
X120731202Y-54281304D01*
X120731202Y-53614638D02*
X120826440Y-53709876D01*
X120826440Y-53709876D02*
X120731202Y-53805114D01*
X120731202Y-53805114D02*
X120635964Y-53709876D01*
X120635964Y-53709876D02*
X120731202Y-53614638D01*
X120731202Y-53614638D02*
X120731202Y-53805114D01*
X120064535Y-54281304D02*
X119302631Y-54281304D01*
X119778821Y-53614638D02*
X119778821Y-55328923D01*
X119778821Y-55328923D02*
X119683583Y-55519400D01*
X119683583Y-55519400D02*
X119493107Y-55614638D01*
X119493107Y-55614638D02*
X119302631Y-55614638D01*
X118635964Y-55614638D02*
X118635964Y-53614638D01*
X117778821Y-55614638D02*
X117778821Y-54567019D01*
X117778821Y-54567019D02*
X117874059Y-54376542D01*
X117874059Y-54376542D02*
X118064535Y-54281304D01*
X118064535Y-54281304D02*
X118350250Y-54281304D01*
X118350250Y-54281304D02*
X118540726Y-54376542D01*
X118540726Y-54376542D02*
X118635964Y-54471780D01*
X115016916Y-55614638D02*
X115207392Y-55519400D01*
X115207392Y-55519400D02*
X115302630Y-55328923D01*
X115302630Y-55328923D02*
X115302630Y-53614638D01*
X113397868Y-55614638D02*
X113397868Y-54567019D01*
X113397868Y-54567019D02*
X113493106Y-54376542D01*
X113493106Y-54376542D02*
X113683582Y-54281304D01*
X113683582Y-54281304D02*
X114064535Y-54281304D01*
X114064535Y-54281304D02*
X114255011Y-54376542D01*
X113397868Y-55519400D02*
X113588344Y-55614638D01*
X113588344Y-55614638D02*
X114064535Y-55614638D01*
X114064535Y-55614638D02*
X114255011Y-55519400D01*
X114255011Y-55519400D02*
X114350249Y-55328923D01*
X114350249Y-55328923D02*
X114350249Y-55138447D01*
X114350249Y-55138447D02*
X114255011Y-54947971D01*
X114255011Y-54947971D02*
X114064535Y-54852733D01*
X114064535Y-54852733D02*
X113588344Y-54852733D01*
X113588344Y-54852733D02*
X113397868Y-54757495D01*
X112445487Y-55614638D02*
X112445487Y-54281304D01*
X112445487Y-54662257D02*
X112350249Y-54471780D01*
X112350249Y-54471780D02*
X112255011Y-54376542D01*
X112255011Y-54376542D02*
X112064535Y-54281304D01*
X112064535Y-54281304D02*
X111874058Y-54281304D01*
X110350249Y-54281304D02*
X110350249Y-55900352D01*
X110350249Y-55900352D02*
X110445487Y-56090828D01*
X110445487Y-56090828D02*
X110540725Y-56186066D01*
X110540725Y-56186066D02*
X110731202Y-56281304D01*
X110731202Y-56281304D02*
X111016916Y-56281304D01*
X111016916Y-56281304D02*
X111207392Y-56186066D01*
X110350249Y-55519400D02*
X110540725Y-55614638D01*
X110540725Y-55614638D02*
X110921678Y-55614638D01*
X110921678Y-55614638D02*
X111112154Y-55519400D01*
X111112154Y-55519400D02*
X111207392Y-55424161D01*
X111207392Y-55424161D02*
X111302630Y-55233685D01*
X111302630Y-55233685D02*
X111302630Y-54662257D01*
X111302630Y-54662257D02*
X111207392Y-54471780D01*
X111207392Y-54471780D02*
X111112154Y-54376542D01*
X111112154Y-54376542D02*
X110921678Y-54281304D01*
X110921678Y-54281304D02*
X110540725Y-54281304D01*
X110540725Y-54281304D02*
X110350249Y-54376542D01*
X108635963Y-55519400D02*
X108826439Y-55614638D01*
X108826439Y-55614638D02*
X109207392Y-55614638D01*
X109207392Y-55614638D02*
X109397868Y-55519400D01*
X109397868Y-55519400D02*
X109493106Y-55328923D01*
X109493106Y-55328923D02*
X109493106Y-54567019D01*
X109493106Y-54567019D02*
X109397868Y-54376542D01*
X109397868Y-54376542D02*
X109207392Y-54281304D01*
X109207392Y-54281304D02*
X108826439Y-54281304D01*
X108826439Y-54281304D02*
X108635963Y-54376542D01*
X108635963Y-54376542D02*
X108540725Y-54567019D01*
X108540725Y-54567019D02*
X108540725Y-54757495D01*
X108540725Y-54757495D02*
X109493106Y-54947971D01*
X107683582Y-55614638D02*
X107683582Y-54281304D01*
X107683582Y-54662257D02*
X107588344Y-54471780D01*
X107588344Y-54471780D02*
X107493106Y-54376542D01*
X107493106Y-54376542D02*
X107302630Y-54281304D01*
X107302630Y-54281304D02*
X107112153Y-54281304D01*
X105016915Y-55519400D02*
X104826439Y-55614638D01*
X104826439Y-55614638D02*
X104445487Y-55614638D01*
X104445487Y-55614638D02*
X104255010Y-55519400D01*
X104255010Y-55519400D02*
X104159772Y-55328923D01*
X104159772Y-55328923D02*
X104159772Y-55233685D01*
X104159772Y-55233685D02*
X104255010Y-55043209D01*
X104255010Y-55043209D02*
X104445487Y-54947971D01*
X104445487Y-54947971D02*
X104731201Y-54947971D01*
X104731201Y-54947971D02*
X104921677Y-54852733D01*
X104921677Y-54852733D02*
X105016915Y-54662257D01*
X105016915Y-54662257D02*
X105016915Y-54567019D01*
X105016915Y-54567019D02*
X104921677Y-54376542D01*
X104921677Y-54376542D02*
X104731201Y-54281304D01*
X104731201Y-54281304D02*
X104445487Y-54281304D01*
X104445487Y-54281304D02*
X104255010Y-54376542D01*
X103302629Y-55614638D02*
X103302629Y-54281304D01*
X103302629Y-53614638D02*
X103397867Y-53709876D01*
X103397867Y-53709876D02*
X103302629Y-53805114D01*
X103302629Y-53805114D02*
X103207391Y-53709876D01*
X103207391Y-53709876D02*
X103302629Y-53614638D01*
X103302629Y-53614638D02*
X103302629Y-53805114D01*
X101493105Y-55614638D02*
X101493105Y-53614638D01*
X101493105Y-55519400D02*
X101683581Y-55614638D01*
X101683581Y-55614638D02*
X102064534Y-55614638D01*
X102064534Y-55614638D02*
X102255010Y-55519400D01*
X102255010Y-55519400D02*
X102350248Y-55424161D01*
X102350248Y-55424161D02*
X102445486Y-55233685D01*
X102445486Y-55233685D02*
X102445486Y-54662257D01*
X102445486Y-54662257D02*
X102350248Y-54471780D01*
X102350248Y-54471780D02*
X102255010Y-54376542D01*
X102255010Y-54376542D02*
X102064534Y-54281304D01*
X102064534Y-54281304D02*
X101683581Y-54281304D01*
X101683581Y-54281304D02*
X101493105Y-54376542D01*
X99778819Y-55519400D02*
X99969295Y-55614638D01*
X99969295Y-55614638D02*
X100350248Y-55614638D01*
X100350248Y-55614638D02*
X100540724Y-55519400D01*
X100540724Y-55519400D02*
X100635962Y-55328923D01*
X100635962Y-55328923D02*
X100635962Y-54567019D01*
X100635962Y-54567019D02*
X100540724Y-54376542D01*
X100540724Y-54376542D02*
X100350248Y-54281304D01*
X100350248Y-54281304D02*
X99969295Y-54281304D01*
X99969295Y-54281304D02*
X99778819Y-54376542D01*
X99778819Y-54376542D02*
X99683581Y-54567019D01*
X99683581Y-54567019D02*
X99683581Y-54757495D01*
X99683581Y-54757495D02*
X100635962Y-54947971D01*
X96445485Y-54281304D02*
X96445485Y-55614638D01*
X97302628Y-54281304D02*
X97302628Y-55328923D01*
X97302628Y-55328923D02*
X97207390Y-55519400D01*
X97207390Y-55519400D02*
X97016914Y-55614638D01*
X97016914Y-55614638D02*
X96731199Y-55614638D01*
X96731199Y-55614638D02*
X96540723Y-55519400D01*
X96540723Y-55519400D02*
X96445485Y-55424161D01*
X95493104Y-54281304D02*
X95493104Y-56281304D01*
X95493104Y-54376542D02*
X95302628Y-54281304D01*
X95302628Y-54281304D02*
X94921675Y-54281304D01*
X94921675Y-54281304D02*
X94731199Y-54376542D01*
X94731199Y-54376542D02*
X94635961Y-54471780D01*
X94635961Y-54471780D02*
X94540723Y-54662257D01*
X94540723Y-54662257D02*
X94540723Y-55233685D01*
X94540723Y-55233685D02*
X94635961Y-55424161D01*
X94635961Y-55424161D02*
X94731199Y-55519400D01*
X94731199Y-55519400D02*
X94921675Y-55614638D01*
X94921675Y-55614638D02*
X95302628Y-55614638D01*
X95302628Y-55614638D02*
X95493104Y-55519400D01*
X93683580Y-55424161D02*
X93588342Y-55519400D01*
X93588342Y-55519400D02*
X93683580Y-55614638D01*
X93683580Y-55614638D02*
X93778818Y-55519400D01*
X93778818Y-55519400D02*
X93683580Y-55424161D01*
X93683580Y-55424161D02*
X93683580Y-55614638D01*
X93683580Y-54852733D02*
X93778818Y-53709876D01*
X93778818Y-53709876D02*
X93683580Y-53614638D01*
X93683580Y-53614638D02*
X93588342Y-53709876D01*
X93588342Y-53709876D02*
X93683580Y-54852733D01*
X93683580Y-54852733D02*
X93683580Y-53614638D01*
X131445489Y-171185282D02*
X130945489Y-171185282D01*
X130731203Y-171970996D02*
X131445489Y-171970996D01*
X131445489Y-171970996D02*
X131445489Y-170470996D01*
X131445489Y-170470996D02*
X130731203Y-170470996D01*
X129874060Y-171970996D02*
X130016917Y-171899568D01*
X130016917Y-171899568D02*
X130088346Y-171756710D01*
X130088346Y-171756710D02*
X130088346Y-170470996D01*
X128731203Y-171899568D02*
X128874060Y-171970996D01*
X128874060Y-171970996D02*
X129159775Y-171970996D01*
X129159775Y-171970996D02*
X129302632Y-171899568D01*
X129302632Y-171899568D02*
X129374060Y-171756710D01*
X129374060Y-171756710D02*
X129374060Y-171185282D01*
X129374060Y-171185282D02*
X129302632Y-171042425D01*
X129302632Y-171042425D02*
X129159775Y-170970996D01*
X129159775Y-170970996D02*
X128874060Y-170970996D01*
X128874060Y-170970996D02*
X128731203Y-171042425D01*
X128731203Y-171042425D02*
X128659775Y-171185282D01*
X128659775Y-171185282D02*
X128659775Y-171328139D01*
X128659775Y-171328139D02*
X129374060Y-171470996D01*
X127374061Y-171899568D02*
X127516918Y-171970996D01*
X127516918Y-171970996D02*
X127802632Y-171970996D01*
X127802632Y-171970996D02*
X127945489Y-171899568D01*
X127945489Y-171899568D02*
X128016918Y-171828139D01*
X128016918Y-171828139D02*
X128088346Y-171685282D01*
X128088346Y-171685282D02*
X128088346Y-171256710D01*
X128088346Y-171256710D02*
X128016918Y-171113853D01*
X128016918Y-171113853D02*
X127945489Y-171042425D01*
X127945489Y-171042425D02*
X127802632Y-170970996D01*
X127802632Y-170970996D02*
X127516918Y-170970996D01*
X127516918Y-170970996D02*
X127374061Y-171042425D01*
X126945489Y-170970996D02*
X126374061Y-170970996D01*
X126731204Y-170470996D02*
X126731204Y-171756710D01*
X126731204Y-171756710D02*
X126659775Y-171899568D01*
X126659775Y-171899568D02*
X126516918Y-171970996D01*
X126516918Y-171970996D02*
X126374061Y-171970996D01*
X125874061Y-171970996D02*
X125874061Y-170970996D01*
X125874061Y-171256710D02*
X125802632Y-171113853D01*
X125802632Y-171113853D02*
X125731204Y-171042425D01*
X125731204Y-171042425D02*
X125588346Y-170970996D01*
X125588346Y-170970996D02*
X125445489Y-170970996D01*
X124731204Y-171970996D02*
X124874061Y-171899568D01*
X124874061Y-171899568D02*
X124945490Y-171828139D01*
X124945490Y-171828139D02*
X125016918Y-171685282D01*
X125016918Y-171685282D02*
X125016918Y-171256710D01*
X125016918Y-171256710D02*
X124945490Y-171113853D01*
X124945490Y-171113853D02*
X124874061Y-171042425D01*
X124874061Y-171042425D02*
X124731204Y-170970996D01*
X124731204Y-170970996D02*
X124516918Y-170970996D01*
X124516918Y-170970996D02*
X124374061Y-171042425D01*
X124374061Y-171042425D02*
X124302633Y-171113853D01*
X124302633Y-171113853D02*
X124231204Y-171256710D01*
X124231204Y-171256710D02*
X124231204Y-171685282D01*
X124231204Y-171685282D02*
X124302633Y-171828139D01*
X124302633Y-171828139D02*
X124374061Y-171899568D01*
X124374061Y-171899568D02*
X124516918Y-171970996D01*
X124516918Y-171970996D02*
X124731204Y-171970996D01*
X123588347Y-170970996D02*
X123588347Y-171970996D01*
X123588347Y-171113853D02*
X123516918Y-171042425D01*
X123516918Y-171042425D02*
X123374061Y-170970996D01*
X123374061Y-170970996D02*
X123159775Y-170970996D01*
X123159775Y-170970996D02*
X123016918Y-171042425D01*
X123016918Y-171042425D02*
X122945490Y-171185282D01*
X122945490Y-171185282D02*
X122945490Y-171970996D01*
X122231204Y-171970996D02*
X122231204Y-170970996D01*
X122231204Y-170470996D02*
X122302632Y-170542425D01*
X122302632Y-170542425D02*
X122231204Y-170613853D01*
X122231204Y-170613853D02*
X122159775Y-170542425D01*
X122159775Y-170542425D02*
X122231204Y-170470996D01*
X122231204Y-170470996D02*
X122231204Y-170613853D01*
X120874061Y-171899568D02*
X121016918Y-171970996D01*
X121016918Y-171970996D02*
X121302632Y-171970996D01*
X121302632Y-171970996D02*
X121445489Y-171899568D01*
X121445489Y-171899568D02*
X121516918Y-171828139D01*
X121516918Y-171828139D02*
X121588346Y-171685282D01*
X121588346Y-171685282D02*
X121588346Y-171256710D01*
X121588346Y-171256710D02*
X121516918Y-171113853D01*
X121516918Y-171113853D02*
X121445489Y-171042425D01*
X121445489Y-171042425D02*
X121302632Y-170970996D01*
X121302632Y-170970996D02*
X121016918Y-170970996D01*
X121016918Y-170970996D02*
X120874061Y-171042425D01*
X118445490Y-171899568D02*
X118588347Y-171970996D01*
X118588347Y-171970996D02*
X118874061Y-171970996D01*
X118874061Y-171970996D02*
X119016918Y-171899568D01*
X119016918Y-171899568D02*
X119088347Y-171828139D01*
X119088347Y-171828139D02*
X119159775Y-171685282D01*
X119159775Y-171685282D02*
X119159775Y-171256710D01*
X119159775Y-171256710D02*
X119088347Y-171113853D01*
X119088347Y-171113853D02*
X119016918Y-171042425D01*
X119016918Y-171042425D02*
X118874061Y-170970996D01*
X118874061Y-170970996D02*
X118588347Y-170970996D01*
X118588347Y-170970996D02*
X118445490Y-171042425D01*
X117159776Y-171970996D02*
X117159776Y-171185282D01*
X117159776Y-171185282D02*
X117231204Y-171042425D01*
X117231204Y-171042425D02*
X117374061Y-170970996D01*
X117374061Y-170970996D02*
X117659776Y-170970996D01*
X117659776Y-170970996D02*
X117802633Y-171042425D01*
X117159776Y-171899568D02*
X117302633Y-171970996D01*
X117302633Y-171970996D02*
X117659776Y-171970996D01*
X117659776Y-171970996D02*
X117802633Y-171899568D01*
X117802633Y-171899568D02*
X117874061Y-171756710D01*
X117874061Y-171756710D02*
X117874061Y-171613853D01*
X117874061Y-171613853D02*
X117802633Y-171470996D01*
X117802633Y-171470996D02*
X117659776Y-171399568D01*
X117659776Y-171399568D02*
X117302633Y-171399568D01*
X117302633Y-171399568D02*
X117159776Y-171328139D01*
X116445490Y-171970996D02*
X116445490Y-170970996D01*
X116445490Y-171256710D02*
X116374061Y-171113853D01*
X116374061Y-171113853D02*
X116302633Y-171042425D01*
X116302633Y-171042425D02*
X116159775Y-170970996D01*
X116159775Y-170970996D02*
X116016918Y-170970996D01*
X114874062Y-171970996D02*
X114874062Y-170470996D01*
X114874062Y-171899568D02*
X115016919Y-171970996D01*
X115016919Y-171970996D02*
X115302633Y-171970996D01*
X115302633Y-171970996D02*
X115445490Y-171899568D01*
X115445490Y-171899568D02*
X115516919Y-171828139D01*
X115516919Y-171828139D02*
X115588347Y-171685282D01*
X115588347Y-171685282D02*
X115588347Y-171256710D01*
X115588347Y-171256710D02*
X115516919Y-171113853D01*
X115516919Y-171113853D02*
X115445490Y-171042425D01*
X115445490Y-171042425D02*
X115302633Y-170970996D01*
X115302633Y-170970996D02*
X115016919Y-170970996D01*
X115016919Y-170970996D02*
X114874062Y-171042425D01*
X113088347Y-170613853D02*
X113016919Y-170542425D01*
X113016919Y-170542425D02*
X112874062Y-170470996D01*
X112874062Y-170470996D02*
X112516919Y-170470996D01*
X112516919Y-170470996D02*
X112374062Y-170542425D01*
X112374062Y-170542425D02*
X112302633Y-170613853D01*
X112302633Y-170613853D02*
X112231204Y-170756710D01*
X112231204Y-170756710D02*
X112231204Y-170899568D01*
X112231204Y-170899568D02*
X112302633Y-171113853D01*
X112302633Y-171113853D02*
X113159776Y-171970996D01*
X113159776Y-171970996D02*
X112231204Y-171970996D01*
X111302633Y-170470996D02*
X111159776Y-170470996D01*
X111159776Y-170470996D02*
X111016919Y-170542425D01*
X111016919Y-170542425D02*
X110945491Y-170613853D01*
X110945491Y-170613853D02*
X110874062Y-170756710D01*
X110874062Y-170756710D02*
X110802633Y-171042425D01*
X110802633Y-171042425D02*
X110802633Y-171399568D01*
X110802633Y-171399568D02*
X110874062Y-171685282D01*
X110874062Y-171685282D02*
X110945491Y-171828139D01*
X110945491Y-171828139D02*
X111016919Y-171899568D01*
X111016919Y-171899568D02*
X111159776Y-171970996D01*
X111159776Y-171970996D02*
X111302633Y-171970996D01*
X111302633Y-171970996D02*
X111445491Y-171899568D01*
X111445491Y-171899568D02*
X111516919Y-171828139D01*
X111516919Y-171828139D02*
X111588348Y-171685282D01*
X111588348Y-171685282D02*
X111659776Y-171399568D01*
X111659776Y-171399568D02*
X111659776Y-171042425D01*
X111659776Y-171042425D02*
X111588348Y-170756710D01*
X111588348Y-170756710D02*
X111516919Y-170613853D01*
X111516919Y-170613853D02*
X111445491Y-170542425D01*
X111445491Y-170542425D02*
X111302633Y-170470996D01*
X110231205Y-170613853D02*
X110159777Y-170542425D01*
X110159777Y-170542425D02*
X110016920Y-170470996D01*
X110016920Y-170470996D02*
X109659777Y-170470996D01*
X109659777Y-170470996D02*
X109516920Y-170542425D01*
X109516920Y-170542425D02*
X109445491Y-170613853D01*
X109445491Y-170613853D02*
X109374062Y-170756710D01*
X109374062Y-170756710D02*
X109374062Y-170899568D01*
X109374062Y-170899568D02*
X109445491Y-171113853D01*
X109445491Y-171113853D02*
X110302634Y-171970996D01*
X110302634Y-171970996D02*
X109374062Y-171970996D01*
X108088349Y-170970996D02*
X108088349Y-171970996D01*
X108445491Y-170399568D02*
X108802634Y-171470996D01*
X108802634Y-171470996D02*
X107874063Y-171470996D01*
X106374063Y-170470996D02*
X105874063Y-171970996D01*
X105874063Y-171970996D02*
X105374063Y-170470996D01*
X104088349Y-171970996D02*
X104945492Y-171970996D01*
X104516921Y-171970996D02*
X104516921Y-170470996D01*
X104516921Y-170470996D02*
X104659778Y-170685282D01*
X104659778Y-170685282D02*
X104802635Y-170828139D01*
X104802635Y-170828139D02*
X104945492Y-170899568D01*
X131516917Y-173957341D02*
X130802632Y-173957341D01*
X131659774Y-174385912D02*
X131159774Y-172885912D01*
X131159774Y-172885912D02*
X130659774Y-174385912D01*
X130159775Y-174385912D02*
X130159775Y-173385912D01*
X130159775Y-173671626D02*
X130088346Y-173528769D01*
X130088346Y-173528769D02*
X130016918Y-173457341D01*
X130016918Y-173457341D02*
X129874060Y-173385912D01*
X129874060Y-173385912D02*
X129731203Y-173385912D01*
X129445489Y-173385912D02*
X128874061Y-173385912D01*
X129231204Y-172885912D02*
X129231204Y-174171626D01*
X129231204Y-174171626D02*
X129159775Y-174314484D01*
X129159775Y-174314484D02*
X129016918Y-174385912D01*
X129016918Y-174385912D02*
X128874061Y-174385912D01*
X128374061Y-174243055D02*
X128302632Y-174314484D01*
X128302632Y-174314484D02*
X128374061Y-174385912D01*
X128374061Y-174385912D02*
X128445489Y-174314484D01*
X128445489Y-174314484D02*
X128374061Y-174243055D01*
X128374061Y-174243055D02*
X128374061Y-174385912D01*
X128374061Y-173457341D02*
X128302632Y-173528769D01*
X128302632Y-173528769D02*
X128374061Y-173600198D01*
X128374061Y-173600198D02*
X128445489Y-173528769D01*
X128445489Y-173528769D02*
X128374061Y-173457341D01*
X128374061Y-173457341D02*
X128374061Y-173600198D01*
X126088346Y-172885912D02*
X126088346Y-173957341D01*
X126088346Y-173957341D02*
X126159775Y-174171626D01*
X126159775Y-174171626D02*
X126302632Y-174314484D01*
X126302632Y-174314484D02*
X126516918Y-174385912D01*
X126516918Y-174385912D02*
X126659775Y-174385912D01*
X125159775Y-174385912D02*
X125302632Y-174314484D01*
X125302632Y-174314484D02*
X125374061Y-174243055D01*
X125374061Y-174243055D02*
X125445489Y-174100198D01*
X125445489Y-174100198D02*
X125445489Y-173671626D01*
X125445489Y-173671626D02*
X125374061Y-173528769D01*
X125374061Y-173528769D02*
X125302632Y-173457341D01*
X125302632Y-173457341D02*
X125159775Y-173385912D01*
X125159775Y-173385912D02*
X124945489Y-173385912D01*
X124945489Y-173385912D02*
X124802632Y-173457341D01*
X124802632Y-173457341D02*
X124731204Y-173528769D01*
X124731204Y-173528769D02*
X124659775Y-173671626D01*
X124659775Y-173671626D02*
X124659775Y-174100198D01*
X124659775Y-174100198D02*
X124731204Y-174243055D01*
X124731204Y-174243055D02*
X124802632Y-174314484D01*
X124802632Y-174314484D02*
X124945489Y-174385912D01*
X124945489Y-174385912D02*
X125159775Y-174385912D01*
X124016918Y-174385912D02*
X124016918Y-173385912D01*
X124016918Y-173671626D02*
X123945489Y-173528769D01*
X123945489Y-173528769D02*
X123874061Y-173457341D01*
X123874061Y-173457341D02*
X123731203Y-173385912D01*
X123731203Y-173385912D02*
X123588346Y-173385912D01*
X122445490Y-174385912D02*
X122445490Y-172885912D01*
X122445490Y-174314484D02*
X122588347Y-174385912D01*
X122588347Y-174385912D02*
X122874061Y-174385912D01*
X122874061Y-174385912D02*
X123016918Y-174314484D01*
X123016918Y-174314484D02*
X123088347Y-174243055D01*
X123088347Y-174243055D02*
X123159775Y-174100198D01*
X123159775Y-174100198D02*
X123159775Y-173671626D01*
X123159775Y-173671626D02*
X123088347Y-173528769D01*
X123088347Y-173528769D02*
X123016918Y-173457341D01*
X123016918Y-173457341D02*
X122874061Y-173385912D01*
X122874061Y-173385912D02*
X122588347Y-173385912D01*
X122588347Y-173385912D02*
X122445490Y-173457341D01*
X121731204Y-174385912D02*
X121731204Y-173385912D01*
X121731204Y-172885912D02*
X121802632Y-172957341D01*
X121802632Y-172957341D02*
X121731204Y-173028769D01*
X121731204Y-173028769D02*
X121659775Y-172957341D01*
X121659775Y-172957341D02*
X121731204Y-172885912D01*
X121731204Y-172885912D02*
X121731204Y-173028769D01*
X119874061Y-174385912D02*
X119874061Y-172885912D01*
X119874061Y-172885912D02*
X119016918Y-174385912D01*
X119016918Y-174385912D02*
X119016918Y-172885912D01*
X117659775Y-174385912D02*
X117659775Y-173600198D01*
X117659775Y-173600198D02*
X117731203Y-173457341D01*
X117731203Y-173457341D02*
X117874060Y-173385912D01*
X117874060Y-173385912D02*
X118159775Y-173385912D01*
X118159775Y-173385912D02*
X118302632Y-173457341D01*
X117659775Y-174314484D02*
X117802632Y-174385912D01*
X117802632Y-174385912D02*
X118159775Y-174385912D01*
X118159775Y-174385912D02*
X118302632Y-174314484D01*
X118302632Y-174314484D02*
X118374060Y-174171626D01*
X118374060Y-174171626D02*
X118374060Y-174028769D01*
X118374060Y-174028769D02*
X118302632Y-173885912D01*
X118302632Y-173885912D02*
X118159775Y-173814484D01*
X118159775Y-173814484D02*
X117802632Y-173814484D01*
X117802632Y-173814484D02*
X117659775Y-173743055D01*
X117088346Y-173385912D02*
X116731203Y-174385912D01*
X116731203Y-174385912D02*
X116374060Y-173385912D01*
X115159775Y-174385912D02*
X115159775Y-173600198D01*
X115159775Y-173600198D02*
X115231203Y-173457341D01*
X115231203Y-173457341D02*
X115374060Y-173385912D01*
X115374060Y-173385912D02*
X115659775Y-173385912D01*
X115659775Y-173385912D02*
X115802632Y-173457341D01*
X115159775Y-174314484D02*
X115302632Y-174385912D01*
X115302632Y-174385912D02*
X115659775Y-174385912D01*
X115659775Y-174385912D02*
X115802632Y-174314484D01*
X115802632Y-174314484D02*
X115874060Y-174171626D01*
X115874060Y-174171626D02*
X115874060Y-174028769D01*
X115874060Y-174028769D02*
X115802632Y-173885912D01*
X115802632Y-173885912D02*
X115659775Y-173814484D01*
X115659775Y-173814484D02*
X115302632Y-173814484D01*
X115302632Y-173814484D02*
X115159775Y-173743055D01*
X114445489Y-174385912D02*
X114445489Y-173385912D01*
X114445489Y-173671626D02*
X114374060Y-173528769D01*
X114374060Y-173528769D02*
X114302632Y-173457341D01*
X114302632Y-173457341D02*
X114159774Y-173385912D01*
X114159774Y-173385912D02*
X114016917Y-173385912D01*
X113516918Y-174385912D02*
X113516918Y-173385912D01*
X113516918Y-173671626D02*
X113445489Y-173528769D01*
X113445489Y-173528769D02*
X113374061Y-173457341D01*
X113374061Y-173457341D02*
X113231203Y-173385912D01*
X113231203Y-173385912D02*
X113088346Y-173385912D01*
X112016918Y-174314484D02*
X112159775Y-174385912D01*
X112159775Y-174385912D02*
X112445490Y-174385912D01*
X112445490Y-174385912D02*
X112588347Y-174314484D01*
X112588347Y-174314484D02*
X112659775Y-174171626D01*
X112659775Y-174171626D02*
X112659775Y-173600198D01*
X112659775Y-173600198D02*
X112588347Y-173457341D01*
X112588347Y-173457341D02*
X112445490Y-173385912D01*
X112445490Y-173385912D02*
X112159775Y-173385912D01*
X112159775Y-173385912D02*
X112016918Y-173457341D01*
X112016918Y-173457341D02*
X111945490Y-173600198D01*
X111945490Y-173600198D02*
X111945490Y-173743055D01*
X111945490Y-173743055D02*
X112659775Y-173885912D01*
X111516918Y-173385912D02*
X110945490Y-173385912D01*
X111302633Y-172885912D02*
X111302633Y-174171626D01*
X111302633Y-174171626D02*
X111231204Y-174314484D01*
X111231204Y-174314484D02*
X111088347Y-174385912D01*
X111088347Y-174385912D02*
X110945490Y-174385912D01*
X109874061Y-174314484D02*
X110016918Y-174385912D01*
X110016918Y-174385912D02*
X110302633Y-174385912D01*
X110302633Y-174385912D02*
X110445490Y-174314484D01*
X110445490Y-174314484D02*
X110516918Y-174171626D01*
X110516918Y-174171626D02*
X110516918Y-173600198D01*
X110516918Y-173600198D02*
X110445490Y-173457341D01*
X110445490Y-173457341D02*
X110302633Y-173385912D01*
X110302633Y-173385912D02*
X110016918Y-173385912D01*
X110016918Y-173385912D02*
X109874061Y-173457341D01*
X109874061Y-173457341D02*
X109802633Y-173600198D01*
X109802633Y-173600198D02*
X109802633Y-173743055D01*
X109802633Y-173743055D02*
X110516918Y-173885912D01*
X131445489Y-176015114D02*
X130945489Y-176015114D01*
X130731203Y-176800828D02*
X131445489Y-176800828D01*
X131445489Y-176800828D02*
X131445489Y-175300828D01*
X131445489Y-175300828D02*
X130731203Y-175300828D01*
X129874060Y-176800828D02*
X130016917Y-176729400D01*
X130016917Y-176729400D02*
X130088346Y-176586542D01*
X130088346Y-176586542D02*
X130088346Y-175300828D01*
X128731203Y-176729400D02*
X128874060Y-176800828D01*
X128874060Y-176800828D02*
X129159775Y-176800828D01*
X129159775Y-176800828D02*
X129302632Y-176729400D01*
X129302632Y-176729400D02*
X129374060Y-176586542D01*
X129374060Y-176586542D02*
X129374060Y-176015114D01*
X129374060Y-176015114D02*
X129302632Y-175872257D01*
X129302632Y-175872257D02*
X129159775Y-175800828D01*
X129159775Y-175800828D02*
X128874060Y-175800828D01*
X128874060Y-175800828D02*
X128731203Y-175872257D01*
X128731203Y-175872257D02*
X128659775Y-176015114D01*
X128659775Y-176015114D02*
X128659775Y-176157971D01*
X128659775Y-176157971D02*
X129374060Y-176300828D01*
X127374061Y-176729400D02*
X127516918Y-176800828D01*
X127516918Y-176800828D02*
X127802632Y-176800828D01*
X127802632Y-176800828D02*
X127945489Y-176729400D01*
X127945489Y-176729400D02*
X128016918Y-176657971D01*
X128016918Y-176657971D02*
X128088346Y-176515114D01*
X128088346Y-176515114D02*
X128088346Y-176086542D01*
X128088346Y-176086542D02*
X128016918Y-175943685D01*
X128016918Y-175943685D02*
X127945489Y-175872257D01*
X127945489Y-175872257D02*
X127802632Y-175800828D01*
X127802632Y-175800828D02*
X127516918Y-175800828D01*
X127516918Y-175800828D02*
X127374061Y-175872257D01*
X126945489Y-175800828D02*
X126374061Y-175800828D01*
X126731204Y-175300828D02*
X126731204Y-176586542D01*
X126731204Y-176586542D02*
X126659775Y-176729400D01*
X126659775Y-176729400D02*
X126516918Y-176800828D01*
X126516918Y-176800828D02*
X126374061Y-176800828D01*
X125874061Y-176800828D02*
X125874061Y-175800828D01*
X125874061Y-176086542D02*
X125802632Y-175943685D01*
X125802632Y-175943685D02*
X125731204Y-175872257D01*
X125731204Y-175872257D02*
X125588346Y-175800828D01*
X125588346Y-175800828D02*
X125445489Y-175800828D01*
X124731204Y-176800828D02*
X124874061Y-176729400D01*
X124874061Y-176729400D02*
X124945490Y-176657971D01*
X124945490Y-176657971D02*
X125016918Y-176515114D01*
X125016918Y-176515114D02*
X125016918Y-176086542D01*
X125016918Y-176086542D02*
X124945490Y-175943685D01*
X124945490Y-175943685D02*
X124874061Y-175872257D01*
X124874061Y-175872257D02*
X124731204Y-175800828D01*
X124731204Y-175800828D02*
X124516918Y-175800828D01*
X124516918Y-175800828D02*
X124374061Y-175872257D01*
X124374061Y-175872257D02*
X124302633Y-175943685D01*
X124302633Y-175943685D02*
X124231204Y-176086542D01*
X124231204Y-176086542D02*
X124231204Y-176515114D01*
X124231204Y-176515114D02*
X124302633Y-176657971D01*
X124302633Y-176657971D02*
X124374061Y-176729400D01*
X124374061Y-176729400D02*
X124516918Y-176800828D01*
X124516918Y-176800828D02*
X124731204Y-176800828D01*
X123588347Y-175800828D02*
X123588347Y-176800828D01*
X123588347Y-175943685D02*
X123516918Y-175872257D01*
X123516918Y-175872257D02*
X123374061Y-175800828D01*
X123374061Y-175800828D02*
X123159775Y-175800828D01*
X123159775Y-175800828D02*
X123016918Y-175872257D01*
X123016918Y-175872257D02*
X122945490Y-176015114D01*
X122945490Y-176015114D02*
X122945490Y-176800828D01*
X122231204Y-176800828D02*
X122231204Y-175800828D01*
X122231204Y-175300828D02*
X122302632Y-175372257D01*
X122302632Y-175372257D02*
X122231204Y-175443685D01*
X122231204Y-175443685D02*
X122159775Y-175372257D01*
X122159775Y-175372257D02*
X122231204Y-175300828D01*
X122231204Y-175300828D02*
X122231204Y-175443685D01*
X120874061Y-176729400D02*
X121016918Y-176800828D01*
X121016918Y-176800828D02*
X121302632Y-176800828D01*
X121302632Y-176800828D02*
X121445489Y-176729400D01*
X121445489Y-176729400D02*
X121516918Y-176657971D01*
X121516918Y-176657971D02*
X121588346Y-176515114D01*
X121588346Y-176515114D02*
X121588346Y-176086542D01*
X121588346Y-176086542D02*
X121516918Y-175943685D01*
X121516918Y-175943685D02*
X121445489Y-175872257D01*
X121445489Y-175872257D02*
X121302632Y-175800828D01*
X121302632Y-175800828D02*
X121016918Y-175800828D01*
X121016918Y-175800828D02*
X120874061Y-175872257D01*
X120302632Y-176729400D02*
X120159775Y-176800828D01*
X120159775Y-176800828D02*
X119874061Y-176800828D01*
X119874061Y-176800828D02*
X119731204Y-176729400D01*
X119731204Y-176729400D02*
X119659775Y-176586542D01*
X119659775Y-176586542D02*
X119659775Y-176515114D01*
X119659775Y-176515114D02*
X119731204Y-176372257D01*
X119731204Y-176372257D02*
X119874061Y-176300828D01*
X119874061Y-176300828D02*
X120088347Y-176300828D01*
X120088347Y-176300828D02*
X120231204Y-176229400D01*
X120231204Y-176229400D02*
X120302632Y-176086542D01*
X120302632Y-176086542D02*
X120302632Y-176015114D01*
X120302632Y-176015114D02*
X120231204Y-175872257D01*
X120231204Y-175872257D02*
X120088347Y-175800828D01*
X120088347Y-175800828D02*
X119874061Y-175800828D01*
X119874061Y-175800828D02*
X119731204Y-175872257D01*
X119016918Y-176657971D02*
X118945489Y-176729400D01*
X118945489Y-176729400D02*
X119016918Y-176800828D01*
X119016918Y-176800828D02*
X119088346Y-176729400D01*
X119088346Y-176729400D02*
X119016918Y-176657971D01*
X119016918Y-176657971D02*
X119016918Y-176800828D01*
X119016918Y-175872257D02*
X118945489Y-175943685D01*
X118945489Y-175943685D02*
X119016918Y-176015114D01*
X119016918Y-176015114D02*
X119088346Y-175943685D01*
X119088346Y-175943685D02*
X119016918Y-175872257D01*
X119016918Y-175872257D02*
X119016918Y-176015114D01*
X117159775Y-176015114D02*
X116659775Y-176015114D01*
X116445489Y-176800828D02*
X117159775Y-176800828D01*
X117159775Y-176800828D02*
X117159775Y-175300828D01*
X117159775Y-175300828D02*
X116445489Y-175300828D01*
X115802632Y-176800828D02*
X115802632Y-175800828D01*
X115802632Y-176086542D02*
X115731203Y-175943685D01*
X115731203Y-175943685D02*
X115659775Y-175872257D01*
X115659775Y-175872257D02*
X115516917Y-175800828D01*
X115516917Y-175800828D02*
X115374060Y-175800828D01*
X114874061Y-176800828D02*
X114874061Y-175800828D01*
X114874061Y-175300828D02*
X114945489Y-175372257D01*
X114945489Y-175372257D02*
X114874061Y-175443685D01*
X114874061Y-175443685D02*
X114802632Y-175372257D01*
X114802632Y-175372257D02*
X114874061Y-175300828D01*
X114874061Y-175300828D02*
X114874061Y-175443685D01*
X113516918Y-176729400D02*
X113659775Y-176800828D01*
X113659775Y-176800828D02*
X113945489Y-176800828D01*
X113945489Y-176800828D02*
X114088346Y-176729400D01*
X114088346Y-176729400D02*
X114159775Y-176657971D01*
X114159775Y-176657971D02*
X114231203Y-176515114D01*
X114231203Y-176515114D02*
X114231203Y-176086542D01*
X114231203Y-176086542D02*
X114159775Y-175943685D01*
X114159775Y-175943685D02*
X114088346Y-175872257D01*
X114088346Y-175872257D02*
X113945489Y-175800828D01*
X113945489Y-175800828D02*
X113659775Y-175800828D01*
X113659775Y-175800828D02*
X113516918Y-175872257D01*
X111731204Y-176800828D02*
X111731204Y-175300828D01*
X111731204Y-175300828D02*
X110874061Y-176800828D01*
X110874061Y-176800828D02*
X110874061Y-175300828D01*
X109516918Y-176800828D02*
X109516918Y-176015114D01*
X109516918Y-176015114D02*
X109588346Y-175872257D01*
X109588346Y-175872257D02*
X109731203Y-175800828D01*
X109731203Y-175800828D02*
X110016918Y-175800828D01*
X110016918Y-175800828D02*
X110159775Y-175872257D01*
X109516918Y-176729400D02*
X109659775Y-176800828D01*
X109659775Y-176800828D02*
X110016918Y-176800828D01*
X110016918Y-176800828D02*
X110159775Y-176729400D01*
X110159775Y-176729400D02*
X110231203Y-176586542D01*
X110231203Y-176586542D02*
X110231203Y-176443685D01*
X110231203Y-176443685D02*
X110159775Y-176300828D01*
X110159775Y-176300828D02*
X110016918Y-176229400D01*
X110016918Y-176229400D02*
X109659775Y-176229400D01*
X109659775Y-176229400D02*
X109516918Y-176157971D01*
X108945489Y-175800828D02*
X108588346Y-176800828D01*
X108588346Y-176800828D02*
X108231203Y-175800828D01*
X107016918Y-176800828D02*
X107016918Y-176015114D01*
X107016918Y-176015114D02*
X107088346Y-175872257D01*
X107088346Y-175872257D02*
X107231203Y-175800828D01*
X107231203Y-175800828D02*
X107516918Y-175800828D01*
X107516918Y-175800828D02*
X107659775Y-175872257D01*
X107016918Y-176729400D02*
X107159775Y-176800828D01*
X107159775Y-176800828D02*
X107516918Y-176800828D01*
X107516918Y-176800828D02*
X107659775Y-176729400D01*
X107659775Y-176729400D02*
X107731203Y-176586542D01*
X107731203Y-176586542D02*
X107731203Y-176443685D01*
X107731203Y-176443685D02*
X107659775Y-176300828D01*
X107659775Y-176300828D02*
X107516918Y-176229400D01*
X107516918Y-176229400D02*
X107159775Y-176229400D01*
X107159775Y-176229400D02*
X107016918Y-176157971D01*
X106302632Y-176800828D02*
X106302632Y-175800828D01*
X106302632Y-176086542D02*
X106231203Y-175943685D01*
X106231203Y-175943685D02*
X106159775Y-175872257D01*
X106159775Y-175872257D02*
X106016917Y-175800828D01*
X106016917Y-175800828D02*
X105874060Y-175800828D01*
X105374061Y-176800828D02*
X105374061Y-175800828D01*
X105374061Y-176086542D02*
X105302632Y-175943685D01*
X105302632Y-175943685D02*
X105231204Y-175872257D01*
X105231204Y-175872257D02*
X105088346Y-175800828D01*
X105088346Y-175800828D02*
X104945489Y-175800828D01*
X103874061Y-176729400D02*
X104016918Y-176800828D01*
X104016918Y-176800828D02*
X104302633Y-176800828D01*
X104302633Y-176800828D02*
X104445490Y-176729400D01*
X104445490Y-176729400D02*
X104516918Y-176586542D01*
X104516918Y-176586542D02*
X104516918Y-176015114D01*
X104516918Y-176015114D02*
X104445490Y-175872257D01*
X104445490Y-175872257D02*
X104302633Y-175800828D01*
X104302633Y-175800828D02*
X104016918Y-175800828D01*
X104016918Y-175800828D02*
X103874061Y-175872257D01*
X103874061Y-175872257D02*
X103802633Y-176015114D01*
X103802633Y-176015114D02*
X103802633Y-176157971D01*
X103802633Y-176157971D02*
X104516918Y-176300828D01*
X103374061Y-175800828D02*
X102802633Y-175800828D01*
X103159776Y-175300828D02*
X103159776Y-176586542D01*
X103159776Y-176586542D02*
X103088347Y-176729400D01*
X103088347Y-176729400D02*
X102945490Y-176800828D01*
X102945490Y-176800828D02*
X102802633Y-176800828D01*
X101731204Y-176729400D02*
X101874061Y-176800828D01*
X101874061Y-176800828D02*
X102159776Y-176800828D01*
X102159776Y-176800828D02*
X102302633Y-176729400D01*
X102302633Y-176729400D02*
X102374061Y-176586542D01*
X102374061Y-176586542D02*
X102374061Y-176015114D01*
X102374061Y-176015114D02*
X102302633Y-175872257D01*
X102302633Y-175872257D02*
X102159776Y-175800828D01*
X102159776Y-175800828D02*
X101874061Y-175800828D01*
X101874061Y-175800828D02*
X101731204Y-175872257D01*
X101731204Y-175872257D02*
X101659776Y-176015114D01*
X101659776Y-176015114D02*
X101659776Y-176157971D01*
X101659776Y-176157971D02*
X102374061Y-176300828D01*
D12*
%TO.C,D43*%
X106525126Y-87060660D02*
X107939340Y-88474874D01*
X107727208Y-85858579D02*
X106525126Y-87060660D01*
X107939340Y-88474874D02*
X109070711Y-87343503D01*
X109848528Y-83736551D02*
X109000000Y-84585786D01*
X110272439Y-83736198D02*
X109848528Y-83736551D01*
X110414214Y-86000000D02*
X111263449Y-85151472D01*
X111263449Y-85151472D02*
X111263802Y-84727561D01*
X111263802Y-84727561D02*
X110272439Y-83736198D01*
%TO.C,D48*%
X121525126Y-87123159D02*
X122939340Y-88537373D01*
X122727208Y-85921078D02*
X121525126Y-87123159D01*
X122939340Y-88537373D02*
X124070711Y-87406002D01*
X124848528Y-83799050D02*
X124000000Y-84648285D01*
X125272439Y-83798697D02*
X124848528Y-83799050D01*
X125414214Y-86062499D02*
X126263449Y-85213971D01*
X126263449Y-85213971D02*
X126263802Y-84790060D01*
X126263802Y-84790060D02*
X125272439Y-83798697D01*
%TO.C,D59*%
X106525126Y-97060660D02*
X107939340Y-98474874D01*
X107727208Y-95858579D02*
X106525126Y-97060660D01*
X107939340Y-98474874D02*
X109070711Y-97343503D01*
X109848528Y-93736551D02*
X109000000Y-94585786D01*
X110272439Y-93736198D02*
X109848528Y-93736551D01*
X110414214Y-96000000D02*
X111263449Y-95151472D01*
X111263449Y-95151472D02*
X111263802Y-94727561D01*
X111263802Y-94727561D02*
X110272439Y-93736198D01*
%TO.C,D44*%
X101525126Y-87123159D02*
X102939340Y-88537373D01*
X102727208Y-85921078D02*
X101525126Y-87123159D01*
X102939340Y-88537373D02*
X104070711Y-87406002D01*
X104848528Y-83799050D02*
X104000000Y-84648285D01*
X105272439Y-83798697D02*
X104848528Y-83799050D01*
X105414214Y-86062499D02*
X106263449Y-85213971D01*
X106263449Y-85213971D02*
X106263802Y-84790060D01*
X106263802Y-84790060D02*
X105272439Y-83798697D01*
%TO.C,D52*%
X101525126Y-92123159D02*
X102939340Y-93537373D01*
X102727208Y-90921078D02*
X101525126Y-92123159D01*
X102939340Y-93537373D02*
X104070711Y-92406002D01*
X104848528Y-88799050D02*
X104000000Y-89648285D01*
X105272439Y-88798697D02*
X104848528Y-88799050D01*
X105414214Y-91062499D02*
X106263449Y-90213971D01*
X106263449Y-90213971D02*
X106263802Y-89790060D01*
X106263802Y-89790060D02*
X105272439Y-88798697D01*
%TO.C,D3*%
X106525126Y-62060660D02*
X107939340Y-63474874D01*
X107727208Y-60858579D02*
X106525126Y-62060660D01*
X107939340Y-63474874D02*
X109070711Y-62343503D01*
X109848528Y-58736551D02*
X109000000Y-59585786D01*
X110272439Y-58736198D02*
X109848528Y-58736551D01*
X110414214Y-61000000D02*
X111263449Y-60151472D01*
X111263449Y-60151472D02*
X111263802Y-59727561D01*
X111263802Y-59727561D02*
X110272439Y-58736198D01*
%TO.C,D49*%
X116525126Y-92060660D02*
X117939340Y-93474874D01*
X117727208Y-90858579D02*
X116525126Y-92060660D01*
X117939340Y-93474874D02*
X119070711Y-92343503D01*
X119848528Y-88736551D02*
X119000000Y-89585786D01*
X120272439Y-88736198D02*
X119848528Y-88736551D01*
X120414214Y-91000000D02*
X121263449Y-90151472D01*
X121263449Y-90151472D02*
X121263802Y-89727561D01*
X121263802Y-89727561D02*
X120272439Y-88736198D01*
%TO.C,D23*%
X126525126Y-72060660D02*
X127939340Y-73474874D01*
X127727208Y-70858579D02*
X126525126Y-72060660D01*
X127939340Y-73474874D02*
X129070711Y-72343503D01*
X129848528Y-68736551D02*
X129000000Y-69585786D01*
X130272439Y-68736198D02*
X129848528Y-68736551D01*
X130414214Y-71000000D02*
X131263449Y-70151472D01*
X131263449Y-70151472D02*
X131263802Y-69727561D01*
X131263802Y-69727561D02*
X130272439Y-68736198D01*
D13*
%TO.C,U2*%
X81640000Y-47640000D02*
X81640000Y-48090000D01*
X81640000Y-54860000D02*
X81640000Y-54410000D01*
X82090000Y-47640000D02*
X81640000Y-47640000D01*
X82090000Y-54860000D02*
X81640000Y-54860000D01*
X88410000Y-47640000D02*
X88860000Y-47640000D01*
X88410000Y-54860000D02*
X88860000Y-54860000D01*
X88860000Y-47640000D02*
X88860000Y-48090000D01*
X88860000Y-54860000D02*
X88860000Y-54410000D01*
X82090000Y-47050000D02*
X81620000Y-47390000D01*
X81620000Y-46710000D01*
X82090000Y-47050000D01*
G36*
X82090000Y-47050000D02*
G01*
X81620000Y-47390000D01*
X81620000Y-46710000D01*
X82090000Y-47050000D01*
G37*
D12*
%TO.C,D5*%
X96525126Y-62060660D02*
X97939340Y-63474874D01*
X97727208Y-60858579D02*
X96525126Y-62060660D01*
X97939340Y-63474874D02*
X99070711Y-62343503D01*
X99848528Y-58736551D02*
X99000000Y-59585786D01*
X100272439Y-58736198D02*
X99848528Y-58736551D01*
X100414214Y-61000000D02*
X101263449Y-60151472D01*
X101263449Y-60151472D02*
X101263802Y-59727561D01*
X101263802Y-59727561D02*
X100272439Y-58736198D01*
%TO.C,D50*%
X111525126Y-92060660D02*
X112939340Y-93474874D01*
X112727208Y-90858579D02*
X111525126Y-92060660D01*
X112939340Y-93474874D02*
X114070711Y-92343503D01*
X114848528Y-88736551D02*
X114000000Y-89585786D01*
X115272439Y-88736198D02*
X114848528Y-88736551D01*
X115414214Y-91000000D02*
X116263449Y-90151472D01*
X116263449Y-90151472D02*
X116263802Y-89727561D01*
X116263802Y-89727561D02*
X115272439Y-88736198D01*
%TO.C,D61*%
X96525126Y-97060660D02*
X97939340Y-98474874D01*
X97727208Y-95858579D02*
X96525126Y-97060660D01*
X97939340Y-98474874D02*
X99070711Y-97343503D01*
X99848528Y-93736551D02*
X99000000Y-94585786D01*
X100272439Y-93736198D02*
X99848528Y-93736551D01*
X100414214Y-96000000D02*
X101263449Y-95151472D01*
X101263449Y-95151472D02*
X101263802Y-94727561D01*
X101263802Y-94727561D02*
X100272439Y-93736198D01*
%TO.C,D46*%
X91525126Y-87060660D02*
X92939340Y-88474874D01*
X92727208Y-85858579D02*
X91525126Y-87060660D01*
X92939340Y-88474874D02*
X94070711Y-87343503D01*
X94848528Y-83736551D02*
X94000000Y-84585786D01*
X95272439Y-83736198D02*
X94848528Y-83736551D01*
X95414214Y-86000000D02*
X96263449Y-85151472D01*
X96263449Y-85151472D02*
X96263802Y-84727561D01*
X96263802Y-84727561D02*
X95272439Y-83736198D01*
%TO.C,D56*%
X121525126Y-92123159D02*
X122939340Y-93537373D01*
X122727208Y-90921078D02*
X121525126Y-92123159D01*
X122939340Y-93537373D02*
X124070711Y-92406002D01*
X124848528Y-88799050D02*
X124000000Y-89648285D01*
X125272439Y-88798697D02*
X124848528Y-88799050D01*
X125414214Y-91062499D02*
X126263449Y-90213971D01*
X126263449Y-90213971D02*
X126263802Y-89790060D01*
X126263802Y-89790060D02*
X125272439Y-88798697D01*
%TO.C,D29*%
X96525126Y-77060660D02*
X97939340Y-78474874D01*
X97727208Y-75858579D02*
X96525126Y-77060660D01*
X97939340Y-78474874D02*
X99070711Y-77343503D01*
X99848528Y-73736551D02*
X99000000Y-74585786D01*
X100272439Y-73736198D02*
X99848528Y-73736551D01*
X100414214Y-76000000D02*
X101263449Y-75151472D01*
X101263449Y-75151472D02*
X101263802Y-74727561D01*
X101263802Y-74727561D02*
X100272439Y-73736198D01*
D13*
%TO.C,C10*%
X86407836Y-44915000D02*
X86192164Y-44915000D01*
X86407836Y-45635000D02*
X86192164Y-45635000D01*
D12*
%TO.C,D38*%
X91525126Y-82060660D02*
X92939340Y-83474874D01*
X92727208Y-80858579D02*
X91525126Y-82060660D01*
X92939340Y-83474874D02*
X94070711Y-82343503D01*
X94848528Y-78736551D02*
X94000000Y-79585786D01*
X95272439Y-78736198D02*
X94848528Y-78736551D01*
X95414214Y-81000000D02*
X96263449Y-80151472D01*
X96263449Y-80151472D02*
X96263802Y-79727561D01*
X96263802Y-79727561D02*
X95272439Y-78736198D01*
D13*
%TO.C,R12*%
X77687258Y-60577500D02*
X77212742Y-60577500D01*
X77687258Y-61622500D02*
X77212742Y-61622500D01*
D12*
%TO.C,D2*%
X111525126Y-62060660D02*
X112939340Y-63474874D01*
X112727208Y-60858579D02*
X111525126Y-62060660D01*
X112939340Y-63474874D02*
X114070711Y-62343503D01*
X114848528Y-58736551D02*
X114000000Y-59585786D01*
X115272439Y-58736198D02*
X114848528Y-58736551D01*
X115414214Y-61000000D02*
X116263449Y-60151472D01*
X116263449Y-60151472D02*
X116263802Y-59727561D01*
X116263802Y-59727561D02*
X115272439Y-58736198D01*
%TO.C,D55*%
X126525126Y-92060660D02*
X127939340Y-93474874D01*
X127727208Y-90858579D02*
X126525126Y-92060660D01*
X127939340Y-93474874D02*
X129070711Y-92343503D01*
X129848528Y-88736551D02*
X129000000Y-89585786D01*
X130272439Y-88736198D02*
X129848528Y-88736551D01*
X130414214Y-91000000D02*
X131263449Y-90151472D01*
X131263449Y-90151472D02*
X131263802Y-89727561D01*
X131263802Y-89727561D02*
X130272439Y-88736198D01*
%TO.C,D40*%
X121525126Y-82123159D02*
X122939340Y-83537373D01*
X122727208Y-80921078D02*
X121525126Y-82123159D01*
X122939340Y-83537373D02*
X124070711Y-82406002D01*
X124848528Y-78799050D02*
X124000000Y-79648285D01*
X125272439Y-78798697D02*
X124848528Y-78799050D01*
X125414214Y-81062499D02*
X126263449Y-80213971D01*
X126263449Y-80213971D02*
X126263802Y-79790060D01*
X126263802Y-79790060D02*
X125272439Y-78798697D01*
%TO.C,D41*%
X116525126Y-87060660D02*
X117939340Y-88474874D01*
X117727208Y-85858579D02*
X116525126Y-87060660D01*
X117939340Y-88474874D02*
X119070711Y-87343503D01*
X119848528Y-83736551D02*
X119000000Y-84585786D01*
X120272439Y-83736198D02*
X119848528Y-83736551D01*
X120414214Y-86000000D02*
X121263449Y-85151472D01*
X121263449Y-85151472D02*
X121263802Y-84727561D01*
X121263802Y-84727561D02*
X120272439Y-83736198D01*
%TO.C,D1*%
X116525126Y-62060660D02*
X117939340Y-63474874D01*
X117727208Y-60858579D02*
X116525126Y-62060660D01*
X117939340Y-63474874D02*
X119070711Y-62343503D01*
X119848528Y-58736551D02*
X119000000Y-59585786D01*
X120272439Y-58736198D02*
X119848528Y-58736551D01*
X120414214Y-61000000D02*
X121263449Y-60151472D01*
X121263449Y-60151472D02*
X121263802Y-59727561D01*
X121263802Y-59727561D02*
X120272439Y-58736198D01*
%TO.C,D11*%
X106525126Y-67060660D02*
X107939340Y-68474874D01*
X107727208Y-65858579D02*
X106525126Y-67060660D01*
X107939340Y-68474874D02*
X109070711Y-67343503D01*
X109848528Y-63736551D02*
X109000000Y-64585786D01*
X110272439Y-63736198D02*
X109848528Y-63736551D01*
X110414214Y-66000000D02*
X111263449Y-65151472D01*
X111263449Y-65151472D02*
X111263802Y-64727561D01*
X111263802Y-64727561D02*
X110272439Y-63736198D01*
%TO.C,D10*%
X111525126Y-67060660D02*
X112939340Y-68474874D01*
X112727208Y-65858579D02*
X111525126Y-67060660D01*
X112939340Y-68474874D02*
X114070711Y-67343503D01*
X114848528Y-63736551D02*
X114000000Y-64585786D01*
X115272439Y-63736198D02*
X114848528Y-63736551D01*
X115414214Y-66000000D02*
X116263449Y-65151472D01*
X116263449Y-65151472D02*
X116263802Y-64727561D01*
X116263802Y-64727561D02*
X115272439Y-63736198D01*
%TO.C,D42*%
X111525126Y-87060660D02*
X112939340Y-88474874D01*
X112727208Y-85858579D02*
X111525126Y-87060660D01*
X112939340Y-88474874D02*
X114070711Y-87343503D01*
X114848528Y-83736551D02*
X114000000Y-84585786D01*
X115272439Y-83736198D02*
X114848528Y-83736551D01*
X115414214Y-86000000D02*
X116263449Y-85151472D01*
X116263449Y-85151472D02*
X116263802Y-84727561D01*
X116263802Y-84727561D02*
X115272439Y-83736198D01*
%TO.C,D31*%
X126525126Y-77060660D02*
X127939340Y-78474874D01*
X127727208Y-75858579D02*
X126525126Y-77060660D01*
X127939340Y-78474874D02*
X129070711Y-77343503D01*
X129848528Y-73736551D02*
X129000000Y-74585786D01*
X130272439Y-73736198D02*
X129848528Y-73736551D01*
X130414214Y-76000000D02*
X131263449Y-75151472D01*
X131263449Y-75151472D02*
X131263802Y-74727561D01*
X131263802Y-74727561D02*
X130272439Y-73736198D01*
D13*
%TO.C,C11*%
X87015580Y-43440000D02*
X86734420Y-43440000D01*
X87015580Y-44460000D02*
X86734420Y-44460000D01*
D12*
%TO.C,D20*%
X101525126Y-72123159D02*
X102939340Y-73537373D01*
X102727208Y-70921078D02*
X101525126Y-72123159D01*
X102939340Y-73537373D02*
X104070711Y-72406002D01*
X104848528Y-68799050D02*
X104000000Y-69648285D01*
X105272439Y-68798697D02*
X104848528Y-68799050D01*
X105414214Y-71062499D02*
X106263449Y-70213971D01*
X106263449Y-70213971D02*
X106263802Y-69790060D01*
X106263802Y-69790060D02*
X105272439Y-68798697D01*
%TO.C,D47*%
X126525126Y-87060660D02*
X127939340Y-88474874D01*
X127727208Y-85858579D02*
X126525126Y-87060660D01*
X127939340Y-88474874D02*
X129070711Y-87343503D01*
X129848528Y-83736551D02*
X129000000Y-84585786D01*
X130272439Y-83736198D02*
X129848528Y-83736551D01*
X130414214Y-86000000D02*
X131263449Y-85151472D01*
X131263449Y-85151472D02*
X131263802Y-84727561D01*
X131263802Y-84727561D02*
X130272439Y-83736198D01*
%TO.C,D39*%
X126525126Y-82060660D02*
X127939340Y-83474874D01*
X127727208Y-80858579D02*
X126525126Y-82060660D01*
X127939340Y-83474874D02*
X129070711Y-82343503D01*
X129848528Y-78736551D02*
X129000000Y-79585786D01*
X130272439Y-78736198D02*
X129848528Y-78736551D01*
X130414214Y-81000000D02*
X131263449Y-80151472D01*
X131263449Y-80151472D02*
X131263802Y-79727561D01*
X131263802Y-79727561D02*
X130272439Y-78736198D01*
%TO.C,D35*%
X106525126Y-82060660D02*
X107939340Y-83474874D01*
X107727208Y-80858579D02*
X106525126Y-82060660D01*
X107939340Y-83474874D02*
X109070711Y-82343503D01*
X109848528Y-78736551D02*
X109000000Y-79585786D01*
X110272439Y-78736198D02*
X109848528Y-78736551D01*
X110414214Y-81000000D02*
X111263449Y-80151472D01*
X111263449Y-80151472D02*
X111263802Y-79727561D01*
X111263802Y-79727561D02*
X110272439Y-78736198D01*
D13*
%TO.C,J1*%
X140730000Y-174320000D02*
X140730000Y-174955000D01*
X140730000Y-174955000D02*
X140095000Y-174955000D01*
D12*
%TO.C,D15*%
X126525126Y-67060660D02*
X127939340Y-68474874D01*
X127727208Y-65858579D02*
X126525126Y-67060660D01*
X127939340Y-68474874D02*
X129070711Y-67343503D01*
X129848528Y-63736551D02*
X129000000Y-64585786D01*
X130272439Y-63736198D02*
X129848528Y-63736551D01*
X130414214Y-66000000D02*
X131263449Y-65151472D01*
X131263449Y-65151472D02*
X131263802Y-64727561D01*
X131263802Y-64727561D02*
X130272439Y-63736198D01*
%TO.C,D25*%
X116525126Y-77060660D02*
X117939340Y-78474874D01*
X117727208Y-75858579D02*
X116525126Y-77060660D01*
X117939340Y-78474874D02*
X119070711Y-77343503D01*
X119848528Y-73736551D02*
X119000000Y-74585786D01*
X120272439Y-73736198D02*
X119848528Y-73736551D01*
X120414214Y-76000000D02*
X121263449Y-75151472D01*
X121263449Y-75151472D02*
X121263802Y-74727561D01*
X121263802Y-74727561D02*
X120272439Y-73736198D01*
%TO.C,D64*%
X121525126Y-97123159D02*
X122939340Y-98537373D01*
X122727208Y-95921078D02*
X121525126Y-97123159D01*
X122939340Y-98537373D02*
X124070711Y-97406002D01*
X124848528Y-93799050D02*
X124000000Y-94648285D01*
X125272439Y-93798697D02*
X124848528Y-93799050D01*
X125414214Y-96062499D02*
X126263449Y-95213971D01*
X126263449Y-95213971D02*
X126263802Y-94790060D01*
X126263802Y-94790060D02*
X125272439Y-93798697D01*
%TO.C,D60*%
X101525126Y-97123159D02*
X102939340Y-98537373D01*
X102727208Y-95921078D02*
X101525126Y-97123159D01*
X102939340Y-98537373D02*
X104070711Y-97406002D01*
X104848528Y-93799050D02*
X104000000Y-94648285D01*
X105272439Y-93798697D02*
X104848528Y-93799050D01*
X105414214Y-96062499D02*
X106263449Y-95213971D01*
X106263449Y-95213971D02*
X106263802Y-94790060D01*
X106263802Y-94790060D02*
X105272439Y-93798697D01*
%TO.C,D4*%
X101525126Y-62123159D02*
X102939340Y-63537373D01*
X102727208Y-60921078D02*
X101525126Y-62123159D01*
X102939340Y-63537373D02*
X104070711Y-62406002D01*
X104848528Y-58799050D02*
X104000000Y-59648285D01*
X105272439Y-58798697D02*
X104848528Y-58799050D01*
X105414214Y-61062499D02*
X106263449Y-60213971D01*
X106263449Y-60213971D02*
X106263802Y-59790060D01*
X106263802Y-59790060D02*
X105272439Y-58798697D01*
%TO.C,D36*%
X101525126Y-82123159D02*
X102939340Y-83537373D01*
X102727208Y-80921078D02*
X101525126Y-82123159D01*
X102939340Y-83537373D02*
X104070711Y-82406002D01*
X104848528Y-78799050D02*
X104000000Y-79648285D01*
X105272439Y-78798697D02*
X104848528Y-78799050D01*
X105414214Y-81062499D02*
X106263449Y-80213971D01*
X106263449Y-80213971D02*
X106263802Y-79790060D01*
X106263802Y-79790060D02*
X105272439Y-78798697D01*
%TO.C,D62*%
X91525126Y-97060660D02*
X92939340Y-98474874D01*
X92727208Y-95858579D02*
X91525126Y-97060660D01*
X92939340Y-98474874D02*
X94070711Y-97343503D01*
X94848528Y-93736551D02*
X94000000Y-94585786D01*
X95272439Y-93736198D02*
X94848528Y-93736551D01*
X95414214Y-96000000D02*
X96263449Y-95151472D01*
X96263449Y-95151472D02*
X96263802Y-94727561D01*
X96263802Y-94727561D02*
X95272439Y-93736198D01*
%TO.C,D14*%
X91525126Y-67060660D02*
X92939340Y-68474874D01*
X92727208Y-65858579D02*
X91525126Y-67060660D01*
X92939340Y-68474874D02*
X94070711Y-67343503D01*
X94848528Y-63736551D02*
X94000000Y-64585786D01*
X95272439Y-63736198D02*
X94848528Y-63736551D01*
X95414214Y-66000000D02*
X96263449Y-65151472D01*
X96263449Y-65151472D02*
X96263802Y-64727561D01*
X96263802Y-64727561D02*
X95272439Y-63736198D01*
%TO.C,D17*%
X116525126Y-72060660D02*
X117939340Y-73474874D01*
X117727208Y-70858579D02*
X116525126Y-72060660D01*
X117939340Y-73474874D02*
X119070711Y-72343503D01*
X119848528Y-68736551D02*
X119000000Y-69585786D01*
X120272439Y-68736198D02*
X119848528Y-68736551D01*
X120414214Y-71000000D02*
X121263449Y-70151472D01*
X121263449Y-70151472D02*
X121263802Y-69727561D01*
X121263802Y-69727561D02*
X120272439Y-68736198D01*
%TO.C,D57*%
X116525126Y-97060660D02*
X117939340Y-98474874D01*
X117727208Y-95858579D02*
X116525126Y-97060660D01*
X117939340Y-98474874D02*
X119070711Y-97343503D01*
X119848528Y-93736551D02*
X119000000Y-94585786D01*
X120272439Y-93736198D02*
X119848528Y-93736551D01*
X120414214Y-96000000D02*
X121263449Y-95151472D01*
X121263449Y-95151472D02*
X121263802Y-94727561D01*
X121263802Y-94727561D02*
X120272439Y-93736198D01*
%TO.C,D32*%
X121525126Y-77123159D02*
X122939340Y-78537373D01*
X122727208Y-75921078D02*
X121525126Y-77123159D01*
X122939340Y-78537373D02*
X124070711Y-77406002D01*
X124848528Y-73799050D02*
X124000000Y-74648285D01*
X125272439Y-73798697D02*
X124848528Y-73799050D01*
X125414214Y-76062499D02*
X126263449Y-75213971D01*
X126263449Y-75213971D02*
X126263802Y-74790060D01*
X126263802Y-74790060D02*
X125272439Y-73798697D01*
D13*
%TO.C,C7*%
X89132836Y-44890000D02*
X88917164Y-44890000D01*
X89132836Y-45610000D02*
X88917164Y-45610000D01*
D12*
%TO.C,D28*%
X101525126Y-77123159D02*
X102939340Y-78537373D01*
X102727208Y-75921078D02*
X101525126Y-77123159D01*
X102939340Y-78537373D02*
X104070711Y-77406002D01*
X104848528Y-73799050D02*
X104000000Y-74648285D01*
X105272439Y-73798697D02*
X104848528Y-73799050D01*
X105414214Y-76062499D02*
X106263449Y-75213971D01*
X106263449Y-75213971D02*
X106263802Y-74790060D01*
X106263802Y-74790060D02*
X105272439Y-73798697D01*
D13*
%TO.C,C9*%
X83490000Y-44667164D02*
X83490000Y-44882836D01*
X84210000Y-44667164D02*
X84210000Y-44882836D01*
D12*
%TO.C,D7*%
X126525126Y-62060660D02*
X127939340Y-63474874D01*
X127727208Y-60858579D02*
X126525126Y-62060660D01*
X127939340Y-63474874D02*
X129070711Y-62343503D01*
X129848528Y-58736551D02*
X129000000Y-59585786D01*
X130272439Y-58736198D02*
X129848528Y-58736551D01*
X130414214Y-61000000D02*
X131263449Y-60151472D01*
X131263449Y-60151472D02*
X131263802Y-59727561D01*
X131263802Y-59727561D02*
X130272439Y-58736198D01*
D13*
%TO.C,Y1*%
X78875000Y-46325000D02*
X78875000Y-44975000D01*
X80625000Y-46325000D02*
X80625000Y-44975000D01*
D12*
%TO.C,D37*%
X96525126Y-82060660D02*
X97939340Y-83474874D01*
X97727208Y-80858579D02*
X96525126Y-82060660D01*
X97939340Y-83474874D02*
X99070711Y-82343503D01*
X99848528Y-78736551D02*
X99000000Y-79585786D01*
X100272439Y-78736198D02*
X99848528Y-78736551D01*
X100414214Y-81000000D02*
X101263449Y-80151472D01*
X101263449Y-80151472D02*
X101263802Y-79727561D01*
X101263802Y-79727561D02*
X100272439Y-78736198D01*
%TO.C,D54*%
X91525126Y-92060660D02*
X92939340Y-93474874D01*
X92727208Y-90858579D02*
X91525126Y-92060660D01*
X92939340Y-93474874D02*
X94070711Y-92343503D01*
X94848528Y-88736551D02*
X94000000Y-89585786D01*
X95272439Y-88736198D02*
X94848528Y-88736551D01*
X95414214Y-91000000D02*
X96263449Y-90151472D01*
X96263449Y-90151472D02*
X96263802Y-89727561D01*
X96263802Y-89727561D02*
X95272439Y-88736198D01*
%TO.C,D58*%
X111525126Y-97060660D02*
X112939340Y-98474874D01*
X112727208Y-95858579D02*
X111525126Y-97060660D01*
X112939340Y-98474874D02*
X114070711Y-97343503D01*
X114848528Y-93736551D02*
X114000000Y-94585786D01*
X115272439Y-93736198D02*
X114848528Y-93736551D01*
X115414214Y-96000000D02*
X116263449Y-95151472D01*
X116263449Y-95151472D02*
X116263802Y-94727561D01*
X116263802Y-94727561D02*
X115272439Y-93736198D01*
D14*
%TO.C,LS1*%
X62500000Y-44500000D02*
X62500000Y-56500000D01*
X62500000Y-56500000D02*
X65769000Y-56500000D01*
X65769000Y-44500000D02*
X62500000Y-44500000D01*
X71231000Y-56500000D02*
X74500000Y-56500000D01*
X73600000Y-47965000D02*
X74500000Y-47965000D01*
X73600000Y-53000000D02*
X73600000Y-47965000D01*
X74500000Y-44500000D02*
X71231000Y-44500000D01*
X74500000Y-53000000D02*
X73600000Y-53000000D01*
X74500000Y-56500000D02*
X74500000Y-44500000D01*
X73627500Y-57900000D02*
G75*
G02*
X71972500Y-57900000I-827500J0D01*
G01*
X71972500Y-57900000D02*
G75*
G02*
X73627500Y-57900000I827500J0D01*
G01*
D13*
%TO.C,R9*%
X76862258Y-62927500D02*
X76387742Y-62927500D01*
X76862258Y-63972500D02*
X76387742Y-63972500D01*
D12*
%TO.C,D63*%
X126525126Y-97060660D02*
X127939340Y-98474874D01*
X127727208Y-95858579D02*
X126525126Y-97060660D01*
X127939340Y-98474874D02*
X129070711Y-97343503D01*
X129848528Y-93736551D02*
X129000000Y-94585786D01*
X130272439Y-93736198D02*
X129848528Y-93736551D01*
X130414214Y-96000000D02*
X131263449Y-95151472D01*
X131263449Y-95151472D02*
X131263802Y-94727561D01*
X131263802Y-94727561D02*
X130272439Y-93736198D01*
%TO.C,D6*%
X91525126Y-62060660D02*
X92939340Y-63474874D01*
X92727208Y-60858579D02*
X91525126Y-62060660D01*
X92939340Y-63474874D02*
X94070711Y-62343503D01*
X94848528Y-58736551D02*
X94000000Y-59585786D01*
X95272439Y-58736198D02*
X94848528Y-58736551D01*
X95414214Y-61000000D02*
X96263449Y-60151472D01*
X96263449Y-60151472D02*
X96263802Y-59727561D01*
X96263802Y-59727561D02*
X95272439Y-58736198D01*
%TO.C,D27*%
X106525126Y-77060660D02*
X107939340Y-78474874D01*
X107727208Y-75858579D02*
X106525126Y-77060660D01*
X107939340Y-78474874D02*
X109070711Y-77343503D01*
X109848528Y-73736551D02*
X109000000Y-74585786D01*
X110272439Y-73736198D02*
X109848528Y-73736551D01*
X110414214Y-76000000D02*
X111263449Y-75151472D01*
X111263449Y-75151472D02*
X111263802Y-74727561D01*
X111263802Y-74727561D02*
X110272439Y-73736198D01*
%TO.C,D18*%
X111525126Y-72060660D02*
X112939340Y-73474874D01*
X112727208Y-70858579D02*
X111525126Y-72060660D01*
X112939340Y-73474874D02*
X114070711Y-72343503D01*
X114848528Y-68736551D02*
X114000000Y-69585786D01*
X115272439Y-68736198D02*
X114848528Y-68736551D01*
X115414214Y-71000000D02*
X116263449Y-70151472D01*
X116263449Y-70151472D02*
X116263802Y-69727561D01*
X116263802Y-69727561D02*
X115272439Y-68736198D01*
%TO.C,D24*%
X121525126Y-72123159D02*
X122939340Y-73537373D01*
X122727208Y-70921078D02*
X121525126Y-72123159D01*
X122939340Y-73537373D02*
X124070711Y-72406002D01*
X124848528Y-68799050D02*
X124000000Y-69648285D01*
X125272439Y-68798697D02*
X124848528Y-68799050D01*
X125414214Y-71062499D02*
X126263449Y-70213971D01*
X126263449Y-70213971D02*
X126263802Y-69790060D01*
X126263802Y-69790060D02*
X125272439Y-68798697D01*
%TO.C,D12*%
X101525126Y-67123159D02*
X102939340Y-68537373D01*
X102727208Y-65921078D02*
X101525126Y-67123159D01*
X102939340Y-68537373D02*
X104070711Y-67406002D01*
X104848528Y-63799050D02*
X104000000Y-64648285D01*
X105272439Y-63798697D02*
X104848528Y-63799050D01*
X105414214Y-66062499D02*
X106263449Y-65213971D01*
X106263449Y-65213971D02*
X106263802Y-64790060D01*
X106263802Y-64790060D02*
X105272439Y-63798697D01*
%TO.C,D34*%
X111525126Y-82060660D02*
X112939340Y-83474874D01*
X112727208Y-80858579D02*
X111525126Y-82060660D01*
X112939340Y-83474874D02*
X114070711Y-82343503D01*
X114848528Y-78736551D02*
X114000000Y-79585786D01*
X115272439Y-78736198D02*
X114848528Y-78736551D01*
X115414214Y-81000000D02*
X116263449Y-80151472D01*
X116263449Y-80151472D02*
X116263802Y-79727561D01*
X116263802Y-79727561D02*
X115272439Y-78736198D01*
%TO.C,D8*%
X121525126Y-62123159D02*
X122939340Y-63537373D01*
X122727208Y-60921078D02*
X121525126Y-62123159D01*
X122939340Y-63537373D02*
X124070711Y-62406002D01*
X124848528Y-58799050D02*
X124000000Y-59648285D01*
X125272439Y-58798697D02*
X124848528Y-58799050D01*
X125414214Y-61062499D02*
X126263449Y-60213971D01*
X126263449Y-60213971D02*
X126263802Y-59790060D01*
X126263802Y-59790060D02*
X125272439Y-58798697D01*
%TO.C,D9*%
X116525126Y-67060660D02*
X117939340Y-68474874D01*
X117727208Y-65858579D02*
X116525126Y-67060660D01*
X117939340Y-68474874D02*
X119070711Y-67343503D01*
X119848528Y-63736551D02*
X119000000Y-64585786D01*
X120272439Y-63736198D02*
X119848528Y-63736551D01*
X120414214Y-66000000D02*
X121263449Y-65151472D01*
X121263449Y-65151472D02*
X121263802Y-64727561D01*
X121263802Y-64727561D02*
X120272439Y-63736198D01*
D13*
%TO.C,C8*%
X84490000Y-44667164D02*
X84490000Y-44882836D01*
X85210000Y-44667164D02*
X85210000Y-44882836D01*
%TO.C,R13*%
X78337258Y-58077500D02*
X77862742Y-58077500D01*
X78337258Y-59122500D02*
X77862742Y-59122500D01*
D12*
%TO.C,D33*%
X116525126Y-82060660D02*
X117939340Y-83474874D01*
X117727208Y-80858579D02*
X116525126Y-82060660D01*
X117939340Y-83474874D02*
X119070711Y-82343503D01*
X119848528Y-78736551D02*
X119000000Y-79585786D01*
X120272439Y-78736198D02*
X119848528Y-78736551D01*
X120414214Y-81000000D02*
X121263449Y-80151472D01*
X121263449Y-80151472D02*
X121263802Y-79727561D01*
X121263802Y-79727561D02*
X120272439Y-78736198D01*
D13*
%TO.C,C5*%
X77242164Y-44040000D02*
X77457836Y-44040000D01*
X77242164Y-44760000D02*
X77457836Y-44760000D01*
D12*
%TO.C,D19*%
X106525126Y-72060660D02*
X107939340Y-73474874D01*
X107727208Y-70858579D02*
X106525126Y-72060660D01*
X107939340Y-73474874D02*
X109070711Y-72343503D01*
X109848528Y-68736551D02*
X109000000Y-69585786D01*
X110272439Y-68736198D02*
X109848528Y-68736551D01*
X110414214Y-71000000D02*
X111263449Y-70151472D01*
X111263449Y-70151472D02*
X111263802Y-69727561D01*
X111263802Y-69727561D02*
X110272439Y-68736198D01*
D15*
%TO.C,BT1*%
X94749999Y-37920000D02*
X94750000Y-36500000D01*
X94749999Y-42080000D02*
X94750000Y-43500000D01*
D16*
X97874000Y-31924001D02*
X120126000Y-31924001D01*
D15*
X97874000Y-33385500D02*
X99335500Y-31924000D01*
X97874000Y-36500000D02*
X94750000Y-36500000D01*
D16*
X97874000Y-38017000D02*
X97874000Y-31924001D01*
X97874000Y-41983000D02*
X97874000Y-48075999D01*
D15*
X97874000Y-42057000D02*
X97874000Y-38017000D01*
X97874000Y-43500000D02*
X94750000Y-43500000D01*
D16*
X97874000Y-48075999D02*
X120126000Y-48075999D01*
D15*
X98700000Y-46650000D02*
X99800001Y-46650000D01*
X99250000Y-46099999D02*
X99250000Y-47200000D01*
X99335500Y-31924000D02*
X99360000Y-31924000D01*
X119300000Y-33350000D02*
X118199999Y-33350000D01*
X120126500Y-36500000D02*
X123250000Y-36500000D01*
X120126500Y-43500000D02*
X123250000Y-43500000D01*
X120650000Y-31926499D02*
X120800000Y-31926499D01*
X120650000Y-48075999D02*
X120650000Y-31926499D01*
D16*
X120800000Y-48052499D02*
X120800000Y-31949999D01*
D15*
X120800000Y-48075999D02*
X120650000Y-48075999D01*
X123250001Y-37920000D02*
X123250000Y-36500000D01*
X123250001Y-42080000D02*
X123250000Y-43500000D01*
X103103500Y-48076500D02*
G75*
G02*
X103095000Y-31929500I5896292J8076606D01*
G01*
X114896500Y-31923500D02*
G75*
G02*
X114905000Y-48070500I-5896292J-8076606D01*
G01*
X100168000Y-46650000D02*
G75*
G02*
X98332000Y-46650000I-918000J0D01*
G01*
X98332000Y-46650000D02*
G75*
G02*
X100168000Y-46650000I918000J0D01*
G01*
X119668000Y-33350000D02*
G75*
G02*
X117832000Y-33350000I-918000J0D01*
G01*
X117832000Y-33350000D02*
G75*
G02*
X119668000Y-33350000I918000J0D01*
G01*
D17*
G36*
X97874000Y-33396000D02*
G01*
X97874000Y-31924001D01*
X99348000Y-31924000D01*
X97874000Y-33396000D01*
G37*
G36*
X120355000Y-48152501D02*
G01*
X120050000Y-48152500D01*
X120050000Y-41932500D01*
X120355000Y-41932499D01*
X120355000Y-48152501D01*
G37*
G36*
X120355000Y-38067501D02*
G01*
X120350000Y-42000001D01*
X120050000Y-41950000D01*
X120050000Y-31847500D01*
X120355000Y-31847499D01*
X120355000Y-38067501D01*
G37*
D12*
%TO.C,D30*%
X91525126Y-77060660D02*
X92939340Y-78474874D01*
X92727208Y-75858579D02*
X91525126Y-77060660D01*
X92939340Y-78474874D02*
X94070711Y-77343503D01*
X94848528Y-73736551D02*
X94000000Y-74585786D01*
X95272439Y-73736198D02*
X94848528Y-73736551D01*
X95414214Y-76000000D02*
X96263449Y-75151472D01*
X96263449Y-75151472D02*
X96263802Y-74727561D01*
X96263802Y-74727561D02*
X95272439Y-73736198D01*
%TO.C,D45*%
X96525126Y-87060660D02*
X97939340Y-88474874D01*
X97727208Y-85858579D02*
X96525126Y-87060660D01*
X97939340Y-88474874D02*
X99070711Y-87343503D01*
X99848528Y-83736551D02*
X99000000Y-84585786D01*
X100272439Y-83736198D02*
X99848528Y-83736551D01*
X100414214Y-86000000D02*
X101263449Y-85151472D01*
X101263449Y-85151472D02*
X101263802Y-84727561D01*
X101263802Y-84727561D02*
X100272439Y-83736198D01*
%TO.C,D53*%
X96525126Y-92060660D02*
X97939340Y-93474874D01*
X97727208Y-90858579D02*
X96525126Y-92060660D01*
X97939340Y-93474874D02*
X99070711Y-92343503D01*
X99848528Y-88736551D02*
X99000000Y-89585786D01*
X100272439Y-88736198D02*
X99848528Y-88736551D01*
X100414214Y-91000000D02*
X101263449Y-90151472D01*
X101263449Y-90151472D02*
X101263802Y-89727561D01*
X101263802Y-89727561D02*
X100272439Y-88736198D01*
%TO.C,D26*%
X111525126Y-77060660D02*
X112939340Y-78474874D01*
X112727208Y-75858579D02*
X111525126Y-77060660D01*
X112939340Y-78474874D02*
X114070711Y-77343503D01*
X114848528Y-73736551D02*
X114000000Y-74585786D01*
X115272439Y-73736198D02*
X114848528Y-73736551D01*
X115414214Y-76000000D02*
X116263449Y-75151472D01*
X116263449Y-75151472D02*
X116263802Y-74727561D01*
X116263802Y-74727561D02*
X115272439Y-73736198D01*
%TO.C,D16*%
X121525126Y-67123159D02*
X122939340Y-68537373D01*
X122727208Y-65921078D02*
X121525126Y-67123159D01*
X122939340Y-68537373D02*
X124070711Y-67406002D01*
X124848528Y-63799050D02*
X124000000Y-64648285D01*
X125272439Y-63798697D02*
X124848528Y-63799050D01*
X125414214Y-66062499D02*
X126263449Y-65213971D01*
X126263449Y-65213971D02*
X126263802Y-64790060D01*
X126263802Y-64790060D02*
X125272439Y-63798697D01*
D13*
%TO.C,C6*%
X77242164Y-46540000D02*
X77457836Y-46540000D01*
X77242164Y-47260000D02*
X77457836Y-47260000D01*
D12*
%TO.C,D51*%
X106525126Y-92060660D02*
X107939340Y-93474874D01*
X107727208Y-90858579D02*
X106525126Y-92060660D01*
X107939340Y-93474874D02*
X109070711Y-92343503D01*
X109848528Y-88736551D02*
X109000000Y-89585786D01*
X110272439Y-88736198D02*
X109848528Y-88736551D01*
X110414214Y-91000000D02*
X111263449Y-90151472D01*
X111263449Y-90151472D02*
X111263802Y-89727561D01*
X111263802Y-89727561D02*
X110272439Y-88736198D01*
%TO.C,D22*%
X91525126Y-72060660D02*
X92939340Y-73474874D01*
X92727208Y-70858579D02*
X91525126Y-72060660D01*
X92939340Y-73474874D02*
X94070711Y-72343503D01*
X94848528Y-68736551D02*
X94000000Y-69585786D01*
X95272439Y-68736198D02*
X94848528Y-68736551D01*
X95414214Y-71000000D02*
X96263449Y-70151472D01*
X96263449Y-70151472D02*
X96263802Y-69727561D01*
X96263802Y-69727561D02*
X95272439Y-68736198D01*
%TO.C,D21*%
X96525126Y-72060660D02*
X97939340Y-73474874D01*
X97727208Y-70858579D02*
X96525126Y-72060660D01*
X97939340Y-73474874D02*
X99070711Y-72343503D01*
X99848528Y-68736551D02*
X99000000Y-69585786D01*
X100272439Y-68736198D02*
X99848528Y-68736551D01*
X100414214Y-71000000D02*
X101263449Y-70151472D01*
X101263449Y-70151472D02*
X101263802Y-69727561D01*
X101263802Y-69727561D02*
X100272439Y-68736198D01*
%TO.C,D13*%
X96525126Y-67060660D02*
X97939340Y-68474874D01*
X97727208Y-65858579D02*
X96525126Y-67060660D01*
X97939340Y-68474874D02*
X99070711Y-67343503D01*
X99848528Y-63736551D02*
X99000000Y-64585786D01*
X100272439Y-63736198D02*
X99848528Y-63736551D01*
X100414214Y-66000000D02*
X101263449Y-65151472D01*
X101263449Y-65151472D02*
X101263802Y-64727561D01*
X101263802Y-64727561D02*
X100272439Y-63736198D01*
%TD*%
M02*
